<?xml version="1.0" standalone="no"?>
<!DOCTYPE svg PUBLIC "-//W3C//DTD SVG 1.1//EN" "http://www.w3.org/Graphics/SVG/1.1/DTD/svg11.dtd" >
<svg xmlns="http://www.w3.org/2000/svg" xmlns:xlink="http://www.w3.org/1999/xlink" version="1.1">
<metadata>
Created by FontForge 20170731 at Thu Jun 19 23:57:29 2014
 By ,,,
Copyright (c) 2014 Indian Type Foundry (info@indiantypefoundry.com)
</metadata>
<defs>
<font id="Hind-Medium" horiz-adv-x="270" >
  <font-face 
    font-family="Hind Medium"
    font-weight="500"
    font-stretch="normal"
    units-per-em="1000"
    panose-1="2 0 0 0 0 0 0 0 0 0"
    ascent="800"
    descent="-200"
    x-height="507"
    cap-height="674"
    bbox="-561 -490 2186 1016"
    underline-thickness="50"
    underline-position="-150"
    unicode-range="U+000D-FB04"
  />
<missing-glyph horiz-adv-x="514" 
d="M2 0v701h505v-701h-505zM55 651v-601h400v601h-400zM255 302h-4l-100 -209h-60l134 260l-134 255h60l105 -206h4l100 206h60l-135 -261l135 -254h-60z" />
    <glyph glyph-name=".notdef" horiz-adv-x="514" 
d="M2 0v701h505v-701h-505zM55 651v-601h400v601h-400zM255 302h-4l-100 -209h-60l134 260l-134 255h60l105 -206h4l100 206h60l-135 -261l135 -254h-60z" />
    <glyph glyph-name=".null" horiz-adv-x="0" 
 />
    <glyph glyph-name="nonmarkingreturn" horiz-adv-x="333" 
 />
    <glyph glyph-name="NULL" horiz-adv-x="0" 
 />
    <glyph glyph-name="NULL" horiz-adv-x="0" 
 />
    <glyph glyph-name="CR" unicode="&#xd;" horiz-adv-x="0" 
 />
    <glyph glyph-name="space" unicode=" " horiz-adv-x="246" 
 />
    <glyph glyph-name="exclam" unicode="!" horiz-adv-x="262" 
d="M83 214v460h96v-460h-96zM62 60q0 29 19.5 49t48.5 20q28 0 48.5 -20.5t20.5 -48.5q0 -29 -20 -48.5t-49 -19.5t-48.5 19.5t-19.5 48.5z" />
    <glyph glyph-name="quotedbl" unicode="&#x22;" horiz-adv-x="322" 
d="M43 437v244h85v-244h-85zM194 437v244h85v-244h-85z" />
    <glyph glyph-name="numbersign" unicode="#" horiz-adv-x="723" 
d="M427 243l39 184h-166l-39 -184h166zM673 427h-121l-39 -184h113v-78h-129l-35 -165h-87l35 165h-166l-35 -165h-86l35 165h-107v78h123l38 184h-113v80h130l35 167h88l-35 -167h166l35 167h86l-35 -167h104v-80z" />
    <glyph glyph-name="dollar" unicode="$" horiz-adv-x="507" 
d="M426 647v-102q-66 42 -152 42q-55 0 -86 -24.5t-31 -64.5q0 -22 9.5 -39.5t33 -33t40 -23.5t52.5 -24q38 -17 62 -30.5t52 -36.5t41.5 -54.5t13.5 -72.5q0 -81 -51 -130.5t-136 -58.5v-107h-84v107q-82 8 -139 41v107q79 -59 183 -59q55 0 87.5 25.5t32.5 70.5
q0 11 -2 20.5t-8 18.5t-11 15.5t-16.5 14t-18 12t-22 12t-22.5 11t-26 11.5t-26 11q-73 33 -114 74t-41 113q0 79 53 128t140 57v107h85v-109q60 -9 101 -29z" />
    <glyph glyph-name="percent" unicode="%" horiz-adv-x="884" 
d="M212 -1l364 678h93l-365 -678h-92zM501 160q0 69 49 118.5t119 49.5q69 0 118 -49.5t49 -118.5q0 -70 -49 -118.5t-118 -48.5q-70 0 -119 48.5t-49 118.5zM48 520q0 69 49 118t118 49q70 0 119 -49t49 -118q0 -70 -49 -119t-119 -49q-69 0 -118 49t-49 119zM131 520
q0 -35 24.5 -60t59.5 -25t60 25t25 60t-25 59.5t-60 24.5t-59.5 -25t-24.5 -59zM584 160q0 -35 25 -60t60 -25t59.5 25t24.5 60t-24.5 60t-59.5 25t-60 -25t-25 -60z" />
    <glyph glyph-name="ampersand" unicode="&#x26;" horiz-adv-x="715" 
d="M276 290l-1 1q-59 -22 -86 -47.5t-27 -62.5q0 -47 45 -75t114 -28q79 0 138 39zM324 604q-41 0 -67 -23t-26 -64q0 -30 19 -60.5t61 -75.5q113 55 113 128q0 42 -26 68.5t-74 26.5zM712 0h-128l-59 55q-82 -63 -203 -63q-118 0 -189.5 53t-71.5 133q0 118 155 173
q-86 89 -86 166q0 79 54 126t141 47q90 0 144.5 -49.5t54.5 -128.5q0 -58 -35.5 -104t-118.5 -84l148 -142q23 42 26 95h92q-4 -88 -51 -158q29 -27 74.5 -70t52.5 -49z" />
    <glyph glyph-name="quotesingle" unicode="'" horiz-adv-x="171" 
d="M43 437v244h85v-244h-85z" />
    <glyph glyph-name="parenleft" unicode="(" horiz-adv-x="318" 
d="M331 -196h-107q-162 203 -162 457q0 250 155 446h106q-77 -100 -116.5 -217.5t-39.5 -233.5q0 -112 42 -231t122 -221z" />
    <glyph glyph-name="parenright" unicode=")" horiz-adv-x="318" 
d="M102 707q154 -195 154 -446q0 -253 -161 -457h-108q80 102 122.5 221.5t42.5 230.5q0 115 -40 232.5t-116 218.5h106z" />
    <glyph glyph-name="asterisk" unicode="*" horiz-adv-x="437" 
d="M276 471h-5q18 -11 33 -32l56 -79l-64 -47l-57 78q-12 17 -20 40q-4 -18 -20 -40l-58 -78l-65 47l58 78q14 19 33 32h-6q-22 0 -40 6l-92 31l24 76l93 -30q25 -9 41 -23q-9 23 -9 47v97h80v-97q0 -26 -8 -45q18 14 41 22l92 29l25 -76l-92 -30q-18 -6 -40 -6z" />
    <glyph glyph-name="plus" unicode="+" horiz-adv-x="564" 
d="M510 384v-89h-185v-186h-91v186h-181v89h181v187h91v-187h185z" />
    <glyph glyph-name="comma" unicode="," horiz-adv-x="245" 
d="M-8 -124l96 234h121l-131 -234h-86z" />
    <glyph glyph-name="hyphen" unicode="-" horiz-adv-x="350" 
d="M53 225v84h244v-84h-244z" />
    <glyph glyph-name="period" unicode="." horiz-adv-x="193" 
d="M29 60q0 28 19.5 47.5t48.5 19.5q28 0 47.5 -19.5t19.5 -47.5t-19.5 -48t-47.5 -20q-29 0 -48.5 20t-19.5 48z" />
    <glyph glyph-name="slash" unicode="/" horiz-adv-x="421" 
d="M-7 -102l363 809h101l-363 -809h-101z" />
    <glyph glyph-name="zero" unicode="0" horiz-adv-x="545" 
d="M41 329q0 154 61.5 244.5t168.5 90.5q109 0 171 -90t62 -245q0 -153 -60.5 -245t-172.5 -92q-107 0 -168.5 92t-61.5 245zM141 329q0 -117 36.5 -181.5t93.5 -64.5q62 0 97 64t35 182q0 119 -36.5 181.5t-95.5 62.5q-56 0 -93 -63.5t-37 -180.5z" />
    <glyph glyph-name="one" unicode="1" horiz-adv-x="340" 
d="M16 452v105l163 97h89v-654h-97v547z" />
    <glyph glyph-name="two" unicode="2" horiz-adv-x="496" 
d="M171 85h284v-85h-419v81q126 92 212.5 190.5t86.5 179.5q0 57 -33 87.5t-91 30.5q-80 0 -157 -60v97q72 55 171 55q92 0 152 -51.5t60 -146.5q0 -176 -266 -378z" />
    <glyph glyph-name="three" unicode="3" horiz-adv-x="471" 
d="M57 530v95q62 36 138 36q100 0 156.5 -49.5t56.5 -124.5q0 -54 -26.5 -94.5t-78.5 -61.5q57 -14 89 -53t32 -98q0 -81 -58 -133.5t-163 -52.5q-99 0 -167 34v96q74 -40 162 -40q59 0 92.5 29.5t33.5 75.5q0 48 -37 74t-111 26h-40v84h40q55 0 92.5 27.5t37.5 75.5
t-30.5 72t-83.5 24q-68 0 -135 -42z" />
    <glyph glyph-name="four" unicode="4" horiz-adv-x="546" 
d="M137 238h197v357zM524 238v-85h-92v-153h-98v153h-296v85l235 417h159v-417h92z" />
    <glyph glyph-name="five" unicode="5" horiz-adv-x="507" 
d="M180 570v-172q37 8 68 8q102 0 160 -53.5t58 -144.5q0 -98 -64.5 -156.5t-179.5 -58.5q-103 0 -170 34v95q64 -39 154 -39q158 0 158 128q0 51 -35.5 79.5t-95.5 28.5q-76 0 -150 -35v371h339v-85h-242z" />
    <glyph glyph-name="six" unicode="6" horiz-adv-x="529" 
d="M283 76q52 0 82 37.5t30 98.5q0 57 -30 90t-80 33q-78 0 -138 -65q4 -97 41.5 -145.5t94.5 -48.5zM449 656v-95q-39 20 -91 20q-88 0 -141 -62.5t-67 -160.5q65 63 154 63t140.5 -57t51.5 -151q0 -100 -58 -163t-156 -63q-114 0 -174.5 85t-60.5 225q0 164 83.5 269
t223.5 105q50 0 95 -15z" />
    <glyph glyph-name="seven" unicode="7" horiz-adv-x="459" 
d="M14 654h431v-85l-266 -569h-105l267 569h-327v85z" />
    <glyph glyph-name="eight" unicode="8" horiz-adv-x="538" 
d="M267 75q61 0 93.5 30t32.5 74t-32 74t-94 30q-60 -1 -90.5 -32.5t-30.5 -77.5q0 -42 31 -70t90 -28zM266 579q-51 0 -80 -30t-29 -73q0 -51 31.5 -77.5t81.5 -26.5q47 0 77.5 27.5t30.5 77.5q0 44 -27.5 73t-84.5 29zM380 329q112 -38 112 -155q0 -83 -64 -133t-162 -50
q-96 0 -158 48.5t-62 129.5q0 116 111 159q-47 20 -73.5 58t-26.5 89q0 88 61 138t148 50q90 0 151 -48.5t61 -140.5q0 -99 -98 -145z" />
    <glyph glyph-name="nine" unicode="9" horiz-adv-x="512" 
d="M252 316q76 0 123 59q-2 91 -33.5 144.5t-94.5 53.5q-52 0 -83 -34.5t-31 -93.5q0 -60 32.5 -94.5t86.5 -34.5zM65 11v95q51 -23 108 -23q172 0 198 204q-48 -55 -143 -55q-82 0 -139.5 58t-57.5 153t57 157t155 62q112 0 170.5 -82.5t58.5 -213.5q0 -178 -75.5 -276
t-216.5 -98q-64 0 -115 19z" />
    <glyph glyph-name="colon" unicode=":" horiz-adv-x="250" 
d="M58 391q0 28 19.5 47.5t47.5 19.5t47.5 -19.5t19.5 -47.5t-19.5 -47.5t-47.5 -19.5q-29 0 -48 19t-19 48zM58 66q0 28 19.5 47.5t47.5 19.5t47.5 -19.5t19.5 -47.5t-19.5 -47.5t-47.5 -19.5q-29 0 -48 19.5t-19 47.5z" />
    <glyph glyph-name="semicolon" unicode=";" horiz-adv-x="245" 
d="M71 390q0 29 19 48.5t47 19.5q29 0 48.5 -20t19.5 -48t-19.5 -47t-48.5 -19q-28 0 -47 19t-19 47zM-8 -124l96 234h121l-131 -234h-86z" />
    <glyph glyph-name="less" unicode="&#x3c;" horiz-adv-x="545" 
d="M53 293v95l444 185v-100q-290 -107 -342 -132q24 -12 109.5 -45t159.5 -60l73 -28v-100z" />
    <glyph glyph-name="equal" unicode="=" horiz-adv-x="564" 
d="M53 403v84h457v-84h-457zM53 193v85h457v-85h-457z" />
    <glyph glyph-name="greater" unicode="&#x3e;" horiz-adv-x="545" 
d="M491 388v-95l-443 -185v100q288 107 342 133q-24 11 -109.5 44t-158.5 61l-74 27v100z" />
    <glyph glyph-name="question" unicode="?" horiz-adv-x="454" 
d="M51 548v97q65 37 157 37q95 0 152.5 -48.5t57.5 -134.5q0 -85 -58 -132t-129 -52l-1 -101h-93l-1 161q181 0 181 117q0 47 -30 75.5t-88 28.5q-74 0 -148 -48zM114 60q0 29 20 49t48 20q29 0 49 -20t20 -49t-20 -48.5t-49 -19.5t-48.5 19.5t-19.5 48.5z" />
    <glyph glyph-name="at" unicode="@" horiz-adv-x="926" 
d="M442 89q39 0 72.5 27.5t47.5 76.5q2 24 3 51q-16 103 -102 103q-50 0 -82.5 -41.5t-32.5 -105.5q0 -50 26.5 -80.5t67.5 -30.5zM615 -55l-4 -91q-75 -36 -181 -36q-174 0 -275 107.5t-101 271.5q0 122 60.5 222t162.5 155.5t222 55.5q161 0 272.5 -99.5t111.5 -263.5
q0 -115 -56 -183.5t-129 -68.5q-100 0 -128 93q-48 -95 -149 -95q-76 0 -120 55t-44 137q0 94 57 156t140 62q81 0 119 -67q0 9 1.5 30t2.5 33h80l-10 -103q-7 -90 -7 -120q0 -103 62 -103q41 0 68.5 46.5t27.5 121.5q0 138 -85 212.5t-217 74.5q-146 0 -248.5 -102
t-102.5 -250q0 -140 83 -217.5t203 -77.5q101 0 184 44z" />
    <glyph glyph-name="A" unicode="A" horiz-adv-x="660" 
d="M222 251h216l-11 34q-38 118 -62 195.5t-29 96.5l-5 19q-11 -47 -98 -311zM519 0l-53 165h-272l-54 -165h-109l233 674h135l230 -674h-110z" />
    <glyph glyph-name="B" unicode="B" horiz-adv-x="581" 
d="M176 85h132q127 0 127 105q0 51 -34.5 79.5t-102.5 28.5h-122v-213zM176 589v-207h93q75 0 111.5 30.5t36.5 79.5q0 43 -32.5 70t-98.5 27h-110zM73 674h221q106 0 167 -49.5t61 -130.5q0 -56 -31.5 -98t-80.5 -54q55 -10 92.5 -51t37.5 -110q0 -80 -54.5 -130.5
t-153.5 -50.5h-259v674z" />
    <glyph glyph-name="C" unicode="C" horiz-adv-x="605" 
d="M560 646v-101q-44 24 -79.5 33.5t-90.5 9.5q-101 0 -168.5 -68.5t-67.5 -181.5q0 -115 67 -183t177 -68q97 0 163 50v-104q-62 -41 -172 -41q-151 0 -247 94t-96 252q0 153 96.5 249t244.5 96q108 0 173 -37z" />
    <glyph glyph-name="D" unicode="D" horiz-adv-x="667" 
d="M178 87h106q115 0 175 72t60 185q0 104 -65 173t-173 69h-103v-499zM73 674h210q150 0 246 -93t96 -237q0 -150 -90.5 -247t-249.5 -97h-212v674z" />
    <glyph glyph-name="E" unicode="E" horiz-adv-x="514" 
d="M176 86h286v-86h-389v674h384v-86h-281v-208h249v-86h-249v-208z" />
    <glyph glyph-name="F" unicode="F" horiz-adv-x="494" 
d="M455 588h-279v-221h245v-86h-245v-281h-103v674h382v-86z" />
    <glyph glyph-name="G" unicode="G" horiz-adv-x="681" 
d="M615 385v-323h-1l1 -7q-87 -63 -218 -63q-158 0 -254.5 93t-96.5 253q0 155 97.5 251.5t247.5 96.5q117 0 196 -45v-106q-86 54 -192 54q-108 0 -174.5 -69t-66.5 -182q0 -116 65.5 -183t180.5 -67q60 0 114 22v186h-137v89h238z" />
    <glyph glyph-name="H" unicode="H" horiz-adv-x="656" 
d="M479 674h103v-674h-103v295h-303v-295h-103v674h103v-290h303v290z" />
    <glyph glyph-name="I" unicode="I" horiz-adv-x="264" 
d="M81 0v674h102v-674h-102z" />
    <glyph glyph-name="J" unicode="J" horiz-adv-x="368" 
d="M30 21v95q41 -25 82 -25q82 0 82 87v496h103v-492q0 -93 -45.5 -137.5t-122.5 -44.5q-62 0 -99 21z" />
    <glyph glyph-name="K" unicode="K" horiz-adv-x="599" 
d="M73 0v674h103v-674h-103zM312 334l262 -334h-130l-255 333l245 341h125z" />
    <glyph glyph-name="L" unicode="L" horiz-adv-x="480" 
d="M176 91h276v-91h-379v674h103v-583z" />
    <glyph glyph-name="M" unicode="M" horiz-adv-x="868" 
d="M64 0l52 674h122l90 -246q24 -63 48 -133.5t36 -109.5l13 -39q46 136 101 282l94 246h122l62 -674h-102l-24 264l-21 270q-45 -127 -98 -270l-94 -251h-81l-91 251l-91 266q0 -44 -16 -266l-20 -264h-102z" />
    <glyph glyph-name="N" unicode="N" horiz-adv-x="680" 
d="M73 0v674h122l166 -282q46 -79 83.5 -146t51.5 -94l14 -28q-6 91 -6 267v283h103v-674h-122l-167 281q-45 76 -82.5 143.5t-52.5 97.5l-15 29q8 -100 8 -269v-282h-103z" />
    <glyph glyph-name="O" unicode="O" horiz-adv-x="711" 
d="M46 340q0 157 84 252t225 95q144 0 227 -94.5t83 -252.5t-83.5 -253t-225.5 -95q-141 0 -225.5 95t-84.5 253zM154 340q0 -116 55 -184t147 -68q95 0 148 67t53 185q0 117 -53.5 184t-148.5 67q-94 0 -147.5 -67.5t-53.5 -183.5z" />
    <glyph glyph-name="P" unicode="P" horiz-adv-x="550" 
d="M176 324h99q65 2 102 39t37 92q0 58 -38.5 95.5t-106.5 38.5h-93v-265zM73 674h193q116 0 184 -61.5t68 -157.5t-68.5 -156t-177.5 -60h-96v-239h-103v674z" />
    <glyph glyph-name="Q" unicode="Q" horiz-adv-x="719" 
d="M154 340q0 -116 55 -184t147 -68q95 0 148 67t53 185q0 117 -53.5 184t-148.5 67q-94 0 -147.5 -67.5t-53.5 -183.5zM699 -99l-114 -45l-197 137q-11 -1 -32 -1q-141 0 -225.5 95t-84.5 253q0 157 84 252t225 95q144 0 227 -94.5t83 -252.5q0 -113 -44 -196t-124 -122z
" />
    <glyph glyph-name="R" unicode="R" horiz-adv-x="568" 
d="M176 588v-246h93q64 0 97 33.5t33 89.5q0 123 -135 123h-88zM423 0l-158 256h-89v-256h-103v674h188q116 0 179 -56.5t63 -153.5q-1 -71 -36 -120.5t-97 -71.5l176 -272h-123z" />
    <glyph glyph-name="S" unicode="S" horiz-adv-x="521" 
d="M437 647v-102q-67 42 -152 42q-55 0 -86.5 -24.5t-31.5 -64.5t31 -64t95 -52q42 -18 65.5 -31t54 -36.5t45 -56t14.5 -74.5q0 -89 -63 -140t-163 -51q-111 0 -184 43v107q79 -59 183 -59q55 0 87 25.5t32 70.5q0 27 -19 49.5t-41 34t-66 31.5q-26 12 -36.5 17t-34.5 18
t-35.5 22t-28.5 25t-24.5 32t-14 37.5t-6.5 46.5q0 86 62.5 136t161.5 50q91 0 155 -32z" />
    <glyph glyph-name="T" unicode="T" horiz-adv-x="500" 
d="M478 674v-86h-177v-588h-103v588h-176v86h456z" />
    <glyph glyph-name="U" unicode="U" horiz-adv-x="652" 
d="M478 256v418h103v-416q0 -131 -68 -199t-188 -68q-118 0 -186 66.5t-68 192.5v424h103v-423q0 -86 41.5 -125.5t109.5 -39.5q153 0 153 170z" />
    <glyph glyph-name="V" unicode="V" horiz-adv-x="643" 
d="M613 674l-233 -674h-122l-227 674h110l86 -268q28 -86 51 -164.5t32 -113.5l10 -36q32 120 96 314l87 268h110z" />
    <glyph glyph-name="W" unicode="W" horiz-adv-x="947" 
d="M432 664h91l71 -240l91 -317q37 182 69 317l59 250h104l-165 -674h-123l-64 213l-87 301q-23 -95 -84 -301l-62 -213h-124l-177 674h107l63 -249l74 -316q45 168 88 316z" />
    <glyph glyph-name="X" unicode="X" horiz-adv-x="628" 
d="M251 341l-204 333h119l143 -242q8 16 71.5 123.5t69.5 118.5h123l-204 -334l223 -340h-121l-160 253q-9 -17 -77 -128t-76 -125h-123z" />
    <glyph glyph-name="Y" unicode="Y" horiz-adv-x="608" 
d="M585 674l-231 -423v-251h-103v251l-228 423h118l48 -99q46 -93 74 -153t33 -74l6 -13q9 30 116 240l49 99h118z" />
    <glyph glyph-name="Z" unicode="Z" horiz-adv-x="584" 
d="M516 674v-79l-341 -510h355v-85h-476v81l340 508h-335v85h457z" />
    <glyph glyph-name="bracketleft" unicode="[" horiz-adv-x="325" 
d="M319 620h-150v-719h150v-87h-246v893h246v-87z" />
    <glyph glyph-name="backslash" unicode="\" horiz-adv-x="420" 
d="M65 707l363 -810h-101l-364 810h102z" />
    <glyph glyph-name="bracketright" unicode="]" horiz-adv-x="325" 
d="M252 707v-893h-245v87h150v719h-150v87h245z" />
    <glyph glyph-name="asciicircum" unicode="^" horiz-adv-x="470" 
d="M428 332h-95l-97 190l-99 -190h-96l145 262h100z" />
    <glyph glyph-name="underscore" unicode="_" horiz-adv-x="557" 
d="M26 -119v84h505v-84h-505z" />
    <glyph glyph-name="grave" unicode="`" horiz-adv-x="444" 
d="M230 798l95 -162h-84l-120 162h109z" />
    <glyph glyph-name="a" unicode="a" horiz-adv-x="499" 
d="M336 226h-76q-56 0 -84.5 -22t-28.5 -56q0 -35 22 -55t64 -20q48 0 75.5 26.5t27.5 69.5v57zM81 386v95q59 34 156 34q199 0 199 -193v-322h-97v60q-39 -64 -137 -64q-72 0 -115.5 41.5t-43.5 105.5q0 73 55 113.5t154 40.5h84v29q0 52 -25 78.5t-83 26.5q-81 0 -147 -45
z" />
    <glyph glyph-name="b" unicode="b" horiz-adv-x="582" 
d="M308 79q56 0 94 47.5t38 122.5q0 86 -38 132.5t-97 46.5q-52 0 -93.5 -42t-41.5 -129q0 -90 40 -134t98 -44zM170 707v-277q54 84 153 84q96 0 157 -72t61 -191q0 -107 -58 -182.5t-159 -75.5t-154 84v-77h-99v707h99z" />
    <glyph glyph-name="c" unicode="c" horiz-adv-x="471" 
d="M142 251q2 -77 47 -126.5t126 -49.5q60 0 112 33v-88q-49 -30 -125 -30q-119 0 -190 75t-71 187q0 109 71.5 186.5t193.5 77.5q66 0 121 -28v-90q-49 31 -111 31q-79 0 -126.5 -50t-47.5 -128z" />
    <glyph glyph-name="d" unicode="d" horiz-adv-x="580" 
d="M274 79q58 0 98 44t40 134q0 87 -41.5 129t-93.5 42q-59 0 -97 -46.5t-38 -132.5q0 -76 37.5 -123t94.5 -47zM412 707h99v-707h-99v77q-53 -84 -155 -84q-100 0 -158 75.5t-58 182.5q0 119 61 191t157 72q99 0 153 -84v277z" />
    <glyph glyph-name="e" unicode="e" horiz-adv-x="525" 
d="M384 290v18q-2 57 -31 90.5t-83 33.5q-50 0 -86 -36.5t-45 -105.5h245zM447 115v-88q-56 -32 -148 -32q-118 0 -188 71t-70 186q0 122 64 191.5t163 69.5q97 0 154 -60.5t57 -174.5q0 -31 -6 -65h-333q10 -66 56 -101t116 -35q81 0 135 38z" />
    <glyph glyph-name="f" unicode="f" horiz-adv-x="334" 
d="M330 708v-86q-23 10 -48 10q-73 0 -73 -87v-38h107v-76h-107v-431h-98v431h-81v76h81v39q0 79 42.5 124.5t119.5 45.5q28 0 57 -8z" />
    <glyph glyph-name="g" unicode="g" horiz-adv-x="559" 
d="M269 98q52 0 90.5 40.5t38.5 113.5q0 90 -36.5 133t-88.5 43q-59 0 -93 -46.5t-34 -122.5q0 -79 36.5 -120t86.5 -41zM398 507h98v-464q0 -117 -66.5 -176.5t-170.5 -59.5q-98 0 -165 33v99q64 -42 155 -42q149 0 149 147v52q-49 -82 -147 -82q-86 0 -147 63.5t-61 179.5
q0 112 57 184.5t151 72.5q101 0 147 -86v79z" />
    <glyph glyph-name="h" unicode="h" horiz-adv-x="551" 
d="M167 707v-287q43 94 157 94q74 0 119 -46t45 -128v-340h-98v320q0 52 -26.5 80.5t-69.5 28.5q-50 0 -88.5 -38t-38.5 -116v-275h-98v707h98z" />
    <glyph glyph-name="i" unicode="i" horiz-adv-x="245" 
d="M73 0v507h99v-507h-99zM61 662q0 26 17.5 44t43.5 18t44 -18t18 -44q0 -25 -18 -43t-44 -18t-43.5 17.5t-17.5 43.5z" />
    <glyph glyph-name="j" unicode="j" horiz-adv-x="242" 
d="M-44 -181v83q32 -16 64 -16q55 0 55 71v550h98v-552q0 -71 -37.5 -111t-106.5 -40q-32 0 -73 15zM62 662q0 26 17.5 44t43.5 18t44 -18t18 -44q0 -25 -18 -43t-44 -18q-25 0 -43 17.5t-18 43.5z" />
    <glyph glyph-name="k" unicode="k" horiz-adv-x="500" 
d="M69 0v700h98v-700h-98zM284 265l199 -265h-117l-195 265l191 242h115z" />
    <glyph glyph-name="l" unicode="l" horiz-adv-x="245" 
d="M73 0v707h99v-707h-99z" />
    <glyph glyph-name="m" unicode="m" horiz-adv-x="830" 
d="M167 507v-81q43 88 143 88q114 0 146 -98q21 47 61 72.5t90 25.5q78 0 118.5 -46t40.5 -127v-341h-98v320q0 109 -88 109q-44 0 -78.5 -39t-34.5 -115v-275h-98v320q0 109 -89 109q-43 0 -78 -39t-35 -115v-275h-98v507h98z" />
    <glyph glyph-name="n" unicode="n" horiz-adv-x="551" 
d="M167 507v-87q45 94 158 94q75 0 119 -46t44 -125v-343h-98v320q0 53 -26.5 81t-70.5 28q-52 0 -89 -40.5t-37 -113.5v-275h-98v507h98z" />
    <glyph glyph-name="o" unicode="o" horiz-adv-x="564" 
d="M281 -9q-112 0 -176 73t-64 185q0 114 66 189.5t174 75.5q116 0 179 -73.5t63 -187.5t-64.5 -188t-177.5 -74zM280 431q-65 0 -101 -51.5t-36 -127.5q0 -75 37 -126.5t101 -51.5q68 0 103.5 50t35.5 127q0 79 -34 129.5t-106 50.5z" />
    <glyph glyph-name="p" unicode="p" horiz-adv-x="580" 
d="M303 79q59 0 97 46.5t38 130.5q0 79 -37 125.5t-94 46.5t-98.5 -41.5t-41.5 -131.5q0 -88 41.5 -132t94.5 -44zM167 507v-78q52 85 156 85q100 0 158 -72.5t58 -184.5q0 -115 -59.5 -189.5t-158.5 -74.5q-101 0 -154 84v-271h-98v701h98z" />
    <glyph glyph-name="q" unicode="q" horiz-adv-x="580" 
d="M277 79q54 0 94.5 44t40.5 132q0 90 -41 131.5t-97 41.5q-57 0 -94.5 -47t-37.5 -125q0 -83 38.5 -130t96.5 -47zM412 507h99v-701h-99v272q-54 -85 -153 -85t-158.5 74.5t-59.5 189.5q0 112 58.5 184.5t158.5 72.5t154 -83v76z" />
    <glyph glyph-name="r" unicode="r" horiz-adv-x="339" 
d="M167 507v-89q37 94 133 94q14 0 31 -3v-96q-21 9 -47 9q-51 0 -84 -45t-33 -107v-270h-98v507h98z" />
    <glyph glyph-name="s" unicode="s" horiz-adv-x="419" 
d="M358 490v-89q-49 29 -126 29q-35 0 -55.5 -16t-20.5 -42q0 -7 1.5 -13.5t5.5 -13t7.5 -11t11.5 -9.5t12.5 -8.5t15 -8.5t15.5 -7.5t17.5 -8t17.5 -7.5q59 -26 92.5 -58.5t33.5 -86.5q0 -68 -48 -106.5t-130 -38.5q-90 0 -150 30v93q70 -43 145 -43q39 0 60.5 16t21.5 42
q0 22 -17 39.5t-34.5 26t-59.5 26.5q-119 49 -119 144q0 67 50 105t125 38q82 0 128 -22z" />
    <glyph glyph-name="t" unicode="t" horiz-adv-x="374" 
d="M196 431v-279q0 -73 70 -73q41 0 69 22v-88q-33 -18 -81 -18q-157 0 -157 159v277h-79v76h79v124h99v-124h133v-76h-133z" />
    <glyph glyph-name="u" unicode="u" horiz-adv-x="551" 
d="M384 507h98v-507h-98v87q-40 -93 -158 -93q-75 0 -119 44.5t-44 122.5v346h99v-322q0 -52 25.5 -79.5t70.5 -27.5q57 0 91.5 40t34.5 113v276z" />
    <glyph glyph-name="v" unicode="v" horiz-adv-x="514" 
d="M199 0l-180 507h103l69 -214q24 -74 40.5 -128t20.5 -71l4 -17q9 49 66 216l71 214h102l-184 -507h-112z" />
    <glyph glyph-name="w" unicode="w" horiz-adv-x="796" 
d="M178 0l-159 507h104l47 -168q23 -80 39 -141t20 -82l4 -21q13 63 66 245l49 167h95l50 -167q24 -83 41 -144.5t22 -81.5l4 -20q12 59 68 246l50 167h99l-161 -507h-112l-47 166q-21 76 -36.5 134.5t-20.5 79.5l-4 20q-14 -65 -61 -234l-46 -166h-111z" />
    <glyph glyph-name="x" unicode="x" horiz-adv-x="492" 
d="M300 257l169 -257h-111l-111 186l-117 -186h-108l173 258l-162 250h111l106 -179l109 179h110z" />
    <glyph glyph-name="y" unicode="y" horiz-adv-x="504" 
d="M209 11l-202 496h109l63 -165l79 -214q9 30 72 214l57 165h104l-183 -493q-73 -195 -223 -195q-27 0 -46 5v84q16 -4 34 -4q97 0 136 107z" />
    <glyph glyph-name="z" unicode="z" horiz-adv-x="461" 
d="M405 507v-70l-249 -354h262v-83h-375v75l246 350h-237v82h353z" />
    <glyph glyph-name="braceleft" unicode="{" horiz-adv-x="348" 
d="M46 212v96q14 0 25 1q41 4 64 36t23 75q0 21 -9 65.5t-9 69.5q0 70 40 114t98 44q26 0 53 -9v-94q-17 9 -33 9q-28 0 -43.5 -19t-15.5 -49q0 -23 9 -70.5t9 -75.5q0 -57 -32.5 -97t-87.5 -48q55 -8 87.5 -48.5t32.5 -97.5q0 -28 -9 -75.5t-9 -69.5q0 -30 15.5 -49.5
t43.5 -19.5q16 0 33 9v-94q-27 -9 -53 -9q-58 0 -98 44t-40 114q0 25 9 69.5t9 65.5q0 43 -22 74.5t-65 37.5q-9 1 -25 1z" />
    <glyph glyph-name="bar" unicode="|" horiz-adv-x="243" 
d="M76 -194v889h91v-889h-91z" />
    <glyph glyph-name="braceright" unicode="}" horiz-adv-x="348" 
d="M17 610v94q27 9 52 9q59 0 98.5 -43.5t39.5 -114.5q0 -25 -9 -69.5t-9 -65.5q0 -43 23 -75t65 -36q10 -1 25 -1v-96q-17 0 -25 -1q-44 -6 -66 -37.5t-22 -74.5q0 -21 9 -65.5t9 -69.5q0 -71 -39.5 -114.5t-98.5 -43.5q-25 0 -52 9v94q15 -9 32 -9q28 0 44 19.5t16 49.5
q0 22 -9 69.5t-9 75.5q0 57 32 97.5t87 48.5q-55 8 -87 48t-32 97q0 28 9 75.5t9 70.5q0 29 -16 48.5t-44 19.5q-17 0 -32 -9z" />
    <glyph glyph-name="asciitilde" unicode="~" horiz-adv-x="615" 
d="M510 341l71 -53q-63 -96 -152 -96q-51 0 -119.5 33.5t-97.5 33.5q-63 0 -112 -66l-66 56q69 99 160 99q45 0 86 -16.5t74.5 -33t60.5 -16.5q55 0 95 59z" />
    <glyph glyph-name="uni00A0" unicode="&#xa0;" horiz-adv-x="246" 
 />
    <glyph glyph-name="exclamdown" unicode="&#xa1;" horiz-adv-x="262" 
d="M62 449q0 29 19.5 48.5t48.5 19.5t49 -19.5t20 -48.5t-20.5 -49t-48.5 -20q-29 0 -48.5 20t-19.5 49zM83 -165v460h96v-460h-96z" />
    <glyph glyph-name="cent" unicode="&#xa2;" horiz-adv-x="460" 
d="M420 488v-88q-48 27 -102 27q-79 0 -127 -49.5t-49 -126.5q2 -76 48.5 -125t127.5 -49q54 0 102 28v-88q-34 -16 -79 -23v-105h-84v106q-99 16 -157.5 87t-58.5 170q1 97 58.5 169t157.5 88v108h84v-106q42 -5 79 -23z" />
    <glyph glyph-name="sterling" unicode="&#xa3;" horiz-adv-x="527" 
d="M177 85h313v-85h-434v82q52 26 72 63.5t20 104.5q0 11 -2 35h-86v75h78q-7 51 -7 81q0 104 55 161t157 57q69 0 117 -27v-96q-48 30 -102 30q-122 0 -122 -125q0 -25 6 -81h176v-75h-168q0 -6 0.5 -18t0.5 -17q0 -118 -74 -165z" />
    <glyph glyph-name="currency" unicode="&#xa4;" horiz-adv-x="551" 
d="M56 310q0 66 36 122l-60 60l61 59l60 -60q54 37 125 37q66 0 123 -34l58 57l60 -59l-58 -58q35 -55 35 -120q0 -68 -38 -124l61 -60l-60 -59l-62 60q-52 -35 -123 -35q-72 0 -123 33l-58 -58l-61 59l59 58q-35 50 -35 122zM140 312q0 -58 38.5 -97.5t97.5 -39.5
q60 0 98 39t38 98q0 58 -38.5 97.5t-97.5 39.5t-97.5 -39.5t-38.5 -97.5z" />
    <glyph glyph-name="yen" unicode="&#xa5;" horiz-adv-x="600" 
d="M571 654l-162 -292h117v-68h-155l-22 -40v-41h177v-68h-177v-145h-103v145h-176v68h176v41l-22 40h-154v68h116l-160 292h118l153 -300l157 300h117z" />
    <glyph glyph-name="brokenbar" unicode="&#xa6;" horiz-adv-x="243" 
d="M167 367h-91v333h91v-333zM167 -160h-91v333h91v-333z" />
    <glyph glyph-name="section" unicode="&#xa7;" horiz-adv-x="537" 
d="M153 297q0 -41 31.5 -65t103.5 -56q44 -18 73 -34q19 25 19 60q0 40 -28.5 63t-93.5 55q-9 4 -13 6q-12 5 -35 16t-35 17q-22 -28 -22 -62zM435 648v-102q-70 42 -152 42q-56 0 -86 -21t-30 -59q0 -17 6 -29.5t22.5 -24t29.5 -18.5t44 -21t50 -23q38 -18 61.5 -32
t49 -36.5t37.5 -53t12 -69.5q0 -70 -42 -117q38 -45 38 -102q0 -86 -61.5 -133t-162.5 -47q-111 0 -184 43v107q79 -59 183 -59q57 0 88.5 22.5t31.5 65.5q0 37 -30 60.5t-117 61.5q-81 36 -125.5 78.5t-44.5 115.5q0 65 43 115q-36 38 -36 93q0 83 61 129t159 46
q91 0 155 -32z" />
    <glyph glyph-name="dieresis" unicode="&#xa8;" horiz-adv-x="444" 
d="M51 719q0 26 17 43t44 17q26 0 43 -17.5t17 -42.5t-17 -42.5t-43 -17.5q-27 0 -44 17t-17 43zM272 719q0 25 17 42.5t43 17.5t43.5 -17t17.5 -43t-17.5 -43t-43.5 -17t-43 17.5t-17 42.5z" />
    <glyph glyph-name="copyright" unicode="&#xa9;" horiz-adv-x="772" 
d="M41 337q0 142 101.5 243.5t243.5 101.5t243.5 -101.5t101.5 -243.5t-101.5 -244t-243.5 -102t-243.5 102t-101.5 244zM116 336q0 -113 78.5 -191.5t192.5 -78.5q113 0 191 78.5t78 191.5t-78.5 192t-190.5 79q-114 0 -192.5 -79t-78.5 -192zM305 335q1 -48 31 -79.5
t77 -31.5q45 0 80 25v-74q-36 -21 -88 -21q-80 0 -131 52t-51 129t50 130.5t135 53.5q47 0 85 -21v-73q-34 22 -79 22q-47 0 -78 -30.5t-31 -81.5z" />
    <glyph glyph-name="ordfeminine" unicode="&#xaa;" horiz-adv-x="365" 
d="M251 582h-57q-50 0 -77 -17t-27 -49q0 -29 19 -45.5t55 -16.5q38 0 62.5 22.5t24.5 54.5v51zM36 718v79q51 29 132 29q86 0 126.5 -40.5t40.5 -121.5v-272h-82v53q-39 -57 -115 -57q-61 0 -97.5 34t-36.5 91q0 61 46.5 96t130.5 35h70v22q0 44 -21 66.5t-71 22.5
q-69 0 -123 -37z" />
    <glyph glyph-name="guillemotleft" unicode="&#xab;" horiz-adv-x="512" 
d="M284 415l-147 -162l147 -162h-107l-150 162l150 162h107zM479 415l-146 -162l146 -162h-106l-151 162l151 162h106z" />
    <glyph glyph-name="logicalnot" unicode="&#xac;" horiz-adv-x="565" 
d="M526 153h-87v177h-408v84h495v-261z" />
    <glyph glyph-name="uni00AD" unicode="&#xad;" horiz-adv-x="350" 
d="M53 225v84h244v-84h-244z" />
    <glyph glyph-name="registered" unicode="&#xae;" horiz-adv-x="462" 
d="M210 645v-63h24q29 0 29 32q0 31 -32 31h-21zM163 684h64q84 0 84 -70q0 -44 -36 -62l56 -88h-56l-48 80h-17v-80h-47v220zM232 397q76 0 122.5 47t46.5 123t-46.5 123.5t-122.5 47.5q-77 0 -123.5 -47.5t-46.5 -123.5t46.5 -123t123.5 -47zM231 787q96 0 158.5 -62
t62.5 -158t-62.5 -158t-158.5 -62t-158.5 62t-62.5 158t62.5 158t158.5 62z" />
    <glyph glyph-name="macron" unicode="&#xaf;" horiz-adv-x="444" 
d="M374 681h-304v68h304v-68z" />
    <glyph glyph-name="degree" unicode="&#xb0;" horiz-adv-x="380" 
d="M30 520q0 67 46.5 113t114.5 46t113.5 -45t45.5 -112q0 -68 -46.5 -113.5t-114.5 -45.5t-113.5 44.5t-45.5 112.5zM105 521q0 -36 25 -61.5t61 -25.5t60 25.5t24 61.5t-25 61.5t-61 25.5t-60 -25.5t-24 -61.5z" />
    <glyph glyph-name="plusminus" unicode="&#xb1;" horiz-adv-x="564" 
d="M53 30v84h457v-84h-457zM325 414h185v-85h-185v-160h-91v160h-181v85h181v160h91v-160z" />
    <glyph glyph-name="twosuperior" unicode="&#xb2;" horiz-adv-x="365" 
d="M43 392v57q190 141 190 238q0 33 -19.5 50.5t-52.5 17.5q-51 0 -105 -40v79q53 33 112 33q62 0 103.5 -35t41.5 -98q0 -59 -46 -120.5t-121 -116.5h181v-65h-284z" />
    <glyph glyph-name="threesuperior" unicode="&#xb3;" horiz-adv-x="333" 
d="M105 642h21q36 0 59 15.5t23 44.5q0 57 -66 57q-46 0 -94 -33v74q43 27 98 27q67 0 104 -33.5t37 -83.5q0 -40 -21 -65.5t-58 -33.5q38 -4 64 -32t26 -71q0 -53 -38 -86.5t-106 -33.5q-69 0 -119 25v70q53 -28 111 -28q35 0 54.5 16.5t19.5 43.5q0 62 -94 62h-21v65z" />
    <glyph glyph-name="acute" unicode="&#xb4;" horiz-adv-x="444" 
d="M121 636l95 162h109l-120 -162h-84z" />
    <glyph glyph-name="uni00B5" unicode="&#xb5;" horiz-adv-x="557" 
d="M390 507h98v-507h-98v72q-36 -78 -125 -78q-57 0 -98 29v-202h-98v686h98v-322q0 -51 32.5 -79t79.5 -28q53 0 82 39.5t29 113.5v276z" />
    <glyph glyph-name="paragraph" unicode="&#xb6;" horiz-adv-x="559" 
d="M297 674v-822h-82v482q-92 0 -143 48.5t-51 120.5q0 70 51.5 120.5t149.5 50.5h75zM405 -148l1 822h82v-822h-83z" />
    <glyph glyph-name="periodcentered" unicode="&#xb7;" horiz-adv-x="242" 
d="M54 300q0 28 19.5 47.5t48.5 19.5q28 0 47.5 -19.5t19.5 -47.5t-19.5 -48t-47.5 -20t-48 20t-20 48z" />
    <glyph glyph-name="cedilla" unicode="&#xb8;" horiz-adv-x="444" 
d="M301 -123q0 -56 -41 -94.5t-118 -39.5v68q82 5 82 69q0 32 -25 69h84q18 -25 18 -72z" />
    <glyph glyph-name="onesuperior" unicode="&#xb9;" horiz-adv-x="258" 
d="M10 678v75l122 70h62v-431h-75v346z" />
    <glyph glyph-name="ordmasculine" unicode="&#xba;" horiz-adv-x="395" 
d="M197 386q-93 0 -145.5 61.5t-52.5 156.5q0 97 54 160.5t144 63.5q96 0 147.5 -62t51.5 -158q0 -97 -52.5 -159.5t-146.5 -62.5zM196 759q-53 0 -82 -44t-29 -109q0 -64 30 -107.5t82 -43.5q55 0 83.5 42.5t28.5 108.5q0 67 -27 110t-86 43z" />
    <glyph glyph-name="guillemotright" unicode="&#xbb;" horiz-adv-x="514" 
d="M139 415l151 -162l-151 -162h-106l146 162l-146 162h106zM335 415l150 -162l-150 -162h-106l146 162l-146 162h106z" />
    <glyph glyph-name="questiondown" unicode="&#xbf;" horiz-adv-x="454" 
d="M418 -39v-97q-68 -37 -158 -37q-95 0 -152 48.5t-57 134.5q0 59 31 101.5t71.5 61.5t84.5 22l1 101h93l1 -162q-181 0 -181 -116q0 -47 29.5 -75.5t88.5 -28.5q75 0 148 47zM355 449q0 -29 -19.5 -48.5t-48.5 -19.5t-49 19.5t-20 48.5t20 48.5t49 19.5t48.5 -19.5
t19.5 -48.5z" />
    <glyph glyph-name="Agrave" unicode="&#xc0;" horiz-adv-x="660" 
d="M369 725h-84l-120 162h109zM222 251h216l-11 34q-38 118 -62 195.5t-29 96.5l-5 19q-11 -47 -98 -311zM519 0l-53 165h-272l-54 -165h-109l233 674h135l230 -674h-110z" />
    <glyph glyph-name="Aacute" unicode="&#xc1;" horiz-adv-x="660" 
d="M502 887l-120 -162h-84l95 162h109zM222 251h216l-11 34q-38 118 -62 195.5t-29 96.5l-5 19q-11 -47 -98 -311zM519 0l-53 165h-272l-54 -165h-109l233 674h135l230 -674h-110z" />
    <glyph glyph-name="Acircumflex" unicode="&#xc2;" horiz-adv-x="660" 
d="M332 827l-82 -102h-97l135 162h90l135 -162h-97zM222 251h216l-11 34q-38 118 -62 195.5t-29 96.5l-5 19q-11 -47 -98 -311zM519 0l-53 165h-272l-54 -165h-109l233 674h135l230 -674h-110z" />
    <glyph glyph-name="Atilde" unicode="&#xc3;" horiz-adv-x="660" 
d="M453 868l56 -42q-35 -74 -109 -74q-29 0 -69.5 20.5t-56.5 20.5q-23 0 -38.5 -11t-31.5 -35l-49 45q14 31 42.5 52.5t62.5 21.5q32 0 74 -20.5t61 -20.5q37 0 58 43zM222 251h216l-11 34q-38 118 -62 195.5t-29 96.5l-5 19q-11 -47 -98 -311zM519 0l-53 165h-272
l-54 -165h-109l233 674h135l230 -674h-110z" />
    <glyph glyph-name="Adieresis" unicode="&#xc4;" horiz-adv-x="660" 
d="M445 747q-25 0 -42.5 17.5t-17.5 42.5t17.5 42.5t42.5 17.5q26 0 43.5 -17t17.5 -43t-17.5 -43t-43.5 -17zM225 747q-27 0 -44 17t-17 43t17 43t44 17q25 0 42.5 -17.5t17.5 -42.5t-17.5 -42.5t-42.5 -17.5zM222 251h216l-11 34q-38 118 -62 195.5t-29 96.5l-5 19
q-11 -47 -98 -311zM519 0l-53 165h-272l-54 -165h-109l233 674h135l230 -674h-110z" />
    <glyph glyph-name="Aring" unicode="&#xc5;" horiz-adv-x="660" 
d="M333 885q-22 0 -37.5 -16t-15.5 -38t15.5 -38.5t37.5 -16.5q23 0 38.5 16.5t15.5 38.5t-15.5 38t-38.5 16zM333 715q-47 0 -80.5 33.5t-33.5 80.5q0 48 33.5 82t80.5 34q48 0 82 -34t34 -82q0 -47 -34 -80.5t-82 -33.5zM222 251h216l-11 34q-38 118 -62 195.5t-29 96.5
l-5 19q-11 -47 -98 -311zM519 0l-53 165h-272l-54 -165h-109l233 674h135l230 -674h-110z" />
    <glyph glyph-name="AE" unicode="&#xc6;" horiz-adv-x="897" 
d="M266 251h193v357q-56 -113 -174 -323zM559 86h286v-86h-386v165h-241l-91 -165h-108l366 674h455v-86h-281v-208h249v-86h-249v-208z" />
    <glyph glyph-name="Ccedilla" unicode="&#xc7;" horiz-adv-x="605" 
d="M328 -51h84q18 -25 18 -72q0 -56 -41 -94.5t-118 -39.5v68q82 5 82 69q0 32 -25 69zM560 646v-101q-44 24 -79.5 33.5t-90.5 9.5q-101 0 -168.5 -68.5t-67.5 -181.5q0 -115 67 -183t177 -68q97 0 163 50v-104q-62 -41 -172 -41q-151 0 -247 94t-96 252q0 153 96.5 249
t244.5 96q108 0 173 -37z" />
    <glyph glyph-name="Egrave" unicode="&#xc8;" horiz-adv-x="514" 
d="M327 725h-84l-120 162h109zM176 86h286v-86h-389v674h384v-86h-281v-208h249v-86h-249v-208z" />
    <glyph glyph-name="Eacute" unicode="&#xc9;" horiz-adv-x="514" 
d="M442 887l-120 -162h-84l95 162h109zM176 86h286v-86h-389v674h384v-86h-281v-208h249v-86h-249v-208z" />
    <glyph glyph-name="Ecircumflex" unicode="&#xca;" horiz-adv-x="514" 
d="M272 827l-82 -102h-97l135 162h90l135 -162h-97zM176 86h286v-86h-389v674h384v-86h-281v-208h249v-86h-249v-208z" />
    <glyph glyph-name="Edieresis" unicode="&#xcb;" horiz-adv-x="514" 
d="M379 746q-25 0 -42.5 17t-17.5 43t17.5 43t42.5 17q26 0 43.5 -17t17.5 -43t-17.5 -43t-43.5 -17zM159 746q-27 0 -44 17t-17 43t17 43t44 17q25 0 42.5 -17t17.5 -43t-17.5 -43t-42.5 -17zM176 86h286v-86h-389v674h384v-86h-281v-208h249v-86h-249v-208z" />
    <glyph glyph-name="Igrave" unicode="&#xcc;" horiz-adv-x="264" 
d="M81 0v674h102v-674h-102zM74 887l95 -162h-84l-120 162h109z" />
    <glyph glyph-name="Iacute" unicode="&#xcd;" horiz-adv-x="264" 
d="M81 0v674h102v-674h-102zM94 725l95 162h109l-120 -162h-84z" />
    <glyph glyph-name="Icircumflex" unicode="&#xce;" horiz-adv-x="264" 
d="M88 887h90l135 -162h-97l-84 102l-82 -102h-97zM81 0v674h102v-674h-102z" />
    <glyph glyph-name="Idieresis" unicode="&#xcf;" horiz-adv-x="264" 
d="M81 0v674h102v-674h-102zM-36 807q0 26 17 43t44 17q25 0 42.5 -17.5t17.5 -42.5t-17.5 -42.5t-42.5 -17.5q-27 0 -44 17t-17 43zM185 807q0 25 17.5 42.5t42.5 17.5q26 0 43.5 -17t17.5 -43t-17.5 -43t-43.5 -17q-25 0 -42.5 17.5t-17.5 42.5z" />
    <glyph glyph-name="Eth" unicode="&#xd0;" horiz-adv-x="736" 
d="M246 87h106q116 0 176 72t60 185q0 104 -65.5 173t-173.5 69h-103v-208h164v-84h-164v-207zM142 674h209q150 0 246 -93t96 -237q0 -150 -90.5 -247t-249.5 -97h-211v294h-80v84h80v296z" />
    <glyph glyph-name="Ntilde" unicode="&#xd1;" horiz-adv-x="680" 
d="M73 0v674h122l166 -282q46 -79 83.5 -146t51.5 -94l14 -28q-6 91 -6 267v283h103v-674h-122l-167 281q-45 76 -82.5 143.5t-52.5 97.5l-15 29q8 -100 8 -269v-282h-103zM469 868l56 -42q-35 -74 -109 -74q-29 0 -69.5 20.5t-56.5 20.5q-23 0 -38.5 -11t-31.5 -35l-49 45
q14 31 42.5 52.5t62.5 21.5q32 0 74 -20.5t61 -20.5q37 0 58 43z" />
    <glyph glyph-name="Ograve" unicode="&#xd2;" horiz-adv-x="711" 
d="M46 340q0 157 84 252t225 95q144 0 227 -94.5t83 -252.5t-83.5 -253t-225.5 -95q-141 0 -225.5 95t-84.5 253zM154 340q0 -116 55 -184t147 -68q95 0 148 67t53 185q0 117 -53.5 184t-148.5 67q-94 0 -147.5 -67.5t-53.5 -183.5zM312 887l95 -162h-84l-120 162h109z" />
    <glyph glyph-name="Oacute" unicode="&#xd3;" horiz-adv-x="711" 
d="M320 725l95 162h109l-120 -162h-84zM46 340q0 157 84 252t225 95q144 0 227 -94.5t83 -252.5t-83.5 -253t-225.5 -95q-141 0 -225.5 95t-84.5 253zM154 340q0 -116 55 -184t147 -68q95 0 148 67t53 185q0 117 -53.5 184t-148.5 67q-94 0 -147.5 -67.5t-53.5 -183.5z" />
    <glyph glyph-name="Ocircumflex" unicode="&#xd4;" horiz-adv-x="711" 
d="M154 340q0 -116 55 -184t147 -68q95 0 148 67t53 185q0 117 -53.5 184t-148.5 67q-94 0 -147.5 -67.5t-53.5 -183.5zM46 340q0 157 84 252t225 95q144 0 227 -94.5t83 -252.5t-83.5 -253t-225.5 -95q-141 0 -225.5 95t-84.5 253zM317 887h90l135 -162h-97l-84 102
l-82 -102h-97z" />
    <glyph glyph-name="Otilde" unicode="&#xd5;" horiz-adv-x="711" 
d="M46 340q0 157 84 252t225 95q144 0 227 -94.5t83 -252.5t-83.5 -253t-225.5 -95q-141 0 -225.5 95t-84.5 253zM154 340q0 -116 55 -184t147 -68q95 0 148 67t53 185q0 117 -53.5 184t-148.5 67q-94 0 -147.5 -67.5t-53.5 -183.5zM478 869l56 -42q-35 -74 -109 -74
q-29 0 -69.5 20.5t-56.5 20.5q-23 0 -38.5 -11t-31.5 -35l-49 45q14 31 42.5 52.5t62.5 21.5q32 0 74 -20.5t61 -20.5q37 0 58 43z" />
    <glyph glyph-name="Odieresis" unicode="&#xd6;" horiz-adv-x="711" 
d="M190 807q0 26 17 43t44 17q25 0 42.5 -17.5t17.5 -42.5t-17.5 -42.5t-42.5 -17.5q-27 0 -44 17t-17 43zM411 807q0 25 17.5 42.5t42.5 17.5q26 0 43.5 -17t17.5 -43t-17.5 -43t-43.5 -17q-25 0 -42.5 17.5t-17.5 42.5zM46 340q0 157 84 252t225 95q144 0 227 -94.5
t83 -252.5t-83.5 -253t-225.5 -95q-141 0 -225.5 95t-84.5 253zM154 340q0 -116 55 -184t147 -68q95 0 148 67t53 185q0 117 -53.5 184t-148.5 67q-94 0 -147.5 -67.5t-53.5 -183.5z" />
    <glyph glyph-name="multiply" unicode="&#xd7;" horiz-adv-x="503" 
d="M447 472l-133 -132l131 -130l-63 -63l-131 130l-130 -129l-64 63l130 130l-133 132l63 63l133 -132l133 132z" />
    <glyph glyph-name="Oslash" unicode="&#xd8;" horiz-adv-x="686" 
d="M520 497l-282 -379q48 -34 113 -34q96 0 149.5 68.5t53.5 187.5q0 94 -34 157zM182 182l282 380q-45 33 -114 33q-95 0 -149.5 -68.5t-54.5 -186.5q0 -94 36 -158zM661 686l-76 -103q75 -94 75 -243q0 -158 -83.5 -253t-225.5 -95q-98 0 -171 48l-36 -48h-104l77 104
q-77 94 -77 244q0 157 84 252t226 95q98 0 172 -47l35 46h104z" />
    <glyph glyph-name="Ugrave" unicode="&#xd9;" horiz-adv-x="652" 
d="M478 256v418h103v-416q0 -131 -68 -199t-188 -68q-118 0 -186 66.5t-68 192.5v424h103v-423q0 -86 41.5 -125.5t109.5 -39.5q153 0 153 170zM277 887l95 -162h-84l-120 162h109z" />
    <glyph glyph-name="Uacute" unicode="&#xda;" horiz-adv-x="652" 
d="M297 725l95 162h109l-120 -162h-84zM478 256v418h103v-416q0 -131 -68 -199t-188 -68q-118 0 -186 66.5t-68 192.5v424h103v-423q0 -86 41.5 -125.5t109.5 -39.5q153 0 153 170z" />
    <glyph glyph-name="Ucircumflex" unicode="&#xdb;" horiz-adv-x="652" 
d="M478 256v418h103v-416q0 -131 -68 -199t-188 -68q-118 0 -186 66.5t-68 192.5v424h103v-423q0 -86 41.5 -125.5t109.5 -39.5q153 0 153 170zM282 887h90l135 -162h-97l-84 102l-82 -102h-97z" />
    <glyph glyph-name="Udieresis" unicode="&#xdc;" horiz-adv-x="652" 
d="M157 807q0 26 17 43t44 17q26 0 43 -17.5t17 -42.5t-17 -42.5t-43 -17.5q-27 0 -44 17t-17 43zM378 807q0 25 17 42.5t43 17.5t43.5 -17t17.5 -43t-17.5 -43t-43.5 -17t-43 17.5t-17 42.5zM478 256v418h103v-416q0 -131 -68 -199t-188 -68q-118 0 -186 66.5t-68 192.5
v424h103v-423q0 -86 41.5 -125.5t109.5 -39.5q153 0 153 170z" />
    <glyph glyph-name="Yacute" unicode="&#xdd;" horiz-adv-x="608" 
d="M482 887l-120 -162h-84l95 162h109zM585 674l-231 -423v-251h-103v251l-228 423h118l48 -99q46 -93 74 -153t33 -74l6 -13q9 30 116 240l49 99h118z" />
    <glyph glyph-name="Thorn" unicode="&#xde;" horiz-adv-x="544" 
d="M176 205h89q72 0 108 35.5t36 92.5q0 61 -36.5 98.5t-113.5 37.5h-83v-264zM176 554h85q119 0 185.5 -60.5t66.5 -158.5q0 -97 -67 -156t-179 -59h-91v-120h-103v674h103v-120z" />
    <glyph glyph-name="germandbls" unicode="&#xdf;" horiz-adv-x="558" 
d="M264 8v90q43 -24 90 -24q37 0 59.5 18t22.5 48q0 24 -15 44.5t-37 37t-44 34t-37 42t-15 54.5q0 40 37 90t37 84t-24 54.5t-64 20.5q-106 0 -106 -111v-490h-97v486q0 100 54 152t148 52q84 0 136.5 -46.5t52.5 -112.5q0 -42 -18 -74.5t-35.5 -55t-17.5 -41.5t22 -40
t48 -39.5t48 -55t22 -82.5q0 -67 -46 -109t-126 -42q-59 0 -95 16z" />
    <glyph glyph-name="agrave" unicode="&#xe0;" horiz-adv-x="499" 
d="M301 558h-84l-120 162h109zM336 226h-76q-56 0 -84.5 -22t-28.5 -56q0 -35 22 -55t64 -20q48 0 75.5 26.5t27.5 69.5v57zM81 386v95q59 34 156 34q199 0 199 -193v-322h-97v60q-39 -64 -137 -64q-72 0 -115.5 41.5t-43.5 105.5q0 73 55 113.5t154 40.5h84v29
q0 52 -25 78.5t-83 26.5q-81 0 -147 -45z" />
    <glyph glyph-name="aacute" unicode="&#xe1;" horiz-adv-x="499" 
d="M419 720l-120 -162h-84l95 162h109zM336 226h-76q-56 0 -84.5 -22t-28.5 -56q0 -35 22 -55t64 -20q48 0 75.5 26.5t27.5 69.5v57zM81 386v95q59 34 156 34q199 0 199 -193v-322h-97v60q-39 -64 -137 -64q-72 0 -115.5 41.5t-43.5 105.5q0 73 55 113.5t154 40.5h84v29
q0 52 -25 78.5t-83 26.5q-81 0 -147 -45z" />
    <glyph glyph-name="acircumflex" unicode="&#xe2;" horiz-adv-x="499" 
d="M254 660l-82 -102h-97l135 162h90l135 -162h-97zM336 226h-76q-56 0 -84.5 -22t-28.5 -56q0 -35 22 -55t64 -20q48 0 75.5 26.5t27.5 69.5v57zM81 386v95q59 34 156 34q199 0 199 -193v-322h-97v60q-39 -64 -137 -64q-72 0 -115.5 41.5t-43.5 105.5q0 73 55 113.5
t154 40.5h84v29q0 52 -25 78.5t-83 26.5q-81 0 -147 -45z" />
    <glyph glyph-name="atilde" unicode="&#xe3;" horiz-adv-x="499" 
d="M373 701l56 -42q-35 -74 -109 -74q-29 0 -69.5 20.5t-56.5 20.5q-23 0 -38.5 -11t-31.5 -35l-49 45q14 31 42.5 52.5t62.5 21.5q32 0 74 -20.5t61 -20.5q37 0 58 43zM336 226h-76q-56 0 -84.5 -22t-28.5 -56q0 -35 22 -55t64 -20q48 0 75.5 26.5t27.5 69.5v57zM81 386v95
q59 34 156 34q199 0 199 -193v-322h-97v60q-39 -64 -137 -64q-72 0 -115.5 41.5t-43.5 105.5q0 73 55 113.5t154 40.5h84v29q0 52 -25 78.5t-83 26.5q-81 0 -147 -45z" />
    <glyph glyph-name="adieresis" unicode="&#xe4;" horiz-adv-x="499" 
d="M366 578q-26 0 -43 17t-17 43t17 43t43 17t43.5 -17t17.5 -43t-17.5 -43t-43.5 -17zM146 578q-27 0 -44 17t-17 43t17 43t44 17q26 0 43 -17t17 -43t-17 -43t-43 -17zM336 226h-76q-56 0 -84.5 -22t-28.5 -56q0 -35 22 -55t64 -20q48 0 75.5 26.5t27.5 69.5v57zM81 386
v95q59 34 156 34q199 0 199 -193v-322h-97v60q-39 -64 -137 -64q-72 0 -115.5 41.5t-43.5 105.5q0 73 55 113.5t154 40.5h84v29q0 52 -25 78.5t-83 26.5q-81 0 -147 -45z" />
    <glyph glyph-name="aring" unicode="&#xe5;" horiz-adv-x="499" 
d="M256 718q-22 0 -37.5 -16t-15.5 -38t15.5 -38.5t37.5 -16.5q23 0 38.5 16.5t15.5 38.5t-15.5 38t-38.5 16zM256 548q-47 0 -80.5 33.5t-33.5 80.5q0 48 33.5 82t80.5 34q48 0 82 -34t34 -82q0 -47 -34 -80.5t-82 -33.5zM336 226h-76q-56 0 -84.5 -22t-28.5 -56
q0 -35 22 -55t64 -20q48 0 75.5 26.5t27.5 69.5v57zM81 386v95q59 34 156 34q199 0 199 -193v-322h-97v60q-39 -64 -137 -64q-72 0 -115.5 41.5t-43.5 105.5q0 73 55 113.5t154 40.5h84v29q0 52 -25 78.5t-83 26.5q-81 0 -147 -45z" />
    <glyph glyph-name="ae" unicode="&#xe6;" horiz-adv-x="816" 
d="M341 175v50h-67q-123 0 -123 -78q0 -34 22 -53.5t65 -19.5q44 0 73.5 27.5t29.5 73.5zM681 290v18q-1 59 -31 91.5t-81 32.5q-50 0 -86.5 -36t-45.5 -106h244zM770 213h-331q11 -66 56.5 -101t111.5 -35q80 0 134 38v-88q-56 -32 -143 -32q-63 0 -118.5 26.5t-84.5 74.5
q-19 -44 -64.5 -72.5t-114.5 -28.5q-77 0 -122.5 40t-45.5 108q0 73 55.5 114t155.5 41h82v28q0 52 -25 78.5t-83 26.5q-80 0 -147 -44v93q58 35 152 35q125 0 160 -85q56 83 170 83q99 0 153.5 -61t54.5 -177q0 -28 -6 -62z" />
    <glyph glyph-name="ccedilla" unicode="&#xe7;" horiz-adv-x="471" 
d="M142 251q2 -77 47 -126.5t126 -49.5q60 0 112 33v-88q-49 -30 -125 -30q-119 0 -190 75t-71 187q0 109 71.5 186.5t193.5 77.5q66 0 121 -28v-90q-49 31 -111 31q-79 0 -126.5 -50t-47.5 -128zM348 -123q0 -56 -41 -94.5t-118 -39.5v68q82 5 82 69q0 32 -25 69h84
q18 -25 18 -72z" />
    <glyph glyph-name="egrave" unicode="&#xe8;" horiz-adv-x="525" 
d="M324 558h-84l-120 162h109zM384 290v18q-2 57 -31 90.5t-83 33.5q-50 0 -86 -36.5t-45 -105.5h245zM447 115v-88q-56 -32 -148 -32q-118 0 -188 71t-70 186q0 122 64 191.5t163 69.5q97 0 154 -60.5t57 -174.5q0 -31 -6 -65h-333q10 -66 56 -101t116 -35q81 0 135 38z
" />
    <glyph glyph-name="eacute" unicode="&#xe9;" horiz-adv-x="525" 
d="M448 720l-120 -162h-84l95 162h109zM384 290v18q-2 57 -31 90.5t-83 33.5q-50 0 -86 -36.5t-45 -105.5h245zM447 115v-88q-56 -32 -148 -32q-118 0 -188 71t-70 186q0 122 64 191.5t163 69.5q97 0 154 -60.5t57 -174.5q0 -31 -6 -65h-333q10 -66 56 -101t116 -35
q81 0 135 38z" />
    <glyph glyph-name="ecircumflex" unicode="&#xea;" horiz-adv-x="525" 
d="M277 660l-82 -102h-97l135 162h90l135 -162h-97zM384 290v18q-2 57 -31 90.5t-83 33.5q-50 0 -86 -36.5t-45 -105.5h245zM447 115v-88q-56 -32 -148 -32q-118 0 -188 71t-70 186q0 122 64 191.5t163 69.5q97 0 154 -60.5t57 -174.5q0 -31 -6 -65h-333q10 -66 56 -101
t116 -35q81 0 135 38z" />
    <glyph glyph-name="edieresis" unicode="&#xeb;" horiz-adv-x="525" 
d="M392 580q-26 0 -43 17t-17 43t17 43t43 17t43.5 -17t17.5 -43t-17.5 -43t-43.5 -17zM172 580q-27 0 -44 17t-17 43t17 43t44 17q26 0 43 -17t17 -43t-17 -43t-43 -17zM384 290v18q-2 57 -31 90.5t-83 33.5q-50 0 -86 -36.5t-45 -105.5h245zM447 115v-88q-56 -32 -148 -32
q-118 0 -188 71t-70 186q0 122 64 191.5t163 69.5q97 0 154 -60.5t57 -174.5q0 -31 -6 -65h-333q10 -66 56 -101t116 -35q81 0 135 38z" />
    <glyph glyph-name="igrave" unicode="&#xec;" horiz-adv-x="245" 
d="M73 0v507h99v-507h-99zM63 720l95 -162h-84l-120 162h109z" />
    <glyph glyph-name="iacute" unicode="&#xed;" horiz-adv-x="245" 
d="M73 0v507h99v-507h-99zM88 558l95 162h109l-120 -162h-84z" />
    <glyph glyph-name="icircumflex" unicode="&#xee;" horiz-adv-x="245" 
d="M79 720h90l135 -162h-97l-84 102l-82 -102h-97zM73 0v507h99v-507h-99z" />
    <glyph glyph-name="idieresis" unicode="&#xef;" horiz-adv-x="245" 
d="M73 0v507h99v-507h-99zM-48 641q0 26 17 43t44 17q25 0 42.5 -17.5t17.5 -42.5t-17.5 -42.5t-42.5 -17.5q-27 0 -44 17t-17 43zM173 641q0 25 17.5 42.5t42.5 17.5q26 0 43.5 -17t17.5 -43t-17.5 -43t-43.5 -17q-25 0 -42.5 17.5t-17.5 42.5z" />
    <glyph glyph-name="eth" unicode="&#xf0;" horiz-adv-x="528" 
d="M256 80q53 0 89 40t41 130q-54 69 -135 69q-50 0 -81 -32t-31 -89q0 -54 32.5 -86t84.5 -32zM461 609l-80 -40q102 -134 102 -294q0 -135 -60 -209.5t-167 -74.5q-99 0 -159 62t-60 150q0 93 57.5 148t141.5 55q87 0 146 -62q-17 99 -81 185l-141 -71v67l100 50
q-57 58 -130 99h142q37 -25 69 -58l120 60v-67z" />
    <glyph glyph-name="ntilde" unicode="&#xf1;" horiz-adv-x="551" 
d="M404 701l56 -42q-35 -74 -109 -74q-29 0 -69.5 20.5t-56.5 20.5q-23 0 -38.5 -11t-31.5 -35l-49 45q14 31 42.5 52.5t62.5 21.5q32 0 74 -20.5t61 -20.5q37 0 58 43zM167 507v-87q45 94 158 94q75 0 119 -46t44 -125v-343h-98v320q0 53 -26.5 81t-70.5 28
q-52 0 -89 -40.5t-37 -113.5v-275h-98v507h98z" />
    <glyph glyph-name="ograve" unicode="&#xf2;" horiz-adv-x="564" 
d="M281 -9q-112 0 -176 73t-64 185q0 114 66 189.5t174 75.5q116 0 179 -73.5t63 -187.5t-64.5 -188t-177.5 -74zM280 431q-65 0 -101 -51.5t-36 -127.5q0 -75 37 -126.5t101 -51.5q68 0 103.5 50t35.5 127q0 79 -34 129.5t-106 50.5zM234 720l95 -162h-84l-120 162h109z
" />
    <glyph glyph-name="oacute" unicode="&#xf3;" horiz-adv-x="564" 
d="M252 558l95 162h109l-120 -162h-84zM281 -9q-112 0 -176 73t-64 185q0 114 66 189.5t174 75.5q116 0 179 -73.5t63 -187.5t-64.5 -188t-177.5 -74zM280 431q-65 0 -101 -51.5t-36 -127.5q0 -75 37 -126.5t101 -51.5q68 0 103.5 50t35.5 127q0 79 -34 129.5t-106 50.5z
" />
    <glyph glyph-name="ocircumflex" unicode="&#xf4;" horiz-adv-x="564" 
d="M280 431q-65 0 -101 -51.5t-36 -127.5q0 -75 37 -126.5t101 -51.5q68 0 103.5 50t35.5 127q0 79 -34 129.5t-106 50.5zM281 -9q-112 0 -176 73t-64 185q0 114 66 189.5t174 75.5q116 0 179 -73.5t63 -187.5t-64.5 -188t-177.5 -74zM240 719h90l135 -162h-97l-84 102
l-82 -102h-97z" />
    <glyph glyph-name="otilde" unicode="&#xf5;" horiz-adv-x="564" 
d="M281 -9q-112 0 -176 73t-64 185q0 114 66 189.5t174 75.5q116 0 179 -73.5t63 -187.5t-64.5 -188t-177.5 -74zM280 431q-65 0 -101 -51.5t-36 -127.5q0 -75 37 -126.5t101 -51.5q68 0 103.5 50t35.5 127q0 79 -34 129.5t-106 50.5zM406 701l56 -42q-35 -74 -109 -74
q-29 0 -69.5 20.5t-56.5 20.5q-23 0 -38.5 -11t-31.5 -35l-49 45q14 31 42.5 52.5t62.5 21.5q32 0 74 -20.5t61 -20.5q37 0 58 43z" />
    <glyph glyph-name="odieresis" unicode="&#xf6;" horiz-adv-x="564" 
d="M120 639q0 26 17 43t44 17q25 0 42.5 -17.5t17.5 -42.5t-17.5 -42.5t-42.5 -17.5q-27 0 -44 17t-17 43zM341 639q0 25 17.5 42.5t42.5 17.5q26 0 43.5 -17t17.5 -43t-17.5 -43t-43.5 -17q-25 0 -42.5 17.5t-17.5 42.5zM281 -9q-112 0 -176 73t-64 185q0 114 66 189.5
t174 75.5q116 0 179 -73.5t63 -187.5t-64.5 -188t-177.5 -74zM280 431q-65 0 -101 -51.5t-36 -127.5q0 -75 37 -126.5t101 -51.5q68 0 103.5 50t35.5 127q0 79 -34 129.5t-106 50.5z" />
    <glyph glyph-name="divide" unicode="&#xf7;" horiz-adv-x="564" 
d="M221 518q0 24 17.5 41.5t41.5 17.5t41.5 -17.5t17.5 -41.5t-17.5 -42t-41.5 -18t-41.5 18t-17.5 42zM53 296v88h457v-88h-457zM221 162q0 24 17.5 42t41.5 18t41.5 -18t17.5 -42t-17.5 -41.5t-41.5 -17.5t-41.5 17.5t-17.5 41.5z" />
    <glyph glyph-name="oslash" unicode="&#xf8;" horiz-adv-x="563" 
d="M418 360l-203 -272q32 -23 76 -23q72 0 110 52.5t38 133.5q0 66 -21 109zM166 147l202 272q-32 21 -78 21q-70 0 -108.5 -54t-38.5 -134q0 -59 23 -105zM533 514l-59 -79q59 -71 59 -182q0 -114 -65 -188t-178 -74q-71 0 -124 31l-23 -31h-93l59 79q-59 71 -59 179
q0 114 66 189.5t174 75.5q73 0 126 -31l23 31h94z" />
    <glyph glyph-name="ugrave" unicode="&#xf9;" horiz-adv-x="551" 
d="M318 557h-84l-120 162h109zM384 507h98v-507h-98v87q-40 -93 -158 -93q-75 0 -119 44.5t-44 122.5v346h99v-322q0 -52 25.5 -79.5t70.5 -27.5q57 0 91.5 40t34.5 113v276z" />
    <glyph glyph-name="uacute" unicode="&#xfa;" horiz-adv-x="551" 
d="M444 720l-120 -162h-84l95 162h109zM384 507h98v-507h-98v87q-40 -93 -158 -93q-75 0 -119 44.5t-44 122.5v346h99v-322q0 -52 25.5 -79.5t70.5 -27.5q57 0 91.5 40t34.5 113v276z" />
    <glyph glyph-name="ucircumflex" unicode="&#xfb;" horiz-adv-x="551" 
d="M274 660l-82 -102h-97l135 162h90l135 -162h-97zM384 507h98v-507h-98v87q-40 -93 -158 -93q-75 0 -119 44.5t-44 122.5v346h99v-322q0 -52 25.5 -79.5t70.5 -27.5q57 0 91.5 40t34.5 113v276z" />
    <glyph glyph-name="udieresis" unicode="&#xfc;" horiz-adv-x="551" 
d="M385 579q-25 0 -42.5 17.5t-17.5 42.5t17.5 42.5t42.5 17.5q26 0 43.5 -17t17.5 -43t-17.5 -43t-43.5 -17zM165 579q-27 0 -44 17t-17 43t17 43t44 17q25 0 42.5 -17.5t17.5 -42.5t-17.5 -42.5t-42.5 -17.5zM384 507h98v-507h-98v87q-40 -93 -158 -93q-75 0 -119 44.5
t-44 122.5v346h99v-322q0 -52 25.5 -79.5t70.5 -27.5q57 0 91.5 40t34.5 113v276z" />
    <glyph glyph-name="yacute" unicode="&#xfd;" horiz-adv-x="504" 
d="M223 558l95 162h109l-120 -162h-84zM209 11l-202 496h109l63 -165l79 -214q9 30 72 214l57 165h104l-183 -493q-73 -195 -223 -195q-27 0 -46 5v84q16 -4 34 -4q97 0 136 107z" />
    <glyph glyph-name="thorn" unicode="&#xfe;" horiz-adv-x="580" 
d="M303 79q59 0 97 46.5t38 130.5q0 79 -37 125.5t-94 46.5t-98.5 -41.5t-41.5 -131.5q0 -88 41.5 -132t94.5 -44zM167 707v-278q52 85 156 85q100 0 158 -72.5t58 -184.5q0 -115 -59.5 -189.5t-158.5 -74.5q-101 0 -154 84v-271h-98v901h98z" />
    <glyph glyph-name="ydieresis" unicode="&#xff;" horiz-adv-x="504" 
d="M311 639q0 25 17.5 42.5t42.5 17.5q26 0 43.5 -17t17.5 -43t-17.5 -43t-43.5 -17q-25 0 -42.5 17.5t-17.5 42.5zM90 639q0 26 17 43t44 17q25 0 42.5 -17.5t17.5 -42.5t-17.5 -42.5t-42.5 -17.5q-27 0 -44 17t-17 43zM209 11l-202 496h109l63 -165l79 -214q9 30 72 214
l57 165h104l-183 -493q-73 -195 -223 -195q-27 0 -46 5v84q16 -4 34 -4q97 0 136 107z" />
    <glyph glyph-name="Amacron" unicode="&#x100;" horiz-adv-x="660" 
d="M486 841v-68h-304v68h304zM222 251h216l-11 34q-38 118 -62 195.5t-29 96.5l-5 19q-11 -47 -98 -311zM519 0l-53 165h-272l-54 -165h-109l233 674h135l230 -674h-110z" />
    <glyph glyph-name="amacron" unicode="&#x101;" horiz-adv-x="499" 
d="M403 673v-68h-304v68h304zM336 226h-76q-56 0 -84.5 -22t-28.5 -56q0 -35 22 -55t64 -20q48 0 75.5 26.5t27.5 69.5v57zM81 386v95q59 34 156 34q199 0 199 -193v-322h-97v60q-39 -64 -137 -64q-72 0 -115.5 41.5t-43.5 105.5q0 73 55 113.5t154 40.5h84v29
q0 52 -25 78.5t-83 26.5q-81 0 -147 -45z" />
    <glyph glyph-name="Abreve" unicode="&#x102;" horiz-adv-x="660" 
d="M426 887h78q0 -79 -45 -122t-129 -43t-129 43t-45 122h78q0 -44 24 -71t72 -27t72 27t24 71zM222 251h216l-11 34q-38 118 -62 195.5t-29 96.5l-5 19q-11 -47 -98 -311zM519 0l-53 165h-272l-54 -165h-109l233 674h135l230 -674h-110z" />
    <glyph glyph-name="abreve" unicode="&#x103;" horiz-adv-x="499" 
d="M347 719h78q0 -79 -45 -122t-129 -43t-129 43t-45 122h78q0 -44 24 -71t72 -27t72 27t24 71zM336 226h-76q-56 0 -84.5 -22t-28.5 -56q0 -35 22 -55t64 -20q48 0 75.5 26.5t27.5 69.5v57zM81 386v95q59 34 156 34q199 0 199 -193v-322h-97v60q-39 -64 -137 -64
q-72 0 -115.5 41.5t-43.5 105.5q0 73 55 113.5t154 40.5h84v29q0 52 -25 78.5t-83 26.5q-81 0 -147 -45z" />
    <glyph glyph-name="Aogonek" unicode="&#x104;" horiz-adv-x="656" 
d="M219 251h217l-11 34l-97 311q-10 -47 -98 -311zM397 674l230 -674q-114 -60 -114 -127q0 -51 58 -51q39 0 74 24v-72q-36 -21 -88 -21q-62 0 -94.5 31.5t-32.5 80.5q0 81 84 143l-50 157h-273l-53 -165h-109l232 674h136z" />
    <glyph glyph-name="aogonek" unicode="&#x105;" horiz-adv-x="497" 
d="M336 225h-67q-123 0 -123 -78q0 -34 22 -53.5t65 -19.5q46 0 74.5 26.5t28.5 64.5v60zM436 322v-322q-114 -61 -114 -127q0 -51 58 -51q39 0 74 24v-72q-36 -21 -88 -21q-62 0 -94.5 31.5t-32.5 80.5q0 87 100 150v48q-47 -67 -137 -67q-72 0 -115.5 40.5t-43.5 106.5
q0 73 55.5 114t155.5 41h82v28q0 52 -25 78.5t-83 26.5q-80 0 -147 -44v93q58 35 156 35q199 0 199 -193z" />
    <glyph glyph-name="Cacute" unicode="&#x106;" horiz-adv-x="605" 
d="M560 646v-101q-44 24 -79.5 33.5t-90.5 9.5q-101 0 -168.5 -68.5t-67.5 -181.5q0 -115 67 -183t177 -68q97 0 163 50v-104q-62 -41 -172 -41q-151 0 -247 94t-96 252q0 153 96.5 249t244.5 96q108 0 173 -37zM323 725l95 162h109l-120 -162h-84z" />
    <glyph glyph-name="cacute" unicode="&#x107;" horiz-adv-x="471" 
d="M253 557l95 162h109l-120 -162h-84zM142 251q2 -77 47 -126.5t126 -49.5q60 0 112 33v-88q-49 -30 -125 -30q-119 0 -190 75t-71 187q0 109 71.5 186.5t193.5 77.5q66 0 121 -28v-90q-49 31 -111 31q-79 0 -126.5 -50t-47.5 -128z" />
    <glyph glyph-name="Ccircumflex" unicode="&#x108;" horiz-adv-x="605" 
d="M560 646v-101q-44 24 -79.5 33.5t-90.5 9.5q-101 0 -168.5 -68.5t-67.5 -181.5q0 -115 67 -183t177 -68q97 0 163 50v-104q-62 -41 -172 -41q-151 0 -247 94t-96 252q0 153 96.5 249t244.5 96q108 0 173 -37zM314 887h90l135 -162h-97l-84 102l-82 -102h-97z" />
    <glyph glyph-name="ccircumflex" unicode="&#x109;" horiz-adv-x="471" 
d="M427 488v-90q-49 31 -111 31q-79 0 -126.5 -50t-47.5 -128q2 -77 47 -126.5t126 -49.5q60 0 112 33v-88q-49 -30 -125 -30q-119 0 -190 75t-71 187q0 109 71.5 186.5t193.5 77.5q66 0 121 -28zM224 720h90l135 -162h-97l-84 102l-82 -102h-97z" />
    <glyph glyph-name="Cdotaccent" unicode="&#x10a;" horiz-adv-x="605" 
d="M312 809q0 26 17.5 43t43.5 17t43 -17t17 -43t-17 -43t-43 -17t-43.5 17t-17.5 43zM560 646v-101q-44 24 -79.5 33.5t-90.5 9.5q-101 0 -168.5 -68.5t-67.5 -181.5q0 -115 67 -183t177 -68q97 0 163 50v-104q-62 -41 -172 -41q-151 0 -247 94t-96 252q0 153 96.5 249
t244.5 96q108 0 173 -37z" />
    <glyph glyph-name="cdotaccent" unicode="&#x10b;" horiz-adv-x="471" 
d="M142 251q2 -77 47 -126.5t126 -49.5q60 0 112 33v-88q-49 -30 -125 -30q-119 0 -190 75t-71 187q0 109 71.5 186.5t193.5 77.5q66 0 121 -28v-90q-49 31 -111 31q-79 0 -126.5 -50t-47.5 -128zM235 640q0 26 17.5 43t43.5 17t43 -17t17 -43t-17 -43t-43 -17t-43.5 17
t-17.5 43z" />
    <glyph glyph-name="Ccaron" unicode="&#x10c;" horiz-adv-x="605" 
d="M560 646v-101q-44 24 -79.5 33.5t-90.5 9.5q-101 0 -168.5 -68.5t-67.5 -181.5q0 -115 67 -183t177 -68q97 0 163 50v-104q-62 -41 -172 -41q-151 0 -247 94t-96 252q0 153 96.5 249t244.5 96q108 0 173 -37zM418 725h-90l-135 162h97l83 -102l83 102h97z" />
    <glyph glyph-name="ccaron" unicode="&#x10d;" horiz-adv-x="471" 
d="M427 488v-90q-49 31 -111 31q-79 0 -126.5 -50t-47.5 -128q2 -77 47 -126.5t126 -49.5q60 0 112 33v-88q-49 -30 -125 -30q-119 0 -190 75t-71 187q0 109 71.5 186.5t193.5 77.5q66 0 121 -28zM321 558h-90l-135 162h97l83 -102l83 102h97z" />
    <glyph glyph-name="Dcaron" unicode="&#x10e;" horiz-adv-x="667" 
d="M355 725h-90l-135 162h97l83 -102l83 102h97zM178 87h106q115 0 175 72t60 185q0 104 -65 173t-173 69h-103v-499zM73 674h210q150 0 246 -93t96 -237q0 -150 -90.5 -247t-249.5 -97h-212v674z" />
    <glyph glyph-name="dcaron" unicode="&#x10f;" horiz-adv-x="685" 
d="M274 79q58 0 98 44t40 134q0 87 -41.5 129t-93.5 42q-59 0 -97 -46.5t-38 -132.5q0 -76 37.5 -123t94.5 -47zM412 430v277h99v-707h-99v77q-53 -84 -155 -84q-100 0 -158 75.5t-58 182.5q0 119 61 191t157 72q99 0 153 -84zM646 707h109l-113 -197h-77z" />
    <glyph glyph-name="Dcroat" unicode="&#x110;" horiz-adv-x="736" 
d="M246 87h106q116 0 176 72t60 185q0 104 -65.5 173t-173.5 69h-103v-208h164v-84h-164v-207zM142 674h209q150 0 246 -93t96 -237q0 -150 -90.5 -247t-249.5 -97h-211v294h-80v84h80v296z" />
    <glyph glyph-name="dcroat" unicode="&#x111;" horiz-adv-x="580" 
d="M274 79q58 0 98 44t40 134q0 87 -41.5 129t-93.5 42q-59 0 -97 -46.5t-38 -132.5q0 -76 37.5 -123t94.5 -47zM578 643v-63h-67v-580h-99v77q-53 -84 -155 -84q-100 0 -158 75.5t-58 182.5q0 119 61 191t157 72q99 0 153 -84v150h-181v63h181v64h99v-64h67z" />
    <glyph glyph-name="Emacron" unicode="&#x112;" horiz-adv-x="514" 
d="M418 842v-68h-304v68h304zM176 86h286v-86h-389v674h384v-86h-281v-208h249v-86h-249v-208z" />
    <glyph glyph-name="emacron" unicode="&#x113;" horiz-adv-x="525" 
d="M426 673v-68h-304v68h304zM384 290v18q-2 57 -31 90.5t-83 33.5q-50 0 -86 -36.5t-45 -105.5h245zM447 115v-88q-56 -32 -148 -32q-118 0 -188 71t-70 186q0 122 64 191.5t163 69.5q97 0 154 -60.5t57 -174.5q0 -31 -6 -65h-333q10 -66 56 -101t116 -35q81 0 135 38z" />
    <glyph glyph-name="Ebreve" unicode="&#x114;" horiz-adv-x="514" 
d="M369 887h78q0 -79 -45 -122t-129 -43t-129 43t-45 122h78q0 -44 24 -71t72 -27t72 27t24 71zM176 86h286v-86h-389v674h384v-86h-281v-208h249v-86h-249v-208z" />
    <glyph glyph-name="ebreve" unicode="&#x115;" horiz-adv-x="525" 
d="M369 720h78q0 -79 -45 -122t-129 -43t-129 43t-45 122h78q0 -44 24 -71t72 -27t72 27t24 71zM384 290v18q-2 57 -31 90.5t-83 33.5q-50 0 -86 -36.5t-45 -105.5h245zM447 115v-88q-56 -32 -148 -32q-118 0 -188 71t-70 186q0 122 64 191.5t163 69.5q97 0 154 -60.5
t57 -174.5q0 -31 -6 -65h-333q10 -66 56 -101t116 -35q81 0 135 38z" />
    <glyph glyph-name="Edotaccent" unicode="&#x116;" horiz-adv-x="514" 
d="M277 748q-26 0 -43.5 17t-17.5 43t17.5 43t43.5 17t43 -17t17 -43t-17 -43t-43 -17zM176 86h286v-86h-389v674h384v-86h-281v-208h249v-86h-249v-208z" />
    <glyph glyph-name="edotaccent" unicode="&#x117;" horiz-adv-x="525" 
d="M281 580q-26 0 -43.5 17t-17.5 43t17.5 43t43.5 17t43 -17t17 -43t-17 -43t-43 -17zM384 290v18q-2 57 -31 90.5t-83 33.5q-50 0 -86 -36.5t-45 -105.5h245zM447 115v-88q-56 -32 -148 -32q-118 0 -188 71t-70 186q0 122 64 191.5t163 69.5q97 0 154 -60.5t57 -174.5
q0 -31 -6 -65h-333q10 -66 56 -101t116 -35q81 0 135 38z" />
    <glyph glyph-name="Eogonek" unicode="&#x118;" horiz-adv-x="514" 
d="M462 0h-63q-114 -61 -114 -127q0 -51 58 -51q41 0 74 24v-72q-36 -21 -87 -21q-62 0 -94.5 31.5t-32.5 80.5q0 74 78 135h-208v674h384v-86h-281v-208h249v-86h-249v-208h286v-86z" />
    <glyph glyph-name="eogonek" unicode="&#x119;" horiz-adv-x="525" 
d="M384 290v18q-2 57 -31 90.5t-83 33.5q-50 0 -86 -36.5t-45 -105.5h245zM407 -145v-72q-36 -21 -87 -21q-62 0 -94.5 31.5t-32.5 80.5q0 67 64 124q-100 13 -158 82t-58 172q0 122 64 191.5t163 69.5q97 0 154 -60.5t57 -174.5q0 -31 -6 -65h-333q10 -66 56 -101t116 -35
q81 0 135 38v-88q-27 -15 -68 -23q-104 -59 -104 -122q0 -51 58 -51q41 0 74 24z" />
    <glyph glyph-name="Ecaron" unicode="&#x11a;" horiz-adv-x="514" 
d="M319 725h-90l-135 162h97l83 -102l83 102h97zM176 86h286v-86h-389v674h384v-86h-281v-208h249v-86h-249v-208z" />
    <glyph glyph-name="ecaron" unicode="&#x11b;" horiz-adv-x="525" 
d="M319 558h-90l-135 162h97l83 -102l83 102h97zM384 290v18q-2 57 -31 90.5t-83 33.5q-50 0 -86 -36.5t-45 -105.5h245zM447 115v-88q-56 -32 -148 -32q-118 0 -188 71t-70 186q0 122 64 191.5t163 69.5q97 0 154 -60.5t57 -174.5q0 -31 -6 -65h-333q10 -66 56 -101
t116 -35q81 0 135 38z" />
    <glyph glyph-name="Gcircumflex" unicode="&#x11c;" horiz-adv-x="681" 
d="M371 827l-82 -102h-97l135 162h90l135 -162h-97zM615 385v-323h-1l1 -7q-87 -63 -218 -63q-158 0 -254.5 93t-96.5 253q0 155 97.5 251.5t247.5 96.5q117 0 196 -45v-106q-86 54 -192 54q-108 0 -174.5 -69t-66.5 -182q0 -116 65.5 -183t180.5 -67q60 0 114 22v186h-137
v89h238z" />
    <glyph glyph-name="gcircumflex" unicode="&#x11d;" horiz-adv-x="559" 
d="M286 660l-82 -102h-97l135 162h90l135 -162h-97zM269 98q52 0 90.5 40.5t38.5 113.5q0 90 -36.5 133t-88.5 43q-59 0 -93 -46.5t-34 -122.5q0 -79 36.5 -120t86.5 -41zM398 507h98v-464q0 -117 -66.5 -176.5t-170.5 -59.5q-98 0 -165 33v99q64 -42 155 -42q149 0 149 147
v52q-49 -82 -147 -82q-86 0 -147 63.5t-61 179.5q0 112 57 184.5t151 72.5q101 0 147 -86v79z" />
    <glyph glyph-name="Gbreve" unicode="&#x11e;" horiz-adv-x="681" 
d="M467 887h78q0 -79 -45 -122t-129 -43t-129 43t-45 122h78q0 -44 24 -71t72 -27t72 27t24 71zM615 385v-323h-1l1 -7q-87 -63 -218 -63q-158 0 -254.5 93t-96.5 253q0 155 97.5 251.5t247.5 96.5q117 0 196 -45v-106q-86 54 -192 54q-108 0 -174.5 -69t-66.5 -182
q0 -116 65.5 -183t180.5 -67q60 0 114 22v186h-137v89h238z" />
    <glyph glyph-name="gbreve" unicode="&#x11f;" horiz-adv-x="559" 
d="M393 720h78q0 -79 -45 -122t-129 -43t-129 43t-45 122h78q0 -44 24 -71t72 -27t72 27t24 71zM269 98q52 0 90.5 40.5t38.5 113.5q0 90 -36.5 133t-88.5 43q-59 0 -93 -46.5t-34 -122.5q0 -79 36.5 -120t86.5 -41zM398 507h98v-464q0 -117 -66.5 -176.5t-170.5 -59.5
q-98 0 -165 33v99q64 -42 155 -42q149 0 149 147v52q-49 -82 -147 -82q-86 0 -147 63.5t-61 179.5q0 112 57 184.5t151 72.5q101 0 147 -86v79z" />
    <glyph glyph-name="Gdotaccent" unicode="&#x120;" horiz-adv-x="681" 
d="M378 747q-26 0 -43.5 17t-17.5 43t17.5 43t43.5 17t43 -17t17 -43t-17 -43t-43 -17zM615 385v-323h-1l1 -7q-87 -63 -218 -63q-158 0 -254.5 93t-96.5 253q0 155 97.5 251.5t247.5 96.5q117 0 196 -45v-106q-86 54 -192 54q-108 0 -174.5 -69t-66.5 -182
q0 -116 65.5 -183t180.5 -67q60 0 114 22v186h-137v89h238z" />
    <glyph glyph-name="gdotaccent" unicode="&#x121;" horiz-adv-x="559" 
d="M309 580q-26 0 -43.5 17t-17.5 43t17.5 43t43.5 17t43 -17t17 -43t-17 -43t-43 -17zM269 98q52 0 90.5 40.5t38.5 113.5q0 90 -36.5 133t-88.5 43q-59 0 -93 -46.5t-34 -122.5q0 -79 36.5 -120t86.5 -41zM398 507h98v-464q0 -117 -66.5 -176.5t-170.5 -59.5
q-98 0 -165 33v99q64 -42 155 -42q149 0 149 147v52q-49 -82 -147 -82q-86 0 -147 63.5t-61 179.5q0 112 57 184.5t151 72.5q101 0 147 -86v79z" />
    <glyph glyph-name="uni0122" unicode="&#x122;" horiz-adv-x="681" 
d="M240 -249l81 198h109l-113 -198h-77zM615 385v-323h-1l1 -7q-87 -63 -218 -63q-158 0 -254.5 93t-96.5 253q0 155 97.5 251.5t247.5 96.5q117 0 196 -45v-106q-86 54 -192 54q-108 0 -174.5 -69t-66.5 -182q0 -116 65.5 -183t180.5 -67q60 0 114 22v186h-137v89h238z" />
    <glyph glyph-name="uni0123" unicode="&#x123;" horiz-adv-x="559" 
d="M447 755l-80 -197h-109l113 197h76zM269 98q52 0 90.5 40.5t38.5 113.5q0 90 -36.5 133t-88.5 43q-59 0 -93 -46.5t-34 -122.5q0 -79 36.5 -120t86.5 -41zM398 507h98v-464q0 -117 -66.5 -176.5t-170.5 -59.5q-98 0 -165 33v99q64 -42 155 -42q149 0 149 147v52
q-49 -82 -147 -82q-86 0 -147 63.5t-61 179.5q0 112 57 184.5t151 72.5q101 0 147 -86v79z" />
    <glyph glyph-name="Hcircumflex" unicode="&#x124;" horiz-adv-x="656" 
d="M329 827l-82 -102h-97l135 162h90l135 -162h-97zM479 674h103v-674h-103v295h-303v-295h-103v674h103v-290h303v290z" />
    <glyph glyph-name="hcircumflex" unicode="&#x125;" horiz-adv-x="551" 
d="M203 758l-84 102l-82 -102h-97l135 162h90l135 -162h-97zM167 707v-287q43 94 157 94q74 0 119 -46t45 -128v-340h-98v320q0 52 -26.5 80.5t-69.5 28.5q-50 0 -88.5 -38t-38.5 -116v-275h-98v707h98z" />
    <glyph glyph-name="Hbar" unicode="&#x126;" horiz-adv-x="731" 
d="M517 384v124h-303v-124h303zM695 572v-64h-75v-508h-103v295h-303v-295h-103v508h-74v64h74v102h103v-102h303v102h103v-102h75z" />
    <glyph glyph-name="hbar" unicode="&#x127;" horiz-adv-x="551" 
d="M167 580v-160q43 94 157 94q74 0 119 -46t45 -128v-340h-98v320q0 52 -26.5 80.5t-69.5 28.5q-50 0 -88.5 -38t-38.5 -116v-275h-98v580h-67v63h67v64h98v-64h176v-63h-176z" />
    <glyph glyph-name="Itilde" unicode="&#x128;" horiz-adv-x="264" 
d="M81 0v674h102v-674h-102zM251 867l56 -42q-35 -74 -109 -74q-29 0 -69.5 20.5t-56.5 20.5q-23 0 -38.5 -11t-31.5 -35l-49 45q14 31 42.5 52.5t62.5 21.5q32 0 74 -20.5t61 -20.5q37 0 58 43z" />
    <glyph glyph-name="itilde" unicode="&#x129;" horiz-adv-x="245" 
d="M73 0v507h99v-507h-99zM244 698l56 -42q-35 -74 -109 -74q-29 0 -69.5 20.5t-56.5 20.5q-23 0 -38.5 -11t-31.5 -35l-49 45q14 31 42.5 52.5t62.5 21.5q32 0 74 -20.5t61 -20.5q37 0 58 43z" />
    <glyph glyph-name="Imacron" unicode="&#x12a;" horiz-adv-x="264" 
d="M81 0v674h102v-674h-102zM284 772h-304v68h304v-68z" />
    <glyph glyph-name="imacron" unicode="&#x12b;" horiz-adv-x="245" 
d="M73 0v507h99v-507h-99zM275 605h-304v68h304v-68z" />
    <glyph glyph-name="Ibreve" unicode="&#x12c;" horiz-adv-x="264" 
d="M-41 887h78q0 -44 24 -71t72 -27t72 27t24 71h78q0 -79 -45 -122t-129 -43t-129 43t-45 122zM81 0v674h102v-674h-102z" />
    <glyph glyph-name="ibreve" unicode="&#x12d;" horiz-adv-x="245" 
d="M-51 720h78q0 -44 24 -71t72 -27t72 27t24 71h78q0 -79 -45 -122t-129 -43t-129 43t-45 122zM73 0v507h99v-507h-99z" />
    <glyph glyph-name="Iogonek" unicode="&#x12e;" horiz-adv-x="264" 
d="M183 674v-674q-114 -61 -114 -127q0 -51 58 -51q41 0 74 24v-72q-36 -21 -87 -21q-62 0 -94.5 31.5t-32.5 80.5q0 83 94 146v663h102z" />
    <glyph glyph-name="iogonek" unicode="&#x12f;" horiz-adv-x="245" 
d="M122 601q-26 0 -43.5 17.5t-17.5 43.5t17.5 44t43.5 18t44 -18t18 -44q0 -25 -18 -43t-44 -18zM172 507v-507q-114 -61 -114 -127q0 -51 58 -51q41 0 74 24v-72q-36 -21 -87 -21q-62 0 -94.5 31.5t-32.5 80.5q0 85 97 148v494h99z" />
    <glyph glyph-name="Idotaccent" unicode="&#x130;" horiz-adv-x="264" 
d="M81 0v674h102v-674h-102zM72 808q0 26 17.5 43t43.5 17t43 -17t17 -43t-17 -43t-43 -17t-43.5 17t-17.5 43z" />
    <glyph glyph-name="dotlessi" unicode="&#x131;" horiz-adv-x="245" 
d="M73 0v507h99v-507h-99z" />
    <glyph glyph-name="IJ" unicode="&#x132;" horiz-adv-x="595" 
d="M81 0v674h102v-674h-102zM257 21v95q41 -25 82 -25q82 0 82 87v496h103v-492q0 -93 -45.5 -137.5t-122.5 -44.5q-62 0 -99 21z" />
    <glyph glyph-name="ij" unicode="&#x133;" horiz-adv-x="478" 
d="M71 0v507h99v-507h-99zM59 662q0 26 17.5 44t43.5 18t44 -18t18 -44q0 -25 -18 -43t-44 -18t-43.5 17.5t-17.5 43.5zM192 -181v83q32 -16 64 -16q55 0 55 71v550h98v-552q0 -71 -37.5 -111t-106.5 -40q-32 0 -73 15zM298 662q0 26 17.5 44t43.5 18t44 -18t18 -44
q0 -25 -18 -43t-44 -18q-25 0 -43 17.5t-18 43.5z" />
    <glyph glyph-name="Jcircumflex" unicode="&#x134;" horiz-adv-x="396" 
d="M30 21v95q41 -25 82 -25q82 0 82 87v496h103v-492q0 -93 -45.5 -137.5t-122.5 -44.5q-62 0 -99 21zM202 887h90l135 -162h-97l-84 102l-82 -102h-97z" />
    <glyph glyph-name="jcircumflex" unicode="&#x135;" horiz-adv-x="242" 
d="M80 720h90l135 -162h-97l-84 102l-82 -102h-97zM-44 -181v83q32 -16 64 -16q55 0 55 71v550h98v-552q0 -71 -37.5 -111t-106.5 -40q-32 0 -73 15z" />
    <glyph glyph-name="uni0136" unicode="&#x136;" horiz-adv-x="599" 
d="M176 674v-674h-103v674h103zM172 -249l81 198h109l-113 -198h-77zM312 334l262 -334h-130l-255 333l245 341h125z" />
    <glyph glyph-name="uni0137" unicode="&#x137;" horiz-adv-x="500" 
d="M167 700v-700h-98v700h98zM126 -249l81 198h109l-113 -198h-77zM284 265l199 -265h-117l-195 265l191 242h115z" />
    <glyph glyph-name="kgreenlandic" unicode="&#x138;" horiz-adv-x="500" 
d="M69 0v507h98v-507h-98zM284 265l199 -265h-117l-195 265l191 242h115z" />
    <glyph glyph-name="Lacute" unicode="&#x139;" horiz-adv-x="480" 
d="M460 887l-120 -162h-84l95 162h109zM176 674v-583h276v-91h-379v674h103z" />
    <glyph glyph-name="lacute" unicode="&#x13a;" horiz-adv-x="245" 
d="M82 758l95 162h109l-120 -162h-84zM73 0v707h99v-707h-99z" />
    <glyph glyph-name="uni013B" unicode="&#x13b;" horiz-adv-x="480" 
d="M139 -249l81 198h109l-113 -198h-77zM176 91h276v-91h-379v674h103v-583z" />
    <glyph glyph-name="uni013C" unicode="&#x13c;" horiz-adv-x="245" 
d="M73 0v707h99v-707h-99zM-13 -249l81 198h109l-113 -198h-77z" />
    <glyph glyph-name="Lcaron" unicode="&#x13d;" horiz-adv-x="480" 
d="M447 701l-113 -198h-77l81 198h109zM176 91h276v-91h-379v674h103v-583z" />
    <glyph glyph-name="lcaron" unicode="&#x13e;" horiz-adv-x="264" 
d="M73 0v707h99v-707h-99zM237 510l80 198h109l-113 -198h-76z" />
    <glyph glyph-name="Ldot" unicode="&#x13f;" horiz-adv-x="491" 
d="M339 310q-28 0 -46 18.5t-18 45.5t18.5 46t45.5 19q28 0 46.5 -19t18.5 -46t-18.5 -45.5t-46.5 -18.5zM176 91h276v-91h-379v674h103v-583z" />
    <glyph glyph-name="ldot" unicode="&#x140;" horiz-adv-x="417" 
d="M69 0v707h98v-707h-98zM260 364q0 27 18.5 45.5t46.5 18.5t46.5 -18.5t18.5 -45.5t-18.5 -45.5t-46.5 -18.5t-46.5 18.5t-18.5 45.5z" />
    <glyph glyph-name="Lslash" unicode="&#x141;" horiz-adv-x="518" 
d="M207 91h276v-91h-378v233l-71 -46v90l71 46v351h102v-285l154 99v-90l-154 -99v-208z" />
    <glyph glyph-name="lslash" unicode="&#x142;" horiz-adv-x="306" 
d="M282 508v-90l-82 -57v-361h-99v291l-70 -49v91l70 49v325h99v-256z" />
    <glyph glyph-name="Nacute" unicode="&#x143;" horiz-adv-x="680" 
d="M319 725l95 162h109l-120 -162h-84zM73 0v674h122l166 -282q46 -79 83.5 -146t51.5 -94l14 -28q-6 91 -6 267v283h103v-674h-122l-167 281q-45 76 -82.5 143.5t-52.5 97.5l-15 29q8 -100 8 -269v-282h-103z" />
    <glyph glyph-name="nacute" unicode="&#x144;" horiz-adv-x="551" 
d="M468 720l-120 -162h-84l95 162h109zM167 507v-87q45 94 158 94q75 0 119 -46t44 -125v-343h-98v320q0 53 -26.5 81t-70.5 28q-52 0 -89 -40.5t-37 -113.5v-275h-98v507h98z" />
    <glyph glyph-name="uni0145" unicode="&#x145;" horiz-adv-x="680" 
d="M215 -249l81 198h109l-113 -198h-77zM73 0v674h122l166 -282q46 -79 83.5 -146t51.5 -94l14 -28q-6 91 -6 267v283h103v-674h-122l-167 281q-45 76 -82.5 143.5t-52.5 97.5l-15 29q8 -100 8 -269v-282h-103z" />
    <glyph glyph-name="uni0146" unicode="&#x146;" horiz-adv-x="551" 
d="M149 -249l81 198h109l-113 -198h-77zM167 507v-87q45 94 158 94q75 0 119 -46t44 -125v-343h-98v320q0 53 -26.5 81t-70.5 28q-52 0 -89 -40.5t-37 -113.5v-275h-98v507h98z" />
    <glyph glyph-name="Ncaron" unicode="&#x147;" horiz-adv-x="680" 
d="M73 0v674h122l166 -282q46 -79 83.5 -146t51.5 -94l14 -28q-6 91 -6 267v283h103v-674h-122l-167 281q-45 76 -82.5 143.5t-52.5 97.5l-15 29q8 -100 8 -269v-282h-103zM398 725h-90l-135 162h97l83 -102l83 102h97z" />
    <glyph glyph-name="ncaron" unicode="&#x148;" horiz-adv-x="551" 
d="M336 558h-90l-135 162h97l83 -102l83 102h97zM167 507v-87q45 94 158 94q75 0 119 -46t44 -125v-343h-98v320q0 53 -26.5 81t-70.5 28q-52 0 -89 -40.5t-37 -113.5v-275h-98v507h98z" />
    <glyph glyph-name="napostrophe" unicode="&#x149;" horiz-adv-x="603" 
d="M56 695h102l-109 -206h-70zM219 507v-87q45 94 158 94q75 0 119 -46t44 -125v-343h-98v320q0 53 -26.5 81t-70.5 28q-52 0 -89 -40.5t-37 -113.5v-275h-98v507h98z" />
    <glyph glyph-name="Eng" unicode="&#x14a;" horiz-adv-x="680" 
d="M504 674h103v-690q0 -94 -45.5 -138.5t-122.5 -44.5q-60 0 -99 22v95q38 -25 82 -25q82 0 82 87v20h-19l-167 281q-45 76 -82.5 143.5t-52.5 97.5l-15 29q8 -100 8 -269v-282h-103v674h122l166 -282q46 -79 83.5 -146t51.5 -94l14 -28q-6 91 -6 267v283z" />
    <glyph glyph-name="eng" unicode="&#x14b;" horiz-adv-x="551" 
d="M488 233h1v-278q0 -70 -38 -110.5t-106 -40.5q-33 0 -73 15v83q32 -16 64 -16q54 0 54 71v363q0 53 -26.5 81t-70.5 28q-52 0 -89 -40.5t-37 -113.5v-275h-98v507h98v-87q45 94 158 94q75 0 119 -46t44 -125v-110z" />
    <glyph glyph-name="Omacron" unicode="&#x14c;" horiz-adv-x="711" 
d="M508 772h-304v68h304v-68zM46 340q0 157 84 252t225 95q144 0 227 -94.5t83 -252.5t-83.5 -253t-225.5 -95q-141 0 -225.5 95t-84.5 253zM154 340q0 -116 55 -184t147 -68q95 0 148 67t53 185q0 117 -53.5 184t-148.5 67q-94 0 -147.5 -67.5t-53.5 -183.5z" />
    <glyph glyph-name="omacron" unicode="&#x14d;" horiz-adv-x="564" 
d="M436 605h-304v68h304v-68zM281 -9q-112 0 -176 73t-64 185q0 114 66 189.5t174 75.5q116 0 179 -73.5t63 -187.5t-64.5 -188t-177.5 -74zM280 431q-65 0 -101 -51.5t-36 -127.5q0 -75 37 -126.5t101 -51.5q68 0 103.5 50t35.5 127q0 79 -34 129.5t-106 50.5z" />
    <glyph glyph-name="Obreve" unicode="&#x14e;" horiz-adv-x="711" 
d="M189 887h78q0 -44 24 -71t72 -27t72 27t24 71h78q0 -79 -45 -122t-129 -43t-129 43t-45 122zM154 340q0 -116 55 -184t147 -68q95 0 148 67t53 185q0 117 -53.5 184t-148.5 67q-94 0 -147.5 -67.5t-53.5 -183.5zM46 340q0 157 84 252t225 95q144 0 227 -94.5t83 -252.5
t-83.5 -253t-225.5 -95q-141 0 -225.5 95t-84.5 253z" />
    <glyph glyph-name="obreve" unicode="&#x14f;" horiz-adv-x="564" 
d="M117 720h78q0 -44 24 -71t72 -27t72 27t24 71h78q0 -79 -45 -122t-129 -43t-129 43t-45 122zM280 431q-65 0 -101 -51.5t-36 -127.5q0 -75 37 -126.5t101 -51.5q68 0 103.5 50t35.5 127q0 79 -34 129.5t-106 50.5zM281 -9q-112 0 -176 73t-64 185q0 114 66 189.5
t174 75.5q116 0 179 -73.5t63 -187.5t-64.5 -188t-177.5 -74z" />
    <glyph glyph-name="Ohungarumlaut" unicode="&#x150;" horiz-adv-x="711" 
d="M413 725l100 162h109l-134 -162h-75zM248 725l94 162h103l-122 -162h-75zM46 340q0 157 84 252t225 95q144 0 227 -94.5t83 -252.5t-83.5 -253t-225.5 -95q-141 0 -225.5 95t-84.5 253zM154 340q0 -116 55 -184t147 -68q95 0 148 67t53 185q0 117 -53.5 184t-148.5 67
q-94 0 -147.5 -67.5t-53.5 -183.5z" />
    <glyph glyph-name="ohungarumlaut" unicode="&#x151;" horiz-adv-x="564" 
d="M345 558l100 162h109l-134 -162h-75zM180 558l94 162h103l-122 -162h-75zM281 -9q-112 0 -176 73t-64 185q0 114 66 189.5t174 75.5q116 0 179 -73.5t63 -187.5t-64.5 -188t-177.5 -74zM280 431q-65 0 -101 -51.5t-36 -127.5q0 -75 37 -126.5t101 -51.5q68 0 103.5 50
t35.5 127q0 79 -34 129.5t-106 50.5z" />
    <glyph glyph-name="OE" unicode="&#x152;" horiz-adv-x="988" 
d="M351 88q94 0 145.5 67t51.5 185t-51.5 184.5t-146.5 66.5q-93 0 -144.5 -67t-51.5 -184t53 -184.5t144 -67.5zM646 86h291v-86h-389v72q-78 -80 -197 -80q-140 0 -222.5 95t-82.5 253t81.5 252.5t222.5 94.5q121 0 198 -79v66h384v-86h-286v-208h254v-86h-254v-208z" />
    <glyph glyph-name="oe" unicode="&#x153;" horiz-adv-x="889" 
d="M752 290v22q-2 57 -32 88.5t-80 31.5t-86.5 -36t-45.5 -106h244zM275 74q67 0 100.5 49.5t33.5 127.5q0 80 -31.5 130t-102.5 50q-65 0 -98.5 -51t-33.5 -128q0 -76 34.5 -127t97.5 -51zM813 115v-88q-58 -32 -147 -32q-133 0 -204 93q-64 -97 -187 -97q-111 0 -172.5 73
t-61.5 185q0 115 63.5 190t170.5 75q122 0 184 -91q66 90 180 90q99 0 153.5 -61t54.5 -177q0 -28 -6 -62h-332q11 -65 57 -100.5t113 -35.5q80 0 134 38z" />
    <glyph glyph-name="Racute" unicode="&#x154;" horiz-adv-x="568" 
d="M440 887l-120 -162h-84l95 162h109zM176 588v-246h93q64 0 97 33.5t33 89.5q0 123 -135 123h-88zM423 0l-158 256h-89v-256h-103v674h188q116 0 179 -56.5t63 -153.5q-1 -71 -36 -120.5t-97 -71.5l176 -272h-123z" />
    <glyph glyph-name="racute" unicode="&#x155;" horiz-adv-x="339" 
d="M370 720l-120 -162h-84l95 162h109zM167 507v-89q37 94 133 94q14 0 31 -3v-96q-21 9 -47 9q-51 0 -84 -45t-33 -107v-270h-98v507h98z" />
    <glyph glyph-name="uni0156" unicode="&#x156;" horiz-adv-x="568" 
d="M159 -249l81 198h109l-113 -198h-77zM176 588v-246h93q64 0 97 33.5t33 89.5q0 123 -135 123h-88zM370 272l176 -272h-123l-158 256h-89v-256h-103v674h188q116 0 179 -56.5t63 -153.5q-1 -71 -36 -120.5t-97 -71.5z" />
    <glyph glyph-name="uni0157" unicode="&#x157;" horiz-adv-x="339" 
d="M-20 -249l81 198h109l-113 -198h-77zM167 507v-89q37 94 133 94q14 0 31 -3v-96q-21 9 -47 9q-51 0 -84 -45t-33 -107v-270h-98v507h98z" />
    <glyph glyph-name="Rcaron" unicode="&#x158;" horiz-adv-x="568" 
d="M335 725h-90l-135 162h97l83 -102l83 102h97zM176 588v-246h93q64 0 97 33.5t33 89.5q0 123 -135 123h-88zM423 0l-158 256h-89v-256h-103v674h188q116 0 179 -56.5t63 -153.5q-1 -71 -36 -120.5t-97 -71.5l176 -272h-123z" />
    <glyph glyph-name="rcaron" unicode="&#x159;" horiz-adv-x="339" 
d="M250 558h-90l-135 162h97l83 -102l83 102h97zM167 507v-89q37 94 133 94q14 0 31 -3v-96q-21 9 -47 9q-51 0 -84 -45t-33 -107v-270h-98v507h98z" />
    <glyph glyph-name="Sacute" unicode="&#x15a;" horiz-adv-x="521" 
d="M234 725l95 162h109l-120 -162h-84zM437 647v-102q-67 42 -152 42q-55 0 -86.5 -24.5t-31.5 -64.5t31 -64t95 -52q42 -18 65.5 -31t54 -36.5t45 -56t14.5 -74.5q0 -89 -63 -140t-163 -51q-111 0 -184 43v107q79 -59 183 -59q55 0 87 25.5t32 70.5q0 27 -19 49.5t-41 34
t-66 31.5q-26 12 -36.5 17t-34.5 18t-35.5 22t-28.5 25t-24.5 32t-14 37.5t-6.5 46.5q0 86 62.5 136t161.5 50q91 0 155 -32z" />
    <glyph glyph-name="sacute" unicode="&#x15b;" horiz-adv-x="419" 
d="M186 558l95 162h109l-120 -162h-84zM358 490v-89q-49 29 -126 29q-35 0 -55.5 -16t-20.5 -42q0 -7 1.5 -13.5t5.5 -13t7.5 -11t11.5 -9.5t12.5 -8.5t15 -8.5t15.5 -7.5t17.5 -8t17.5 -7.5q59 -26 92.5 -58.5t33.5 -86.5q0 -68 -48 -106.5t-130 -38.5q-90 0 -150 30v93
q70 -43 145 -43q39 0 60.5 16t21.5 42q0 22 -17 39.5t-34.5 26t-59.5 26.5q-119 49 -119 144q0 67 50 105t125 38q82 0 128 -22z" />
    <glyph glyph-name="Scircumflex" unicode="&#x15c;" horiz-adv-x="521" 
d="M437 647v-102q-67 42 -152 42q-55 0 -86.5 -24.5t-31.5 -64.5t31 -64t95 -52q42 -18 65.5 -31t54 -36.5t45 -56t14.5 -74.5q0 -89 -63 -140t-163 -51q-111 0 -184 43v107q79 -59 183 -59q55 0 87 25.5t32 70.5q0 27 -19 49.5t-41 34t-66 31.5q-26 12 -36.5 17t-34.5 18
t-35.5 22t-28.5 25t-24.5 32t-14 37.5t-6.5 46.5q0 86 62.5 136t161.5 50q91 0 155 -32zM216 887h90l135 -162h-97l-84 102l-82 -102h-97z" />
    <glyph glyph-name="scircumflex" unicode="&#x15d;" horiz-adv-x="419" 
d="M358 490v-89q-49 29 -126 29q-35 0 -55.5 -16t-20.5 -42q0 -7 1.5 -13.5t5.5 -13t7.5 -11t11.5 -9.5t12.5 -8.5t15 -8.5t15.5 -7.5t17.5 -8t17.5 -7.5q59 -26 92.5 -58.5t33.5 -86.5q0 -68 -48 -106.5t-130 -38.5q-90 0 -150 30v93q70 -43 145 -43q39 0 60.5 16t21.5 42
q0 22 -17 39.5t-34.5 26t-59.5 26.5q-119 49 -119 144q0 67 50 105t125 38q82 0 128 -22zM184 720h90l135 -162h-97l-84 102l-82 -102h-97z" />
    <glyph glyph-name="uni015E" unicode="&#x15e;" horiz-adv-x="521" 
d="M437 647v-102q-67 42 -152 42q-55 0 -86.5 -24.5t-31.5 -64.5t31 -64t95 -52q42 -18 65.5 -31t54 -36.5t45 -56t14.5 -74.5q0 -89 -63 -140t-163 -51q-111 0 -184 43v107q79 -59 183 -59q55 0 87 25.5t32 70.5q0 27 -19 49.5t-41 34t-66 31.5q-26 12 -36.5 17t-34.5 18
t-35.5 22t-28.5 25t-24.5 32t-14 37.5t-6.5 46.5q0 86 62.5 136t161.5 50q91 0 155 -32zM321 -123q0 -56 -41 -94.5t-118 -39.5v68q82 5 82 69q0 32 -25 69h84q18 -25 18 -72z" />
    <glyph glyph-name="uni015F" unicode="&#x15f;" horiz-adv-x="419" 
d="M358 490v-89q-49 29 -126 29q-35 0 -55.5 -16t-20.5 -42q0 -7 1.5 -13.5t5.5 -13t7.5 -11t11.5 -9.5t12.5 -8.5t15 -8.5t15.5 -7.5t17.5 -8t17.5 -7.5q59 -26 92.5 -58.5t33.5 -86.5q0 -68 -48 -106.5t-130 -38.5q-90 0 -150 30v93q70 -43 145 -43q39 0 60.5 16t21.5 42
q0 22 -17 39.5t-34.5 26t-59.5 26.5q-119 49 -119 144q0 67 50 105t125 38q82 0 128 -22zM283 -123q0 -56 -41 -94.5t-118 -39.5v68q82 5 82 69q0 32 -25 69h84q18 -25 18 -72z" />
    <glyph glyph-name="Scaron" unicode="&#x160;" horiz-adv-x="521" 
d="M437 647v-102q-67 42 -152 42q-55 0 -86.5 -24.5t-31.5 -64.5t31 -64t95 -52q42 -18 65.5 -31t54 -36.5t45 -56t14.5 -74.5q0 -89 -63 -140t-163 -51q-111 0 -184 43v107q79 -59 183 -59q55 0 87 25.5t32 70.5q0 27 -19 49.5t-41 34t-66 31.5q-26 12 -36.5 17t-34.5 18
t-35.5 22t-28.5 25t-24.5 32t-14 37.5t-6.5 46.5q0 86 62.5 136t161.5 50q91 0 155 -32zM309 725h-90l-135 162h97l83 -102l83 102h97z" />
    <glyph glyph-name="scaron" unicode="&#x161;" horiz-adv-x="419" 
d="M358 490v-89q-49 29 -126 29q-35 0 -55.5 -16t-20.5 -42q0 -7 1.5 -13.5t5.5 -13t7.5 -11t11.5 -9.5t12.5 -8.5t15 -8.5t15.5 -7.5t17.5 -8t17.5 -7.5q59 -26 92.5 -58.5t33.5 -86.5q0 -68 -48 -106.5t-130 -38.5q-90 0 -150 30v93q70 -43 145 -43q39 0 60.5 16t21.5 42
q0 22 -17 39.5t-34.5 26t-59.5 26.5q-119 49 -119 144q0 67 50 105t125 38q82 0 128 -22zM278 558h-90l-135 162h97l83 -102l83 102h97z" />
    <glyph glyph-name="uni0162" unicode="&#x162;" horiz-adv-x="500" 
d="M110 -249l80 198h109l-112 -198h-77zM478 674v-86h-177v-588h-103v588h-176v86h456z" />
    <glyph glyph-name="uni0163" unicode="&#x163;" horiz-adv-x="374" 
d="M65 -249l80 198h109l-112 -198h-77zM196 431v-279q0 -73 70 -73q41 0 69 22v-88q-33 -18 -81 -18q-157 0 -157 159v277h-79v76h79v124h99v-124h133v-76h-133z" />
    <glyph glyph-name="Tcaron" unicode="&#x164;" horiz-adv-x="500" 
d="M296 725h-90l-135 162h97l83 -102l83 102h97zM478 674v-86h-177v-588h-103v588h-176v86h456z" />
    <glyph glyph-name="tcaron" unicode="&#x165;" horiz-adv-x="374" 
d="M442 771l-113 -198h-76l80 198h109zM196 431v-279q0 -73 70 -73q41 0 69 22v-88q-33 -18 -81 -18q-157 0 -157 159v277h-79v76h79v124h99v-124h133v-76h-133z" />
    <glyph glyph-name="Tbar" unicode="&#x166;" horiz-adv-x="500" 
d="M478 588h-177v-219h116v-79h-116v-290h-103v290h-115v79h115v219h-176v86h456v-86z" />
    <glyph glyph-name="tbar" unicode="&#x167;" horiz-adv-x="391" 
d="M205 249v-97q0 -73 70 -73q39 0 69 22v-88q-33 -18 -81 -18q-157 0 -157 159v95h-79v71h79v113h-79v74h79v124h99v-124h133v-74h-133v-113h133v-71h-133z" />
    <glyph glyph-name="Utilde" unicode="&#x168;" horiz-adv-x="652" 
d="M478 256v418h103v-416q0 -131 -68 -199t-188 -68q-118 0 -186 66.5t-68 192.5v424h103v-423q0 -86 41.5 -125.5t109.5 -39.5q153 0 153 170zM454 867l56 -42q-35 -74 -109 -74q-29 0 -69.5 20.5t-56.5 20.5q-23 0 -38.5 -11t-31.5 -35l-49 45q14 31 42.5 52.5t62.5 21.5
q32 0 74 -20.5t61 -20.5q37 0 58 43z" />
    <glyph glyph-name="utilde" unicode="&#x169;" horiz-adv-x="551" 
d="M399 697l56 -42q-35 -74 -109 -74q-29 0 -69.5 20.5t-56.5 20.5q-23 0 -38.5 -11t-31.5 -35l-49 45q14 31 42.5 52.5t62.5 21.5q32 0 74 -20.5t61 -20.5q37 0 58 43zM384 507h98v-507h-98v87q-40 -93 -158 -93q-75 0 -119 44.5t-44 122.5v346h99v-322q0 -52 25.5 -79.5
t70.5 -27.5q57 0 91.5 40t34.5 113v276z" />
    <glyph glyph-name="Umacron" unicode="&#x16a;" horiz-adv-x="652" 
d="M478 256v418h103v-416q0 -131 -68 -199t-188 -68q-118 0 -186 66.5t-68 192.5v424h103v-423q0 -86 41.5 -125.5t109.5 -39.5q153 0 153 170zM483 772h-304v68h304v-68z" />
    <glyph glyph-name="umacron" unicode="&#x16b;" horiz-adv-x="551" 
d="M425 673v-68h-304v68h304zM384 507h98v-507h-98v87q-40 -93 -158 -93q-75 0 -119 44.5t-44 122.5v346h99v-322q0 -52 25.5 -79.5t70.5 -27.5q57 0 91.5 40t34.5 113v276z" />
    <glyph glyph-name="Ubreve" unicode="&#x16c;" horiz-adv-x="652" 
d="M153 887h78q0 -44 24 -71t72 -27t72 27t24 71h78q0 -79 -45 -122t-129 -43t-129 43t-45 122zM478 256v418h103v-416q0 -131 -68 -199t-188 -68q-118 0 -186 66.5t-68 192.5v424h103v-423q0 -86 41.5 -125.5t109.5 -39.5q153 0 153 170z" />
    <glyph glyph-name="ubreve" unicode="&#x16d;" horiz-adv-x="551" 
d="M374 720h78q0 -79 -45 -122t-129 -43t-129 43t-45 122h78q0 -44 24 -71t72 -27t72 27t24 71zM384 507h98v-507h-98v87q-40 -93 -158 -93q-75 0 -119 44.5t-44 122.5v346h99v-322q0 -52 25.5 -79.5t70.5 -27.5q57 0 91.5 40t34.5 113v276z" />
    <glyph glyph-name="Uring" unicode="&#x16e;" horiz-adv-x="652" 
d="M214 829q0 48 33.5 82t80.5 34q48 0 82 -34t34 -82q0 -47 -34 -80.5t-82 -33.5q-47 0 -80.5 33.5t-33.5 80.5zM275 831q0 -22 15.5 -38.5t37.5 -16.5q23 0 38.5 16.5t15.5 38.5t-15.5 38t-38.5 16q-22 0 -37.5 -16t-15.5 -38zM478 256v418h103v-416q0 -131 -68 -199
t-188 -68q-118 0 -186 66.5t-68 192.5v424h103v-423q0 -86 41.5 -125.5t109.5 -39.5q153 0 153 170z" />
    <glyph glyph-name="uring" unicode="&#x16f;" horiz-adv-x="551" 
d="M279 718q-22 0 -37.5 -16t-15.5 -38t15.5 -38.5t37.5 -16.5q23 0 38.5 16.5t15.5 38.5t-15.5 38t-38.5 16zM279 548q-47 0 -80.5 33.5t-33.5 80.5q0 48 33.5 82t80.5 34q48 0 82 -34t34 -82q0 -47 -34 -80.5t-82 -33.5zM384 507h98v-507h-98v87q-40 -93 -158 -93
q-75 0 -119 44.5t-44 122.5v346h99v-322q0 -52 25.5 -79.5t70.5 -27.5q57 0 91.5 40t34.5 113v276z" />
    <glyph glyph-name="Uhungarumlaut" unicode="&#x170;" horiz-adv-x="652" 
d="M478 256v418h103v-416q0 -131 -68 -199t-188 -68q-118 0 -186 66.5t-68 192.5v424h103v-423q0 -86 41.5 -125.5t109.5 -39.5q153 0 153 170zM369 725l100 162h109l-134 -162h-75zM204 725l94 162h103l-122 -162h-75z" />
    <glyph glyph-name="uhungarumlaut" unicode="&#x171;" horiz-adv-x="551" 
d="M398 558h-75l100 162h109zM355 720l-122 -162h-75l94 162h103zM384 231v276h98v-507h-98v87q-40 -93 -158 -93q-75 0 -119 44.5t-44 122.5v346h99v-322q0 -52 25.5 -79.5t70.5 -27.5q57 0 91.5 40t34.5 113z" />
    <glyph glyph-name="Uogonek" unicode="&#x172;" horiz-adv-x="652" 
d="M478 674h103v-416q0 -199 -154 -252q-113 -60 -113 -126q0 -51 58 -51q41 0 74 24v-72q-36 -21 -87 -21q-62 0 -94.5 31.5t-32.5 80.5q0 66 61 120q-104 9 -163 75t-59 183v424h103v-423q0 -86 41.5 -125.5t109.5 -39.5q153 0 153 170v418z" />
    <glyph glyph-name="uogonek" unicode="&#x173;" horiz-adv-x="551" 
d="M482 507v-507q-114 -61 -114 -127q0 -51 58 -51q41 0 74 24v-72q-36 -21 -87 -21q-62 0 -94.5 31.5t-32.5 80.5q0 86 98 149v73q-40 -93 -158 -93q-75 0 -119 44.5t-44 122.5v346h99v-322q0 -52 25.5 -79.5t70.5 -27.5q57 0 91.5 40t34.5 113v276h98z" />
    <glyph glyph-name="Wcircumflex" unicode="&#x174;" horiz-adv-x="947" 
d="M432 664h91l71 -240l91 -317q37 182 69 317l59 250h104l-165 -674h-123l-64 213l-87 301q-23 -95 -84 -301l-62 -213h-124l-177 674h107l63 -249l74 -316q45 168 88 316zM435 887h90l135 -162h-97l-84 102l-82 -102h-97z" />
    <glyph glyph-name="wcircumflex" unicode="&#x175;" horiz-adv-x="796" 
d="M178 0l-159 507h104l47 -168q23 -80 39 -141t20 -82l4 -21q13 63 66 245l49 167h95l50 -167q24 -83 41 -144.5t22 -81.5l4 -20q12 59 68 246l50 167h99l-161 -507h-112l-47 166q-21 76 -36.5 134.5t-20.5 79.5l-4 20q-14 -65 -61 -234l-46 -166h-111zM352 720h90
l135 -162h-97l-84 102l-82 -102h-97z" />
    <glyph glyph-name="Ycircumflex" unicode="&#x176;" horiz-adv-x="608" 
d="M303 827l-82 -102h-97l135 162h90l135 -162h-97zM585 674l-231 -423v-251h-103v251l-228 423h118l48 -99q46 -93 74 -153t33 -74l6 -13q9 30 116 240l49 99h118z" />
    <glyph glyph-name="ycircumflex" unicode="&#x177;" horiz-adv-x="504" 
d="M207 720h90l135 -162h-97l-84 102l-82 -102h-97zM209 11l-202 496h109l63 -165l79 -214q9 30 72 214l57 165h104l-183 -493q-73 -195 -223 -195q-27 0 -46 5v84q16 -4 34 -4q97 0 136 107z" />
    <glyph glyph-name="Ydieresis" unicode="&#x178;" horiz-adv-x="608" 
d="M417 746q-25 0 -42.5 17t-17.5 43t17.5 43t42.5 17q26 0 43.5 -17t17.5 -43t-17.5 -43t-43.5 -17zM197 746q-27 0 -44 17t-17 43t17 43t44 17q25 0 42.5 -17t17.5 -43t-17.5 -43t-42.5 -17zM585 674l-231 -423v-251h-103v251l-228 423h118l48 -99q46 -93 74 -153t33 -74
l6 -13q9 30 116 240l49 99h118z" />
    <glyph glyph-name="Zacute" unicode="&#x179;" horiz-adv-x="584" 
d="M266 725l95 162h109l-120 -162h-84zM516 674v-79l-341 -510h355v-85h-476v81l340 508h-335v85h457z" />
    <glyph glyph-name="zacute" unicode="&#x17a;" horiz-adv-x="461" 
d="M200 558l95 162h109l-120 -162h-84zM405 507v-70l-249 -354h262v-83h-375v75l246 350h-237v82h353z" />
    <glyph glyph-name="Zdotaccent" unicode="&#x17b;" horiz-adv-x="584" 
d="M516 674v-79l-341 -510h355v-85h-476v81l340 508h-335v85h457zM242 808q0 26 17.5 43t43.5 17t43 -17t17 -43t-17 -43t-43 -17t-43.5 17t-17.5 43z" />
    <glyph glyph-name="zdotaccent" unicode="&#x17c;" horiz-adv-x="461" 
d="M405 507v-70l-249 -354h262v-83h-375v75l246 350h-237v82h353zM184 639q0 26 17.5 43t43.5 17t43 -17t17 -43t-17 -43t-43 -17t-43.5 17t-17.5 43z" />
    <glyph glyph-name="Zcaron" unicode="&#x17d;" horiz-adv-x="584" 
d="M516 674v-79l-341 -510h355v-85h-476v81l340 508h-335v85h457zM339 725h-90l-135 162h97l83 -102l83 102h97z" />
    <glyph glyph-name="zcaron" unicode="&#x17e;" horiz-adv-x="461" 
d="M405 507v-70l-249 -354h262v-83h-375v75l246 350h-237v82h353zM292 558h-90l-135 162h97l83 -102l83 102h97z" />
    <glyph glyph-name="longs" unicode="&#x17f;" horiz-adv-x="260" 
d="M290 761v-85q-24 9 -48 9q-73 0 -73 -87v-598h-98v599q0 79 42.5 124.5t119.5 45.5q33 0 57 -8z" />
    <glyph glyph-name="florin" unicode="&#x192;" horiz-adv-x="430" 
d="M170 375l20 117q31 188 174 188q46 0 72 -9v-85q-28 10 -57 10q-73 0 -91 -112l-19 -109h98v-76h-110l-63 -368q-31 -188 -173 -188q-46 0 -77 12v85q31 -13 64 -13q38 0 59 28t30 84l61 360h-94v76h106z" />
    <glyph glyph-name="uni0218" unicode="&#x218;" horiz-adv-x="521" 
d="M437 647v-102q-67 42 -152 42q-55 0 -86.5 -24.5t-31.5 -64.5t31 -64t95 -52q42 -18 65.5 -31t54 -36.5t45 -56t14.5 -74.5q0 -89 -63 -140t-163 -51q-111 0 -184 43v107q79 -59 183 -59q55 0 87 25.5t32 70.5q0 27 -19 49.5t-41 34t-66 31.5q-26 12 -36.5 17t-34.5 18
t-35.5 22t-28.5 25t-24.5 32t-14 37.5t-6.5 46.5q0 86 62.5 136t161.5 50q91 0 155 -32zM131 -249l80 198h109l-112 -198h-77z" />
    <glyph glyph-name="uni0219" unicode="&#x219;" horiz-adv-x="419" 
d="M85 -249l80 198h109l-113 -198h-76zM358 490v-89q-49 29 -126 29q-35 0 -55.5 -16t-20.5 -42q0 -7 1.5 -13.5t5.5 -13t7.5 -11t11.5 -9.5t12.5 -8.5t15 -8.5t15.5 -7.5t17.5 -8t17.5 -7.5q59 -26 92.5 -58.5t33.5 -86.5q0 -68 -48 -106.5t-130 -38.5q-90 0 -150 30v93
q70 -43 145 -43q39 0 60.5 16t21.5 42q0 22 -17 39.5t-34.5 26t-59.5 26.5q-119 49 -119 144q0 67 50 105t125 38q82 0 128 -22z" />
    <glyph glyph-name="uni021A" unicode="&#x21a;" horiz-adv-x="500" 
d="M113 -249l80 198h109l-112 -198h-77zM22 674h456v-86h-177v-588h-103v588h-176v86z" />
    <glyph glyph-name="uni021B" unicode="&#x21b;" horiz-adv-x="374" 
d="M111 -249l80 198h109l-112 -198h-77zM196 431v-279q0 -73 70 -73q41 0 69 22v-88q-33 -18 -81 -18q-157 0 -157 159v277h-79v76h79v124h99v-124h133v-76h-133z" />
    <glyph glyph-name="uni0237" unicode="&#x237;" horiz-adv-x="242" 
d="M-44 -181v83q32 -16 64 -16q55 0 55 71v550h98v-552q0 -71 -37.5 -111t-106.5 -40q-32 0 -73 15z" />
    <glyph glyph-name="uni02BC" unicode="&#x2bc;" horiz-adv-x="204" 
d="M20 460l89 235h116l-124 -235h-81z" />
    <glyph glyph-name="circumflex" unicode="&#x2c6;" horiz-adv-x="444" 
d="M177 798h90l135 -162h-97l-84 102l-82 -102h-97z" />
    <glyph glyph-name="caron" unicode="&#x2c7;" horiz-adv-x="444" 
d="M267 636h-90l-135 162h97l83 -102l83 102h97z" />
    <glyph glyph-name="uni02C9" unicode="&#x2c9;" horiz-adv-x="444" 
d="M374 681h-304v68h304v-68z" />
    <glyph glyph-name="breve" unicode="&#x2d8;" horiz-adv-x="444" 
d="M48 798h78q0 -44 24 -71t72 -27t72 27t24 71h78q0 -79 -45 -122t-129 -43t-129 43t-45 122z" />
    <glyph glyph-name="dotaccent" unicode="&#x2d9;" horiz-adv-x="444" 
d="M161 720q0 26 17.5 43t43.5 17t43 -17t17 -43t-17 -43t-43 -17t-43.5 17t-17.5 43z" />
    <glyph glyph-name="ring" unicode="&#x2da;" horiz-adv-x="444" 
d="M107 717q0 48 33.5 82t80.5 34q48 0 82 -34t34 -82q0 -47 -34 -80.5t-82 -33.5q-47 0 -80.5 33.5t-33.5 80.5zM168 719q0 -22 15.5 -38.5t37.5 -16.5q23 0 38.5 16.5t15.5 38.5t-15.5 38t-38.5 16q-22 0 -37.5 -16t-15.5 -38z" />
    <glyph glyph-name="ogonek" unicode="&#x2db;" horiz-adv-x="444" 
d="M329 -214q-36 -21 -87 -21q-62 0 -94.5 31.5t-32.5 80.5q0 62 50 110t110 70l36 -45q-114 -61 -114 -127q0 -51 58 -51q41 0 74 24v-72z" />
    <glyph glyph-name="tilde" unicode="&#x2dc;" horiz-adv-x="444" 
d="M349 763l56 -42q-35 -74 -109 -74q-29 0 -69.5 20.5t-56.5 20.5q-23 0 -38.5 -11t-31.5 -35l-49 45q14 31 42.5 52.5t62.5 21.5q32 0 74 -20.5t61 -20.5q37 0 58 43z" />
    <glyph glyph-name="hungarumlaut" unicode="&#x2dd;" horiz-adv-x="444" 
d="M200 636l100 162h109l-134 -162h-75zM35 636l94 162h103l-122 -162h-75z" />
    <glyph glyph-name="pi" unicode="&#x3c0;" horiz-adv-x="589" 
d="M574 507v-76h-92v-431h-98v431h-172v-251q0 -100 -42.5 -140t-129.5 -40v84q41 0 57.5 18t16.5 71v258h-91v76h551z" />
    <glyph glyph-name="uni0901" unicode="&#x901;" horiz-adv-x="0" 
d="M-137 737q-86 0 -141 42.5t-55 124.5h94q0 -41 27 -67t75 -26q47 0 74 26t27 67h95q0 -79 -57 -123t-139 -44zM-193 959q0 24 16 40.5t40 16.5q25 0 41.5 -17t16.5 -40q0 -25 -16.5 -41t-41.5 -16q-24 0 -40 16t-16 41z" />
    <glyph glyph-name="uni0902" unicode="&#x902;" horiz-adv-x="0" 
d="M-198 793q0 26 17.5 44.5t43.5 18.5q27 0 45 -18.5t18 -44.5t-18 -43.5t-45 -17.5q-26 0 -43.5 17.5t-17.5 43.5z" />
    <glyph glyph-name="uni0903" unicode="&#x903;" horiz-adv-x="295" 
d="M68 484q0 26 17.5 44t44.5 18q26 0 44.5 -18t18.5 -44t-18.5 -44t-44.5 -18q-27 0 -44.5 18t-17.5 44zM68 155q0 27 17.5 45t44.5 18q26 0 44.5 -18.5t18.5 -44.5t-18.5 -44t-44.5 -18q-27 0 -44.5 18t-17.5 44z" />
    <glyph glyph-name="uni0905" unicode="&#x905;" horiz-adv-x="671" 
d="M696 650v-80h-112v-570h-96v252h-130q1 -6 1 -18q0 -76 -53 -123t-150 -47q-68 0 -126 24v90q62 -32 123 -32q46 0 79 23.5t33 75.5q0 85 -116 85h-37v84h32q49 0 74.5 21t25.5 58q0 75 -87 75q-55 0 -99 -24v89q48 19 103 19q86 0 133 -40t47 -108q0 -51 -26 -85
t-70 -46q49 -6 80 -40h163v237h-87v80h295z" />
    <glyph glyph-name="uni0906" unicode="&#x906;" horiz-adv-x="941" 
d="M965 650v-80h-111v-570h-97v570h-173v-570h-96v252h-130q1 -6 1 -18q0 -76 -53 -123t-150 -47q-68 0 -126 24v90q62 -32 123 -32q46 0 79 23.5t33 75.5q0 85 -116 85h-37v84h32q49 0 74.5 21t25.5 58q0 75 -87 75q-55 0 -99 -24v89q48 19 103 19q86 0 133 -40t47 -108
q0 -51 -26 -85t-70 -46q49 -6 80 -40h163v237h-87v80h564z" />
    <glyph glyph-name="uni0907" unicode="&#x907;" horiz-adv-x="495" 
d="M412 570v-150v-1h-172q-36 0 -57.5 -14t-21.5 -41t25.5 -39.5t84.5 -16.5q99 -4 146.5 -40t47.5 -108q0 -66 -49 -111t-125 -45q-78 0 -135 41v-108h-95v235h88q16 -41 52.5 -66.5t82.5 -25.5q37 0 61 22t24 56t-26 50t-81 19q-57 2 -97.5 12.5t-70.5 40.5t-30 80
q0 67 48.5 103t127.5 36h76v71h-340v80h543v-80h-107z" />
    <glyph glyph-name="uni0908" unicode="&#x908;" horiz-adv-x="495" 
d="M408 570v-150v-1h-168q-36 0 -57.5 -14t-21.5 -41t25.5 -39.5t84.5 -16.5q99 -4 146.5 -40t47.5 -108q0 -66 -49 -111t-125 -45q-78 0 -135 41v-108h-95v235h88q16 -41 52.5 -66.5t82.5 -25.5q37 0 61 22t24 56t-26 50t-81 19q-57 2 -97.5 12.5t-70.5 40.5t-30 80
q0 67 48.5 103t127.5 36h71v71h-335v80h312q-33 37 -33 96q0 65 43.5 106t112.5 41q51 0 86 -17v-88q-33 19 -77 19q-32 0 -49.5 -19t-17.5 -50q0 -42 36 -88h130v-80h-111z" />
    <glyph glyph-name="uni0909" unicode="&#x909;" horiz-adv-x="439" 
d="M463 650v-80h-128q32 -37 32 -89q0 -55 -30 -89t-82 -46q62 -6 104 -45t42 -104q0 -83 -60.5 -131.5t-170.5 -48.5q-70 0 -140 24v89q62 -32 134 -32q140 0 140 106q0 47 -39 74t-110 27h-44v82h42q117 0 117 97q0 48 -40 86h-254v80h487z" />
    <glyph glyph-name="uni090A" unicode="&#x90a;" horiz-adv-x="702" 
d="M726 650v-80h-391q32 -37 32 -89q0 -55 -30 -89t-82 -46q57 -5 96 -38q15 46 54 74t91 28q87 0 134 -50.5t47 -134.5q0 -88 -50 -143.5t-136 -55.5q-14 0 -26 3v78q12 -2 17 -2q99 0 99 119q0 48 -22 77.5t-66 29.5q-43 0 -67 -37.5t-25 -92.5v-4q0 -83 -60.5 -131.5
t-170.5 -48.5q-70 0 -140 24v89q62 -32 134 -32q140 0 140 106q0 47 -39 74t-110 27h-44v82h42q117 0 117 97q0 48 -40 86h-254v80h750z" />
    <glyph glyph-name="uni090B" unicode="&#x90b;" horiz-adv-x="845" 
d="M465 570v-209l124 71v59h90v-89q0 -84 82 -84h16v-79h-43q-90 0 -90 -69q0 -28 21 -43t54 -15q57 0 93 24v-81q-36 -21 -95 -21q-66 0 -117 34t-51 97q0 42 25.5 74t69.5 46q-35 19 -48 60l-131 -75v-270h-98v221l-309 -183v96l207 120q-12 60 -41 93.5t-88 33.5
q-41 0 -87 -19v88q40 18 94 18q74 0 126.5 -41.5t72.5 -127.5l25 15v256h-391v80h894v-80h-405z" />
    <glyph glyph-name="uni090C" unicode="&#x90c;" horiz-adv-x="779" 
d="M684 570v-399q-56 -1 -84 -23.5t-28 -58.5q0 -30 22.5 -48.5t64.5 -18.5q48 0 90 18v-78q-44 -17 -92 -17q-80 0 -130.5 37t-50.5 106q0 47 29 82.5t82 49.5v166q-33 13 -63 13q-103 0 -103 -119v-70h-97v72q0 110 -82 110q-40 0 -65.5 -33t-25.5 -97q0 -81 42 -131
t126 -50q25 0 46 6v-80q-30 -7 -58 -7q-114 0 -183 74t-69 190q0 93 48 150.5t129 57.5q57 0 94.5 -25t46.5 -67q25 97 145 97q34 0 69 -13v106h-611v80h828v-80h-120z" />
    <glyph glyph-name="uni090D" unicode="&#x90d;" horiz-adv-x="561" 
d="M396 904h94q0 -79 -54.5 -123t-136.5 -44q-86 0 -139 42.5t-53 124.5h95q0 -42 25 -67.5t72 -25.5q46 0 71.5 26t25.5 67zM586 650v-80h-84v-138q0 -75 -44 -117t-121 -42q-30 0 -52 6v78q18 -5 37 -5q84 0 84 86v132h-230v-310q0 -146 166 -146q83 0 145 32v-88
q-66 -27 -152 -27q-117 0 -186.5 56t-69.5 173v310h-103v80h610z" />
    <glyph glyph-name="uni090E" unicode="&#x90e;" horiz-adv-x="561" 
d="M586 650v-80h-84v-138q0 -75 -44 -117t-121 -42q-30 0 -52 6v78q18 -5 37 -5q84 0 84 86v132h-230v-310q0 -146 166 -146q83 0 145 32v-88q-66 -27 -152 -27q-117 0 -186.5 56t-69.5 173v310h-103v80h429q0 41 -15.5 62.5t-54.5 21.5h-48q-79 0 -125.5 35.5t-46.5 130.5
h97q0 -49 19 -67.5t65 -18.5h45q160 0 161 -164h84z" />
    <glyph glyph-name="uni090F" unicode="&#x90f;" horiz-adv-x="561" 
d="M586 650v-80h-84v-138q0 -75 -44 -117t-121 -42q-30 0 -52 6v78q18 -5 37 -5q84 0 84 86v132h-230v-310q0 -146 166 -146q83 0 145 32v-88q-66 -27 -152 -27q-117 0 -186.5 56t-69.5 173v310h-103v80h610z" />
    <glyph glyph-name="uni0910" unicode="&#x910;" horiz-adv-x="561" 
d="M586 650v-80h-84v-138q0 -75 -44 -117t-121 -42q-30 0 -52 6v78q18 -5 37 -5q84 0 84 86v132h-230v-310q0 -146 166 -146q83 0 145 32v-88q-66 -27 -152 -27q-117 0 -186.5 56t-69.5 173v310h-103v80h418l-77 117q-33 50 -87 50q-30 0 -54 -8v83q36 6 60 6q53 0 91 -21.5
t69 -68.5l103 -158h87z" />
    <glyph glyph-name="uni0911" unicode="&#x911;" horiz-adv-x="941" 
d="M779 904h95q0 -79 -55 -123t-136 -44q-86 0 -139.5 42.5t-53.5 124.5h95q0 -41 25.5 -67t72.5 -26q46 0 71 26t25 67zM966 650v-80h-111v-570h-97v570h-174v-570h-96v252h-130q1 -6 1 -18q0 -76 -53 -123t-150 -47q-68 0 -126 24v90q62 -32 123 -32q46 0 79 23.5t33 75.5
q0 85 -116 85h-37v84h32q49 0 74.5 21t25.5 58q0 75 -87 75q-55 0 -99 -24v89q48 19 103 19q86 0 133 -40t47 -108q0 -51 -26 -85t-70 -46q49 -6 80 -40h163v237h-87v80h565z" />
    <glyph glyph-name="uni0912" unicode="&#x912;" horiz-adv-x="942" 
d="M855 650h111v-80h-111v-570h-97v570h-174v-570h-96v252h-130q1 -6 1 -18q0 -76 -53 -123t-150 -47q-68 0 -126 24v90q62 -32 123 -32q46 0 79 23.5t33 75.5q0 85 -116 85h-37v84h32q49 0 74.5 21t25.5 58q0 75 -87 75q-55 0 -99 -24v89q48 19 103 19q86 0 133 -40
t47 -108q0 -51 -26 -85t-70 -46q49 -6 80 -40h163v237h-87v80h357q0 41 -15.5 62.5t-54.5 21.5h-48q-79 0 -125.5 35.5t-46.5 130.5h97q0 -49 19 -67.5t65 -18.5h45q160 0 161 -164z" />
    <glyph glyph-name="uni0913" unicode="&#x913;" horiz-adv-x="942" 
d="M854 650h107v-80h-111v-570h-97v570h-169v-570h-96v252h-130q1 -6 1 -18q0 -76 -53 -123t-150 -47q-68 0 -126 24v90q62 -32 123 -32q46 0 79 23.5t33 75.5q0 85 -116 85h-37v84h32q49 0 74.5 21t25.5 58q0 75 -87 75q-55 0 -99 -24v89q48 19 103 19q86 0 133 -40
t47 -108q0 -51 -26 -85t-70 -46q49 -6 80 -40h163v237h-87v80h348l-77 117q-33 50 -87 50q-30 0 -54 -8v83q36 6 60 6q53 0 91 -21.5t69 -68.5z" />
    <glyph glyph-name="uni0914" unicode="&#x914;" horiz-adv-x="942" 
d="M858 650h108v-80h-111v-570h-97v570h-174v-570h-96v252h-130q1 -6 1 -18q0 -76 -53 -123t-150 -47q-68 0 -126 24v90q62 -32 123 -32q46 0 79 23.5t33 75.5q0 85 -116 85h-37v84h32q49 0 74.5 21t25.5 58q0 75 -87 75q-55 0 -99 -24v89q48 19 103 19q86 0 133 -40
t47 -108q0 -51 -26 -85t-70 -46q49 -6 80 -40h163v237h-87v80h329q-96 68 -168 68q-33 0 -57 -8v79q28 8 55 8q46 0 84 -19t99 -73l38 -34l-92 116q-48 59 -122 59q-38 0 -62 -8v79q24 7 68 7q112 0 177 -103z" />
    <glyph glyph-name="uni0915" unicode="&#x915;" horiz-adv-x="782" 
d="M807 570h-367v-133q45 45 113 45q85 0 136.5 -51t51.5 -134q0 -89 -58.5 -142t-146.5 -53q-11 0 -23 2v80q6 -1 19 -1q50 0 81 30.5t31 82.5q0 47 -28.5 77.5t-76.5 30.5q-41 0 -70 -29.5t-29 -73.5v-301h-97v137q-47 -45 -114 -45q-84 0 -136 51.5t-52 133.5
q0 89 58.5 142t146.5 53q16 0 23 -2v-80q-10 2 -19 2q-49 0 -80.5 -31t-31.5 -83q0 -47 29 -77.5t76 -30.5q41 0 70.5 29.5t29.5 73.5v297h-367v80h831v-80z" />
    <glyph glyph-name="uni0916" unicode="&#x916;" horiz-adv-x="797" 
d="M822 650v-80h-111v-570h-98v165q-44 -40 -112 -40q-72 0 -122 48t-50 125t51 124.5t125 47.5q20 0 42 -4v-76q-9 3 -29 3q-42 0 -69 -27.5t-27 -70.5t26.5 -69t68.5 -26q41 0 68.5 26.5t27.5 72.5v271h-302v-136q0 -70 -41.5 -111.5t-112.5 -48.5l-11 -1l214 -273h-117
l-211 272v78h70q113 0 113 91v129h-239v80h846z" />
    <glyph glyph-name="uni0917" unicode="&#x917;" horiz-adv-x="577" 
d="M-24 650h626v-80h-112v-570h-95v570h-156v-228q0 -66 -35 -100.5t-96 -34.5q-42 0 -78 13v82q28 -14 57 -14q56 0 56 61v221h-167v80z" />
    <glyph glyph-name="uni0918" unicode="&#x918;" horiz-adv-x="641" 
d="M458 333v237h-245q-48 -29 -48 -80q0 -74 115 -74h46v-83h-56q-52 0 -82.5 -22.5t-30.5 -62.5t32.5 -60.5t79.5 -20.5q81 0 135 47.5t54 118.5zM665 650v-80h-111v-570h-96v172q-28 -38 -81.5 -62t-116.5 -24q-89 0 -144.5 42.5t-55.5 114.5q0 54 34.5 88t93.5 43
q-51 3 -85.5 31.5t-34.5 78.5q0 51 38 86h-130v80h689z" />
    <glyph glyph-name="uni0919" unicode="&#x919;" horiz-adv-x="598" 
d="M520 410q25 0 42.5 -17.5t17.5 -42.5t-17 -42t-43 -17t-42.5 16.5t-16.5 42.5q0 25 17 42.5t42 17.5zM-24 650h646v-80h-213v-151v-1h-184q-75 0 -75 -56q0 -31 29.5 -44t100.5 -15q185 -5 185 -143q0 -71 -57.5 -116t-155.5 -45q-109 0 -197 46v93q92 -58 198 -58
q54 0 84.5 20.5t30.5 56.5q0 35 -28 49t-95 16q-191 7 -191 138q0 68 48 103t121 35h90v72h-337v80z" />
    <glyph glyph-name="uni091A" unicode="&#x91a;" horiz-adv-x="642" 
d="M666 650v-80h-111v-570h-97v182q-55 -84 -182 -85q-83 0 -135 44.5t-52 117.5q0 83 71 120h-134v81h346v-81q-100 0 -144.5 -31t-44.5 -80q0 -45 30 -69t81 -24q76 0 120 47.5t44 103.5v244h-482v80h690z" />
    <glyph glyph-name="uni091B" unicode="&#x91b;" horiz-adv-x="639" 
d="M424 489v81h-197q-56 -36 -56 -96q0 -38 26.5 -61.5t66.5 -23.5h31v-82h-37q-50 0 -76 -21t-26 -59q0 -42 40 -67t101 -25q87 0 141 46t54 127q0 48 -26.5 75.5t-75.5 27.5q-25 0 -45 -6v78q20 7 60 7q13 0 19 -1zM663 570h-149v-107q76 -47 76 -150q0 -114 -83 -186
t-210 -72q-103 0 -170.5 45t-67.5 124q0 54 33 88t89 39q-44 5 -75 38.5t-31 84.5q0 59 41 96h-140v80h687v-80z" />
    <glyph glyph-name="uni091C" unicode="&#x91c;" horiz-adv-x="652" 
d="M-24 650h701v-80h-111v-570h-97v374h-185q69 -41 69 -134q0 -81 -55 -130t-145 -49q-68 0 -123 22v86q50 -26 109 -26q55 0 87.5 28t32.5 79q0 60 -43.5 92t-121.5 32v81h375v115h-493v80z" />
    <glyph glyph-name="uni091D" unicode="&#x91d;" horiz-adv-x="765" 
d="M284 322h297v248h-161v-144v-2h-169q-84 0 -84 -52q0 -26 23.5 -36.5t76.5 -12.5zM790 650v-80h-111v-570h-98v245h-137q20 -32 20 -77q0 -69 -48 -112.5t-126 -43.5q-79 0 -136 43v-104h-95v229h88q17 -40 54.5 -66t80.5 -26q39 0 62.5 20.5t23.5 56.5q0 70 -110 76
q-88 3 -138 31t-50 96q0 67 48.5 101.5t127.5 34.5h78v66h-348v80h814z" />
    <glyph glyph-name="uni091E" unicode="&#x91e;" horiz-adv-x="679" 
d="M704 650v-80h-111v-570h-98v251h-100q-9 -79 -67 -128t-150 -52q-82 0 -154 36v89q71 -42 147 -42q61 0 94 34t33 89q0 50 -30.5 81.5t-82.5 31.5q-46 0 -82 -16v82q36 15 86 15q82 0 134 -37t67 -103h105v239h-519v80h728z" />
    <glyph glyph-name="uni091F" unicode="&#x91f;" horiz-adv-x="502" 
d="M420 570v-191q-28 6 -78 6q-87 0 -138.5 -38t-51.5 -108q0 -67 47 -103t124 -36q38 0 78.5 12t64.5 27v-88q-64 -33 -148 -33q-121 0 -193 59.5t-72 164.5q0 96 69 158t182 63h20v107h-348v80h550v-80h-106z" />
    <glyph glyph-name="uni0920" unicode="&#x920;" horiz-adv-x="567" 
d="M420 262q0 58 -36.5 88.5t-99.5 31.5q-57 0 -97 -30t-40 -89q0 -56 38 -90t100 -34q61 0 98 34t37 89zM592 570h-239v-117q75 -17 120.5 -66t45.5 -125q0 -89 -64.5 -145t-170.5 -57q-105 0 -170 55.5t-65 147.5q0 88 60.5 138.5t147.5 57.5v111h-281v80h616v-80z" />
    <glyph glyph-name="uni0921" unicode="&#x921;" horiz-adv-x="524" 
d="M409 570v-151v-1h-184q-75 0 -75 -56q0 -31 29.5 -44t100.5 -15q185 -5 185 -143q0 -71 -57.5 -116t-155.5 -45q-109 0 -197 46v93q92 -58 198 -58q54 0 84.5 20.5t30.5 56.5q0 35 -28 49t-95 16q-191 7 -191 138q0 68 48 103t121 35h90v72h-337v80h573v-80h-140z" />
    <glyph glyph-name="uni0922" unicode="&#x922;" horiz-adv-x="558" 
d="M266 208v75q41 22 96 22q69 0 108 -35t39 -93q0 -70 -56.5 -115t-152.5 -45q-110 0 -181.5 64t-71.5 165q0 102 72.5 164t190.5 64q11 0 35 -2v98h-369v80h607v-80h-142v-185q-57 10 -102 10q-87 0 -140 -40t-53 -110q0 -65 43.5 -107t113.5 -42q49 0 81 21t32 59
q0 24 -18.5 40t-49.5 16q-49 0 -82 -24z" />
    <glyph glyph-name="uni0923" unicode="&#x923;" horiz-adv-x="746" 
d="M318 346v224h-164v-224q0 -96 81 -96q83 0 83 96zM771 650v-80h-112v-570h-96v570h-149v-219q0 -89 -47 -136t-134 -47q-175 0 -175 182v220h-82v80h795z" />
    <glyph glyph-name="uni0924" unicode="&#x924;" horiz-adv-x="593" 
d="M618 650v-80h-111v-570h-97v377h-87q-166 0 -166 -146q0 -69 33 -108.5t99 -39.5q16 0 21 1v-82q-18 -2 -33 -2q-101 0 -159.5 65t-58.5 167q0 103 65 164.5t191 61.5h95v112h-434v80h642z" />
    <glyph glyph-name="uni0925" unicode="&#x925;" horiz-adv-x="649" 
d="M375 507q0 -152 -237 -213q14 -53 53.5 -80.5t97.5 -27.5q72 0 124.5 45t52.5 133v286h203v-80h-106v-570h-97v189q-20 -33 -71 -59.5t-113 -26.5q-100 0 -172.5 64t-83.5 182q134 31 195 66.5t61 92.5q0 30 -15 49.5t-44 19.5q-30 0 -45.5 -18t-15.5 -46q0 -22 13 -56
h-94q-12 32 -12 65q0 57 41.5 96t112.5 39q70 0 111 -42t41 -108z" />
    <glyph glyph-name="uni0926" unicode="&#x926;" horiz-adv-x="558" 
d="M-24 650h607v-80h-118v-169h-185q-63 0 -100.5 -33.5t-37.5 -90.5q0 -60 33 -94t88 -34q54 0 87.5 30.5t37.5 81.5h93v-271h-95v131q-19 -25 -56.5 -39t-78.5 -14q-95 0 -152.5 59t-57.5 147q0 91 61 148.5t171 57.5h95v90h-392v80z" />
    <glyph glyph-name="uni0927" unicode="&#x927;" horiz-adv-x="637" 
d="M661 650v-80h-111v-570h-96v151q-26 -38 -75.5 -61.5t-111.5 -23.5q-95 0 -153 44.5t-58 116.5q0 57 37 91t99 40q-60 5 -94 34t-34 82q0 67 57 96h-145v80h314v-80h-1q-61 0 -94.5 -25t-33.5 -66t33.5 -61t88.5 -20h48v-81h-56q-57 0 -89 -22.5t-32 -62.5
q0 -39 32.5 -62t87.5 -23q81 0 130.5 47t49.5 114v342h207z" />
    <glyph glyph-name="uni0928" unicode="&#x928;" horiz-adv-x="502" 
d="M-24 650h550v-80h-111v-570h-97v325h-162q-18 0 -25.5 -9.5t-7.5 -31.5q0 -31 12 -72h-79q-30 51 -30 112q0 37 23 58.5t70 21.5h199v166h-342v80z" />
    <glyph glyph-name="uni0928093C" unicode="&#x929;" horiz-adv-x="502" 
d="M134 109q25 0 42.5 -17.5t17.5 -42.5t-17.5 -42t-42.5 -17q-26 0 -42.5 17t-16.5 42t17 42.5t42 17.5zM-24 650h550v-80h-111v-570h-97v325h-162q-18 0 -25.5 -9.5t-7.5 -31.5q0 -31 12 -72h-79q-30 51 -30 112q0 37 23 58.5t70 21.5h199v166h-342v80z" />
    <glyph glyph-name="uni092A" unicode="&#x92a;" horiz-adv-x="560" 
d="M376 380v190h-213v-198q0 -63 24 -91t73 -28t82.5 34t33.5 93zM585 650v-80h-112v-570h-97v228q-48 -53 -128 -54q-182 0 -182 201v195h-90v80h609z" />
    <glyph glyph-name="uni092B" unicode="&#x92b;" horiz-adv-x="806" 
d="M376 380v190h-213v-198q0 -63 24 -90t73 -27t82.5 33t33.5 92zM831 570h-358v-127q46 46 119 46q83 0 132.5 -52t49.5 -133q0 -92 -58.5 -143.5t-145.5 -51.5q-10 0 -24 2v80q12 -2 19 -2q51 0 82 30t31 85q0 46 -28 76t-73 30q-44 0 -74 -29t-30 -75v-306h-97v229
q-47 -52 -128 -52q-90 0 -136 46t-46 149v198h-90v80h855v-80z" />
    <glyph glyph-name="uni092C" unicode="&#x92c;" horiz-adv-x="620" 
d="M369 183l-200 186q-24 -34 -24 -82q0 -58 36.5 -94t93.5 -36q54 0 94 26zM645 650v-80h-112v-570h-96v153q-64 -74 -172 -74q-89 0 -152.5 59t-63.5 151t62.5 151.5t160.5 59.5q40 0 82 -10v-84q-39 12 -75 12q-38 0 -68 -14l199 -184q27 37 27 82v268h-461v80h669z" />
    <glyph glyph-name="uni092D" unicode="&#x92d;" horiz-adv-x="565" 
d="M383 356v294h207v-80h-112v-570h-95v277h-184v-134h-84l-28 62q-27 57 -27 89q0 22 12 38t31 20v162q0 60 -46 60q-31 0 -55 -14v78q31 17 74 17q123 0 123 -127v-172h184z" />
    <glyph glyph-name="uni092E" unicode="&#x92e;" horiz-adv-x="576" 
d="M-24 570v80h624v-80h-111v-570h-95v274h-195v-132h-83l-28 64q-28 63 -28 90q0 43 44 54v220h-128zM394 570h-195v-216h195v216z" />
    <glyph glyph-name="uni092F" unicode="&#x92f;" horiz-adv-x="628" 
d="M287 119q-95 0 -162.5 66t-82.5 184q79 12 119.5 43t40.5 72q0 52 -30 86h-196v80h676v-80h-111v-570h-96v187q-47 -68 -158 -68zM299 203q66 0 106 37t40 102v228h-170q23 -37 23 -90q0 -118 -143 -166q12 -49 50.5 -80t93.5 -31z" />
    <glyph glyph-name="uni0930" unicode="&#x930;" horiz-adv-x="388" 
d="M32 272v78h70q113 0 113 91v129h-239v80h436v-80h-101v-137q0 -70 -41 -111.5t-112 -46.5q-2 -1 -12 -1l211 -274h-117z" />
    <glyph glyph-name="uni0930093C" unicode="&#x931;" horiz-adv-x="388" 
d="M-30 17q0 25 17 42.5t42 17.5t43 -17.5t18 -42.5t-17.5 -42t-43.5 -17q-25 0 -42 17t-17 42zM32 272v78h70q113 0 113 91v129h-239v80h436v-80h-101v-137q0 -70 -41 -111.5t-112 -46.5q-2 -1 -12 -1l211 -274h-117z" />
    <glyph glyph-name="uni0932" unicode="&#x932;" horiz-adv-x="742" 
d="M766 650v-80h-111v-570h-97v392q-23 7 -44 7q-103 0 -103 -119v-70h-97v72q0 110 -78 110q-40 0 -65.5 -33t-25.5 -97q0 -81 42 -131t126 -50q20 0 31 2v-79q-17 -4 -43 -4q-115 0 -183.5 74t-68.5 190q0 93 48 150.5t129 57.5q56 0 92 -25t45 -67q25 97 144 97
q27 0 51 -8v101h-582v80h790z" />
    <glyph glyph-name="uni0933" unicode="&#x933;" horiz-adv-x="799" 
d="M660 284q0 50 -29 80.5t-79 30.5q-18 0 -32.5 -4.5t-26 -16.5t-19 -20t-15 -29t-10.5 -29t-10.5 -34t-8.5 -31q53 -62 123 -62q49 0 78 31.5t29 83.5zM243 169q24 0 42 10t30.5 31t19 37.5t15.5 47.5t13 43q-54 58 -120 58q-48 0 -76 -32.5t-28 -83.5q0 -50 28 -80.5
t76 -30.5zM824 570h-217v-102q70 -15 110.5 -64t40.5 -120q0 -87 -58 -140.5t-145 -53.5q-101 0 -168 69q-50 -69 -145 -69q-89 0 -145 52t-56 139q0 86 56 139.5t142 53.5q98 0 165 -65q43 52 111 61v100h-539v80h848v-80z" />
    <glyph glyph-name="uni0933093C" unicode="&#x934;" horiz-adv-x="799" 
d="M217 15q25 0 42.5 -17.5t17.5 -42.5t-17.5 -42t-42.5 -17t-42.5 17t-17.5 42t17.5 42.5t42.5 17.5zM660 284q0 50 -29 80.5t-79 30.5q-18 0 -32.5 -4.5t-26 -16.5t-19 -20t-15 -29t-10.5 -29t-10.5 -34t-8.5 -31q53 -62 123 -62q49 0 78 31.5t29 83.5zM243 169
q24 0 42 10t30.5 31t19 37.5t15.5 47.5t13 43q-54 58 -120 58q-48 0 -76 -32.5t-28 -83.5q0 -50 28 -80.5t76 -30.5zM824 570h-217v-102q70 -15 110.5 -64t40.5 -120q0 -87 -58 -140.5t-145 -53.5q-101 0 -168 69q-50 -69 -145 -69q-89 0 -145 52t-56 139q0 86 56 139.5
t142 53.5q98 0 165 -65q43 52 111 61v100h-539v80h848v-80z" />
    <glyph glyph-name="uni0935" unicode="&#x935;" horiz-adv-x="582" 
d="M607 650v-80h-112v-570h-96v155q-54 -66 -154 -66q-84 0 -143 52.5t-59 143.5q0 85 57 141t148 56q36 0 66 -7v-85q-27 9 -59 9q-48 0 -81 -31t-33 -82q0 -54 33 -86t85 -32q61 0 100.5 41t39.5 98v263h-423v80h631z" />
    <glyph glyph-name="uni0936" unicode="&#x936;" horiz-adv-x="683" 
d="M176 441h-93q-15 33 -15 67q0 60 42.5 102.5t113.5 42.5q80 0 128 -52t48 -129q0 -105 -71 -163t-166 -58h-17l231 -251h-126l-221 247v84h102q82 0 127 37t45 104q0 99 -79 99q-32 0 -48 -20.5t-16 -50.5q0 -29 15 -59zM499 650h208v-80h-111v-570h-97v650z" />
    <glyph glyph-name="uni0937" unicode="&#x937;" horiz-adv-x="589" 
d="M406 372v198h-225l223 -224q2 18 2 26zM165 503v-131q0 -63 31.5 -94t85.5 -31q60 0 97 45zM613 650v-80h-111v-570h-96v223q-51 -54 -137 -54q-91 0 -144.5 50.5t-53.5 152.5v198h-95v80h637z" />
    <glyph glyph-name="uni0938" unicode="&#x938;" horiz-adv-x="649" 
d="M261 339h205v231h-181v-134q0 -60 -24 -97zM673 650v-80h-111v-570h-96v259h-163q-96 0 -157 9l185 -268h-117l-188 278v73h67q54 0 75 22t21 67v130h-213v80h697z" />
    <glyph glyph-name="uni0939" unicode="&#x939;" horiz-adv-x="536" 
d="M453 413h-245q-51 0 -51 -40q0 -44 41 -67q42 12 94 12q84 0 132 -40.5t48 -97.5q0 -34 -10 -57h-95q13 21 13 51q0 28 -23 46.5t-67 18.5q-62 0 -96 -26.5t-34 -64.5q0 -46 39.5 -74.5t123.5 -28.5q58 0 129 18v-81q-73 -16 -135 -16q-122 0 -188 55t-66 128
q0 75 65 123q-69 41 -69 113q0 51 36.5 78.5t95.5 27.5h166v79h-381v80h585v-80h-108v-157z" />
    <glyph glyph-name="uni093C" unicode="&#x93c;" horiz-adv-x="0" 
d="M-336 -129q0 25 17 42.5t42 17.5t42.5 -17.5t17.5 -42.5t-17.5 -42t-42.5 -17t-42 17t-17 42z" />
    <glyph glyph-name="uni093D" unicode="&#x93d;" horiz-adv-x="491" 
d="M247 -3q-119 0 -215 55v102q47 -30 106 -50t110 -20q55 0 83.5 24t28.5 60q0 33 -33.5 66t-81 62.5t-95.5 61.5t-81.5 74.5t-33.5 90.5q0 59 38.5 93t107.5 34h248v-87h-238q-54 0 -54 -45q0 -26 33 -55t80.5 -58.5t95 -62.5t80.5 -78t33 -94q0 -72 -54 -122.5
t-158 -50.5z" />
    <glyph glyph-name="uni093E" unicode="&#x93e;" 
d="M-24 570v80h319v-80h-111v-570h-97v570h-111z" />
    <glyph glyph-name="uni093F" unicode="&#x93f;" 
d="M661 807v-89q-91 48 -196.5 76t-176.5 28q-51 0 -78 -26.5t-27 -73.5v-72h111v-80h-111v-570h-96v570h-111v80h111v73q0 83 52.5 133.5t145.5 50.5q162 0 376 -100z" />
    <glyph glyph-name="uni0940" unicode="&#x940;" 
d="M182 650h112v-80h-111v-570h-96v570h-111v80h109v78q0 45 -24.5 69t-65.5 24q-40 0 -63 -23t-23 -70v-21h-97v23q0 87 52 131t131 44q80 0 133.5 -44t53.5 -130v-81z" />
    <glyph glyph-name="uni0941" unicode="&#x941;" horiz-adv-x="0" 
d="M-428 -165v108q45 -50 121.5 -94.5t144.5 -44.5q43 0 66.5 19t23.5 50q0 27 -20 43t-53 16q-39 0 -101 -31v86q2 1 14 5.5t23 8t29.5 7t35.5 3.5q81 0 123.5 -37.5t42.5 -100.5q0 -66 -49 -107.5t-132 -41.5q-73 0 -148 34.5t-121 76.5z" />
    <glyph glyph-name="uni0942" unicode="&#x942;" horiz-adv-x="0" 
d="M-92 -183v-75q-19 -7 -48 -7q-68 0 -112.5 36.5t-44.5 105.5q0 57 43.5 97t112.5 40q65 0 114.5 -29.5t76.5 -76t40.5 -96.5t13.5 -99h-90q0 90 -40 156t-111 66q-30 0 -48.5 -17t-18.5 -44q0 -30 21 -46.5t53 -16.5q20 0 38 6z" />
    <glyph glyph-name="uni0943" unicode="&#x943;" horiz-adv-x="0" 
d="M-321 -146q0 59 38.5 96.5t98.5 42.5v17h97v-89h-48q-43 0 -67 -18t-24 -52q0 -29 18.5 -46.5t55.5 -17.5q43 0 80 24v-77q-39 -23 -86 -23q-73 0 -118 40t-45 103z" />
    <glyph glyph-name="uni0945" unicode="&#x945;" horiz-adv-x="0" 
d="M-135 737q-85 0 -138.5 42.5t-53.5 124.5h95q0 -41 25.5 -67t71.5 -26q47 0 72 25.5t25 67.5h95q0 -79 -55 -123t-137 -44z" />
    <glyph glyph-name="uni0946" unicode="&#x946;" horiz-adv-x="0" 
d="M-293 814h45q161 0 161 -166h-97q0 42 -15 64t-55 22h-48q-79 0 -125.5 35.5t-46.5 130.5h97q0 -49 19 -67.5t65 -18.5z" />
    <glyph glyph-name="uni0947" unicode="&#x947;" horiz-adv-x="0" 
d="M-412 809v83q36 6 60 6q53 0 91 -21.5t69 -68.5l108 -165h-105l-82 124q-33 50 -87 50q-30 0 -54 -8z" />
    <glyph glyph-name="uni0948" unicode="&#x948;" horiz-adv-x="0" 
d="M-193 821l112 -178h-122q-54 38 -94 56.5t-84 18.5q-33 0 -57 -8v79q28 8 55 8q46 0 84 -19t99 -73l38 -34l-92 116q-48 59 -122 59q-38 0 -62 -8v79q25 7 68 7q112 0 177 -103z" />
    <glyph glyph-name="uni0949" unicode="&#x949;" 
d="M-24 570v80h318v-80h-111v-570h-96v570h-111zM132 737q-86 0 -139 42.5t-53 124.5h94q0 -41 25.5 -67t72.5 -26q46 0 71 26t25 67h95q0 -79 -55 -123t-136 -44z" />
    <glyph glyph-name="uni094A" unicode="&#x94a;" horiz-adv-x="269" 
d="M183 650h111v-80h-111v-570h-96v570h-111v80h110q0 41 -15.5 62.5t-54.5 21.5h-48q-79 0 -125.5 35.5t-46.5 130.5h97q0 -49 19 -67.5t65 -18.5h45q160 0 161 -164z" />
    <glyph glyph-name="uni094B" unicode="&#x94b;" horiz-adv-x="269" 
d="M181 650h113v-80h-111v-570h-96v570h-111v80h100l-77 117q-33 50 -87 50q-30 0 -54 -8v83q36 6 60 6q53 0 91 -21.5t69 -68.5z" />
    <glyph glyph-name="uni094C" unicode="&#x94c;" 
d="M185 650h109v-80h-111v-570h-96v570h-111v80h81q-96 68 -168 68q-33 0 -57 -8v79q28 8 55 8q46 0 84 -19t99 -73l38 -34l-92 116q-48 59 -122 59q-38 0 -62 -8v79q24 7 68 7q112 0 177 -103z" />
    <glyph glyph-name="uni094D" unicode="&#x94d;" horiz-adv-x="0" 
d="M65 -235h-117l-123 168h99z" />
    <glyph glyph-name="uni0950" unicode="&#x950;" horiz-adv-x="1235" 
d="M780 178q-34 -60 -73.5 -94.5t-98.5 -34.5q-48 0 -81.5 23t-49.5 55q-14 -53 -67.5 -90t-128.5 -37q-103 0 -175 43v93q83 -54 173 -54q53 0 84 27t31 72q0 83 -118 83h-62v80h34q59 0 86.5 26.5t27.5 69.5q0 39 -24.5 63t-67.5 24q-75 0 -133 -42v85q57 38 143 38
q82 0 130 -45t48 -115q0 -47 -21.5 -80t-55.5 -48q65 -4 107 -75q3 -4 12 -20.5t12.5 -22.5t12.5 -19t15.5 -18.5t16 -13t20 -10.5t22.5 -3q33 0 60 30t65 94q6 10 26 44.5t28 46.5t27 39.5t32 39t33 26.5t41 21t45 6q82 0 132 -59t50 -159q0 -89 -53 -155.5t-143 -66.5
q-53 0 -94 17v87q36 -23 85 -23q50 0 79.5 39.5t29.5 108.5q0 50 -21 86.5t-58 36.5q-35 0 -68 -39t-115 -180zM633 735q0 24 16.5 41t40.5 17t40.5 -17t16.5 -41t-16.5 -40t-40.5 -16q-25 0 -41 16t-16 40zM690 514q-87 0 -142 42.5t-55 123.5h94q0 -40 28 -66.5t75 -26.5
t73.5 26.5t26.5 66.5h95q0 -78 -57 -122t-138 -44z" />
    <glyph glyph-name="uni0951" unicode="&#x951;" horiz-adv-x="0" 
d="M-174 933h81v-232h-81v232z" />
    <glyph glyph-name="uni0952" unicode="&#x952;" horiz-adv-x="0" 
d="M-81 -225h-480v74h480v-74z" />
    <glyph glyph-name="uni0953" unicode="&#x953;" horiz-adv-x="0" 
d="M-295 881l62 51l149 -178l-62 -51z" />
    <glyph glyph-name="uni0954" unicode="&#x954;" horiz-adv-x="0" 
d="M-47 932l62 -51l-149 -178l-62 51z" />
    <glyph glyph-name="uni0915093C" unicode="&#x958;" horiz-adv-x="782" 
d="M161 17q25 0 42.5 -17.5t17.5 -42.5t-17.5 -42t-42.5 -17t-42 17t-17 42t17 42.5t42 17.5zM807 570h-367v-133q45 45 113 45q85 0 136.5 -51t51.5 -134q0 -89 -58.5 -142t-146.5 -53q-11 0 -23 2v80q6 -1 19 -1q50 0 81 30.5t31 82.5q0 47 -28.5 77.5t-76.5 30.5
q-41 0 -70 -29.5t-29 -73.5v-301h-97v137q-47 -45 -114 -45q-84 0 -136 51.5t-52 133.5q0 89 58.5 142t146.5 53q16 0 23 -2v-80q-10 2 -19 2q-49 0 -80.5 -31t-31.5 -83q0 -47 29 -77.5t76 -30.5q41 0 70.5 29.5t29.5 73.5v297h-367v80h831v-80z" />
    <glyph glyph-name="uni0916093C" unicode="&#x959;" horiz-adv-x="797" 
d="M81 18q25 0 42.5 -17.5t17.5 -42.5t-17.5 -42t-42.5 -17t-42 16.5t-17 42.5q0 25 17 42.5t42 17.5zM822 650v-80h-111v-570h-98v165q-44 -40 -112 -40q-72 0 -122 48t-50 125t51 124.5t125 47.5q20 0 42 -4v-76q-9 3 -29 3q-42 0 -69 -27.5t-27 -70.5t26.5 -69t68.5 -26
q41 0 68.5 26.5t27.5 72.5v271h-302v-136q0 -70 -41.5 -111.5t-112.5 -48.5l-11 -1l214 -273h-117l-211 272v78h70q113 0 113 91v129h-239v80h846z" />
    <glyph glyph-name="uni0917093C" unicode="&#x95a;" horiz-adv-x="577" 
d="M139 87q25 0 42.5 -17.5t17.5 -42.5t-17.5 -42t-42.5 -17t-42 17t-17 42t17 42.5t42 17.5zM-24 650h626v-80h-112v-570h-95v570h-156v-228q0 -66 -35 -100.5t-96 -34.5q-42 0 -78 13v82q28 -14 57 -14q56 0 56 61v221h-167v80z" />
    <glyph glyph-name="uni091C093C" unicode="&#x95b;" horiz-adv-x="652" 
d="M160 -25q25 0 42.5 -17.5t17.5 -42.5t-17.5 -42t-42.5 -17q-26 0 -42.5 17t-16.5 42t17 42.5t42 17.5zM-24 650h701v-80h-111v-570h-97v374h-185q69 -41 69 -134q0 -81 -55 -130t-145 -49q-68 0 -123 22v86q50 -26 109 -26q55 0 87.5 28t32.5 79q0 60 -43.5 92t-121.5 32
v81h375v115h-493v80z" />
    <glyph glyph-name="uni0921093C" unicode="&#x95c;" horiz-adv-x="524" 
d="M247 -75q25 0 42.5 -17.5t17.5 -42.5t-17.5 -42t-42.5 -17t-42 17t-17 42t17 42.5t42 17.5zM409 570v-151v-1h-184q-75 0 -75 -56q0 -31 29.5 -44t100.5 -15q185 -5 185 -143q0 -71 -57.5 -116t-155.5 -45q-109 0 -197 46v93q92 -58 198 -58q54 0 84.5 20.5t30.5 56.5
q0 35 -28 49t-95 16q-191 7 -191 138q0 68 48 103t121 35h90v72h-337v80h573v-80h-140z" />
    <glyph glyph-name="uni0922093C" unicode="&#x95d;" horiz-adv-x="558" 
d="M266 208v75q41 22 96 22q69 0 108 -35t39 -93q0 -70 -56.5 -115t-152.5 -45q-110 0 -181.5 64t-71.5 165q0 102 72.5 164t190.5 64q11 0 35 -2v98h-369v80h607v-80h-142v-185q-57 10 -102 10q-87 0 -140 -40t-53 -110q0 -65 43.5 -107t113.5 -42q49 0 81 21t32 59
q0 24 -18.5 40t-49.5 16q-49 0 -82 -24zM237 -129q0 25 17 42.5t42 17.5t42.5 -17.5t17.5 -42.5t-17.5 -42t-42.5 -17q-26 0 -42.5 17t-16.5 42z" />
    <glyph glyph-name="uni092B093C" unicode="&#x95e;" horiz-adv-x="806" 
d="M142 78q25 0 42.5 -17.5t17.5 -42.5t-17.5 -42t-42.5 -17q-26 0 -42.5 16.5t-16.5 42.5q0 25 17 42.5t42 17.5zM376 380v190h-213v-198q0 -63 24 -90t73 -27t82.5 33t33.5 92zM831 570h-358v-127q46 46 119 46q83 0 132.5 -52t49.5 -133q0 -92 -58.5 -143.5t-145.5 -51.5
q-10 0 -24 2v80q12 -2 19 -2q51 0 82 30t31 85q0 46 -28 76t-73 30q-44 0 -74 -29t-30 -75v-306h-97v229q-47 -52 -128 -52q-90 0 -136 46t-46 149v198h-90v80h855v-80z" />
    <glyph glyph-name="uni092F093C" unicode="&#x95f;" horiz-adv-x="628" 
d="M287 119q-95 0 -162.5 66t-82.5 184q79 12 119.5 43t40.5 72q0 52 -30 86h-196v80h676v-80h-111v-570h-96v187q-47 -68 -158 -68zM299 203q66 0 106 37t40 102v228h-170q23 -37 23 -90q0 -118 -143 -166q12 -49 50.5 -80t93.5 -31zM81 -12q0 25 17 42.5t42 17.5
t42.5 -17.5t17.5 -42.5t-17.5 -42t-42.5 -17q-26 0 -42.5 16.5t-16.5 42.5z" />
    <glyph glyph-name="uni0960" unicode="&#x960;" horiz-adv-x="742" 
d="M431 570v-225l93 49v80h94v-56q0 -45 14 -79.5t31 -52t31.5 -43.5t15.5 -56q1 -73 -42.5 -108.5t-118.5 -35.5q-19 0 -41 3l1 86q18 -5 34 -5q32 0 52.5 15.5t20.5 48.5q0 25 -30.5 61t-39.5 58l-115 -61v-249h-95v212l-276 -146v101l179 90q-15 60 -45.5 90.5
t-85.5 30.5q-28 0 -55 -10v90q27 7 63 7q159 0 201 -168l19 9v264h-360v80h790v-80h-335z" />
    <glyph glyph-name="uni0961" unicode="&#x961;" horiz-adv-x="797" 
d="M693 570v-265q0 -33 -11.5 -61.5t-28 -47.5t-33.5 -35.5t-28.5 -35t-11.5 -36.5q0 -26 20 -41t54 -15h36v-80h-60q-32 0 -49.5 -17.5t-17.5 -46.5q0 -27 19.5 -47.5t53.5 -20.5q37 0 88 21v-85q-41 -16 -89 -16q-75 0 -123 41.5t-48 106.5q0 75 65 110q-45 32 -45 89
q0 27 11.5 49.5t28 39t33 33.5t28 41.5t11.5 53.5v111h-65q-58 0 -83.5 -28.5t-25.5 -97.5v-60h-96v61q0 127 -89 127q-48 0 -76 -35t-28 -101q0 -176 163 -208l-2 -82q-121 20 -189.5 94t-68.5 197q0 94 52 154t143 60q106 0 144 -80q33 78 152 78h69v75h-615v80h818v-80
h-106z" />
    <glyph glyph-name="uni0964" unicode="&#x964;" horiz-adv-x="382" 
d="M176 0v650h97v-650h-97z" />
    <glyph glyph-name="uni0965" unicode="&#x965;" horiz-adv-x="608" 
d="M176 0v650h97v-650h-97zM402 0v650h97v-650h-97z" />
    <glyph glyph-name="uni0966" unicode="&#x966;" horiz-adv-x="541" 
d="M39 329q0 154 62 244.5t168 90.5q109 0 171 -90t62 -245q0 -153 -60.5 -245t-172.5 -92q-107 0 -168.5 92t-61.5 245zM140 329q0 -117 36 -181.5t93 -64.5q62 0 97.5 64t35.5 182q0 119 -36.5 181.5t-96.5 62.5q-56 0 -92.5 -63t-36.5 -181z" />
    <glyph glyph-name="uni0967" unicode="&#x967;" horiz-adv-x="372" 
d="M43 452v105l163 97h90v-654h-98v547z" />
    <glyph glyph-name="uni0968" unicode="&#x968;" horiz-adv-x="508" 
d="M179 85h284v-85h-420v81q126 92 212.5 190.5t86.5 179.5q0 57 -33 87.5t-91 30.5q-78 0 -157 -60v97q72 55 171 55q92 0 152 -51.5t60 -146.5q0 -177 -265 -378z" />
    <glyph glyph-name="uni0969" unicode="&#x969;" horiz-adv-x="492" 
d="M76 530v95q60 36 138 36q100 0 156 -49.5t56 -124.5q0 -54 -26.5 -94.5t-77.5 -61.5q57 -14 89 -53t32 -98q0 -81 -58.5 -133.5t-163.5 -52.5q-99 0 -167 34v96q75 -40 162 -40q60 0 93 29t33 76q0 100 -147 100h-40v84h40q55 0 92 27.5t37 75.5t-30.5 72t-83.5 24
q-69 0 -134 -42z" />
    <glyph glyph-name="uni096A" unicode="&#x96a;" horiz-adv-x="573" 
d="M147 238h198v359zM534 238v-85h-92v-153h-97v153h-296v85l235 417h158v-417h92z" />
    <glyph glyph-name="uni096B" unicode="&#x96b;" horiz-adv-x="525" 
d="M190 570v-172q37 8 68 8q102 0 160 -53.5t58 -144.5q0 -98 -64.5 -156.5t-179.5 -58.5q-103 0 -170 34v95q64 -39 154 -39q158 0 158 128q0 51 -35.5 79.5t-95.5 28.5q-76 0 -150 -35v371h339v-85h-242z" />
    <glyph glyph-name="uni096C" unicode="&#x96c;" horiz-adv-x="535" 
d="M283 76q51 0 81 38t30 98q0 56 -30 89.5t-80 33.5q-81 0 -135 -60q3 -103 39.5 -151t94.5 -48zM448 656v-95q-39 20 -90 20q-85 0 -136.5 -62t-66.5 -157q62 59 147 59q89 0 141 -57t52 -152q0 -98 -58 -161.5t-155 -63.5q-116 0 -175 83t-59 222q0 165 83 272t222 107
q50 0 95 -15z" />
    <glyph glyph-name="uni096D" unicode="&#x96d;" horiz-adv-x="497" 
d="M33 654h431v-85l-266 -569h-105l267 569h-327v85z" />
    <glyph glyph-name="uni096E" unicode="&#x96e;" horiz-adv-x="542" 
d="M269 75q61 0 93 30t32 74t-31.5 73.5t-93.5 30.5q-61 -2 -91.5 -33.5t-30.5 -77.5q0 -41 31 -69t91 -28zM268 579q-52 0 -81 -30.5t-29 -73.5q0 -51 31.5 -77t81.5 -26q48 0 78.5 27t30.5 77q0 44 -28 73.5t-84 29.5zM382 329q112 -37 112 -156q0 -82 -64 -132t-162 -50
q-96 0 -158 48t-62 129q0 117 109 159q-99 42 -99 145q0 89 61.5 140t148.5 51q89 0 150 -49t61 -141q0 -99 -97 -144z" />
    <glyph glyph-name="uni096F" unicode="&#x96f;" horiz-adv-x="524" 
d="M268 316q71 0 120 60q-2 90 -34.5 143.5t-95.5 53.5q-51 0 -81 -36t-30 -93q0 -61 32.5 -94.5t88.5 -33.5zM85 11v95q53 -23 108 -23q91 0 136 50.5t55 153.5q-49 -55 -141 -55q-83 0 -140 57.5t-57 152.5q0 92 55.5 156t152.5 64q113 0 173 -82.5t60 -213.5
q0 -179 -72.5 -276.5t-214.5 -97.5q-63 0 -115 19z" />
    <glyph glyph-name="uni0970" unicode="&#x970;" horiz-adv-x="454" 
d="M59 308q0 69 49 118t119 49q69 0 118 -49t49 -118q0 -70 -49 -119t-118 -49q-70 0 -119 49t-49 119zM142 308q0 -35 25 -60t60 -25t59.5 25t24.5 60q0 34 -24.5 59t-59.5 25t-60 -24.5t-25 -59.5z" />
    <glyph glyph-name="uni097D" unicode="&#x97d;" horiz-adv-x="576" 
d="M111 561v96q26 16 71 27.5t85 11.5q89 0 142 -44.5t53 -124.5q0 -38 -17 -72.5t-41.5 -62.5t-49.5 -57t-42 -67t-17 -81v-187h-95v192q0 49 16.5 92t40 72.5t47.5 55t40.5 53t16.5 53.5q0 41 -26 66t-78 25q-76 0 -146 -48z" />
    <glyph glyph-name="Wgrave" unicode="&#x1e80;" horiz-adv-x="947" 
d="M420 887l95 -162h-84l-120 162h109zM432 664h91l71 -240l91 -317q37 182 69 317l59 250h104l-165 -674h-123l-64 213l-87 301q-23 -95 -84 -301l-62 -213h-124l-177 674h107l63 -249l74 -316q45 168 88 316z" />
    <glyph glyph-name="wgrave" unicode="&#x1e81;" horiz-adv-x="796" 
d="M339 720l95 -162h-84l-120 162h109zM178 0l-159 507h104l47 -168q23 -80 39 -141t20 -82l4 -21q13 63 66 245l49 167h95l50 -167q24 -83 41 -144.5t22 -81.5l4 -20q12 59 68 246l50 167h99l-161 -507h-112l-47 166q-21 76 -36.5 134.5t-20.5 79.5l-4 20q-14 -65 -61 -234
l-46 -166h-111z" />
    <glyph glyph-name="Wacute" unicode="&#x1e82;" horiz-adv-x="947" 
d="M432 664h91l71 -240l91 -317q37 182 69 317l59 250h104l-165 -674h-123l-64 213l-87 301q-23 -95 -84 -301l-62 -213h-124l-177 674h107l63 -249l74 -316q45 168 88 316zM446 725l95 162h109l-120 -162h-84z" />
    <glyph glyph-name="wacute" unicode="&#x1e83;" horiz-adv-x="796" 
d="M178 0l-159 507h104l47 -168q23 -80 39 -141t20 -82l4 -21q13 63 66 245l49 167h95l50 -167q24 -83 41 -144.5t22 -81.5l4 -20q12 59 68 246l50 167h99l-161 -507h-112l-47 166q-21 76 -36.5 134.5t-20.5 79.5l-4 20q-14 -65 -61 -234l-46 -166h-111zM362 558l95 162h109
l-120 -162h-84z" />
    <glyph glyph-name="Wdieresis" unicode="&#x1e84;" horiz-adv-x="947" 
d="M432 664h91l71 -240l91 -317q37 182 69 317l59 250h104l-165 -674h-123l-64 213l-87 301q-23 -95 -84 -301l-62 -213h-124l-177 674h107l63 -249l74 -316q45 168 88 316zM528 806q0 26 17 43t43 17t43.5 -17t17.5 -43t-17.5 -43t-43.5 -17t-43 17t-17 43zM307 806
q0 26 17 43t44 17q26 0 43 -17t17 -43t-17 -43t-43 -17q-27 0 -44 17t-17 43z" />
    <glyph glyph-name="wdieresis" unicode="&#x1e85;" horiz-adv-x="796" 
d="M178 0l-159 507h104l47 -168q23 -80 39 -141t20 -82l4 -21q13 63 66 245l49 167h95l50 -167q24 -83 41 -144.5t22 -81.5l4 -20q12 59 68 246l50 167h99l-161 -507h-112l-47 166q-21 76 -36.5 134.5t-20.5 79.5l-4 20q-14 -65 -61 -234l-46 -166h-111zM446 639
q0 25 17 42.5t43 17.5t43.5 -17t17.5 -43t-17.5 -43t-43.5 -17t-43 17.5t-17 42.5zM225 639q0 26 17 43t44 17q26 0 43 -17.5t17 -42.5t-17 -42.5t-43 -17.5q-27 0 -44 17t-17 43z" />
    <glyph glyph-name="Ygrave" unicode="&#x1ef2;" horiz-adv-x="608" 
d="M355 725h-84l-120 162h109zM585 674l-231 -423v-251h-103v251l-228 423h118l48 -99q46 -93 74 -153t33 -74l6 -13q9 30 116 240l49 99h118z" />
    <glyph glyph-name="ygrave" unicode="&#x1ef3;" horiz-adv-x="504" 
d="M203 720l95 -162h-84l-120 162h109zM209 11l-202 496h109l63 -165l79 -214q9 30 72 214l57 165h104l-183 -493q-73 -195 -223 -195q-27 0 -46 5v84q16 -4 34 -4q97 0 136 107z" />
    <glyph glyph-name="uni200B" unicode="&#x200b;" horiz-adv-x="0" 
 />
    <glyph glyph-name="uni200C" unicode="&#x200c;" horiz-adv-x="0" 
d="M24 -230h-47v1041h47v-1041z" />
    <glyph glyph-name="uni200D" unicode="&#x200d;" horiz-adv-x="0" 
d="M129 593l-33 -33l-72 75v-865h-47v865l-69 -73l-33 33l93 93l-95 95l33 33l95 -95l96 95l32 -32l-96 -96z" />
    <glyph glyph-name="endash" unicode="&#x2013;" horiz-adv-x="544" 
d="M53 231v78h438v-78h-438z" />
    <glyph glyph-name="emdash" unicode="&#x2014;" horiz-adv-x="826" 
d="M53 233v78h720v-78h-720z" />
    <glyph glyph-name="quoteleft" unicode="&#x2018;" horiz-adv-x="205" 
d="M221 695l-89 -235h-116l124 235h81z" />
    <glyph glyph-name="quoteright" unicode="&#x2019;" horiz-adv-x="206" 
d="M17 460l88 235h117l-125 -235h-80z" />
    <glyph glyph-name="quotesinglbase" unicode="&#x201a;" horiz-adv-x="206" 
d="M-1 -124l89 234h116l-124 -234h-81z" />
    <glyph glyph-name="quotedblleft" unicode="&#x201c;" horiz-adv-x="361" 
d="M221 695l-90 -235h-115l127 235h78zM377 695l-87 -235h-110l118 235h79z" />
    <glyph glyph-name="quotedblright" unicode="&#x201d;" horiz-adv-x="361" 
d="M172 460l90 235h115l-126 -235h-79zM17 460l86 235h110l-118 -235h-78z" />
    <glyph glyph-name="quotedblbase" unicode="&#x201e;" horiz-adv-x="361" 
d="M157 -124l90 234h115l-127 -234h-78zM1 -124l87 234h109l-117 -234h-79z" />
    <glyph glyph-name="dagger" unicode="&#x2020;" horiz-adv-x="534" 
d="M495 509v-83h-186v-426h-89v426h-182v83h182v165h89v-165h186z" />
    <glyph glyph-name="daggerdbl" unicode="&#x2021;" horiz-adv-x="547" 
d="M502 426h-187v-170h187v-84h-187v-172h-89v172h-181v84h181v170h-181v83h181v165h89v-165h187v-83z" />
    <glyph glyph-name="bullet" unicode="&#x2022;" horiz-adv-x="442" 
d="M88 356q0 57 37.5 95t94.5 38q56 0 94.5 -38.5t38.5 -94.5t-38 -94.5t-94 -38.5q-57 0 -95 38t-38 95z" />
    <glyph glyph-name="ellipsis" unicode="&#x2026;" horiz-adv-x="783" 
d="M43 60q0 28 19.5 47.5t48.5 19.5q28 0 47.5 -19.5t19.5 -47.5t-19.5 -48t-47.5 -20q-29 0 -48.5 20t-19.5 48zM324 60q0 28 19.5 47.5t48.5 19.5q28 0 47.5 -19.5t19.5 -47.5t-19.5 -48t-47.5 -20t-48 20t-20 48zM605 60q0 28 19.5 47.5t48.5 19.5q28 0 47.5 -19.5
t19.5 -47.5t-19.5 -48t-47.5 -20q-29 0 -48.5 20t-19.5 48z" />
    <glyph glyph-name="perthousand" unicode="&#x2030;" horiz-adv-x="1270" 
d="M209 -1l364 678h93l-365 -678h-92zM498 160q0 69 49 118.5t119 49.5q69 0 118 -49.5t49 -118.5q0 -70 -49 -118.5t-118 -48.5q-70 0 -119 48.5t-49 118.5zM45 520q0 69 49 118t119 49q69 0 118 -49t49 -118q0 -70 -49 -119t-118 -49q-70 0 -119 49t-49 119zM128 520
q0 -35 25 -60t60 -25t59.5 25t24.5 60q0 34 -24.5 59t-59.5 25t-60 -24.5t-25 -59.5zM581 160q0 -35 25 -60t60 -25t60 25t25 60t-25 60t-60 25t-60 -25t-25 -60zM902 160q0 69 49 118.5t118 49.5t118.5 -49.5t49.5 -118.5t-49.5 -118t-118.5 -49t-118 48.5t-49 118.5z
M985 160q0 -35 24.5 -60t59.5 -25t60 25t25 60t-25 60t-60 25t-59.5 -25t-24.5 -60z" />
    <glyph glyph-name="guilsinglleft" unicode="&#x2039;" horiz-adv-x="320" 
d="M285 415l-146 -162l146 -162h-106l-151 162l151 162h106z" />
    <glyph glyph-name="guilsinglright" unicode="&#x203a;" horiz-adv-x="318" 
d="M141 415l151 -162l-151 -162h-106l146 162l-146 162h106z" />
    <glyph glyph-name="fraction" unicode="&#x2044;" horiz-adv-x="298" 
d="M186 399l-67 -86h-13l67 86h13z" />
    <glyph glyph-name="foursuperior" unicode="&#x2074;" horiz-adv-x="390" 
d="M105 551h123v219zM358 551v-63h-60v-96h-70v96h-193v63l154 272h109v-272h60z" />
    <glyph glyph-name="Euro" unicode="&#x20ac;" horiz-adv-x="600" 
d="M560 633v-97q-48 31 -119 31q-65 0 -113 -33t-71 -95h194v-67h-210q-3 -24 -3 -50q0 -14 2 -40h211v-67h-196q23 -63 71 -97t110 -34q74 0 124 33v-98q-52 -27 -135 -27q-102 0 -176.5 60t-101.5 163h-99v67h88q-2 26 -2 41q0 17 2 49h-88v67h100q29 105 104 163.5
t175 58.5q81 0 133 -28z" />
    <glyph glyph-name="uni20B9" unicode="&#x20b9;" horiz-adv-x="546" 
d="M500 674v-80h-159q41 -35 55 -91h104v-80h-99q-9 -81 -66.5 -128.5t-154.5 -50.5l199 -244h-124l-192 244v82h95q127 0 143 97h-238v80h233q-27 91 -140 91h-93v80h437z" />
    <glyph glyph-name="trademark" unicode="&#x2122;" horiz-adv-x="711" 
d="M277 331l28 343h84l51 -142q12 -33 21.5 -62t12.5 -42l3 -12q13 42 41 116l53 142h85l29 -343h-69l-11 143l-3 119q-9 -39 -39 -120l-52 -136h-66l-48 136l-38 120q2 -42 -3 -120l-9 -142h-70zM4 612v62h241v-62h-84v-282h-70v282h-87z" />
    <glyph glyph-name="uni2126" unicode="&#x2126;" horiz-adv-x="783" 
d="M583 86h150v-86h-296v86q75 15 112.5 85t37.5 174q0 114 -51 180t-146 66q-93 0 -145 -66t-52 -180q0 -101 40 -172t114 -87v-86h-296v86h149q-115 84 -115 259q0 154 82 248t223 94q143 0 224 -93.5t81 -248.5q0 -176 -112 -259z" />
    <glyph glyph-name="partialdiff" unicode="&#x2202;" horiz-adv-x="526" 
d="M252 81q62 0 97 52.5t37 145.5q-50 60 -130 60q-51 0 -84 -35.5t-33 -94.5q0 -56 30.5 -92t82.5 -36zM130 674h137q86 -59 149.5 -170.5t63.5 -218.5q0 -135 -60.5 -214.5t-171.5 -79.5q-99 0 -154.5 63.5t-55.5 157.5q0 96 61.5 154.5t144.5 58.5q77 0 129 -49
q-26 90 -94.5 169.5t-148.5 128.5z" />
    <glyph glyph-name="Delta" unicode="&#x2206;" horiz-adv-x="636" 
d="M142 85h352l-60 179l-115 333q-25 -71 -116 -333zM388 674l216 -598v-76h-572v76l220 598h136z" />
    <glyph glyph-name="product" unicode="&#x220f;" horiz-adv-x="609" 
d="M538 674v-854h-103v764h-239v-575q0 -97 -42 -145.5t-120 -48.5q-34 0 -66 12v92q26 -12 52 -12q74 0 74 96v671h444z" />
    <glyph glyph-name="summation" unicode="&#x2211;" horiz-adv-x="454" 
d="M483 674v-86h-341l167 -344l-168 -358h342v-86h-453v86l170 358l-170 344v86h453z" />
    <glyph glyph-name="minus" unicode="&#x2212;" horiz-adv-x="564" 
d="M53 296v88h457v-88h-457z" />
    <glyph glyph-name="uni2215" unicode="&#x2215;" horiz-adv-x="548" 
d="M318 399l-67 -86h-13l67 86h13z" />
    <glyph glyph-name="uni2219" unicode="&#x2219;" horiz-adv-x="263" 
d="M64 337q0 29 20 48.5t48 19.5t47.5 -20t19.5 -48t-19.5 -48t-47.5 -20t-48 19.5t-20 48.5z" />
    <glyph glyph-name="radical" unicode="&#x221a;" horiz-adv-x="775" 
d="M238 433l100 -283q66 -190 83 -258q0 2 7 33.5t24 96.5t37 132l229 746h103l-337 -1096h-128l-200 548h-125l19 81h188z" />
    <glyph glyph-name="infinity" unicode="&#x221e;" horiz-adv-x="833" 
d="M137 346q0 -39 25 -65t68 -26q66 0 130 91q-70 87 -130 87q-44 0 -68.5 -24t-24.5 -63zM416 286q-42 -51 -87 -80.5t-106 -29.5q-84 0 -129.5 44.5t-45.5 121.5q0 76 49 123t131 47q59 0 102.5 -28.5t86.5 -80.5q87 111 193 111q83 0 129.5 -45t46.5 -120t-49.5 -123
t-130.5 -48q-60 0 -103.5 28t-86.5 80zM695 346q0 38 -24.5 63.5t-67.5 25.5q-66 0 -130 -92q23 -28 38.5 -43.5t40.5 -29t51 -13.5q44 0 68 24t24 65z" />
    <glyph glyph-name="approxequal" unicode="&#x2248;" horiz-adv-x="609" 
d="M499 306l67 -50q-60 -92 -146 -92q-48 0 -113.5 33t-93.5 33q-61 0 -108 -64l-63 53q68 94 154 94q54 0 119 -32t93 -32q52 0 91 57zM499 507l67 -50q-59 -91 -146 -91q-48 0 -113.5 32.5t-93.5 32.5q-61 0 -108 -64l-63 53q68 94 154 94q54 0 119 -32t93 -32q52 0 91 57
z" />
    <glyph glyph-name="notequal" unicode="&#x2260;" horiz-adv-x="564" 
d="M510 405h-168l-59 -129h227v-83h-264l-39 -85h-61l38 85h-131v83h169l58 129h-227v82h265l38 85h62l-39 -85h131v-82z" />
    <glyph glyph-name="lessequal" unicode="&#x2264;" horiz-adv-x="559" 
d="M48 109v82h457v-82h-457zM505 569v-89l-411 -72l411 -72v-89l-457 94v134z" />
    <glyph glyph-name="greaterequal" unicode="&#x2265;" horiz-adv-x="559" 
d="M53 109v82h457v-82h-457zM53 569l457 -94v-134l-457 -94v89l411 72l-411 72v89z" />
    <glyph glyph-name="lozenge" unicode="&#x25ca;" horiz-adv-x="575" 
d="M387 265l39 72l-39 72q-31 55 -56 101t-35 65l-9 19q-30 -62 -98 -185l-38 -72l38 -72l98 -185q30 62 100 185zM342 674l188 -337l-188 -337h-112l-185 337l185 337h112z" />
    <glyph glyph-name="uni25CC" unicode="&#x25cc;" horiz-adv-x="701" 
d="M167 528q0 19 12.5 31.5t31.5 12.5t31.5 -12.5t12.5 -31.5q0 -20 -12.5 -32.5t-31.5 -12.5t-31.5 12.5t-12.5 32.5zM85 418q0 19 13 31.5t33 12.5q18 0 31 -12.5t13 -31.5t-13 -31.5t-31 -12.5q-20 0 -33 12.5t-13 31.5zM72 292q0 19 12.5 32t31.5 13t31.5 -12.5
t12.5 -32.5q0 -19 -12.5 -31t-31.5 -12t-31.5 12t-12.5 31zM124 176q0 19 12.5 31.5t31.5 12.5t31.5 -12.5t12.5 -31.5t-12.5 -31.5t-31.5 -12.5q-20 0 -32 12t-12 32zM225 101q0 18 13 31t32 13t31.5 -13t12.5 -31q0 -20 -12.5 -33t-31.5 -13t-32 13t-13 33zM352 85
q0 19 12 31.5t32 12.5t32.5 -12.5t12.5 -31.5t-12.5 -31.5t-32.5 -12.5t-32 12.5t-12 31.5zM473 138q0 19 12.5 31.5t31.5 12.5t32 -12.5t13 -31.5t-13 -31.5t-32 -12.5t-31.5 12.5t-12.5 31.5zM546 236q0 20 13 32.5t32 12.5q18 0 30.5 -13t12.5 -32t-12.5 -31.5
t-30.5 -12.5q-19 0 -32 12.5t-13 31.5zM556 370q0 20 12 32t32 12q19 0 31.5 -12.5t12.5 -31.5t-12.5 -31.5t-31.5 -12.5q-20 0 -32 12t-12 32zM506 488q0 19 12.5 32t31.5 13t31.5 -12.5t12.5 -32.5q0 -19 -12.5 -31.5t-31.5 -12.5t-31.5 12.5t-12.5 31.5zM411 556
q0 20 12.5 32.5t32.5 12.5q19 0 31 -12.5t12 -32.5q0 -18 -12.5 -31t-30.5 -13q-19 0 -32 13t-13 31zM285 571q0 19 12.5 31.5t31.5 12.5t31.5 -12.5t12.5 -31.5t-12.5 -31.5t-31.5 -12.5t-31.5 12.5t-12.5 31.5z" />
    <glyph glyph-name="commaaccent" unicode="&#xf6c3;" horiz-adv-x="437" 
d="M122 -249l81 198h109l-113 -198h-77z" />
    <glyph glyph-name="ff" unicode="&#xfb00;" horiz-adv-x="595" 
d="M372 507v39q0 36 9 66q-51 20 -93 20q-79 0 -79 -87v-38h163zM590 708v-86q-23 10 -47 10q-73 0 -73 -87v-38h107v-76h-107v-431h-98v431h-163v-431h-98v431h-81v76h81v39q0 80 43.5 125t124.5 45q76 0 146 -35q41 35 109 35q29 0 56 -8z" />
    <glyph glyph-name="fi" unicode="&#xfb01;" horiz-adv-x="532" 
d="M470 507v-507h-98v431h-163v-431h-98v431h-81v76h81v39q0 80 43 125t122 45q81 0 153 -37v-85q-81 38 -144 38q-76 0 -76 -87v-38h261z" />
    <glyph glyph-name="fl" unicode="&#xfb02;" horiz-adv-x="534" 
d="M111 507v39q0 80 43 125t121 45q91 0 190 -53v-663h-98v618q-40 14 -77 14q-81 0 -81 -87v-38h107v-76h-107v-431h-98v431h-81v76h81z" />
    <glyph glyph-name="ffi" unicode="&#xfb03;" horiz-adv-x="839" 
d="M372 507v39q0 36 9 66q-51 20 -93 20q-79 0 -79 -87v-38h163zM731 507v-507h-98v431h-163v-431h-98v431h-163v-431h-98v431h-81v76h81v39q0 80 43.5 125t124.5 45q75 0 147 -35q43 35 111 35q79 0 153 -37v-85q-81 38 -144 38q-76 0 -76 -87v-38h261z" />
    <glyph glyph-name="ffl" unicode="&#xfb04;" horiz-adv-x="796" 
d="M373 507v39q0 36 9 66q-51 20 -94 20q-79 0 -79 -87v-38h164zM111 507v39q0 80 43.5 125t124.5 45q77 0 147 -36q40 36 111 36q89 0 190 -53v-663h-99v618q-40 14 -77 14q-38 0 -59 -19.5t-21 -67.5v-38h106v-76h-106v-431h-98v431h-164v-431h-98v431h-81v76h81z" />
    <glyph glyph-name="itfLogo" horiz-adv-x="1686" 
d="M147 0v650h201v-650h-201zM389 460v190h201v-190h-201zM631 0v650h201v-650h-201zM873 460v190h201v-190h-201zM1115 0v650h201v-650h-201zM1357 460v190h201v-190h-201zM1357 230v190h201v-190h-201z" />
    <glyph glyph-name="uni0915094D" horiz-adv-x="527" 
d="M440 570v-133q45 45 113 45q85 0 137 -52l-68 -69q-26 43 -83 43q-41 0 -70 -29.5t-29 -73.5v-301h-97v137q-47 -45 -114 -45q-84 0 -136 51.5t-52 133.5q0 89 58.5 142t146.5 53q16 0 23 -2v-80q-10 2 -19 2q-49 0 -80.5 -31t-31.5 -83q0 -47 29 -77.5t76 -30.5
q41 0 70.5 29.5t29.5 73.5v297h-367v80h575v-80h-111z" />
    <glyph glyph-name="uni0916094D" horiz-adv-x="596" 
d="M537 291v-71q-27 -10 -52 -10q-58 0 -98 37t-40 97q0 64 47 107.5t119 43.5q87 0 141 -52t54 -143q0 -112 -84.5 -188.5t-217.5 -76.5q-127 0 -217 74t-130 193v78h67q45 0 58.5 19t13.5 70v101h-222v80h644v-80h-326v-118q0 -67 -23.5 -103.5t-80.5 -42.5q-12 -3 -19 -3
q22 -79 88 -130.5t155 -51.5q93 0 149.5 48.5t56.5 130.5q0 54 -26.5 87t-77.5 33q-36 0 -57 -21.5t-21 -52.5q0 -29 17.5 -46t45.5 -17q20 0 36 8z" />
    <glyph glyph-name="uni0917094D" horiz-adv-x="310" 
d="M334 650v-80h-95v-228q0 -66 -35 -100.5t-96 -34.5q-42 0 -78 13v82q28 -14 57 -14q56 0 56 61v221h-167v80h358z" />
    <glyph glyph-name="uni0918094D" horiz-adv-x="359" 
d="M428 241l33 -69q-73 -86 -201 -86q-89 0 -144.5 42.5t-55.5 114.5q0 54 34.5 88t93.5 43q-51 3 -85.5 31.5t-34.5 78.5q0 51 38 86h-130v80h407v-80h-170q-48 -29 -48 -80q0 -74 115 -74h46v-83h-56q-52 0 -82.5 -22.5t-30.5 -62.5t32.5 -60.5t79.5 -20.5q105 0 159 74z
" />
    <glyph glyph-name="uni0919094D" horiz-adv-x="598" 
d="M220 -67h99l141 -168h-117zM520 410q25 0 42.5 -17.5t17.5 -42.5t-17 -42t-43 -17t-42.5 16.5t-16.5 42.5q0 25 17 42.5t42 17.5zM-24 650h646v-80h-213v-151v-1h-184q-75 0 -75 -56q0 -31 29.5 -44t100.5 -15q185 -5 185 -143q0 -71 -57.5 -116t-155.5 -45
q-109 0 -197 46v93q92 -58 198 -58q54 0 84.5 20.5t30.5 56.5q0 35 -28 49t-95 16q-191 7 -191 138q0 68 48 103t121 35h90v72h-337v80z" />
    <glyph glyph-name="uni091A094D" horiz-adv-x="399" 
d="M423 650v-80h-447v80h447zM485 302l45 -55q-24 -61 -89.5 -105.5t-153.5 -44.5q-89 0 -143.5 42.5t-54.5 118.5q0 83 71 121h-134v81h346v-81q-100 0 -144.5 -31t-44.5 -80q0 -42 31.5 -67.5t81.5 -25.5q64 0 115 37t74 90z" />
    <glyph glyph-name="uni091B094D" horiz-adv-x="633" 
d="M657 570h-430q-56 -36 -56 -96q0 -38 26.5 -61.5t66.5 -23.5h31v-82h-37q-50 0 -76 -21t-26 -59q0 -42 40 -67t101 -25q87 0 141 46t54 127q0 48 -26.5 75.5t-75.5 27.5q-25 0 -45 -6v78q20 7 60 7q87 0 136 -48t49 -129q0 -114 -83 -186t-210 -72q-103 0 -170.5 45
t-67.5 124q0 54 33 88t89 39q-44 5 -75 38.5t-31 84.5q0 59 41 96h-140v80h681v-80z" />
    <glyph glyph-name="uni091C094D" horiz-adv-x="421" 
d="M446 650v-80h-470v80h470zM554 455v-81h-270q69 -41 69 -134q0 -81 -55 -130t-145 -49q-68 0 -123 22v86q50 -26 109 -26q55 0 87.5 28t32.5 79q0 60 -43.5 92t-121.5 32v81h460z" />
    <glyph glyph-name="uni091D094D" horiz-adv-x="535" 
d="M660 322v-77h-216q20 -32 20 -77q0 -69 -48 -112.5t-126 -43.5q-79 0 -136 43v-104h-95v229h88q17 -40 54.5 -66t80.5 -26q39 0 62.5 20.5t23.5 56.5q0 70 -110 76q-88 3 -138 31t-50 96q0 67 48.5 101.5t127.5 34.5h78v66h-348v80h584v-80h-140v-144v-2h-169
q-84 0 -84 -52q0 -26 23.5 -36.5t76.5 -12.5l17 -1h376z" />
    <glyph glyph-name="uni091E094D" horiz-adv-x="462" 
d="M486 650v-80h-510v80h510zM578 331v-80h-183q-9 -79 -67 -128t-150 -52q-82 0 -154 36v89q71 -42 147 -42q61 0 94 34t33 89q0 50 -30.5 81.5t-82.5 31.5q-46 0 -82 -16v82q36 15 86 15q82 0 134 -37t67 -103h188z" />
    <glyph glyph-name="uni091F094D" horiz-adv-x="502" 
d="M420 570v-191q-28 6 -78 6q-87 0 -138.5 -38t-51.5 -108q0 -67 47 -103t124 -36q38 0 78.5 12t64.5 27v-88q-64 -33 -148 -33q-121 0 -193 59.5t-72 164.5q0 96 69 158t182 63h20v107h-348v80h550v-80h-106zM508 -217h-117l-123 168h99z" />
    <glyph glyph-name="uni0920094D" horiz-adv-x="567" 
d="M238 -7h99l141 -168h-117zM420 262q0 58 -36.5 88.5t-99.5 31.5q-57 0 -97 -30t-40 -89q0 -56 38 -90t100 -34q61 0 98 34t37 89zM592 570h-239v-117q75 -17 120.5 -66t45.5 -125q0 -89 -64.5 -145t-170.5 -57q-105 0 -170 55.5t-65 147.5q0 88 60.5 138.5t147.5 57.5
v111h-281v80h616v-80z" />
    <glyph glyph-name="uni0921094D" horiz-adv-x="524" 
d="M214 -67h99l141 -168h-117zM409 570v-151v-1h-184q-75 0 -75 -56q0 -31 29.5 -44t100.5 -15q185 -5 185 -143q0 -71 -57.5 -116t-155.5 -45q-109 0 -197 46v93q92 -58 198 -58q54 0 84.5 20.5t30.5 56.5q0 35 -28 49t-95 16q-191 7 -191 138q0 68 48 103t121 35h90v72
h-337v80h573v-80h-140z" />
    <glyph glyph-name="uni0922094D" horiz-adv-x="558" 
d="M494 -218h-117l-123 168h99zM266 208v75q41 22 96 22q69 0 108 -35t39 -93q0 -70 -56.5 -115t-152.5 -45q-110 0 -181.5 64t-71.5 165q0 102 72.5 164t190.5 64q11 0 35 -2v98h-369v80h607v-80h-142v-185q-57 10 -102 10q-87 0 -140 -40t-53 -110q0 -65 43.5 -107
t113.5 -42q49 0 81 21t32 59q0 24 -18.5 40t-49.5 16q-49 0 -82 -24z" />
    <glyph glyph-name="uni0923094D" horiz-adv-x="491" 
d="M318 346v224h-164v-224q0 -96 81 -96q83 0 83 96zM515 650v-80h-101v-219q0 -89 -47 -136t-134 -47q-175 0 -175 182v220h-82v80h539z" />
    <glyph glyph-name="uni0924094D" horiz-adv-x="385" 
d="M538 377h-215q-166 0 -166 -146q0 -69 33 -108.5t99 -39.5q16 0 21 1v-82q-18 -2 -33 -2q-101 0 -159.5 65t-58.5 167q0 103 65 164.5t191 61.5h223v-81zM-24 570v80h434v-80h-434z" />
    <glyph glyph-name="uni0925094D" horiz-adv-x="442" 
d="M375 507q0 -152 -237 -213q14 -53 59.5 -80.5t105.5 -27.5q63 0 120.5 30.5t95.5 81.5l48 -68q-112 -127 -264 -127q-111 0 -187.5 61t-89.5 185q134 31 195 66.5t61 92.5q0 30 -15 49.5t-44 19.5q-30 0 -45.5 -18t-15.5 -46q0 -22 13 -56h-94q-12 32 -12 65
q0 57 41.5 96t112.5 39q70 0 111 -42t41 -108z" />
    <glyph glyph-name="uni0926094D" horiz-adv-x="558" 
d="M628 -245h-117l-123 168h99zM-24 650h607v-80h-118v-169h-185q-63 0 -100.5 -33.5t-37.5 -90.5q0 -60 33 -94t88 -34q54 0 87.5 30.5t37.5 81.5h93v-271h-95v131q-19 -25 -56.5 -39t-78.5 -14q-95 0 -152.5 59t-57.5 147q0 91 61 148.5t171 57.5h95v90h-392v80z" />
    <glyph glyph-name="uni0927094D" horiz-adv-x="425" 
d="M512 278l45 -72q-46 -61 -119 -100.5t-167 -39.5q-97 0 -156 44.5t-59 116.5q0 57 37 91t99 40q-60 5 -94 34t-34 82q0 67 57 96h-145v80h314v-80h-1q-61 0 -94.5 -25t-33.5 -66t33.5 -61t88.5 -20h48v-81h-56q-57 0 -89 -22.5t-32 -62.5q0 -39 33.5 -62t91.5 -23
q136 0 233 131z" />
    <glyph glyph-name="uni0928094D" horiz-adv-x="280" 
d="M-24 570v80h329v-80h-329zM119 404h275v-79h-238q-18 0 -25.5 -9.5t-7.5 -31.5q0 -31 12 -72h-79q-30 51 -30 112q0 37 23 58.5t70 21.5z" />
    <glyph glyph-name="uni092A094D" horiz-adv-x="342" 
d="M409 358l53 -51q-29 -57 -84.5 -95t-128.5 -38q-183 0 -183 201v195h-90v80h390v-80h-203v-198q0 -63 24 -91t73 -28t89 29t60 76z" />
    <glyph glyph-name="uni092B094D" horiz-adv-x="625" 
d="M163 570v-198q0 -63 24 -90t73 -27t82.5 33t33.5 92v190h-213zM473 570v-127q46 46 121 46q119 0 173 -105l-74 -54q-33 80 -111 80q-47 0 -78 -29t-31 -75v-306h-97v229q-47 -52 -128 -52q-90 0 -136 46t-46 149v198h-90v80h674v-80h-177z" />
    <glyph glyph-name="uni092C094D" horiz-adv-x="384" 
d="M408 650v-80h-432v80h432zM372 180l-203 189q-24 -34 -24 -82q0 -58 38 -94t96 -36q50 0 93 23zM463 272l54 -50q-87 -143 -243 -143q-94 0 -159.5 58.5t-65.5 151.5q0 92 62.5 151.5t160.5 59.5q40 0 82 -10v-84q-39 12 -75 12q-38 0 -68 -14l205 -190q19 18 47 58z" />
    <glyph glyph-name="uni092D094D" horiz-adv-x="335" 
d="M431 356v-79h-232v-134h-84l-28 62q-27 57 -27 89q0 22 12 38t31 20v162q0 60 -46 60q-31 0 -55 -14v78q31 17 74 17q123 0 123 -127v-172h232z" />
    <glyph glyph-name="uni092E094D" horiz-adv-x="352" 
d="M466 356v-85h-267v-130h-83l-28 63q-28 63 -28 90q0 22 12 37.5t32 20.5v218h-128v80h401v-80h-178v-214h267z" />
    <glyph glyph-name="uni092F094D" horiz-adv-x="384" 
d="M409 570h-134q23 -37 23 -90q0 -118 -143 -166q14 -51 53 -81t96 -30q52 0 94.5 28t62.5 75l56 -54q-24 -54 -82 -93.5t-141 -39.5q-100 0 -167.5 64.5t-84.5 185.5q79 12 119.5 43t40.5 72q0 52 -30 86h-196v80h433v-80z" />
    <glyph glyph-name="uni0930094D" horiz-adv-x="388" 
d="M356 -235h-117l-123 168h99zM32 272v78h70q113 0 113 91v129h-239v80h436v-80h-101v-137q0 -70 -41 -111.5t-112 -46.5q-2 -1 -12 -1l211 -274h-117z" />
    <glyph glyph-name="uni0932094D" horiz-adv-x="489" 
d="M344 83v-79q-17 -4 -43 -4q-115 0 -183.5 74t-68.5 190q0 93 48 150.5t129 57.5q56 0 92 -25t45 -67q25 97 143 97q84 0 135 -61l-51 -58q-27 41 -79 41q-100 0 -100 -119v-70h-97v72q0 110 -78 110q-40 0 -65.5 -33t-25.5 -97q0 -81 42 -131t126 -50q20 0 31 2zM-24 570
v80h537v-80h-537z" />
    <glyph glyph-name="uni0933094D" horiz-adv-x="799" 
d="M555 90q-101 0 -168 69q-50 -69 -145 -69q-89 0 -145 52t-56 139q0 86 56 139.5t142 53.5q98 0 165 -65q52 64 149 64q91 0 148 -52.5t57 -136.5q0 -87 -58 -140.5t-145 -53.5zM552 395q-18 0 -32.5 -4.5t-26 -16.5t-19 -20t-15 -29t-10.5 -29t-10.5 -34t-8.5 -31
q53 -62 123 -62q49 0 78 31.5t29 83.5q0 50 -29 80.5t-79 30.5zM243 169q24 0 42 10t30.5 31t19 37.5t15.5 47.5t13 43q-54 58 -120 58q-48 0 -76 -32.5t-28 -83.5q0 -50 28 -80.5t76 -30.5zM-24 570v80h848v-80h-848z" />
    <glyph glyph-name="uni0935094D" horiz-adv-x="346" 
d="M314 475v-85q-23 9 -59 9q-49 0 -81.5 -32t-32.5 -83q0 -52 36 -84t92 -32q95 0 162 99l47 -59q-33 -52 -88.5 -85.5t-130.5 -33.5q-91 0 -153.5 52t-62.5 144q0 85 57 141t148 56q36 0 66 -7zM370 570h-394v80h394v-80z" />
    <glyph glyph-name="uni0936094D" horiz-adv-x="448" 
d="M163 251h-17l231 -251h-126l-221 247v84h102q82 0 127 37t45 104q0 99 -79 99q-32 0 -48 -20.5t-16 -50.5q0 -29 15 -59h-93q-15 33 -15 67q0 60 42.5 102.5t113.5 42.5q80 0 128 -52t48 -129q0 -105 -71 -163t-166 -58z" />
    <glyph glyph-name="uni0937094D" horiz-adv-x="358" 
d="M165 504v-132q0 -63 31.5 -94t85.5 -31q57 0 104 40zM436 346l44 -55q-77 -122 -208 -122q-93 0 -147 50.5t-54 152.5v198h-95v80h407v-80h-202l243 -242z" />
    <glyph glyph-name="uni0938094D" horiz-adv-x="403" 
d="M511 259h-208q-96 0 -157 9l185 -268h-117l-188 278v73h67q54 0 75 22t21 67v130h-213v80h451v-80h-142v-134q0 -60 -24 -97h250v-80z" />
    <glyph glyph-name="uni0939094D" horiz-adv-x="476" 
d="M561 239h-271q-63 0 -96.5 -25.5t-33.5 -65.5q0 -47 40 -75t123 -28q58 0 129 18v-81q-73 -16 -135 -16q-121 0 -187.5 54t-66.5 129q0 74 64 123q-68 42 -68 113q0 51 36.5 78.5t95.5 27.5h166v79h-381v80h525v-80h-48v-157h-245q-51 0 -51 -40q0 -44 42 -68
q41 12 93 12h269v-78z" />
    <glyph glyph-name="uni0915093C094D" horiz-adv-x="544" 
d="M161 17q25 0 42.5 -17.5t17.5 -42.5t-17.5 -42t-42.5 -17t-42 17t-17 42t17 42.5t42 17.5zM440 570v-133q45 45 113 45q85 0 137 -52l-68 -69q-26 43 -83 43q-41 0 -70 -29.5t-29 -73.5v-301h-97v137q-47 -45 -114 -45q-84 0 -136 51.5t-52 133.5q0 89 58.5 142t146.5 53
q16 0 23 -2v-80q-10 2 -19 2q-49 0 -80.5 -31t-31.5 -83q0 -47 29 -77.5t76 -30.5q41 0 70.5 29.5t29.5 73.5v297h-367v80h575v-80h-111z" />
    <glyph glyph-name="uni0916093C094D" horiz-adv-x="595" 
d="M91 43q25 0 42.5 -17.5t17.5 -42.5t-17.5 -42t-42.5 -17t-42 17t-17 42t17 42.5t42 17.5zM537 291v-71q-27 -10 -52 -10q-58 0 -98 37t-40 97q0 64 47 107.5t119 43.5q87 0 141 -52t54 -143q0 -112 -84.5 -188.5t-217.5 -76.5q-127 0 -217 74t-130 193v78h67
q45 0 58.5 19t13.5 70v101h-222v80h644v-80h-326v-118q0 -67 -23.5 -103.5t-80.5 -42.5q-12 -3 -19 -3q22 -79 88 -130.5t155 -51.5q93 0 149.5 48.5t56.5 130.5q0 54 -26.5 87t-77.5 33q-36 0 -57 -21.5t-21 -52.5q0 -29 17.5 -46t45.5 -17q20 0 36 8z" />
    <glyph glyph-name="uni0917093C094D" horiz-adv-x="320" 
d="M139 87q25 0 42.5 -17.5t17.5 -42.5t-17.5 -42t-42.5 -17t-42 17t-17 42t17 42.5t42 17.5zM345 650v-80h-106v-228q0 -66 -35 -100.5t-96 -34.5q-42 0 -78 13v82q28 -14 57 -14q56 0 56 61v221h-167v80h369z" />
    <glyph glyph-name="uni091C093C094D" horiz-adv-x="429" 
d="M446 650v-80h-470v80h470zM160 -25q25 0 42.5 -17.5t17.5 -42.5t-17.5 -42t-42.5 -17q-26 0 -42.5 17t-16.5 42t17 42.5t42 17.5zM554 455v-81h-270q69 -41 69 -134q0 -81 -55 -130t-145 -49q-68 0 -123 22v86q50 -26 109 -26q55 0 87.5 28t32.5 79q0 60 -43.5 92
t-121.5 32v81h460z" />
    <glyph glyph-name="uni0928093C094D" horiz-adv-x="280" 
d="M-24 570v80h329v-80h-329zM119 404h275v-79h-238q-18 0 -25.5 -9.5t-7.5 -31.5q0 -31 12 -72h-79q-30 51 -30 112q0 37 23 58.5t70 21.5zM75 49q0 25 17 42.5t42 17.5t42.5 -17.5t17.5 -42.5t-17.5 -42t-42.5 -17q-26 0 -42.5 17t-16.5 42z" />
    <glyph glyph-name="uni092B093C094D" horiz-adv-x="613" 
d="M142 78q25 0 42.5 -17.5t17.5 -42.5t-17.5 -42t-42.5 -17q-26 0 -42.5 16.5t-16.5 42.5q0 25 17 42.5t42 17.5zM163 570v-198q0 -63 24 -90t73 -27t82.5 33t33.5 92v190h-213zM473 570v-127q46 46 121 46q119 0 173 -105l-74 -54q-33 80 -111 80q-47 0 -78 -29t-31 -75
v-306h-97v229q-47 -52 -128 -52q-90 0 -136 46t-46 149v198h-90v80h674v-80h-177z" />
    <glyph glyph-name="uni092F093C094D" horiz-adv-x="380" 
d="M409 570h-134q23 -37 23 -90q0 -118 -143 -166q14 -51 53 -81t96 -30q52 0 94.5 28t62.5 75l56 -54q-24 -54 -82 -93.5t-141 -39.5q-100 0 -167.5 64.5t-84.5 185.5q79 12 119.5 43t40.5 72q0 52 -30 86h-196v80h433v-80zM81 -12q0 25 17 42.5t42 17.5t42.5 -17.5
t17.5 -42.5t-17.5 -42t-42.5 -17q-26 0 -42.5 16.5t-16.5 42.5z" />
    <glyph glyph-name="itfStar" horiz-adv-x="657" 
d="M674 461l-225 -145q13 -32 97 -254l-211 173q-17 -13 -113 -92t-98 -81l99 254q-14 9 -114.5 73t-113.5 72l269 -9q33 121 71 254l69 -254q24 2 134 5.5t136 3.5z" />
    <glyph glyph-name="uni09080902" horiz-adv-x="517" 
d="M422 570v-149v-1h-181q-30 0 -52 -14.5t-22 -43.5q0 -25 18 -41t48 -17l86 5q74 -3 112.5 -42.5t38.5 -104.5q0 -69 -49.5 -113.5t-126.5 -44.5t-132 41v-108h-95v235h88q15 -40 51 -66t81 -26q38 0 63 23t25 60q0 29 -18 47.5t-50 19.5l-86 -7q-65 3 -108.5 41t-43.5 97
q0 67 48.5 103t120.5 36h88v70h-350v80h328q-51 59 -51 135q0 72 49 120t125 48q48 0 85 -17v-89q-31 18 -68 18q-39 0 -66 -28.5t-27 -70.5q0 -66 52 -116h139v-80h-120zM405 756q0 22 14.5 37t36.5 15t37 -15t15 -37t-15 -36.5t-37 -14.5t-36.5 14.5t-14.5 36.5z" />
    <glyph glyph-name="uni09300941" horiz-adv-x="644" 
d="M668 570h-340v-131q49 34 105 34q80 0 125 -48t45 -123q0 -81 -50 -129.5t-126 -48.5q-43 0 -64 10v78q18 -8 49 -8q44 0 69.5 25t25.5 71q0 42 -23 68t-62 26q-25 0 -48 -9t-34 -17.5t-35 -31t-31 -28.5v1q-43 -34 -103 -35h-8l210 -274h-116l-208 272v78h70
q113 0 113 91v129h-256v80h692v-80z" />
    <glyph glyph-name="uni09300942" horiz-adv-x="658" 
d="M328 570v-137v-7q47 55 126 55q86 0 134 -52.5t48 -128.5q0 -88 -50.5 -141.5t-128.5 -53.5q-46 0 -69 9v83q30 -8 54 -8q45 0 71 28.5t26 79.5q0 43 -22.5 71t-62.5 28q-37 0 -59 -23t-22 -63v-53h-84v53v14q-44 -49 -117 -50h-9l210 -274h-116l-208 272v78h70
q113 0 113 91v129h-256v80h707v-80h-355z" />
    <glyph glyph-name="uni09390941" horiz-adv-x="535" 
d="M453 413h-245q-51 0 -51 -40q0 -41 40 -64q44 13 95 13q87 0 133 -40.5t46 -98.5q0 -27 -9 -50h-95q12 17 12 44q0 29 -22.5 47t-66.5 18q-62 0 -96 -27.5t-34 -66.5q0 -44 26.5 -70.5t78.5 -28.5q32 19 74 19q70 0 111 -36.5t41 -95.5q0 -67 -49 -110t-136 -43
q-115 0 -201 56v95q42 -30 98 -51t100 -21q46 0 70 19.5t24 49.5q0 29 -19 43.5t-50 14.5q-29 0 -54 -18h-18q-85 5 -139 52t-54 126q0 76 64 125q-68 42 -68 111q0 51 36.5 78.5t95.5 27.5h166v79h-381v80h585v-80h-108v-157z" />
    <glyph glyph-name="uni09390942" horiz-adv-x="536" 
d="M453 413h-245q-51 0 -51 -40q0 -43 40 -66q39 11 87 11q89 0 138.5 -39.5t49.5 -98.5q0 -34 -10 -57h-95q13 21 13 51q0 29 -25 47t-72 18q-60 0 -91.5 -25.5t-31.5 -62.5q0 -43 34.5 -70t92.5 -28q69 0 119 -29t75 -75.5t36 -92t11 -92.5h-89q-1 90 -39.5 150.5
t-112.5 60.5q-31 0 -50 -16.5t-19 -43.5q0 -29 21.5 -45.5t53.5 -16.5q21 0 38 7v-76q-19 -7 -48 -7q-68 0 -113 36t-45 104q0 54 41 92q-48 18 -75.5 56.5t-27.5 86.5q0 73 63 121q-67 42 -67 112q0 51 36.5 78.5t95.5 27.5h166v79h-381v80h585v-80h-108v-157z" />
    <glyph glyph-name="uni09260943" horiz-adv-x="484" 
d="M389 570v-159q-47 18 -121 18q-102 -2 -102 -61q0 -61 108 -61h63v-82h-67q-54 0 -83.5 -19.5t-29.5 -53.5q0 -67 118 -67q90 0 162 51v-89q-65 -40 -162 -40q-93 0 -154 36.5t-61 103.5q0 51 32 82.5t89 36.5q-53 5 -83.5 33t-30.5 75q0 55 46.5 89t126.5 34q28 0 54 -3
v76h-318v80h532v-80h-119z" />
    <glyph glyph-name="uni09390943" horiz-adv-x="527" 
d="M418 413h-213q-50 0 -50 -40t35 -64q47 18 110 18q58 0 88.5 -21.5t30.5 -58.5q0 -27 -33 -65.5t-33 -49.5q0 -20 37 -20q54 0 100 30v-76q-50 -26 -119 -26q-45 0 -77.5 20t-32.5 58q0 24 32 60.5t32 47.5q0 23 -33 23q-64 0 -104 -37.5t-40 -92.5q0 -61 53 -103.5
t154 -42.5q46 0 79 9v-75q-41 -10 -86 -10q-127 0 -212 60t-85 166q0 91 72 150q-67 41 -67 112q0 51 37 78.5t95 27.5h134v79h-346v80h575v-80h-133v-157z" />
    <glyph glyph-name="uni094D0928.post" 
d="M-24 650h319v-80h-111v-570h-97v170l-133 -97q-21 -14 -21 -37q0 -30 40 -70l-58 -36q-36 20 -61 50t-25 63q0 44 56 83l202 142v302h-111v80z" />
    <glyph glyph-name="uni094D092F.post" horiz-adv-x="621" 
d="M644 650v-80h-120v-570h-96v122q-45 -68 -149 -68q-90 0 -151.5 56.5t-75.5 168.5q146 28 146 95q0 23 -23.5 35.5t-61.5 12.5q-44 0 -104.5 -14.5t-103.5 -36.5v85q42 19 102.5 30.5t104.5 11.5q95 0 138.5 -34t43.5 -92q0 -48 -36.5 -86t-92.5 -56q11 -43 44 -67
t83 -24q63 0 99.5 39.5t36.5 103.5v288h-452v80h668z" />
    <glyph glyph-name="uni094D0930.post" 
d="M-24 650h319v-80h-111v-570h-97v164l-186 -164h-129l315 270v300h-111v80z" />
    <glyph glyph-name="uni094D0930" horiz-adv-x="0" 
d="M-203 0h134l144 -175h-117l-94 124l-95 -124h-116z" />
    <glyph glyph-name="uni0930094D.1" horiz-adv-x="194" 
d="M9 382q51 -34 123 -34q75 0 153 45l23 -80q-80 -43 -174 -43q-73 0 -125 27v85zM218 570h-242v80h242v-80z" />
    <glyph glyph-name="uni0930094D.2" horiz-adv-x="0" 
d="M-56 807q-33 0 -53.5 -20t-20.5 -54q0 -52 46 -94h-101q-15 12 -29 40.5t-14 66.5q0 65 43.5 106t112.5 41q51 0 86 -17v-86q-36 17 -70 17z" />
    <glyph glyph-name="uni0930094D0902" horiz-adv-x="0" 
d="M-55 865q-38 0 -65 -28.5t-27 -70.5q0 -44 24 -80.5t43 -46.5h-104q-62 62 -62 146q0 72 49 120t125 48q49 0 86 -17v-89q-31 18 -69 18zM-93 756q0 22 14.5 37t36.5 15t37 -15t15 -37t-15 -36.5t-37 -14.5t-36.5 14.5t-14.5 36.5z" />
    <glyph glyph-name="uni093E0930094D" 
d="M179 650h116v-80h-111v-570h-97v570h-111v80h102q-32 38 -32 96q0 65 43.5 106t112.5 41q51 0 86 -17v-86q-36 17 -70 17q-33 0 -53.5 -20t-20.5 -54q0 -42 35 -83z" />
    <glyph glyph-name="uni093E0930094D0902" 
d="M176 650h119v-80h-111v-570h-97v570h-111v80h101q-52 60 -52 135q0 72 49 120t125 48q49 0 86 -17v-89q-31 18 -69 18t-65 -28.5t-27 -70.5q0 -66 52 -116zM178 756q0 22 14.5 37t36.5 15t37 -15t15 -37t-15 -36.5t-37 -14.5t-36.5 14.5t-14.5 36.5z" />
    <glyph glyph-name="uni0930094D.aMatraI" horiz-adv-x="0" 
d="M0 747l-89 23v54q0 68 39.5 110.5t108.5 42.5q52 0 88 -16v-89q-35 20 -74 20q-35 0 -54 -21.5t-19 -61.5v-62z" />
    <glyph glyph-name="uni0902.aMatraI" horiz-adv-x="0" 
d="M-56 871q0 26 17.5 44.5t43.5 18.5q27 0 45 -18.5t18 -44.5t-18 -43.5t-45 -17.5q-26 0 -43.5 17.5t-17.5 43.5z" />
    <glyph glyph-name="uni0930094D0902.aMatraI" horiz-adv-x="0" 
d="M73 892q-35 0 -54 -21.5t-19 -61.5v-62l-89 22v55q0 68 39.5 110.5t108.5 42.5q52 0 88 -16v-89q-35 20 -74 20zM52 783q0 19 13 32.5t33 13.5t33.5 -13.5t13.5 -32.5q0 -20 -13.5 -33t-33.5 -13t-33 13t-13 33z" />
    <glyph glyph-name="uni09400930094D" 
d="M333 895v-86q-36 17 -70 17q-36 0 -58.5 -27t-22.5 -75v-74h113v-80h-112v-570h-96v570h-111v80h109v89q0 46 -24.5 70t-65.5 24q-40 0 -63 -23.5t-23 -70.5v-32h-97v35q0 87 52 130.5t131 43.5q104 0 151 -72q37 68 116 68q42 0 71 -17z" />
    <glyph glyph-name="uni09400902" 
d="M182 731v-81h112v-80h-111v-570h-96v570h-111v80h109v78q0 45 -24.5 69t-65.5 24q-40 0 -63 -23t-23 -70v-21h-97v23q0 87 52 131t131 44q80 0 133.5 -44t53.5 -130zM297 862q27 0 45 -18.5t18 -44.5t-18 -43.5t-45 -17.5q-26 0 -43.5 17.5t-17.5 43.5t17.5 44.5
t43.5 18.5z" />
    <glyph glyph-name="uni09400930094D0902" 
d="M286 808q22 0 37.5 -15t15.5 -37t-15 -36.5t-38 -14.5q-22 0 -36.5 14.5t-14.5 36.5t14.5 37t36.5 15zM-188 707v35q0 86 48.5 130t124.5 44q105 0 148 -68q15 49 52.5 77t87.5 28q37 0 69 -17v-89q-32 18 -64 18q-45 0 -70.5 -31t-25.5 -83v-101h113v-80h-112v-570h-96
v570h-111v80h109v89q0 46 -24.5 70t-65.5 24q-40 0 -63 -23.5t-23 -70.5v-32h-97z" />
    <glyph glyph-name="uni0940.aLong" 
d="M182 650h112v-80h-111v-570h-96v570h-111v80h110v32q0 139 -231 139q-101 0 -150 -30t-49 -81v-9h-96v12q0 90 80.5 141t214.5 51q159 0 243 -57.5t84 -166.5v-31z" />
    <glyph glyph-name="uni09400930094D.aLong" 
d="M331 895v-86q-36 17 -70 17q-36 0 -58.5 -27t-22.5 -75v-74h114v-80h-111v-570h-96v570h-111v80h110v32q0 139 -231 139q-101 0 -150 -30t-49 -81v-9h-96v12q0 90 80.5 141t214.5 51q200 0 277 -91q32 98 128 98q42 0 71 -17z" />
    <glyph glyph-name="uni09400902.aLong" 
d="M182 681v-31h112v-80h-111v-570h-96v570h-111v80h110v32q0 139 -231 139q-101 0 -150 -30t-49 -81v-9h-96v12q0 90 80.5 141t214.5 51q159 0 243 -57.5t84 -166.5zM297 862q27 0 45 -18.5t18 -44.5t-18 -43.5t-45 -17.5q-26 0 -43.5 17.5t-17.5 43.5t17.5 44.5t43.5 18.5
z" />
    <glyph glyph-name="uni09400930094D0902.aLong" 
d="M289 808q22 0 37 -15t15 -37t-15 -36.5t-37 -14.5t-36.5 14.5t-14.5 36.5t14.5 37t36.5 15zM-440 701v12q0 90 80.5 141t214.5 51q203 0 273 -100q5 67 45 107.5t103 40.5q35 0 69 -17v-89q-34 18 -64 18q-45 0 -70.5 -31t-25.5 -83v-101h109v-80h-111v-570h-96v570h-111
v80h110v32q0 139 -231 139q-101 0 -150 -30t-49 -81v-9h-96z" />
    <glyph glyph-name="uni09470930094D" horiz-adv-x="0" 
d="M-201 808l17 -27q7 47 44 77t90 30q46 0 74 -15v-89q-36 20 -74 20q-33 -1 -52 -21.5t-19 -54.5q0 -28 12.5 -55t25.5 -38h-61l-5 8h-40l-82 124q-33 50 -87 50q-30 0 -54 -8v83q36 6 60 6q52 0 86 -21t65 -69z" />
    <glyph glyph-name="uni09470902" horiz-adv-x="0" 
d="M-410 809v83q36 6 61 6q53 0 90.5 -21.5t68.5 -68.5l108 -165h-104l-83 124q-32 50 -87 50q-30 0 -54 -8zM-111 802q0 26 18 44.5t44 18.5t44.5 -18.5t18.5 -44.5t-18.5 -44t-44.5 -18t-44 18t-18 44z" />
    <glyph glyph-name="uni09470930094D0902" horiz-adv-x="0" 
d="M-31 808q22 0 37.5 -15t15.5 -37t-15 -36.5t-38 -14.5q-22 0 -36.5 14.5t-14.5 36.5t14.5 37t36.5 15zM-412 809v83q36 6 60 6q86 0 141 -71q13 55 54 90t97 35q50 0 85 -16v-89q-31 18 -68 18q-39 0 -66 -28.5t-27 -70.5q0 -44 24 -80.5t43 -46.5h-88l-3 4h-29l-82 124
q-33 50 -87 50q-30 0 -54 -8z" />
    <glyph glyph-name="uni09480930094D" horiz-adv-x="0" 
d="M-193 821l16 -25q10 43 44 70.5t84 27.5q45 0 74 -18v-86q-36 17 -70 17q-33 0 -53 -20t-20 -54q0 -52 46 -94h-58l-4 4h-69q-54 38 -94 56.5t-84 18.5q-33 0 -57 -8v79q28 8 55 8q46 0 84 -19t99 -73l38 -34l-92 116q-48 59 -122 59q-38 0 -62 -8v79q25 7 68 7
q112 0 177 -103z" />
    <glyph glyph-name="uni09480902" horiz-adv-x="0" 
d="M-438 838v79q25 7 68 7q112 0 177 -103l112 -178h-122q-54 38 -94 56.5t-84 18.5q-33 0 -57 -8v79q28 8 55 8q46 0 84 -19t99 -73l38 -34l-92 116q-48 59 -122 59q-38 0 -62 -8zM-45 856q26 0 44.5 -18.5t18.5 -44.5t-18.5 -43.5t-44.5 -17.5t-44 17.5t-18 43.5t18 44.5
t44 18.5z" />
    <glyph glyph-name="uni09480930094D0902" horiz-adv-x="0" 
d="M-27 808q22 0 37 -15t15 -37t-15 -36.5t-37 -14.5t-36.5 14.5t-14.5 36.5t14.5 37t36.5 15zM-193 821v-1q8 57 47 95t98 38q46 0 77 -17v-89q-31 18 -68 18q-39 0 -66 -28.5t-27 -70.5q0 -37 19 -72l13 -21q19 -26 35 -34h-60l-4 4h-74q-54 38 -94 56.5t-84 18.5
q-33 0 -57 -8v79q28 8 55 8q46 0 84 -19t99 -73l38 -34l-92 116q-48 59 -122 59q-38 0 -62 -8v79q25 7 68 7q112 0 177 -103z" />
    <glyph glyph-name="uni094A0902" 
d="M-23 814h45q160 0 161 -164h112v-80h-111v-570h-97v570h-111v80h110q0 41 -15.5 62.5t-54.5 21.5h-48q-79 0 -125.5 35.5t-46.5 130.5h97q0 -49 19 -67.5t65 -18.5zM253 882q27 0 45 -18.5t18 -44.5t-18 -43.5t-45 -17.5q-26 0 -43.5 17.5t-17.5 43.5t17.5 44.5
t43.5 18.5z" />
    <glyph glyph-name="uni094B0930094D" 
d="M299 873v-89q-36 20 -74 20q-33 -1 -52 -21.5t-19 -54.5q0 -40 25 -78h116v-80h-111v-570h-97v570h-111v80h105l-77 117q-33 50 -87 50q-30 0 -54 -8v83q36 6 60 6q52 0 86 -21t65 -69l17 -27q7 47 44 77t90 30q46 0 74 -15z" />
    <glyph glyph-name="uni094B0902" 
d="M220 740q-26 0 -43.5 18t-17.5 44t17.5 44.5t43.5 18.5q27 0 45 -18.5t18 -44.5t-18 -44t-45 -18zM182 650h113v-80h-111v-570h-97v570h-111v80h102l-78 117q-32 50 -86 50q-30 0 -54 -8v83q33 6 60 6q53 0 90.5 -21.5t69.5 -68.5z" />
    <glyph glyph-name="uni094B0930094D0902" 
d="M185 650h110v-80h-111v-570h-97v570h-111v80h99l-77 117q-33 50 -87 50q-30 0 -54 -8v83q36 6 60 6q86 0 141 -71q13 55 54 90t97 35q50 0 85 -16v-89q-31 18 -68 18q-39 0 -66 -28.5t-27 -70.5q0 -66 52 -116zM187 756q0 22 14.5 37t36.5 15t37.5 -15t15.5 -37
t-15 -36.5t-38 -14.5q-22 0 -36.5 14.5t-14.5 36.5z" />
    <glyph glyph-name="uni094C0930094D" 
d="M297 876v-86q-36 17 -70 17q-33 0 -53 -20t-20 -54q0 -42 35 -83h106v-80h-111v-570h-97v570h-111v80h83q-96 68 -168 68q-33 0 -57 -8v79q28 8 55 8q46 0 84 -19t99 -73l38 -34l-92 116q-48 59 -122 59q-38 0 -62 -8v79q24 7 68 7q112 0 177 -103l16 -25q10 43 44 70.5
t84 27.5q45 0 74 -18z" />
    <glyph glyph-name="uni094C0902" 
d="M226 732q-26 0 -44 17.5t-18 43.5t18 44.5t44 18.5t44.5 -18.5t18.5 -44.5t-18.5 -43.5t-44.5 -17.5zM186 650h109v-80h-111v-570h-97v570h-111v80h82q-96 68 -168 68q-33 0 -57 -8v79q28 8 55 8q46 0 84 -19t99 -73l38 -34l-92 116q-48 59 -122 59q-38 0 -62 -8v79
q25 7 68 7q112 0 177 -103z" />
    <glyph glyph-name="uni094C0930094D0902" 
d="M297 936v-89q-31 18 -68 18q-39 0 -65.5 -28.5t-26.5 -70.5q0 -66 52 -116h106v-80h-111v-570h-97v570h-111v80h80q-96 68 -168 68q-30 0 -58 -8v79q28 8 56 8q46 0 83.5 -19t99.5 -73l37 -33l-92 115q-47 59 -121 59q-41 0 -62 -8v79q21 7 67 7q112 0 177 -103l1 -2
q7 57 46 95.5t98 38.5q46 0 77 -17zM191 756q0 22 14 37t36 15t37.5 -15t15.5 -37t-15 -36.5t-38 -14.5q-22 0 -36 14.5t-14 36.5z" />
    <glyph glyph-name="uni0915094D0937" horiz-adv-x="764" 
d="M273 578q-35 0 -58 -22.5t-23 -55.5q0 -76 88 -95q74 30 74 97q0 30 -23.5 53t-57.5 23zM581 650h209v-80h-111v-570h-98v321h-239q-44 0 -83 9q-53 -19 -85.5 -49.5t-32.5 -71.5q0 -40 27 -63.5t70 -23.5q48 0 83.5 30t46.5 82h91v-234h-95v105q-15 -27 -54.5 -45
t-84.5 -18q-83 0 -133 44.5t-50 117.5q0 111 126 164q-69 49 -69 134q0 63 48 109t123 46q79 0 127.5 -42t48.5 -106q0 -71 -54 -111h189v252z" />
    <glyph glyph-name="uni0915094D0937094D" horiz-adv-x="541" 
d="M273 578q-35 0 -58 -22.5t-23 -55.5q0 -76 88 -95q74 30 74 97q0 30 -23.5 53t-57.5 23zM657 321h-315q-44 0 -83 9q-53 -19 -85.5 -49.5t-32.5 -71.5q0 -40 27 -63.5t70 -23.5q48 0 83.5 30t46.5 82h91v-234h-95v105q-15 -27 -54.5 -45t-84.5 -18q-83 0 -133 44.5
t-50 117.5q0 111 126 164q-69 49 -69 134q0 63 48 109t123 46q79 0 127.5 -42t48.5 -106q0 -71 -54 -111h265v-77z" />
    <glyph glyph-name="uni0915094D0937094D092E" horiz-adv-x="1096" 
d="M914 354v216h-195v-216h195zM273 578q-35 0 -58 -22.5t-23 -55.5q0 -76 88 -95q74 30 74 97q0 30 -23.5 53t-57.5 23zM496 650h624v-80h-111v-570h-95v274h-195v-132h-83l-28 64q-28 63 -28 90q0 13 5 25h-243q-44 0 -83 9q-53 -19 -85.5 -49.5t-32.5 -71.5
q0 -40 27 -63.5t70 -23.5q48 0 83.5 30t46.5 82h91v-234h-95v105q-15 -27 -54.5 -45t-84.5 -18q-83 0 -133 44.5t-50 117.5q0 111 126 164q-69 49 -69 134q0 63 48 109t123 46q79 0 127.5 -42t48.5 -106q0 -71 -54 -111h232v172h-128v80z" />
    <glyph glyph-name="uni0915094D0937094D092E094D" horiz-adv-x="866" 
d="M273 578q-35 0 -58 -22.5t-23 -55.5q0 -76 88 -95q74 30 74 97q0 30 -23.5 53t-57.5 23zM1120 570h-401v-214h239v-85h-239v-130h-83l-28 63q-28 63 -28 90q0 15 6 27h-244q-44 0 -83 9q-53 -19 -85.5 -49.5t-32.5 -71.5q0 -40 27 -63.5t70 -23.5q48 0 83.5 30t46.5 82
h91v-234h-95v105q-15 -27 -54.5 -45t-84.5 -18q-83 0 -133 44.5t-50 117.5q0 111 126 164q-69 49 -69 134q0 63 48 109t123 46q79 0 127.5 -42t48.5 -106q0 -71 -54 -111h231v172h-128v80h625v-80z" />
    <glyph glyph-name="uni0915094D0937094D092E094D092F" horiz-adv-x="1465" 
d="M1283 342v228h-170q23 -37 23 -90q0 -118 -143 -166q12 -49 50.5 -80t93.5 -31q66 0 106 37t40 102zM711 356h171l-2 13q79 12 119.5 43t40.5 72q0 52 -30 86h-299v-214zM273 578q-35 0 -58 -22.5t-23 -55.5q0 -76 88 -95q74 30 74 97q0 30 -23.5 53t-57.5 23zM1490 650
v-80h-111v-570h-96v187q-47 -68 -158 -68q-72 0 -130.5 39.5t-89.5 112.5h-194v-130h-83l-28 63q-28 63 -28 90q0 15 6 27h-236q-44 0 -83 9q-53 -19 -85.5 -49.5t-32.5 -71.5q0 -40 27 -63.5t70 -23.5q48 0 83.5 30t46.5 82h91v-234h-95v105q-15 -27 -54.5 -45t-84.5 -18
q-83 0 -133 44.5t-50 117.5q0 111 126 164q-69 49 -69 134q0 63 48 109t123 46q79 0 127.5 -42t48.5 -106q0 -71 -54 -111h224v172h-128v80h1002z" />
    <glyph glyph-name="uni0915094D0937094D092F" horiz-adv-x="1110" 
d="M927 342v228h-170q23 -37 23 -90q0 -118 -143 -166q12 -49 50.5 -80t93.5 -31q66 0 106 37t40 102zM273 578q-35 0 -58 -22.5t-23 -55.5q0 -76 88 -95q74 30 74 97q0 30 -23.5 53t-57.5 23zM509 650h625v-80h-111v-570h-96v187q-47 -68 -158 -68q-84 0 -148 53t-88 149
h-191q-44 0 -83 9q-53 -19 -85.5 -49.5t-32.5 -71.5q0 -40 27 -63.5t70 -23.5q48 0 83.5 30t46.5 82h91v-234h-95v105q-15 -27 -54.5 -45t-84.5 -18q-83 0 -133 44.5t-50 117.5q0 111 126 164q-69 49 -69 134q0 63 48 109t123 46q79 0 127.5 -42t48.5 -106q0 -71 -54 -111
h229q63 32 63 86q0 52 -30 86h-145v80z" />
    <glyph glyph-name="uni0915094D0937094D0935" horiz-adv-x="1090" 
d="M273 578q-35 0 -58 -22.5t-23 -55.5q0 -76 88 -95q74 30 74 97q0 30 -23.5 53t-57.5 23zM1114 650v-80h-111v-570h-97v155q-54 -66 -154 -66q-83 0 -142 52.5t-59 143.5q0 18 3 36h-212q-44 0 -83 9q-53 -19 -85.5 -49.5t-32.5 -71.5q0 -40 27 -63.5t70 -23.5
q48 0 83.5 30t46.5 82h91v-234h-95v105q-15 -27 -54.5 -45t-84.5 -18q-83 0 -133 44.5t-50 117.5q0 111 126 164q-69 49 -69 134q0 63 48 109t123 46q79 0 127.5 -42t48.5 -106q0 -71 -54 -111h193q58 84 171 84q34 0 66 -7v-85q-27 9 -59 9q-49 0 -81.5 -31t-32.5 -82
q0 -54 33 -86t85 -32q61 0 100 41t39 98v263h-393v80h601z" />
    <glyph glyph-name="uni091C094D091E" horiz-adv-x="732" 
d="M-30 650h820v-80h-123v-570h-97v415h-317q-81 0 -81 -50q0 -27 25 -39.5t89 -13.5q87 -1 135 -36.5t48 -106.5q0 -70 -52 -113t-125 -43q-82 0 -138 45v-107h-95v231h88q16 -40 54 -67t82 -27q40 0 64.5 22t24.5 59t-30 52t-87 15q-89 0 -135.5 32.5t-46.5 94.5
q0 65 49.5 98.5t126.5 33.5h321v75h-600v80z" />
    <glyph glyph-name="uni091C094D091E094D" horiz-adv-x="522" 
d="M546 650v-80h-576v80h576zM704 397h-451q-81 0 -81 -48q0 -25 23.5 -34t90.5 -10q183 -3 183 -141q0 -69 -51.5 -110t-125.5 -41q-82 0 -138 45v-107h-95v231h88q16 -40 54 -67t82 -27q40 0 64.5 20t24.5 56q0 37 -29 50.5t-88 13.5q-182 0 -182 119q0 64 49.5 97
t126.5 33h455v-80z" />
    <glyph glyph-name="uni091C094D091E094D092F" horiz-adv-x="1124" 
d="M941 342v228h-170q23 -37 23 -90q0 -118 -143 -166q12 -49 50.5 -80t93.5 -31q66 0 106 37t40 102zM1148 650v-80h-111v-570h-96v187q-47 -68 -158 -68q-91 0 -158 61.5t-85 171.5q-21 25 -56.5 35t-97.5 10h-133q-81 0 -81 -48q0 -25 23.5 -34t90.5 -10q183 -3 183 -141
q0 -69 -51.5 -110t-125.5 -41q-82 0 -138 45v-107h-95v231h88q16 -40 54 -67t82 -27q40 0 64.5 20t24.5 56q0 37 -29 50.5t-88 13.5q-182 0 -182 119q0 64 49.5 97t126.5 33h153q158 0 226 -82q70 33 70 89q0 52 -30 86h-698v80h1178z" />
    <glyph glyph-name="uni0915094D0928" horiz-adv-x="795" 
d="M819 570h-367v-134q46 46 114 46q84 0 136 -51t52 -134q0 -89 -58.5 -142t-146.5 -53q-11 0 -23 2v80q5 -1 19 -1q50 0 81 30.5t31 82.5q0 47 -29 77.5t-76 30.5q-41 0 -70.5 -29.5t-29.5 -73.5v-301h-97v141q-9 -9 -20 -17l-147 -108q-16 -13 -16 -27q0 -27 57 -79
l-56 -43q-39 19 -71 52.5t-32 68.5q0 41 47 72l64 44q-59 16 -93.5 62.5t-34.5 112.5q0 88 59 140.5t147 52.5q16 0 23 -2v-80q-12 2 -19 2q-50 0 -81 -30.5t-31 -82.5q0 -46 28.5 -75t76.5 -29q41 0 70 29t29 74v292h-379v80h843v-80z" />
    <glyph glyph-name="uni091A094D0928" horiz-adv-x="647" 
d="M672 650v-80h-112v-570h-96v182q-21 -33 -58 -54l-168 -111q-19 -12 -19 -31q0 -33 47 -80l-59 -39q-36 21 -62.5 54t-26.5 68q0 45 49 74l68 38q-64 12 -102.5 54t-38.5 104q0 83 72 120h-135v81h347v-81q-100 0 -145 -31t-45 -80q0 -45 30.5 -69t80.5 -24
q77 0 121 47.5t44 103.5v244h-488v80h696z" />
    <glyph glyph-name="uni091B094D0928" horiz-adv-x="641" 
d="M424 489v81h-197q-56 -36 -56 -96q0 -38 26.5 -61.5t66.5 -23.5h31v-82h-37q-50 0 -76 -21t-26 -59q0 -42 40 -67t101 -25q87 0 141 46t54 127q0 48 -26.5 75.5t-75.5 27.5q-25 0 -45 -6v78q20 7 60 7q13 0 19 -1zM665 570h-151v-107q76 -47 76 -150q0 -114 -84 -187
v-381h-93v165h-129q-18 0 -25.5 -9.5t-7.5 -31.5q0 -31 12 -72h-79q-30 51 -30 107q0 37 23.5 59t69.5 22h166v89q-51 -19 -116 -19q-103 0 -170.5 45t-67.5 124q0 54 33 88t89 39q-44 5 -75 38.5t-31 84.5q0 59 41 96h-140v80h689v-80z" />
    <glyph glyph-name="uni091F094D0928" horiz-adv-x="513" 
d="M425 570v-191q-37 7 -75 7q-56 0 -100.5 -10.5t-78.5 -40t-34 -76.5q0 -117 191 -117q40 0 83 11.5t69 27.5v-88q-25 -13 -63 -22v-304h-93v138h-120q-18 0 -25.5 -9t-7.5 -31q0 -24 11 -68h-79q-30 55 -30 102q0 38 23.5 59.5t70.5 21.5h157v79h-2q-126 0 -205 51.5
t-79 150.5q0 91 77.5 145.5t193.5 56.5h19v107h-352v80h561v-80h-112z" />
    <glyph glyph-name="uni0920094D0928" horiz-adv-x="595" 
d="M451 273q0 55 -43.5 84.5t-113.5 29.5q-65 0 -107.5 -30.5t-42.5 -85.5t44 -86.5t112 -31.5t109.5 31.5t41.5 88.5zM620 570h-257v-111q83 -16 135 -65t52 -121q0 -59 -34.5 -104.5t-93.5 -70.5v-311h-93v138h-120q-18 0 -25.5 -9.5t-7.5 -31.5q0 -24 11 -68h-79
q-30 55 -30 103q0 37 23.5 59t70.5 22h157v76q-4 0 -14 -0.5t-15 -0.5q-110 0 -182 53.5t-72 143.5q0 84 64 134.5t157 57.5v106h-291v80h644v-80z" />
    <glyph glyph-name="uni0926094D0928" horiz-adv-x="568" 
d="M475 401h-185q-63 0 -100.5 -33.5t-37.5 -90.5q0 -60 33 -94t88 -34q54 0 87.5 30.5t37.5 81.5h93v-271h-95v131q-11 -14 -26 -23v-1l-165 -115q-22 -15 -22 -38q0 -31 42 -69l-59 -37q-38 22 -62 53.5t-24 63.5q0 46 58 81l66 39q-71 16 -112 70.5t-41 128.5
q0 91 61 148.5t171 57.5h95v90h-402v80h617v-80h-118v-169z" />
    <glyph glyph-name="uni0928094D0928" horiz-adv-x="531" 
d="M-24 650h580v-80h-111v-570h-98v204l-154 -31q-42 -9 -42 -52q0 -19 16 -65l-65 -15q-19 22 -36 56.5t-17 65.5q0 64 78 78l209 39l-124 85q-20 14 -37 14q-42 0 -69 -71l-55 35q6 56 33.5 99t69.5 43q37 0 75 -28l118 -87v200h-371v80z" />
    <glyph glyph-name="uni092B094D0928" horiz-adv-x="820" 
d="M381 391v179h-213v-186q0 -64 24 -92t73 -28t82.5 34t33.5 93zM845 570h-367v-122q46 46 119 46q83 0 132.5 -52t49.5 -132q0 -92 -58.5 -143.5t-145.5 -51.5q-17 0 -24 2v80q12 -2 19 -2q51 0 82 30t31 85q0 46 -28 76t-73 30q-44 0 -74 -29.5t-30 -75.5v-311h-97v240
q-10 -12 -21 -20l-145 -122q-21 -16 -21 -39q0 -27 39 -70l-58 -36q-37 21 -61 50.5t-24 63.5q0 43 56 82l59 41q-134 26 -134 196v184h-95v80h869v-80z" />
    <glyph glyph-name="uni092C094D0928" horiz-adv-x="626" 
d="M374 182l-199 187q-24 -33 -24 -82q0 -58 36.5 -94t93.5 -36q54 0 93 25zM650 650v-80h-111v-570h-97v152q-15 -16 -34 -31l-157 -118q-19 -15 -19 -38q0 -27 41 -68l-59 -36q-34 19 -59.5 50.5t-25.5 66.5q0 49 57 80l44 25q-75 13 -125 69t-50 137q0 92 62 151.5
t161 59.5q40 0 82 -10v-84q-39 12 -75 12q-38 0 -68 -14l198 -185q27 38 27 83v268h-466v80h674z" />
    <glyph glyph-name="uni0936094D0928" horiz-adv-x="719" 
d="M267 578q-39 0 -60 -22.5t-21 -56.5q0 -66 87 -114q75 45 75 113q0 31 -22.5 55.5t-58.5 24.5zM535 650h209v-80h-111v-570h-98v213l-190 -132q-20 -12 -20 -35q0 -29 49 -66l-59 -38q-94 48 -94 114q0 41 48 73l160 108q-89 23 -152 49l-198 -122l-75 58l186 111
q-101 71 -101 171q0 63 48.5 108t126.5 45q81 0 130.5 -45t49.5 -112q0 -90 -88 -153q69 -25 179 -49v352z" />
    <glyph glyph-name="uni0938094D0928" horiz-adv-x="781" 
d="M294 436v-11q59 27 127 27q107 0 177 -64v182h-304v-134zM805 650v-80h-111v-570h-96v250l-138 -53q-31 -13 -31 -43t31 -71l-67 -23q-28 24 -47 56.5t-19 61.5q0 59 71 83l168 55q-71 55 -145 55q-84 0 -170 -54q-35 -32 -94 -38h-11l176 -279h-113l-175 278v73h68
q54 0 75 22t21 67v130h-222v80h829z" />
    <glyph glyph-name="uni0939094D0928" horiz-adv-x="622" 
d="M504 413h-290q-50 0 -50 -40q0 -45 47 -73q54 18 126 18q118 0 182 -55.5t64 -136.5q0 -49 -10 -76h-90q11 31 11 69q0 26 -12 50l-114 -52q-21 -9 -21 -28q0 -28 40 -75l-63 -29q-26 20 -50 51.5t-24 61.5q0 44 55 69l118 55q-37 17 -91 17q-88 0 -134.5 -42t-46.5 -105
q0 -70 58 -118t155 -48q50 0 83 9v-77q-37 -8 -90 -8q-126 0 -214.5 67t-88.5 179q0 109 86 169q-75 50 -75 120q0 51 37 78.5t95 27.5h211v79h-432v80h670v-80h-142v-157z" />
    <glyph glyph-name="uni0915094D0930" horiz-adv-x="792" 
d="M816 570h-366v-133q45 45 113 45q84 0 136 -51t52 -134q0 -89 -58.5 -142t-146.5 -53q-11 0 -23 2v80q5 -1 19 -1q50 0 81 30.5t31 82.5q0 47 -28.5 77.5t-76.5 30.5q-41 0 -70 -29.5t-29 -73.5v-301h-98v138l-166 -183h-116l134 142q-69 10 -111 58.5t-42 121.5
q0 89 58.5 142t146.5 53q16 0 23 -2v-80q-12 2 -19 2q-49 0 -80.5 -31t-31.5 -83q0 -47 28.5 -77.5t76.5 -30.5q41 0 70 29.5t29 73.5v297h-376v80h840v-80z" />
    <glyph glyph-name="uni0916094D0930" horiz-adv-x="795" 
d="M611 462v108h-324v-115q0 -71 -24.5 -106t-85.5 -41l-12 -1q22 -78 86.5 -128t153.5 -50q91 0 151.5 46.5t60.5 126.5q0 54 -28 86t-78 32q-36 0 -58 -20.5t-22 -50.5q0 -28 17 -45t45 -17q20 0 37 8v-70q-27 -11 -53 -11q-58 0 -98 37t-40 97q0 63 47 105t116 42
q63 0 109 -33zM819 650v-80h-111v-570h-97v132q-16 -16 -35.5 -33t-52 -43t-54 -43t-75.5 -59l-81 -63h-144l199 157q-115 8 -194.5 75.5t-120.5 183.5v78h67q45 0 58 18t13 68v99h-215v80h843z" />
    <glyph glyph-name="uni0917094D0930" horiz-adv-x="587" 
d="M-24 650h635v-80h-111v-570h-96v175l-230 -195h-133l363 314v276h-156v-228q0 -66 -34.5 -100.5t-96.5 -34.5q-41 0 -78 13v82q28 -14 58 -14q55 0 55 61v221h-176v80z" />
    <glyph glyph-name="uni0918094D0930" horiz-adv-x="646" 
d="M464 333v237h-245q-48 -29 -48 -80q0 -74 115 -74h46v-83h-56q-53 0 -83.5 -22.5t-30.5 -62.5t33 -60.5t80 -20.5q80 0 134.5 47.5t54.5 118.5zM671 650v-80h-112v-570h-95v170l-243 -215h-130l154 136q-75 1 -127.5 41t-52.5 111q0 54 34.5 88t94.5 43q-51 3 -85.5 31.5
t-34.5 78.5q0 51 38 86h-136v80h695z" />
    <glyph glyph-name="uni0919094D0930" horiz-adv-x="594" 
d="M523 412q27 0 45 -18t18 -44t-18 -44t-45 -18q-26 0 -44 18t-18 44t18 44t44 18zM-24 650h642v-80h-207v-152h-184q-75 0 -75 -56q0 -31 29.5 -44t100.5 -15q186 -5 186 -143q-1 -52 -33 -91.5t-90 -57.5l119 -153h-117l-90 128l-90 -128h-117l115 150q-58 11 -108 37v93
q92 -58 198 -58q54 0 84.5 20.5t30.5 56.5q0 35 -28 49t-95 16q-191 7 -191 138q0 68 48 103t121 35h90v72h-339v80z" />
    <glyph glyph-name="uni091A094D0930" horiz-adv-x="644" 
d="M669 650v-80h-111v-570h-97v174l-249 -219h-131l165 146q-70 8 -112.5 50.5t-42.5 107.5q0 82 72 120h-135v81h347v-81q-100 0 -145 -31t-45 -80q0 -45 30.5 -69t80.5 -24q72 0 118.5 43.5t46.5 97.5v254h-485v80h693z" />
    <glyph glyph-name="uni091B094D0930" horiz-adv-x="644" 
d="M429 489v81h-197q-56 -36 -56 -96q0 -38 26.5 -61.5t66.5 -23.5h32v-82h-38q-50 0 -76 -21t-26 -59q0 -42 40 -67t101 -25q87 0 141 46t54 127q0 48 -26.5 75.5t-75.5 27.5q-25 0 -45 -6v78q20 7 60 7q13 0 19 -1zM668 570h-149v-107q76 -47 76 -150q0 -89 -51.5 -153.5
t-138.5 -90.5l121 -156h-117l-89 128l-91 -128h-117l115 149q-74 15 -118.5 57t-44.5 105q0 54 33 88t89 39q-44 5 -75 38.5t-31 84.5q0 59 41 96h-145v80h692v-80z" />
    <glyph glyph-name="uni091C094D0930" horiz-adv-x="657" 
d="M-24 650h706v-80h-111v-570h-97v100l-234 -200h-129l363 310v164h-182q66 -38 66 -118q0 -71 -55.5 -118t-144.5 -47q-69 0 -122 22v86q50 -26 108 -26q56 0 88 24t32 70q0 107 -165 107v81h375v115h-498v80z" />
    <glyph glyph-name="uni091D094D0930" horiz-adv-x="854" 
d="M274 323h396v247h-239v-145l-5 1v-1h-168q-84 0 -84 -53q0 -26 23.5 -36.5t76.5 -12.5zM879 650v-80h-112v-570h-97v93l-223 -217h-130l353 324v46h-221q21 -33 21 -78q0 -69 -48 -112.5t-125 -43.5q-80 0 -137 43v-104h-95v231h88v-3q18 -40 55.5 -65.5t80.5 -25.5
q39 0 62 20.5t23 56.5q0 70 -109 76q-89 3 -139 31t-50 96q0 67 48.5 102t127.5 35h83v65h-359v80h903z" />
    <glyph glyph-name="uni091E094D0930" horiz-adv-x="694" 
d="M718 650v-80h-111v-570h-97v106l-230 -206h-132l362 314v52h-115q-11 -74 -70 -122.5t-146 -48.5q-92 0 -153 36v90q69 -42 146 -42q62 0 95 32t33 86q0 50 -30.5 79.5t-83.5 29.5q-46 0 -82 -16v82q33 14 86 14q82 0 134.5 -36.5t67.5 -102.5h118v223h-534v80h742z" />
    <glyph glyph-name="uni091F094D0930" horiz-adv-x="504" 
d="M420 570v-191q-32 6 -77 6q-87 0 -138.5 -38t-51.5 -108q0 -67 46.5 -103t123.5 -36t143 40v-88q-34 -19 -88 -29l114 -147h-116l-89 129l-92 -129h-116l123 160q-70 24 -109.5 77t-39.5 129q0 96 69 158t182 63h20v107h-348v80h553v-80h-109z" />
    <glyph glyph-name="uni0920094D0930" horiz-adv-x="567" 
d="M420 262q0 58 -36.5 88.5t-99.5 31.5q-57 0 -97 -30t-40 -89q0 -56 38 -90t100 -34q61 0 98 34t37 89zM592 570h-239v-117q75 -17 120.5 -66t45.5 -125q0 -68 -38 -117t-105 -71l120 -155h-117l-90 128l-90 -128h-117l117 152q-69 20 -109.5 70.5t-40.5 121.5
q0 88 60.5 138.5t147.5 57.5v111h-281v80h616v-80z" />
    <glyph glyph-name="uni0921094D0930" horiz-adv-x="527" 
d="M411 570v-151v-1h-184q-75 0 -75 -56q0 -60 99 -62q3 0 32 1.5t31 1.5q77 -3 115.5 -42t38.5 -101q-1 -52 -33 -91.5t-90 -56.5l119 -154h-117l-90 128l-90 -128h-117l115 150q-58 11 -108 37v93q92 -58 198 -58q54 0 84.5 20.5t30.5 56.5q0 63 -82 65q-2 0 -31 -2
t-31 -2q-71 1 -120.5 36.5t-49.5 105.5q0 68 48 103t121 35h90v72h-339v80h575v-80h-140z" />
    <glyph glyph-name="uni0922094D0930" horiz-adv-x="560" 
d="M441 570v-185q-57 10 -102 10q-87 0 -140 -40t-53 -110q0 -65 43.5 -107t113.5 -42q49 0 81 21t32 59q0 24 -18.5 40t-49.5 16q-49 0 -82 -24v75q41 22 96 22q69 0 108 -35t39 -93q0 -52 -33 -92t-92 -57l118 -152h-117l-90 128l-91 -128h-116l119 155q-73 23 -116.5 80
t-43.5 135q0 102 72.5 164t190.5 64q11 0 35 -2v98h-369v80h608v-80h-143z" />
    <glyph glyph-name="uni0923094D0930" horiz-adv-x="756" 
d="M328 359v211h-164v-211q0 -96 81 -96q83 0 83 96zM781 650v-80h-112v-570h-96v175l-230 -198h-141l371 316v277h-149v-206q0 -89 -47 -136t-134 -47q-175 0 -175 183v206h-92v80h805z" />
    <glyph glyph-name="uni0924094D0930" horiz-adv-x="586" 
d="M610 650v-80h-111v-570h-97v215l-275 -171l-51 73l294 181q-57 90 -160 91q-78 0 -153 -43v89q62 38 156 38q118 0 189 -85v182h-426v80h634z" />
    <glyph glyph-name="uni0925094D0930" horiz-adv-x="652" 
d="M378 507q0 -152 -237 -213q28 -104 151 -104q71 0 124 46t53 135v279h208v-80h-112v-570h-96v185l-252 -230h-133l173 157q-92 9 -155.5 69.5t-73.5 167.5q135 31 196 66.5t61 92.5q0 30 -15 49.5t-45 19.5t-45 -18t-15 -46q0 -17 12 -56h-93q-12 32 -12 65
q0 56 41.5 95.5t111.5 39.5t111.5 -42t41.5 -108z" />
    <glyph glyph-name="uni0926094D0930" horiz-adv-x="563" 
d="M-24 650h612v-80h-118v-169h-185q-63 0 -100.5 -33.5t-37.5 -90.5q0 -60 33 -94t88 -34q54 0 87.5 30.5t37.5 81.5h93v-271h-95v131l-184 -177h-125l135 130q-79 12 -125 67t-46 133q0 91 61 148.5t171 57.5h95v90h-397v80z" />
    <glyph glyph-name="uni0927094D0930" horiz-adv-x="642" 
d="M667 650v-80h-112v-570h-95v160l-237 -205h-134l151 129q-81 7 -129.5 47t-48.5 104q0 54 38 88.5t98 39.5q-129 10 -129 111q0 66 57 96h-150v80h319v-80h-1q-61 0 -94.5 -25t-33.5 -66q0 -76 123 -76h47v-81h-56q-53 0 -86.5 -22t-33.5 -60q0 -37 31.5 -57.5
t88.5 -20.5q81 0 130.5 47.5t49.5 114.5v326h207z" />
    <glyph glyph-name="uni0928094D0930" horiz-adv-x="520" 
d="M-24 650h568v-80h-111v-570h-97v252l-177 -192h-119l296 314h-188q-18 0 -25 -9t-7 -31q0 -36 11 -72h-79q-30 53 -30 111q0 38 23.5 59.5t70.5 21.5h224v116h-360v80z" />
    <glyph glyph-name="uni092A094D0930" horiz-adv-x="565" 
d="M381 396v174h-213v-182q0 -63 24 -91.5t73 -28.5t82.5 34t33.5 94zM590 650v-80h-112v-570h-97v246l-225 -246h-124l178 196q-139 21 -139 195v179h-95v80h614z" />
    <glyph glyph-name="uni092B094D0930" horiz-adv-x="818" 
d="M381 396v174h-213v-182q0 -63 24 -91.5t73 -28.5t82.5 34t33.5 94zM842 570h-364v-126q46 46 119 46q83 0 132.5 -52t49.5 -132q0 -92 -58.5 -144t-145.5 -52q-10 0 -24 2v80q6 -1 19 -1q51 0 82 29.5t31 84.5q0 46 -28 76.5t-73 30.5q-44 0 -74 -29.5t-30 -75.5v-307
h-97v246l-225 -246h-124l178 196q-139 21 -139 195v179h-95v80h866v-80z" />
    <glyph glyph-name="uni092C094D0930" horiz-adv-x="626" 
d="M375 183l-200 186q-24 -33 -24 -82q0 -58 36.5 -94t93.5 -36q54 0 94 26zM651 650v-80h-112v-570h-96v153l-235 -218h-133l163 151q-77 9 -130 64.5t-53 138.5q0 92 62 151.5t161 59.5q40 0 82 -10v-84q-39 12 -75 12q-38 0 -68 -14l198 -184q27 37 27 82l1 -2v270h-467
v80h675z" />
    <glyph glyph-name="uni092D094D0930" horiz-adv-x="577" 
d="M394 650h207v-80h-111v-570h-95v146l-211 -186h-134l345 303v60h-184v-134h-85l-28 62q-27 61 -27 89q0 22 12 37t32 20v117q0 60 -46 60q-30 0 -56 -14v78q32 17 75 17q123 0 123 -127v-126h184z" />
    <glyph glyph-name="uni092E094D0930" horiz-adv-x="587" 
d="M210 402h195v168h-195v-168zM-24 650h635v-80h-111v-570h-95v153l-214 -193h-137l351 313v44h-195v-130h-83l-28 63q-28 63 -28 90q0 47 44 57v173h-139v80z" />
    <glyph glyph-name="uni092F094D0930" horiz-adv-x="634" 
d="M451 188l-252 -233h-138l191 177q-80 12 -135.5 73.5t-68.5 165.5q80 13 120.5 42.5t40.5 70.5q0 52 -30 86h-203v80h683v-80h-111v-570h-97v188zM306 208q66 0 105.5 36.5t39.5 102.5v223h-170q24 -36 24 -90q0 -118 -144 -163q14 -50 53 -79.5t92 -29.5z" />
    <glyph glyph-name="uni0935094D0930" horiz-adv-x="592" 
d="M616 650v-80h-111v-570h-97v154l-222 -219h-133l165 159q-71 10 -118 60.5t-47 130.5q0 85 57 141t148 56q34 0 66 -7v-85q-27 9 -59 9q-49 0 -81.5 -31t-32.5 -82q0 -54 33 -86t85 -32q61 0 100 41t39 98v263h-432v80h640z" />
    <glyph glyph-name="uni0936094D0930" horiz-adv-x="716" 
d="M273 578q-36 0 -57.5 -22.5t-21.5 -55.5q0 -63 82 -112q74 46 74 109q0 32 -21.5 56.5t-55.5 24.5zM532 650h209v-80h-112v-570h-97v206l-253 -213l-76 55l227 186q-83 25 -144 52l-180 -129l-77 58l172 118q-103 72 -103 169q0 63 47 109t124 46q81 0 129 -45t48 -113
q0 -86 -88 -150q68 -27 174 -54v355z" />
    <glyph glyph-name="uni0938094D0930" horiz-adv-x="764" 
d="M302 436v-11q56 27 116 27q99 0 163 -64v182h-279v-134zM788 650v-80h-111v-570h-96v274l-147 -156h-121l218 215q-54 38 -112 38q-75 0 -160 -54q-35 -32 -94 -38h-10l175 -279h-112l-176 278v73h68q54 0 75 22t21 67v130h-230v80h812z" />
    <glyph glyph-name="uni0939094D0930" horiz-adv-x="619" 
d="M513 413h-292q-50 0 -50 -40q0 -44 40 -67q51 18 118 18q111 0 178 -55.5t67 -153.5q0 -42 -11 -75h-89q11 27 11 70q0 48 -21 79l-122 -153h-111l168 199q-30 10 -75 10q-78 0 -122 -41.5t-44 -106.5q0 -71 55.5 -118.5t158.5 -47.5q56 0 93 12v-77q-45 -10 -100 -10
q-130 0 -216.5 66.5t-86.5 179.5q0 108 81 168q-70 43 -70 115q0 51 36.5 78.5t94.5 27.5h214v79h-442v80h667v-80h-130v-157z" />
    <glyph glyph-name="uni0915093C094D0930" horiz-adv-x="792" 
d="M293 -34q25 0 42.5 -17.5t17.5 -42.5t-17.5 -42t-42.5 -17t-42 16.5t-17 42.5q0 25 17 42.5t42 17.5zM816 570h-366v-133q45 45 113 45q84 0 136 -51t52 -134q0 -89 -58.5 -142t-146.5 -53q-11 0 -23 2v80q5 -1 19 -1q50 0 81 30.5t31 82.5q0 47 -28.5 77.5t-76.5 30.5
q-41 0 -70 -29.5t-29 -73.5v-301h-98v138l-166 -183h-116l134 142q-69 10 -111 58.5t-42 121.5q0 89 58.5 142t146.5 53q16 0 23 -2v-80q-12 2 -19 2q-49 0 -80.5 -31t-31.5 -83q0 -47 28.5 -77.5t76.5 -30.5q41 0 70 29.5t29 73.5v297h-376v80h840v-80z" />
    <glyph glyph-name="uni0916093C094D0930" horiz-adv-x="795" 
d="M530 -35q25 0 42.5 -17.5t17.5 -42.5t-17.5 -42t-42.5 -17q-26 0 -42.5 17t-16.5 42t17 42.5t42 17.5zM611 462v108h-324v-115q0 -71 -24.5 -106t-85.5 -41l-12 -1q22 -78 86.5 -128t153.5 -50q91 0 151.5 46.5t60.5 126.5q0 54 -28 86t-78 32q-36 0 -58 -20.5t-22 -50.5
q0 -28 17 -45t45 -17q20 0 37 8v-70q-27 -11 -53 -11q-58 0 -98 37t-40 97q0 63 47 105t116 42q63 0 109 -33zM819 650v-80h-111v-570h-97v132q-16 -16 -35.5 -33t-52 -43t-54 -43t-75.5 -59l-81 -63h-144l199 157q-115 8 -194.5 75.5t-120.5 183.5v78h67q45 0 58 18t13 68
v99h-215v80h843z" />
    <glyph glyph-name="uni0917093C094D0930" horiz-adv-x="587" 
d="M311 -25q25 0 42.5 -17.5t17.5 -42.5t-17.5 -42t-42.5 -17t-42 17t-17 42t17 42.5t42 17.5zM-24 650h635v-80h-111v-570h-96v175l-230 -195h-133l363 314v276h-156v-228q0 -66 -34.5 -100.5t-96.5 -34.5q-41 0 -78 13v82q28 -14 58 -14q55 0 55 61v221h-176v80z" />
    <glyph glyph-name="uni0918093C094D0930" horiz-adv-x="646" 
d="M380 -24q25 0 42.5 -17.5t17.5 -42.5t-17.5 -42t-42.5 -17q-26 0 -42.5 16.5t-16.5 42.5q0 25 17 42.5t42 17.5zM464 333v237h-245q-48 -29 -48 -80q0 -74 115 -74h46v-83h-56q-53 0 -83.5 -22.5t-30.5 -62.5t33 -60.5t80 -20.5q80 0 134.5 47.5t54.5 118.5zM671 650v-80
h-112v-570h-95v170l-243 -215h-130l154 136q-75 1 -127.5 41t-52.5 111q0 54 34.5 88t94.5 43q-51 3 -85.5 31.5t-34.5 78.5q0 51 38 86h-136v80h695z" />
    <glyph glyph-name="uni0919093C094D0930" horiz-adv-x="640" 
d="M19 21q25 0 42.5 -17.5t17.5 -42.5t-17.5 -42t-42.5 -17t-42 17t-17 42t17 42.5t42 17.5zM569 412q27 0 45 -18t18 -44t-18 -44t-45 -18q-26 0 -43.5 18t-17.5 44t17.5 44t43.5 18zM-24 650h688v-80h-207v-152h-184q-75 0 -75 -56q0 -31 29.5 -44t100.5 -15
q186 -5 186 -143q-1 -52 -33 -91t-89 -57l118 -154h-117l-90 128l-90 -128h-117l115 150q-56 11 -107 37v93q90 -58 197 -58q54 0 84.5 20.5t30.5 56.5q0 35 -27.5 49t-94.5 16q-191 7 -191 138q0 68 48 103t120 35h90v72h-385v80z" />
    <glyph glyph-name="uni091A093C094D0930" horiz-adv-x="644" 
d="M362 -35q25 0 42.5 -17.5t17.5 -42.5t-17.5 -42t-42.5 -17q-26 0 -42.5 17t-16.5 42t17 42.5t42 17.5zM669 650v-80h-111v-570h-97v174l-249 -219h-131l165 146q-70 8 -112.5 50.5t-42.5 107.5q0 82 72 120h-135v81h347v-81q-100 0 -145 -31t-45 -80q0 -45 30.5 -69
t80.5 -24q72 0 118.5 43.5t46.5 97.5v254h-485v80h693z" />
    <glyph glyph-name="uni091B093C094D0930" horiz-adv-x="668" 
d="M54 75q25 0 42.5 -17.5t17.5 -42.5t-17.5 -42t-42.5 -17q-26 0 -42.5 17t-16.5 42t17 42.5t42 17.5zM453 489v81h-197q-55 -36 -55 -96q0 -38 26 -61.5t66 -23.5h32v-82h-38q-49 0 -75.5 -21.5t-26.5 -58.5q0 -42 40 -67t101 -25q87 0 141 46t54 127q0 48 -26.5 75.5
t-75.5 27.5q-25 0 -45 -6v78q20 7 60 7q13 0 19 -1zM692 570h-149v-107q76 -47 76 -150q0 -89 -51.5 -153.5t-138.5 -90.5l121 -156h-117l-89 128l-91 -128h-117l116 149q-75 15 -119.5 57t-44.5 105q0 54 33 88t89 39q-44 5 -75 38.5t-31 84.5q0 59 41 96h-165v80h712v-80z
" />
    <glyph glyph-name="uni091C093C094D0930" horiz-adv-x="657" 
d="M409 -63q25 0 42.5 -17.5t17.5 -42.5t-17.5 -42t-42.5 -17t-42 17t-17 42t17 42.5t42 17.5zM-24 650h706v-80h-111v-570h-97v100l-234 -200h-129l363 310v164h-182q66 -38 66 -118q0 -71 -55.5 -118t-144.5 -47q-69 0 -122 22v86q50 -26 108 -26q56 0 88 24t32 70
q0 107 -165 107v81h375v115h-498v80z" />
    <glyph glyph-name="uni091D093C094D0930" horiz-adv-x="854" 
d="M624 -58q25 0 42.5 -17.5t17.5 -42.5t-17.5 -42t-42.5 -17q-26 0 -42.5 16.5t-16.5 42.5q0 25 17 42.5t42 17.5zM274 323h396v247h-239v-145l-5 1v-1h-168q-84 0 -84 -53q0 -26 23.5 -36.5t76.5 -12.5zM879 650v-80h-112v-570h-97v93l-223 -217h-130l353 324v46h-221
q21 -33 21 -78q0 -69 -48 -112.5t-125 -43.5q-80 0 -137 43v-104h-95v231h88v-3q18 -40 55.5 -65.5t80.5 -25.5q39 0 62 20.5t23 56.5q0 70 -109 76q-89 3 -139 31t-50 96q0 67 48.5 102t127.5 35h83v65h-359v80h903z" />
    <glyph glyph-name="uni091E093C094D0930" horiz-adv-x="694" 
d="M451 -58q25 0 42.5 -17.5t17.5 -42.5t-17.5 -42t-42.5 -17t-42 16.5t-17 42.5q0 25 17 42.5t42 17.5zM718 650v-80h-111v-570h-97v106l-230 -206h-132l362 314v52h-115q-11 -74 -70 -122.5t-146 -48.5q-92 0 -153 36v90q69 -42 146 -42q62 0 95 32t33 86q0 50 -30.5 79.5
t-83.5 29.5q-46 0 -82 -16v82q33 14 86 14q82 0 134.5 -36.5t67.5 -102.5h118v223h-534v80h742z" />
    <glyph glyph-name="uni091F093C094D0930" horiz-adv-x="528" 
d="M33 70q25 0 42.5 -17.5t17.5 -42.5t-17.5 -42t-42.5 -17t-42 16.5t-17 42.5q0 25 17 42.5t42 17.5zM445 570v-191q-33 6 -78 6q-87 0 -138.5 -38t-51.5 -108q0 -67 47 -103t124 -36t143 40v-88q-37 -19 -88 -29l114 -147h-117l-89 129l-91 -129h-117l123 160
q-70 24 -109 77t-39 129q0 96 68.5 158t181.5 63h20v107h-368v80h573v-80h-108z" />
    <glyph glyph-name="uni0920093C094D0930" horiz-adv-x="596" 
d="M35 101q25 0 42.5 -17.5t17.5 -42.5t-17.5 -42t-42.5 -17t-42 17t-17 42t17 42.5t42 17.5zM449 262q0 58 -37 88.5t-99 31.5q-57 0 -97 -29.5t-40 -89.5q0 -56 37.5 -90t99.5 -34q61 0 98.5 33.5t37.5 89.5zM620 570h-238v-117q74 -17 119.5 -66t45.5 -125
q0 -68 -38 -117.5t-104 -70.5l120 -155h-117l-90 128l-91 -128h-116l117 152q-69 20 -109.5 70.5t-40.5 121.5q0 89 60.5 139t147.5 57v111h-311v80h645v-80z" />
    <glyph glyph-name="uni0921093C094D0930" horiz-adv-x="571" 
d="M15 25q25 0 42.5 -17.5t17.5 -42.5t-17.5 -42t-42.5 -17t-42 17t-17 42t17 42.5t42 17.5zM455 570v-151v-1h-184q-75 0 -75 -56q0 -60 99 -62q3 0 32 1.5t31 1.5q77 -3 115.5 -42t38.5 -101q-1 -52 -33 -91.5t-90 -56.5l119 -154h-117l-90 128l-90 -128h-117l115 150
q-58 11 -108 37v93q92 -58 198 -58q54 0 84.5 20.5t30.5 56.5q0 63 -82 65q-2 0 -31 -2t-31 -2q-71 1 -120.5 36.5t-49.5 105.5q0 68 48 103t121 35h90v72h-383v80h619v-80h-140z" />
    <glyph glyph-name="uni0922093C094D0930" horiz-adv-x="591" 
d="M38 66q25 0 42.5 -17.5t17.5 -42.5t-17.5 -42t-42.5 -17q-26 0 -42.5 16.5t-16.5 42.5q0 25 17 42.5t42 17.5zM472 570v-185q-58 10 -102 10q-87 0 -140.5 -40.5t-53.5 -109.5q0 -64 44 -106.5t113 -42.5q49 0 81.5 21t32.5 59q0 24 -19 40t-50 16q-48 0 -81 -24v75
q41 22 96 22q69 0 108 -35t39 -93q0 -52 -33 -92t-92 -57l117 -152h-116l-90 128l-91 -128h-117l120 155q-73 23 -116.5 80t-43.5 135q0 102 72 164t190 64q12 0 36 -2v98h-401v80h640v-80h-143z" />
    <glyph glyph-name="uni0923093C094D0930" horiz-adv-x="756" 
d="M467 -47q25 0 42.5 -17.5t17.5 -42.5t-17.5 -42t-42.5 -17t-42 17t-17 42t17 42.5t42 17.5zM328 359v211h-164v-211q0 -96 81 -96q83 0 83 96zM781 650v-80h-112v-570h-96v175l-230 -198h-141l371 316v277h-149v-206q0 -89 -47 -136t-134 -47q-175 0 -175 183v206h-92v80
h805z" />
    <glyph glyph-name="uni0924093C094D0930" horiz-adv-x="586" 
d="M259 -2q25 0 42.5 -17.5t17.5 -42.5t-17.5 -42t-42.5 -17t-42 16.5t-17 42.5q0 25 17 42.5t42 17.5zM610 650v-80h-111v-570h-97v215l-275 -171l-51 73l294 181q-57 90 -160 91q-78 0 -153 -43v89q62 38 156 38q118 0 189 -85v182h-426v80h634z" />
    <glyph glyph-name="uni0925093C094D0930" horiz-adv-x="652" 
d="M378 507q0 -152 -237 -213q28 -104 151 -104q71 0 124 46t53 135v279h208v-80h-112v-570h-96v185l-252 -230h-133l173 157q-92 9 -155.5 69.5t-73.5 167.5q135 31 196 66.5t61 92.5q0 30 -15 49.5t-45 19.5t-45 -18t-15 -46q0 -17 12 -56h-93q-12 32 -12 65
q0 56 41.5 95.5t111.5 39.5t111.5 -42t41.5 -108zM307 -93q0 25 17 42.5t42 17.5t42.5 -17.5t17.5 -42.5t-17.5 -42t-42.5 -17q-26 0 -42.5 17t-16.5 42z" />
    <glyph glyph-name="uni0926093C094D0930" horiz-adv-x="563" 
d="M-24 650h612v-80h-118v-169h-185q-63 0 -100.5 -33.5t-37.5 -90.5q0 -60 33 -94t88 -34q54 0 87.5 30.5t37.5 81.5h93v-271h-95v131l-184 -177h-125l135 130q-79 12 -125 67t-46 133q0 91 61 148.5t171 57.5h95v90h-397v80zM263 -118q0 25 17 42.5t42 17.5t42.5 -17.5
t17.5 -42.5t-17.5 -42t-42.5 -17q-26 0 -42.5 16.5t-16.5 42.5z" />
    <glyph glyph-name="uni0927093C094D0930" horiz-adv-x="642" 
d="M362 -47q25 0 42.5 -17.5t17.5 -42.5t-17.5 -42t-42.5 -17q-26 0 -42.5 17t-16.5 42t17 42.5t42 17.5zM667 650v-80h-112v-570h-95v160l-237 -205h-134l151 129q-81 7 -129.5 47t-48.5 104q0 54 38 88.5t98 39.5q-129 10 -129 111q0 66 57 96h-150v80h319v-80h-1
q-61 0 -94.5 -25t-33.5 -66q0 -76 123 -76h47v-81h-56q-53 0 -86.5 -22t-33.5 -60q0 -37 31.5 -57.5t88.5 -20.5q81 0 130.5 47.5t49.5 114.5v326h207z" />
    <glyph glyph-name="uni0928093C094D0930" horiz-adv-x="520" 
d="M215 -5q25 0 42.5 -17.5t17.5 -42.5t-17.5 -42t-42.5 -17t-42 17t-17 42t17 42.5t42 17.5zM-24 650h568v-80h-111v-570h-97v252l-177 -192h-119l296 314h-188q-18 0 -25 -9t-7 -31q0 -36 11 -72h-79q-30 53 -30 111q0 38 23.5 59.5t70.5 21.5h224v116h-360v80z" />
    <glyph glyph-name="uni092A093C094D0930" horiz-adv-x="565" 
d="M267 -24q25 0 42.5 -17.5t17.5 -42.5t-17.5 -42t-42.5 -17t-42 16.5t-17 42.5q0 25 17 42.5t42 17.5zM381 396v174h-213v-182q0 -63 24 -91.5t73 -28.5t82.5 34t33.5 94zM590 650v-80h-112v-570h-97v246l-225 -246h-124l178 196q-139 21 -139 195v179h-95v80h614z" />
    <glyph glyph-name="uni092B093C094D0930" horiz-adv-x="818" 
d="M267 -24q25 0 42.5 -17.5t17.5 -42.5t-17.5 -42t-42.5 -17t-42 16.5t-17 42.5q0 25 17 42.5t42 17.5zM381 396v174h-213v-182q0 -63 24 -91.5t73 -28.5t82.5 34t33.5 94zM842 570h-364v-126q46 46 119 46q83 0 132.5 -52t49.5 -132q0 -92 -58.5 -144t-145.5 -52
q-10 0 -24 2v80q6 -1 19 -1q51 0 82 29.5t31 84.5q0 46 -28 76.5t-73 30.5q-44 0 -74 -29.5t-30 -75.5v-307h-97v246l-225 -246h-124l178 196q-139 21 -139 195v179h-95v80h866v-80z" />
    <glyph glyph-name="uni092C093C094D0930" horiz-adv-x="626" 
d="M353 -41q25 0 42.5 -17.5t17.5 -42.5t-17.5 -42t-42.5 -17t-42 17t-17 42t17 42.5t42 17.5zM375 183l-200 186q-24 -33 -24 -82q0 -58 36.5 -94t93.5 -36q54 0 94 26zM651 650v-80h-112v-570h-96v153l-235 -218h-133l163 151q-77 9 -130 64.5t-53 138.5q0 92 62 151.5
t161 59.5q40 0 82 -10v-84q-39 12 -75 12q-38 0 -68 -14l198 -184q27 37 27 82l1 -2v270h-467v80h675z" />
    <glyph glyph-name="uni092D093C094D0930" horiz-adv-x="577" 
d="M309 -30q25 0 42.5 -17.5t17.5 -42.5t-17.5 -42t-42.5 -17t-42 16.5t-17 42.5q0 25 17 42.5t42 17.5zM394 650h207v-80h-111v-570h-95v146l-211 -186h-134l345 303v60h-184v-134h-85l-28 62q-27 61 -27 89q0 22 12 37t32 20v117q0 60 -46 60q-30 0 -56 -14v78
q32 17 75 17q123 0 123 -127v-126h184z" />
    <glyph glyph-name="uni092E093C094D0930" horiz-adv-x="587" 
d="M318 -30q25 0 42.5 -17.5t17.5 -42.5t-17.5 -42t-42.5 -17q-26 0 -42.5 16.5t-16.5 42.5q0 25 17 42.5t42 17.5zM210 402h195v168h-195v-168zM-24 650h635v-80h-111v-570h-95v153l-214 -193h-137l351 313v44h-195v-130h-83l-28 63q-28 63 -28 90q0 47 44 57v173h-139v80z
" />
    <glyph glyph-name="uni092F093C094D0930" horiz-adv-x="634" 
d="M451 188l-252 -233h-138l191 177q-80 12 -135.5 73.5t-68.5 165.5q80 13 120.5 42.5t40.5 70.5q0 52 -30 86h-203v80h683v-80h-111v-570h-97v188zM306 208q66 0 105.5 36.5t39.5 102.5v223h-170q24 -36 24 -90q0 -118 -144 -163q14 -50 53 -79.5t92 -29.5zM278 -95
q0 25 17 42.5t42 17.5t42.5 -17.5t17.5 -42.5t-17.5 -42t-42.5 -17t-42 17t-17 42z" />
    <glyph glyph-name="uni0935093C094D0930" horiz-adv-x="592" 
d="M331 -41q25 0 42.5 -17.5t17.5 -42.5t-17.5 -42t-42.5 -17t-42 17t-17 42t17 42.5t42 17.5zM616 650v-80h-111v-570h-97v154l-222 -219h-133l165 159q-71 10 -118 60.5t-47 130.5q0 85 57 141t148 56q34 0 66 -7v-85q-27 9 -59 9q-49 0 -81.5 -31t-32.5 -82q0 -54 33 -86
t85 -32q61 0 100 41t39 98v263h-432v80h640z" />
    <glyph glyph-name="uni0915094D0930094D" horiz-adv-x="548" 
d="M450 570v-133q45 45 113 45q85 0 137 -52l-68 -69q-28 43 -83 43q-41 0 -70 -29.5t-29 -73.5v-301h-98v138l-166 -183h-116l134 142q-69 10 -111 58.5t-42 121.5q0 89 58.5 142t146.5 53q16 0 23 -2v-80q-12 2 -19 2q-49 0 -80.5 -31t-31.5 -83q0 -47 28.5 -77.5
t76.5 -30.5q41 0 70 29.5t29 73.5v297h-376v80h596v-80h-122z" />
    <glyph glyph-name="uni0916094D0930094D" horiz-adv-x="578" 
d="M530 295v-70q-27 -11 -53 -11q-58 0 -98 37t-40 97q0 63 47 105t116 42q93 0 145.5 -51.5t52.5 -133.5q0 -114 -116 -207l-266 -212h-145l199 157q-119 7 -198.5 74.5t-120.5 184.5v78h67q45 0 58 18t13 68v99h-215v80h626v-80h-315v-115q0 -71 -24.5 -106t-85.5 -41
l-12 -1q22 -78 86.5 -128t153.5 -50q90 0 148.5 46.5t58.5 126.5q0 55 -25.5 86.5t-75.5 31.5q-36 0 -58 -20.5t-22 -50.5q0 -28 17 -45t45 -17q20 0 37 8z" />
    <glyph glyph-name="uni0917094D0930094D" horiz-adv-x="377" 
d="M39 220v82q28 -14 58 -14q55 0 55 61v221h-176v80h426v-80h-154v-228q0 -66 -34.5 -100.5t-96.5 -34.5q-41 0 -78 13zM457 341l45 -81l-328 -280h-133z" />
    <glyph glyph-name="uni0918094D0930094D" horiz-adv-x="401" 
d="M492 326l51 -95l-320 -276h-132l154 136q-75 1 -127.5 41t-52.5 111q0 54 34.5 88t94.5 43q-51 3 -85.5 31.5t-34.5 78.5q0 51 38 86h-136v80h449v-80h-206q-48 -29 -48 -80q0 -74 115 -74h46v-83h-56q-53 0 -83.5 -22.5t-30.5 -62.5t33 -60.5t80 -20.5q73 0 130.5 48.5
t86.5 110.5z" />
    <glyph glyph-name="uni091A094D0930094D" horiz-adv-x="417" 
d="M442 650v-80h-466v80h466zM493 313l47 -75l-322 -283h-132l164 146q-69 5 -114 48t-45 110q0 82 72 120h-135v81h347v-81q-100 0 -145 -31t-45 -80q0 -45 30.5 -69t80.5 -24q58 0 110 39t87 99z" />
    <glyph glyph-name="uni091C094D0930094D" horiz-adv-x="477" 
d="M501 650v-80h-525v80h525zM111 -100l426 365l53 -64l-350 -301h-129zM99 455h538v-81h-345q66 -38 66 -118q0 -71 -55.5 -118t-144.5 -47q-69 0 -122 22v86q50 -26 108 -26q56 0 88 24t32 70q0 107 -165 107v81z" />
    <glyph glyph-name="uni091D094D0930094D" horiz-adv-x="613" 
d="M718 246h-269q21 -33 21 -78q0 -69 -48 -112.5t-125 -43.5q-80 0 -137 43v-104h-95v231h88v-3q18 -40 55.5 -65.5t80.5 -25.5q39 0 62 20.5t23 56.5q0 70 -109 76q-89 3 -139 31t-50 96q0 67 48.5 102t127.5 35h83v65h-359v80h662v-80h-207v-145l-5 1v-1h-168
q-84 0 -84 -53q0 -26 23.5 -36.5t76.5 -12.5h444v-77zM712 239l54 -69l-319 -294h-130z" />
    <glyph glyph-name="uni091E094D0930094D" horiz-adv-x="509" 
d="M534 650v-80h-558v80h558zM575 266h-180q-11 -74 -70 -122.5t-146 -48.5q-92 0 -153 36v90q69 -42 146 -42q62 0 95 32t33 86q0 50 -30.5 79.5t-83.5 29.5q-46 0 -82 -16v82q33 14 86 14q82 0 134.5 -36.5t67.5 -102.5h183v-81zM574 265l47 -65l-341 -300h-132z" />
    <glyph glyph-name="uni091F094D0930094D" horiz-adv-x="504" 
d="M240 -191h99l141 -168h-117zM420 570v-191q-32 6 -77 6q-87 0 -138.5 -38t-51.5 -108q0 -67 46.5 -103t123.5 -36t143 40v-88q-34 -19 -88 -29l114 -147h-116l-89 129l-92 -129h-116l123 160q-70 24 -109.5 77t-39.5 129q0 96 69 158t182 63h20v107h-348v80h553v-80h-109
z" />
    <glyph glyph-name="uni0920094D0930094D" horiz-adv-x="567" 
d="M245 -148h99l141 -168h-117zM420 262q0 58 -36.5 88.5t-99.5 31.5q-57 0 -97 -30t-40 -89q0 -56 38 -90t100 -34q61 0 98 34t37 89zM592 570h-239v-117q75 -17 120.5 -66t45.5 -125q0 -68 -38 -117t-105 -71l120 -155h-117l-90 128l-90 -128h-117l117 152
q-69 20 -109.5 70.5t-40.5 121.5q0 88 60.5 138.5t147.5 57.5v111h-281v80h616v-80z" />
    <glyph glyph-name="uni0921094D0930094D" horiz-adv-x="527" 
d="M208 -209h99l141 -168h-117zM411 570v-151v-1h-184q-75 0 -75 -56q0 -60 99 -62q3 0 32 1.5t31 1.5q77 -3 115.5 -42t38.5 -101q-1 -52 -33 -91.5t-90 -56.5l119 -154h-117l-90 128l-90 -128h-117l115 150q-58 11 -108 37v93q92 -58 198 -58q54 0 84.5 20.5t30.5 56.5
q0 63 -82 65q-2 0 -31 -2t-31 -2q-71 1 -120.5 36.5t-49.5 105.5q0 68 48 103t121 35h90v72h-339v80h575v-80h-140z" />
    <glyph glyph-name="uni0922094D0930094D" horiz-adv-x="560" 
d="M249 -191h99l141 -168h-117zM441 570v-185q-57 10 -102 10q-87 0 -140 -40t-53 -110q0 -65 43.5 -107t113.5 -42q49 0 81 21t32 59q0 24 -18.5 40t-49.5 16q-49 0 -82 -24v75q41 22 96 22q69 0 108 -35t39 -93q0 -52 -33 -92t-92 -57l118 -152h-117l-90 128l-91 -128
h-116l119 155q-73 23 -116.5 80t-43.5 135q0 102 72.5 164t190.5 64q11 0 35 -2v98h-369v80h608v-80h-143z" />
    <glyph glyph-name="uni0923094D0930094D" horiz-adv-x="497" 
d="M154 570v-211q0 -96 81 -96q83 0 83 96v211h-164zM414 570v-206q0 -89 -47 -136t-134 -47q-175 0 -175 183v206h-92v80h556v-80h-108zM597 322l37 -87l-301 -258h-141z" />
    <glyph glyph-name="uni0924094D0930094D" horiz-adv-x="375" 
d="M400 650v-80h-424v80h424zM461 259l3 -6l-337 -209l-51 73l291 178q-55 93 -157 94q-78 0 -153 -43v89q62 38 156 38t161 -56.5t87 -157.5z" />
    <glyph glyph-name="uni0925094D0930094D" horiz-adv-x="444" 
d="M378 507q0 -152 -237 -213q28 -104 151 -104q132 0 218 141l62 -67l-349 -309h-130l174 157q-94 5 -161.5 66.5t-77.5 170.5q135 31 196 66.5t61 92.5q0 30 -15 49.5t-45 19.5t-45 -18t-15 -46q0 -17 12 -56h-93q-12 32 -12 65q0 56 41.5 95.5t111.5 39.5t111.5 -42
t41.5 -108z" />
    <glyph glyph-name="uni0926094D0930094D" horiz-adv-x="563" 
d="M514 -291h-117l-123 168h99zM-24 650h612v-80h-118v-169h-185q-63 0 -100.5 -33.5t-37.5 -90.5q0 -60 33 -94t88 -34q54 0 87.5 30.5t37.5 81.5h93v-271h-95v131l-184 -177h-125l135 130q-79 12 -125 67t-46 133q0 91 61 148.5t171 57.5h95v90h-397v80z" />
    <glyph glyph-name="uni0927094D0930094D" horiz-adv-x="445" 
d="M511 314l63 -61l-340 -298h-136l155 129q-85 2 -138 43t-53 108q0 54 38 88.5t98 39.5q-129 10 -129 111q0 66 57 96h-150v80h319v-80h-1q-61 0 -94.5 -25t-33.5 -66q0 -76 123 -76h47v-81h-56q-53 0 -86.5 -22t-33.5 -60q0 -37 31.5 -57.5t88.5 -20.5q131 0 231 152z
" />
    <glyph glyph-name="uni0928094D0930094D" horiz-adv-x="298" 
d="M322 650v-80h-346v80h346zM447 385l15 -21l-303 -304h-119l317 314h-209q-18 0 -25 -9t-7 -31q0 -36 11 -72h-79q-30 53 -30 111q0 38 23.5 59.5t70.5 21.5h335v-69z" />
    <glyph glyph-name="uni092A094D0930094D" horiz-adv-x="331" 
d="M410 382l47 -57l-301 -325h-124l180 196q-141 17 -141 195v179h-95v80h380v-80h-188v-182q0 -63 24 -91.5t73 -28.5q82 0 145 114z" />
    <glyph glyph-name="uni092B094D0930094D" horiz-adv-x="607" 
d="M168 570v-182q0 -63 24 -91.5t73 -28.5t82.5 34t33.5 94v174h-213zM478 570v-126q46 46 121 46q119 0 173 -105l-74 -53q-33 80 -111 80q-47 0 -78 -29t-31 -76v-307h-97v246l-225 -246h-124l178 196q-139 21 -139 195v179h-95v80h655v-80h-153z" />
    <glyph glyph-name="uni092C094D0930094D" horiz-adv-x="375" 
d="M399 650v-80h-423v80h423zM374 183l-199 186q-24 -33 -24 -82q0 -58 36.5 -94t93.5 -36q53 0 93 26zM455 281l53 -70l-300 -276h-133l165 151q-78 8 -131.5 64t-53.5 139q0 92 62 151.5t161 59.5q40 0 82 -10v-84q-39 12 -75 12q-38 0 -68 -14l198 -184q22 27 40 61z" />
    <glyph glyph-name="uni092D094D0930094D" horiz-adv-x="378" 
d="M211 402h309v-79l-323 -363h-130l341 363h-197v-134h-85l-28 62q-27 61 -27 89q0 22 12 37t32 20v117q0 60 -46 60q-30 0 -56 -14v78q32 17 75 17q123 0 123 -127v-126z" />
    <glyph glyph-name="uni092E094D0930094D" horiz-adv-x="396" 
d="M210 402h317v-85l-314 -357h-132l328 357h-199v-130h-83l-28 63q-28 63 -28 90q0 47 44 57v173h-139v80h445v-80h-211v-168z" />
    <glyph glyph-name="uni092F094D0930094D" horiz-adv-x="385" 
d="M409 570h-128q24 -36 24 -90q0 -118 -144 -163q14 -50 53 -79.5t92 -29.5q93 0 166 108l46 -65l-319 -296h-138l191 177q-80 12 -135.5 73.5t-68.5 165.5q80 13 120.5 42.5t40.5 70.5q0 52 -30 86h-203v80h433v-80z" />
    <glyph glyph-name="uni0935094D0930094D" horiz-adv-x="364" 
d="M324 475v-85q-27 9 -59 9q-49 0 -81.5 -31t-32.5 -82q0 -54 33 -86t85 -32q53 0 95 31.5t83 93.5l52 -65l-305 -293h-132l166 159q-75 6 -125 57.5t-50 133.5q0 85 57 141t148 56q34 0 66 -7zM389 570h-413v80h413v-80z" />
    <glyph glyph-name="uni0938094D0930094D" horiz-adv-x="537" 
d="M302 570v-134v-11q56 27 116 27q135 0 217 -125l-48 -54l-3 4l-150 -159h-121l217 214q-51 39 -111 39q-75 0 -160 -54q-35 -32 -94 -38h-10l175 -279h-112l-176 278v73h68q54 0 75 22t21 67v130h-230v80h812v-80h-486z" />
    <glyph glyph-name="uni0915093C094D0930094D" horiz-adv-x="548" 
d="M296 -69q25 0 42.5 -17.5t17.5 -42.5t-17.5 -42t-42.5 -17q-26 0 -42.5 17t-16.5 42t17 42.5t42 17.5zM450 570v-133q45 45 113 45q85 0 137 -52l-68 -69q-28 43 -83 43q-41 0 -70 -29.5t-29 -73.5v-301h-98v138l-166 -183h-116l134 142q-69 10 -111 58.5t-42 121.5
q0 89 58.5 142t146.5 53q16 0 23 -2v-80q-12 2 -19 2q-49 0 -80.5 -31t-31.5 -83q0 -47 28.5 -77.5t76.5 -30.5q41 0 70 29.5t29 73.5v297h-376v80h596v-80h-122z" />
    <glyph glyph-name="uni0916093C094D0930094D" horiz-adv-x="578" 
d="M547 -60q25 0 42.5 -17.5t17.5 -42.5t-17.5 -42t-42.5 -17t-42 16.5t-17 42.5q0 25 17 42.5t42 17.5zM530 295v-70q-27 -11 -53 -11q-58 0 -98 37t-40 97q0 63 47 105t116 42q93 0 145.5 -51.5t52.5 -133.5q0 -114 -116 -207l-266 -212h-145l199 157q-119 7 -198.5 74.5
t-120.5 184.5v78h67q45 0 58 18t13 68v99h-215v80h626v-80h-315v-115q0 -71 -24.5 -106t-85.5 -41l-12 -1q22 -78 86.5 -128t153.5 -50q90 0 148.5 46.5t58.5 126.5q0 55 -25.5 86.5t-75.5 31.5q-36 0 -58 -20.5t-22 -50.5q0 -28 17 -45t45 -17q20 0 37 8z" />
    <glyph glyph-name="uni0917093C094D0930094D" horiz-adv-x="377" 
d="M39 220v82q28 -14 58 -14q55 0 55 61v221h-176v80h426v-80h-154v-228q0 -66 -34.5 -100.5t-96.5 -34.5q-41 0 -78 13zM457 341l45 -81l-328 -280h-133zM399 33q25 0 42.5 -17.5t17.5 -42.5t-17.5 -42t-42.5 -17t-42 17t-17 42t17 42.5t42 17.5z" />
    <glyph glyph-name="uni0918093C094D0930094D" horiz-adv-x="401" 
d="M492 326l51 -95l-320 -276h-132l154 136q-75 1 -127.5 41t-52.5 111q0 54 34.5 88t94.5 43q-51 3 -85.5 31.5t-34.5 78.5q0 51 38 86h-136v80h449v-80h-206q-48 -29 -48 -80q0 -74 115 -74h46v-83h-56q-53 0 -83.5 -22.5t-30.5 -62.5t33 -60.5t80 -20.5q73 0 130.5 48.5
t86.5 110.5zM446 7q25 0 42.5 -17.5t17.5 -42.5t-17.5 -42t-42.5 -17q-26 0 -42.5 17t-16.5 42t17 42.5t42 17.5z" />
    <glyph glyph-name="uni0919093C094D0930094D" horiz-adv-x="598" 
d="M173 -195q25 0 42.5 -17.5t17.5 -42.5t-17.5 -42t-42.5 -17t-42 17t-17 42t17 42.5t42 17.5zM265 -201h99l141 -168h-117zM520 410q25 0 42.5 -17.5t17.5 -42.5t-17 -42t-43 -17t-42.5 16.5t-16.5 42.5q0 25 17 42.5t42 17.5zM-24 650h646v-80h-213v-151v-1h-184
q-75 0 -75 -56q0 -31 29.5 -44t100.5 -15q185 -5 185 -143q0 -54 -34 -94t-95 -56l143 -174h-117l-94 124l-95 -124h-116l137 167q-78 10 -139 42v93q92 -58 198 -58q54 0 84.5 20.5t30.5 56.5q0 35 -28 49t-95 16q-191 7 -191 138q0 68 48 103t121 35h90v72h-337v80z" />
    <glyph glyph-name="uni091A093C094D0930094D" horiz-adv-x="417" 
d="M442 650v-80h-466v80h466zM493 313l47 -75l-322 -283h-132l164 146q-69 5 -114 48t-45 110q0 82 72 120h-135v81h347v-81q-100 0 -145 -31t-45 -80q0 -45 30.5 -69t80.5 -24q58 0 110 39t87 99zM446 17q25 0 42.5 -17.5t17.5 -42.5t-17.5 -42t-42.5 -17q-26 0 -42.5 17
t-16.5 42t17 42.5t42 17.5z" />
    </font>
</defs>
</svg>
