<?xml version="1.0" standalone="no"?>
<!DOCTYPE svg PUBLIC "-//W3C//DTD SVG 1.1//EN" "http://www.w3.org/Graphics/SVG/1.1/DTD/svg11.dtd" >
<svg xmlns="http://www.w3.org/2000/svg" xmlns:xlink="http://www.w3.org/1999/xlink" version="1.1">
<metadata>
Created by FontForge 20170731 at Thu Jun 19 23:57:22 2014
 By ,,,
Copyright (c) 2014 Indian Type Foundry (info@indiantypefoundry.com)
</metadata>
<defs>
<font id="Hind-Semibold" horiz-adv-x="275" >
  <font-face 
    font-family="Hind Semibold"
    font-weight="600"
    font-stretch="normal"
    units-per-em="1000"
    panose-1="2 0 0 0 0 0 0 0 0 0"
    ascent="800"
    descent="-200"
    x-height="507"
    cap-height="674"
    bbox="-534 -516 2231 1030"
    underline-thickness="50"
    underline-position="-150"
    unicode-range="U+000D-FB04"
  />
<missing-glyph horiz-adv-x="516" 
d="M3 0v701h507v-701h-507zM57 650v-599h400v599h-400zM257 302h-4l-100 -209h-60l134 260l-134 255h60l105 -206h4l100 206h60l-135 -261l135 -254h-60z" />
    <glyph glyph-name=".notdef" horiz-adv-x="516" 
d="M3 0v701h507v-701h-507zM57 650v-599h400v599h-400zM257 302h-4l-100 -209h-60l134 260l-134 255h60l105 -206h4l100 206h60l-135 -261l135 -254h-60z" />
    <glyph glyph-name=".null" horiz-adv-x="0" 
 />
    <glyph glyph-name="nonmarkingreturn" horiz-adv-x="333" 
 />
    <glyph glyph-name="NULL" horiz-adv-x="0" 
 />
    <glyph glyph-name="NULL" horiz-adv-x="0" 
 />
    <glyph glyph-name="CR" unicode="&#xd;" horiz-adv-x="0" 
 />
    <glyph glyph-name="space" unicode=" " horiz-adv-x="248" 
 />
    <glyph glyph-name="exclam" unicode="!" 
d="M80 224v450h115v-450h-115zM57 71q0 33 22.5 56t56.5 23q33 0 56 -23t23 -56q0 -34 -23 -56.5t-56 -22.5q-34 0 -56.5 22.5t-22.5 56.5z" />
    <glyph glyph-name="quotedbl" unicode="&#x22;" horiz-adv-x="352" 
d="M42 429v252h102v-252h-102zM208 429v252h103v-252h-103z" />
    <glyph glyph-name="numbersign" unicode="#" horiz-adv-x="739" 
d="M428 253l34 162h-153l-34 -162h153zM691 415h-125l-35 -162h119v-93h-138l-34 -160h-104l34 160h-153l-34 -160h-103l34 160h-104v93h123l35 162h-116v96h136l34 162h104l-34 -162h153l34 162h103l-34 -162h105v-96z" />
    <glyph glyph-name="dollar" unicode="$" horiz-adv-x="510" 
d="M437 646v-122q-75 45 -160 45q-47 0 -73.5 -21t-26.5 -54q0 -18 8.5 -32.5t28.5 -28t35.5 -21.5t46.5 -22q38 -17 63 -31t53.5 -37.5t42.5 -57t14 -75.5q0 -78 -49.5 -129.5t-133.5 -63.5v-111h-101v110q-83 8 -139 40v129q86 -62 188 -62q46 0 74 22.5t28 60.5
q0 11 -3.5 20.5t-8 17t-14.5 15.5t-17 13t-22.5 13t-23.5 11.5t-28 12t-28 12.5q-69 32 -109.5 74t-40.5 115q0 78 52 128t141 60v110h102v-112q58 -8 101 -29z" />
    <glyph glyph-name="percent" unicode="%" horiz-adv-x="925" 
d="M219 -1l371 692h111l-372 -692h-110zM523 170q0 74 52 126t126 52q73 0 125.5 -52t52.5 -126t-52.5 -126t-125.5 -52q-74 0 -126 52t-52 126zM47 525q0 74 52 126t126 52t126 -52t52 -126q0 -73 -52.5 -125.5t-125.5 -52.5q-74 0 -126 52t-52 126zM145 525
q0 -32 23.5 -55.5t56.5 -23.5q32 0 55.5 23.5t23.5 55.5q0 33 -23.5 56.5t-55.5 23.5q-33 0 -56.5 -23.5t-23.5 -56.5zM622 170q0 -32 23 -55.5t56 -23.5q32 0 55.5 23.5t23.5 55.5q0 33 -23.5 56.5t-55.5 23.5q-33 0 -56 -23.5t-23 -56.5z" />
    <glyph glyph-name="ampersand" unicode="&#x26;" horiz-adv-x="727" 
d="M286 274l-9 9q-53 -18 -75.5 -41.5t-22.5 -56.5q0 -41 42 -66t107 -25q64 0 116 28zM331 588q-35 0 -58 -20t-23 -57q0 -47 76 -125q94 48 94 115q0 40 -23.5 63.5t-65.5 23.5zM724 0h-152q-13 12 -50 47q-82 -55 -194 -55q-125 0 -198.5 54t-73.5 135q0 61 36 103
t114 68q-79 85 -79 158q0 84 57.5 131.5t147.5 47.5q96 0 153 -49.5t57 -132.5q0 -59 -34.5 -104.5t-114.5 -83.5l125 -122q21 38 23 91h110q-3 -94 -53 -167q93 -91 126 -121z" />
    <glyph glyph-name="quotesingle" unicode="'" horiz-adv-x="186" 
d="M42 429v252h102v-252h-102z" />
    <glyph glyph-name="parenleft" unicode="(" horiz-adv-x="328" 
d="M344 -196h-130q-162 203 -162 456q0 256 156 447h127q-75 -95 -115.5 -217t-40.5 -234q0 -109 42 -230.5t123 -221.5z" />
    <glyph glyph-name="parenright" unicode=")" horiz-adv-x="328" 
d="M120 707q156 -193 156 -447q0 -252 -163 -456h-129q80 100 122 221.5t42 230.5q0 112 -40 234t-115 217h127z" />
    <glyph glyph-name="asterisk" unicode="*" horiz-adv-x="470" 
d="M305 451h-4q20 -13 35 -34l57 -79l-79 -57l-57 78q-15 23 -21 42q-6 -19 -22 -41l-58 -79l-79 57l58 79q16 20 34 33h-3q-22 0 -45 8l-93 30l31 93l92 -30q24 -8 43 -22q-8 21 -8 48v97h98v-97q0 -27 -8 -48q16 13 43 22l93 30l30 -93l-92 -30q-24 -7 -45 -7z" />
    <glyph glyph-name="plus" unicode="+" horiz-adv-x="576" 
d="M526 393v-108h-184v-183h-111v183h-181v108h181v185h111v-185h184z" />
    <glyph glyph-name="comma" unicode="," horiz-adv-x="268" 
d="M-7 -126l98 247h139l-133 -247h-104z" />
    <glyph glyph-name="hyphen" unicode="-" horiz-adv-x="353" 
d="M50 214v101h254v-101h-254z" />
    <glyph glyph-name="period" unicode="." horiz-adv-x="223" 
d="M34 70q0 32 23 54.5t55 22.5t54.5 -22.5t22.5 -54.5t-22.5 -55t-54.5 -23t-55 23t-23 55z" />
    <glyph glyph-name="slash" unicode="/" horiz-adv-x="441" 
d="M-5 -103l361 810h125l-362 -810h-124z" />
    <glyph glyph-name="zero" unicode="0" horiz-adv-x="546" 
d="M38 330q0 155 61 245.5t173 90.5q113 0 174.5 -90.5t61.5 -245.5q0 -154 -60.5 -246t-175.5 -92q-112 0 -173 92t-61 246zM161 330q0 -110 29.5 -169.5t81.5 -59.5q54 0 83.5 59t29.5 170t-30.5 169t-82.5 58q-51 0 -81 -58.5t-30 -168.5z" />
    <glyph glyph-name="one" unicode="1" horiz-adv-x="358" 
d="M13 427v125l173 102h106v-654h-119v524z" />
    <glyph glyph-name="two" unicode="2" horiz-adv-x="498" 
d="M199 103h261v-103h-427v96q117 83 202 177.5t85 170.5q0 50 -29 78t-84 28q-83 0 -159 -62v117q33 25 82 41t98 16q96 0 156.5 -52.5t60.5 -147.5q0 -178 -246 -359z" />
    <glyph glyph-name="three" unicode="3" horiz-adv-x="476" 
d="M57 512v113q68 37 143 37q103 0 161.5 -50t58.5 -128q0 -113 -103 -154q56 -14 87 -52.5t31 -97.5q0 -82 -60.5 -133.5t-169.5 -51.5q-101 0 -172 33v117q78 -42 164 -42q54 0 84.5 25.5t30.5 65.5q0 87 -141 87h-38v101h38q53 0 89 23t36 65q0 84 -103 84
q-68 0 -136 -42z" />
    <glyph glyph-name="four" unicode="4" horiz-adv-x="554" 
d="M154 250h172v329zM532 250v-103h-86v-147h-120v147h-291v103l218 405h193v-405h86z" />
    <glyph glyph-name="five" unicode="5" horiz-adv-x="504" 
d="M192 552v-144q29 6 56 6q105 0 162.5 -54t57.5 -147q0 -100 -66 -160t-185 -60q-103 0 -173 35v115q66 -40 153 -40q147 0 147 113q0 44 -31.5 69t-89.5 25q-76 0 -149 -34v379h352v-103h-234z" />
    <glyph glyph-name="six" unicode="6" horiz-adv-x="533" 
d="M282 92q45 0 71.5 32.5t26.5 86.5q0 49 -26 78t-71 29q-65 0 -118 -55q6 -88 37.5 -129.5t79.5 -41.5zM454 653v-113q-39 20 -90 20q-80 0 -130 -54t-64 -139q60 55 142 55q87 0 139.5 -57t52.5 -153q0 -99 -60 -163.5t-163 -64.5q-117 0 -178 85.5t-61 228.5
q0 166 87 268.5t227 102.5q54 0 98 -16z" />
    <glyph glyph-name="seven" unicode="7" horiz-adv-x="469" 
d="M17 655h435v-104l-260 -551h-128l261 551h-308v104z" />
    <glyph glyph-name="eight" unicode="8" horiz-adv-x="541" 
d="M269 89q54 0 82 27t28 65q0 40 -28.5 67t-81.5 27q-53 -1 -80 -29.5t-27 -68.5q0 -37 27 -62.5t80 -25.5zM268 566q-46 0 -70.5 -26.5t-24.5 -64.5q0 -45 28 -69t70 -24q41 0 68.5 24t27.5 69q0 40 -23 65.5t-76 25.5zM398 331q102 -40 102 -153q0 -84 -65 -135.5
t-167 -51.5t-164.5 49t-62.5 133q0 110 103 155q-93 47 -93 145q0 90 62.5 140.5t154.5 50.5q96 0 158 -48t62 -143t-90 -142z" />
    <glyph glyph-name="nine" unicode="9" horiz-adv-x="522" 
d="M253 330q69 0 111 53q-4 84 -33.5 127.5t-79.5 43.5q-46 0 -73.5 -30t-27.5 -82q0 -51 28 -81.5t75 -30.5zM66 11v115q52 -24 106 -24q164 0 188 178q-45 -50 -137 -50q-85 0 -141 57.5t-56 152.5q0 96 59 159.5t160 63.5q115 0 177 -83.5t62 -221.5q0 -179 -79.5 -272.5
t-221.5 -93.5q-65 0 -117 19z" />
    <glyph glyph-name="colon" unicode=":" horiz-adv-x="267" 
d="M57 404q0 32 22 54.5t54 22.5t54.5 -22.5t22.5 -54.5t-22.5 -54.5t-54.5 -22.5t-54 22.5t-22 54.5zM57 76q0 32 22 54.5t54 22.5t54.5 -22.5t22.5 -54.5t-22.5 -54t-54.5 -22t-54 22t-22 54z" />
    <glyph glyph-name="semicolon" unicode=";" horiz-adv-x="268" 
d="M72 404q0 32 22 54.5t54 22.5t55 -22.5t23 -54.5t-23 -54.5t-55 -22.5t-54 22.5t-22 54.5zM-7 -126l98 247h139l-133 -247h-104z" />
    <glyph glyph-name="less" unicode="&#x3c;" horiz-adv-x="565" 
d="M50 283v115l469 182v-121q-320 -105 -348 -118q13 -6 100 -36t167 -57l81 -27v-120z" />
    <glyph glyph-name="equal" unicode="=" horiz-adv-x="576" 
d="M50 399v100h476v-100h-476zM50 181v101h476v-101h-476z" />
    <glyph glyph-name="greater" unicode="&#x3e;" horiz-adv-x="565" 
d="M516 398v-115l-469 -182v120q318 106 347 120q-12 6 -99 35.5t-167 55.5l-81 27v121z" />
    <glyph glyph-name="question" unicode="?" horiz-adv-x="456" 
d="M58 534v115q63 33 155 33q94 0 152 -49t58 -134q0 -45 -18 -81t-45.5 -57t-56.5 -32t-56 -13l-2 -92h-111l-3 157q169 0 169 106q0 42 -26 67t-77 25q-70 0 -139 -45zM109 71q0 33 22.5 56t56.5 23q33 0 56 -23t23 -56q0 -34 -23 -56.5t-56 -22.5q-34 0 -56.5 22.5
t-22.5 56.5z" />
    <glyph glyph-name="at" unicode="@" horiz-adv-x="950" 
d="M458 97q36 0 67.5 26.5t43.5 75.5q0 7 0.5 21.5t1.5 21.5q-7 50 -32 76t-64 26q-46 0 -77.5 -38.5t-31.5 -102.5q0 -48 26.5 -77t65.5 -29zM640 -54l-4 -105q-81 -39 -188 -39q-186 0 -293 114t-107 283q0 125 62.5 229t168 162.5t230.5 58.5q166 0 283.5 -103.5
t117.5 -273.5q0 -117 -57.5 -190.5t-135.5 -73.5q-108 0 -139 101q-46 -101 -151 -101q-78 0 -123.5 57.5t-45.5 143.5q0 99 59 161.5t142 62.5q80 0 119 -69q2 22 4 66h98l-7 -65q-9 -135 -9 -157q0 -106 57 -106q38 0 63 44t25 118q0 140 -85.5 213t-219.5 73
q-149 0 -248.5 -104.5t-99.5 -249.5q0 -138 84.5 -216.5t207.5 -78.5q102 0 192 45z" />
    <glyph glyph-name="A" unicode="A" horiz-adv-x="674" 
d="M241 256h190l-9 30q-34 108 -55.5 181.5t-26.5 92.5l-4 20q-9 -50 -86 -295zM511 0l-48 153h-255l-48 -153h-132l228 674h163l228 -674h-136z" />
    <glyph glyph-name="B" unicode="B" horiz-adv-x="592" 
d="M196 103h108q121 0 121 92q0 94 -126 94h-103v-186zM196 571v-181h76q68 0 102 27t34 69q0 39 -28.5 62t-86.5 23h-97zM70 674h239q108 0 168 -51t60 -132q0 -55 -30 -95.5t-77 -53.5q54 -13 89 -52.5t35 -107.5q0 -80 -56 -131t-155 -51h-273v674z" />
    <glyph glyph-name="C" unicode="C" horiz-adv-x="609" 
d="M561 646v-123q-76 44 -168 44t-153.5 -62.5t-61.5 -167.5t61.5 -167t160.5 -62q95 0 162 50v-126q-62 -40 -174 -40q-150 0 -247.5 94.5t-97.5 250.5q0 153 96.5 249.5t248.5 96.5q111 0 173 -37z" />
    <glyph glyph-name="D" unicode="D" horiz-adv-x="675" 
d="M199 105h89q106 0 161 65.5t55 175.5q0 97 -58.5 159.5t-159.5 62.5h-87v-463zM70 674h220q151 0 247 -93t96 -235q0 -155 -93 -250.5t-250 -95.5h-220v674z" />
    <glyph glyph-name="E" unicode="E" horiz-adv-x="528" 
d="M197 103h275v-103h-402v674h398v-103h-271v-183h241v-102h-241v-183z" />
    <glyph glyph-name="F" unicode="F" horiz-adv-x="499" 
d="M465 571h-268v-199h234v-103h-234v-269h-127v674h395v-103z" />
    <glyph glyph-name="G" unicode="G" horiz-adv-x="693" 
d="M630 393v-324h-1l1 -11q-92 -66 -230 -66q-160 0 -258.5 93t-98.5 253q0 156 101.5 252t256.5 96q115 0 197 -43v-129q-92 55 -195 55q-101 0 -163 -63t-62 -168q0 -107 60.5 -168.5t166.5 -61.5q52 0 101 18v159h-124v108h248z" />
    <glyph glyph-name="H" unicode="H" horiz-adv-x="670" 
d="M473 674h127v-674h-127v283h-277v-283h-126v674h126v-282h277v282z" />
    <glyph glyph-name="I" unicode="I" horiz-adv-x="282" 
d="M78 0v674h126v-674h-126z" />
    <glyph glyph-name="J" unicode="J" horiz-adv-x="379" 
d="M30 20v114q38 -24 80 -24q77 0 77 82v481h126v-481q0 -95 -48 -144t-132 -49q-63 0 -103 21z" />
    <glyph glyph-name="K" unicode="K" horiz-adv-x="628" 
d="M70 0v674h126v-674h-126zM356 336l251 -336h-159l-242 334l233 340h151z" />
    <glyph glyph-name="L" unicode="L" horiz-adv-x="484" 
d="M196 112h263v-112h-389v674h126v-562z" />
    <glyph glyph-name="M" unicode="M" horiz-adv-x="880" 
d="M58 0l54 674h144l92 -245q24 -62 45 -123.5t30 -91.5l9 -31q31 104 86 246l94 245h144l66 -674h-126l-24 263l-18 236q-36 -103 -86 -236l-94 -253h-86l-92 253l-79 233q0 -49 -13 -233l-20 -263h-126z" />
    <glyph glyph-name="N" unicode="N" horiz-adv-x="688" 
d="M70 0v674h143l162 -281q40 -69 71.5 -128.5t42.5 -84.5l11 -25q-8 83 -8 238v281h127v-674h-144l-164 280q-39 66 -70.5 126.5t-43.5 87.5l-12 28q11 -95 11 -241v-281h-126z" />
    <glyph glyph-name="O" unicode="O" horiz-adv-x="723" 
d="M43 339q0 157 86.5 252t231.5 95q147 0 233 -94.5t86 -252.5q0 -156 -86.5 -251t-231.5 -95t-232 95t-87 251zM178 339q0 -106 50 -168t134 -62q85 0 134 61.5t49 168.5t-49 169t-135 62q-85 0 -134 -62t-49 -169z" />
    <glyph glyph-name="P" unicode="P" horiz-adv-x="556" 
d="M196 331h89q56 4 87.5 38t31.5 84q0 48 -33 82.5t-90 35.5h-85v-240zM70 674h211q114 0 182.5 -62t68.5 -159q0 -103 -70.5 -163.5t-177.5 -60.5h-88v-229h-126v674z" />
    <glyph glyph-name="Q" unicode="Q" horiz-adv-x="729" 
d="M178 339q0 -106 50 -168t134 -62q85 0 134 61.5t49 168.5t-49 169t-135 62q-85 0 -134 -62t-49 -169zM717 -92l-142 -55l-198 140h-15q-145 0 -232 95t-87 251q0 157 86.5 252t231.5 95q147 0 233 -94.5t86 -252.5q0 -110 -44 -191t-124 -121z" />
    <glyph glyph-name="R" unicode="R" horiz-adv-x="589" 
d="M196 570v-220h84q58 0 87 29.5t29 82.5q0 52 -30.5 80t-87.5 28h-82zM418 0l-153 246h-69v-246h-126v674h208q115 0 180.5 -58t65.5 -155q-1 -72 -35 -121.5t-93 -73.5l173 -266h-151z" />
    <glyph glyph-name="S" unicode="S" horiz-adv-x="518" 
d="M445 646v-122q-75 45 -160 45q-47 0 -73.5 -21t-26.5 -54t28.5 -54.5t85.5 -47.5q40 -18 65 -31.5t54.5 -37.5t44 -57.5t14.5 -76.5q0 -90 -64.5 -143.5t-169.5 -53.5q-114 0 -189 43v129q86 -62 188 -62q46 0 74 22.5t28 60.5q0 18 -7 32t-28.5 28t-33 20t-47.5 22
q-10 5 -15 7q-37 17 -60 30.5t-50 36.5t-40.5 55t-13.5 73q0 86 63.5 138t168.5 52q95 0 164 -33z" />
    <glyph glyph-name="T" unicode="T" horiz-adv-x="520" 
d="M495 674v-104h-171v-570h-127v570h-171v104h469z" />
    <glyph glyph-name="U" unicode="U" horiz-adv-x="659" 
d="M467 258v416h126v-415q0 -131 -70.5 -199.5t-193.5 -68.5q-120 0 -191.5 67.5t-71.5 193.5v422h126v-421q0 -77 38 -111.5t99 -34.5q138 0 138 151z" />
    <glyph glyph-name="V" unicode="V" horiz-adv-x="651" 
d="M625 674l-230 -674h-144l-226 674h137l83 -268q25 -80 45 -153t28 -106l7 -33q24 112 81 292l84 268h135z" />
    <glyph glyph-name="W" unicode="W" horiz-adv-x="958" 
d="M431 664h102l69 -239l80 -290q25 139 62 291l61 248h128l-172 -674h-146l-61 213q-25 85 -42.5 150t-23.5 87l-5 23q-14 -70 -70 -260l-63 -213h-145l-180 674h133l63 -249q16 -67 32 -139t24 -110l8 -39q32 126 78 288z" />
    <glyph glyph-name="X" unicode="X" horiz-adv-x="644" 
d="M246 341l-204 333h147l129 -221q14 27 66.5 118.5t58.5 102.5h153l-204 -333l221 -341h-150l-143 233q-15 -29 -71.5 -122.5t-65.5 -110.5h-151z" />
    <glyph glyph-name="Y" unicode="Y" horiz-adv-x="624" 
d="M606 674l-232 -424v-250h-126v246l-230 428h147l45 -98q39 -85 64 -142.5t30 -71.5l6 -15q9 37 103 229l46 98h147z" />
    <glyph glyph-name="Z" unicode="Z" horiz-adv-x="601" 
d="M531 674v-93l-323 -478h336v-103h-487v96l322 475h-317v103h469z" />
    <glyph glyph-name="bracketleft" unicode="[" horiz-adv-x="343" 
d="M332 602h-147v-687h147v-106h-262v898h262v-105z" />
    <glyph glyph-name="backslash" unicode="\" horiz-adv-x="441" 
d="M85 707l361 -810h-125l-362 810h126z" />
    <glyph glyph-name="bracketright" unicode="]" horiz-adv-x="343" 
d="M273 707v-898h-262v106h147v687h-147v105h262z" />
    <glyph glyph-name="asciicircum" unicode="^" horiz-adv-x="480" 
d="M442 332h-114l-88 169l-89 -169h-113l147 262h111z" />
    <glyph glyph-name="underscore" unicode="_" horiz-adv-x="552" 
d="M23 -141v101h506v-101h-506z" />
    <glyph glyph-name="grave" unicode="`" horiz-adv-x="470" 
d="M253 798l91 -169h-101l-116 169h126z" />
    <glyph glyph-name="a" unicode="a" horiz-adv-x="507" 
d="M324 218h-62q-47 0 -72 -19.5t-25 -49.5q0 -64 74 -64q40 0 62.5 23.5t22.5 61.5v48zM78 370v111q57 35 164 35q206 0 206 -192v-324h-119v61q-35 -65 -132 -65q-72 0 -114.5 42t-42.5 106q0 72 54 113t156 41h74v31q0 42 -22 64t-75 22q-81 0 -149 -45z" />
    <glyph glyph-name="b" unicode="b" horiz-adv-x="595" 
d="M313 96q52 0 87 43t35 112q0 76 -35.5 118.5t-87.5 42.5q-49 0 -87 -38.5t-38 -115.5q0 -79 36 -120.5t90 -41.5zM187 707v-277q53 84 152 84q95 0 156.5 -70.5t61.5 -190.5q0 -108 -58.5 -184t-158.5 -76t-153 85v-78h-121v707h121z" />
    <glyph glyph-name="c" unicode="c" horiz-adv-x="470" 
d="M161 252q2 -72 43.5 -116t112.5 -44q62 0 115 34v-104q-53 -31 -132 -31q-117 0 -189.5 74t-72.5 187q1 111 72.5 187t195.5 76q74 0 126 -28v-106q-50 32 -114 32q-70 0 -113 -44t-44 -117z" />
    <glyph glyph-name="d" unicode="d" horiz-adv-x="594" 
d="M283 96q54 0 90 41.5t36 120.5q0 77 -38 115.5t-87 38.5q-52 0 -87.5 -42.5t-35.5 -118.5q0 -69 35 -112t87 -43zM409 707h120v-707h-120v79q-52 -86 -154 -86q-100 0 -158.5 76t-58.5 184q0 120 61.5 190.5t157.5 70.5q99 0 152 -85v278z" />
    <glyph glyph-name="e" unicode="e" horiz-adv-x="529" 
d="M370 295v15q-2 49 -26.5 78.5t-71.5 29.5q-43 0 -74.5 -31.5t-40.5 -91.5h213zM452 132v-104q-53 -33 -153 -33q-121 0 -191 72t-70 186q0 121 66 190t165 69t157 -60t58 -175q0 -28 -7 -72h-318q13 -55 54.5 -84t103.5 -29q80 0 135 40z" />
    <glyph glyph-name="f" unicode="f" horiz-adv-x="340" 
d="M347 709v-101q-26 10 -50 10q-73 0 -73 -82v-29h101v-90h-101v-417h-120v417h-74v90h74v30q0 85 47 133t130 48q38 0 66 -9z" />
    <glyph glyph-name="g" unicode="g" horiz-adv-x="571" 
d="M277 114q49 0 82 38.5t33 100.5q0 81 -32 119t-81 38q-52 0 -82 -40.5t-30 -109.5q0 -71 31 -108.5t79 -37.5zM392 507h120v-461q0 -120 -69.5 -180.5t-176.5 -60.5q-100 0 -175 36v122q68 -48 163 -48q138 0 138 132v44q-46 -75 -144 -75q-85 0 -145.5 62.5t-60.5 181.5
q0 110 57.5 181.5t151.5 71.5q95 0 141 -79v73z" />
    <glyph glyph-name="h" unicode="h" horiz-adv-x="565" 
d="M185 707v-286q41 92 155 92q74 0 119.5 -46.5t45.5 -134.5v-332h-120v311q0 48 -24.5 75t-63.5 27q-43 0 -77.5 -33t-34.5 -108v-272h-120v707h120z" />
    <glyph glyph-name="i" unicode="i" horiz-adv-x="260" 
d="M70 0v507h120v-507h-120zM58 659q0 30 21 51t51 21t51 -21t21 -51q0 -31 -21 -52t-51 -21t-51 21t-21 52z" />
    <glyph glyph-name="j" unicode="j" horiz-adv-x="257" 
d="M-42 -181v95q35 -15 61 -15q53 0 53 69v539h120v-541q0 -75 -41 -119t-117 -44q-36 0 -76 16zM59 659q0 30 21 51t51 21q31 0 52 -21t21 -51q0 -31 -21 -52t-52 -21q-30 0 -51 21t-21 52z" />
    <glyph glyph-name="k" unicode="k" horiz-adv-x="522" 
d="M508 0h-141l-182 262v-262h-120v695h120v-426l179 238h140l-186 -242z" />
    <glyph glyph-name="l" unicode="l" horiz-adv-x="260" 
d="M70 0v707h120v-707h-120z" />
    <glyph glyph-name="m" unicode="m" horiz-adv-x="843" 
d="M185 507v-80q43 86 143 86q111 0 144 -96q20 46 60 71t91 25q77 0 119 -46.5t42 -132.5v-334h-121v311q0 102 -78 102q-39 0 -69.5 -34t-30.5 -107v-272h-121v311q0 102 -78 102q-39 0 -70 -34t-31 -107v-272h-120v507h120z" />
    <glyph glyph-name="n" unicode="n" horiz-adv-x="565" 
d="M185 507v-87q43 93 156 93q76 0 120 -46t44 -130v-337h-120v312q0 50 -24 75.5t-65 25.5q-47 0 -79 -36.5t-32 -104.5v-272h-120v507h120z" />
    <glyph glyph-name="o" unicode="o" horiz-adv-x="565" 
d="M282 -8q-115 0 -179.5 72t-64.5 184q0 116 67 191.5t177 75.5q117 0 181 -73.5t64 -186.5q0 -115 -64.5 -189t-180.5 -74zM282 417q-57 0 -87.5 -47t-30.5 -118q0 -70 31 -117t88 -47q59 0 89 46t30 117q0 73 -29 119.5t-91 46.5z" />
    <glyph glyph-name="p" unicode="p" horiz-adv-x="594" 
d="M311 96q54 0 88 41.5t34 116.5t-34 116.5t-86 41.5t-90 -39t-38 -116t37 -119t89 -42zM185 507v-78q54 85 155 85q99 0 157.5 -71t58.5 -187q0 -114 -58.5 -188.5t-158.5 -74.5q-102 0 -154 83v-267h-120v698h120z" />
    <glyph glyph-name="q" unicode="q" horiz-adv-x="594" 
d="M285 96q51 0 87.5 42t36.5 119t-37.5 116t-89.5 39q-51 0 -86 -42.5t-35 -115.5t35.5 -115.5t88.5 -42.5zM409 507h120v-698h-120v269q-52 -85 -153 -85q-100 0 -159 74.5t-59 188.5q0 116 59.5 187t158.5 71t153 -85v78z" />
    <glyph glyph-name="r" unicode="r" horiz-adv-x="353" 
d="M185 507v-90q35 94 128 94q21 0 34 -3v-116q-23 10 -51 10q-49 0 -80 -40t-31 -100v-262h-121l1 507h120z" />
    <glyph glyph-name="s" unicode="s" horiz-adv-x="427" 
d="M368 491v-106q-50 30 -125 30q-31 0 -48.5 -13.5t-17.5 -34.5q0 -8 2.5 -15t9 -13.5t12.5 -11.5t17 -10.5l19 -9.5t22 -10t22 -10q53 -26 84 -58t31 -83q0 -71 -51 -111t-136 -40q-94 0 -152 31v110q67 -45 145 -45q33 0 51.5 12.5t18.5 34.5q0 13 -6 23.5t-23 20.5
t-26.5 14.5t-37.5 16.5q-3 1 -4.5 2t-4.5 2t-5 2q-111 50 -111 144q0 70 53 110t133 40q77 0 128 -22z" />
    <glyph glyph-name="t" unicode="t" horiz-adv-x="379" 
d="M211 417v-258q0 -32 17 -48.5t47 -16.5q38 0 70 21v-103q-35 -17 -90 -17q-164 0 -164 166v256h-76v90h76v122h120v-122h126v-90h-126z" />
    <glyph glyph-name="u" unicode="u" horiz-adv-x="565" 
d="M379 507h121v-507h-121v83q-40 -88 -156 -88q-77 0 -120 44t-43 125v343h120v-315q0 -48 23.5 -73t64.5 -25q52 0 81.5 35t29.5 106v272z" />
    <glyph glyph-name="v" unicode="v" horiz-adv-x="524" 
d="M196 0l-183 507h126l67 -215q20 -63 34 -112.5t18 -67.5l3 -18q10 56 57 198l70 215h124l-186 -507h-130z" />
    <glyph glyph-name="w" unicode="w" horiz-adv-x="801" 
d="M173 0l-160 507h125l46 -167q20 -72 33.5 -128.5t16.5 -76.5l4 -20q10 61 58 225l49 167h109l49 -167q22 -74 36.5 -130.5t18.5 -75.5l3 -20q10 59 59 226l48 167h120l-161 -507h-130l-45 166q-18 65 -31 118.5t-17 73.5l-4 21q-13 -66 -52 -213l-45 -166h-130z" />
    <glyph glyph-name="x" unicode="x" horiz-adv-x="508" 
d="M318 255l170 -255h-133l-100 170l-104 -170h-132l177 256l-166 251h135l95 -165l100 165h134z" />
    <glyph glyph-name="y" unicode="y" horiz-adv-x="517" 
d="M206 10l-200 497h133l59 -162q27 -72 43.5 -121t20.5 -62l3 -14q10 35 64 197l53 162h126l-183 -493q-76 -203 -232 -203q-29 0 -50 5v99q16 -4 34 -4q91 0 129 99z" />
    <glyph glyph-name="z" unicode="z" horiz-adv-x="469" 
d="M415 507v-84l-236 -326h249v-97h-386v89l235 322h-226v96h364z" />
    <glyph glyph-name="braceleft" unicode="{" horiz-adv-x="363" 
d="M342 704v-113q-15 9 -32 9q-24 0 -39.5 -18t-15.5 -45q0 -17 7.5 -61t7.5 -70q0 -59 -33 -99.5t-85 -48.5q52 -8 85 -49.5t33 -100.5q0 -26 -7.5 -69.5t-7.5 -61.5q0 -27 15 -44.5t40 -17.5q17 0 32 9v-113q-31 -11 -59 -11q-64 0 -106 47.5t-42 121.5q0 24 8 65t8 60
q0 41 -22.5 71t-63.5 34h-22v117q11 0 22 1q40 2 63 32.5t23 71.5q0 18 -8 59.5t-8 65.5q0 74 42 121t106 47q30 0 59 -10z" />
    <glyph glyph-name="bar" unicode="|" horiz-adv-x="260" 
d="M73 -194v889h114v-889h-114z" />
    <glyph glyph-name="braceright" unicode="}" horiz-adv-x="363" 
d="M21 591v113q29 10 58 10q64 0 106 -47t42 -121q0 -24 -7.5 -65.5t-7.5 -59.5q0 -41 22.5 -71.5t63.5 -32.5q10 -1 22 -1v-117h-22q-41 -4 -63.5 -34t-22.5 -71q0 -19 7.5 -60t7.5 -65q0 -74 -42 -121.5t-106 -47.5q-27 0 -58 11v113q15 -9 31 -9q25 0 40.5 17.5
t15.5 44.5q0 18 -7.5 61.5t-7.5 69.5q0 59 33 100.5t85 49.5q-52 8 -85 48.5t-33 99.5q0 26 7.5 70t7.5 61q0 27 -15.5 45t-40.5 18q-16 0 -31 -9z" />
    <glyph glyph-name="asciitilde" unicode="~" horiz-adv-x="633" 
d="M517 359l84 -66q-67 -102 -161 -102q-54 0 -120.5 29t-97.5 29q-60 0 -108 -62l-83 67q31 44 74.5 74t91.5 30q61 0 127.5 -29t93.5 -29q31 0 53.5 15t45.5 44z" />
    <glyph glyph-name="uni00A0" unicode="&#xa0;" horiz-adv-x="248" 
 />
    <glyph glyph-name="exclamdown" unicode="&#xa1;" 
d="M57 438q0 34 22.5 56.5t56.5 22.5q33 0 56 -22.5t23 -56.5q0 -33 -23 -56t-56 -23q-34 0 -56.5 23t-22.5 56zM80 -165v450h115v-450h-115z" />
    <glyph glyph-name="cent" unicode="&#xa2;" horiz-adv-x="468" 
d="M428 486v-104q-50 30 -109 30q-70 0 -114.5 -43.5t-45.5 -116.5q2 -72 44.5 -115.5t113.5 -43.5q58 0 111 31v-104q-36 -18 -79 -24v-107h-101v107q-96 16 -154 86.5t-58 169.5q1 97 57 168t155 89v109h101v-107q41 -6 79 -25z" />
    <glyph glyph-name="sterling" unicode="&#xa3;" horiz-adv-x="533" 
d="M195 103h303v-103h-447v100q47 24 65 59t18 91q0 18 -1 27h-81v89h70q-5 38 -5 65q0 109 57 169t166 60q74 0 126 -30v-115q-48 31 -103 31q-115 0 -115 -117q0 -19 4 -63h172v-89h-162q1 -9 1 -27q0 -104 -68 -147z" />
    <glyph glyph-name="currency" unicode="&#xa4;" horiz-adv-x="561" 
d="M57 310q0 66 32 117l-59 59l72 69l59 -58q53 33 121 33q64 0 118 -31l58 56l72 -69l-58 -58q32 -51 32 -115q0 -66 -34 -119l60 -58l-72 -70l-60 58q-53 -31 -119 -31q-65 0 -118 31l-59 -58l-72 70l59 57q-32 53 -32 117zM158 312q0 -52 35 -88t88 -36t87.5 36t34.5 87
q0 52 -34.5 88t-87.5 36t-88 -36t-35 -87z" />
    <glyph glyph-name="yen" unicode="&#xa5;" horiz-adv-x="616" 
d="M597 655l-166 -294h115v-78h-159l-18 -31v-42h177v-78h-177v-132h-126v132h-175v78h175v42l-17 31h-158v78h114l-164 294h147l140 -275l146 275h146z" />
    <glyph glyph-name="brokenbar" unicode="&#xa6;" horiz-adv-x="260" 
d="M187 368h-114v335h114v-335zM187 -140h-114v335h114v-335z" />
    <glyph glyph-name="section" unicode="&#xa7;" horiz-adv-x="566" 
d="M177 294q0 -35 29 -58t99 -53q54 -24 63 -29q14 21 14 47q0 13 -3 23.5t-11.5 20t-15 16t-23 16t-25 14t-33 16.5t-34.5 17q-7 4 -21.5 11t-21.5 10q-17 -24 -17 -51zM455 647v-122q-73 45 -159 45q-48 0 -73 -17.5t-25 -48.5q0 -14 5.5 -25t21.5 -22t29.5 -18
t46.5 -22.5t54 -26.5q48 -24 76.5 -44.5t50 -58.5t21.5 -88q0 -67 -41 -115q34 -42 34 -97q0 -85 -63 -132.5t-168 -47.5q-116 0 -189 43v129q84 -62 188 -62q102 0 102 69q0 32 -29.5 53.5t-134.5 67.5q-70 31 -108.5 75.5t-38.5 113.5q0 64 44 115q-33 40 -33 91
q0 83 61.5 130.5t164.5 47.5q93 0 163 -33z" />
    <glyph glyph-name="dieresis" unicode="&#xa8;" horiz-adv-x="470" 
d="M43 715q0 29 20 49t51 20q30 0 50 -20t20 -49q0 -30 -20 -50t-50 -20q-31 0 -51 20t-20 50zM285 715q0 29 20.5 49t50.5 20q31 0 51 -20t20 -49q0 -30 -20 -50t-51 -20q-30 0 -50.5 20t-20.5 50z" />
    <glyph glyph-name="copyright" unicode="&#xa9;" horiz-adv-x="767" 
d="M38 337q0 143 102 244.5t244 101.5t243.5 -102t101.5 -244t-101.5 -243.5t-243.5 -101.5q-143 0 -244.5 101.5t-101.5 243.5zM124 337q0 -112 74.5 -186.5t185.5 -74.5q110 0 185 75t75 186q0 110 -75 185t-185 75q-111 0 -185.5 -75t-74.5 -185zM318 336q2 -42 27.5 -68
t64.5 -26q44 0 80 25v-84q-36 -21 -91 -21q-76 0 -126.5 49t-50.5 125q1 77 49.5 127t131.5 50q48 0 87 -21v-83q-34 22 -79 22q-38 0 -65 -25.5t-28 -69.5z" />
    <glyph glyph-name="ordfeminine" unicode="&#xaa;" horiz-adv-x="381" 
d="M248 576h-50q-41 0 -63 -16t-22 -43q0 -53 63 -53q32 0 52 19.5t20 49.5v43zM39 705v93q52 29 139 29q89 0 131 -39.5t42 -121.5v-274h-99v53q-34 -56 -112 -56q-62 0 -97.5 34.5t-35.5 89.5q0 61 46 96t132 35h63v25q0 36 -19 54.5t-64 18.5q-70 0 -126 -37z" />
    <glyph glyph-name="guillemotleft" unicode="&#xab;" horiz-adv-x="549" 
d="M305 415l-146 -162l146 -162h-127l-152 162l152 162h127zM512 415l-146 -162l146 -162h-127l-152 162l152 162h127z" />
    <glyph glyph-name="logicalnot" unicode="&#xac;" horiz-adv-x="583" 
d="M541 145h-103v172h-400v99h503v-271z" />
    <glyph glyph-name="uni00AD" unicode="&#xad;" horiz-adv-x="353" 
d="M50 214v101h254v-101h-254z" />
    <glyph glyph-name="registered" unicode="&#xae;" horiz-adv-x="476" 
d="M218 639v-62h24q28 0 28 32q0 30 -32 30h-20zM168 681h67q87 0 87 -72q0 -46 -37 -64l58 -92h-61l-49 83h-15v-83h-50v228zM239 387q78 0 124.5 47.5t46.5 124.5q0 78 -46.5 126t-124.5 48t-125 -48t-47 -126q0 -77 47 -124.5t125 -47.5zM238 787q99 0 163.5 -64.5
t64.5 -163.5t-64.5 -162.5t-163.5 -63.5t-163.5 63.5t-64.5 162.5q0 100 64.5 164t163.5 64z" />
    <glyph glyph-name="macron" unicode="&#xaf;" horiz-adv-x="470" 
d="M399 667h-328v83h328v-83z" />
    <glyph glyph-name="degree" unicode="&#xb0;" horiz-adv-x="408" 
d="M30 508q0 73 50.5 123.5t123.5 50.5q74 0 124 -50t50 -123t-51 -123t-124 -50t-123 49.5t-50 122.5zM117 509q0 -36 25.5 -62t61.5 -26t61 26t25 62t-25.5 61.5t-61.5 25.5t-61 -25.5t-25 -61.5z" />
    <glyph glyph-name="plusminus" unicode="&#xb1;" horiz-adv-x="576" 
d="M50 29v101h476v-101h-476zM342 429h184v-101h-184v-151h-111v151h-181v101h181v150h111v-150z" />
    <glyph glyph-name="twosuperior" unicode="&#xb2;" horiz-adv-x="365" 
d="M40 392v66q77 57 128.5 116.5t51.5 107.5q0 61 -67 61q-49 0 -102 -39v91q53 33 114 33q65 0 107 -36t42 -99q0 -116 -158 -224h173v-77h-289z" />
    <glyph glyph-name="threesuperior" unicode="&#xb3;" horiz-adv-x="343" 
d="M107 647h18q35 0 57.5 13.5t22.5 38.5q0 49 -60 49q-49 0 -95 -33v86q46 27 101 27q69 0 108 -33.5t39 -85.5q0 -39 -21.5 -65t-58.5 -34q38 -3 64 -30t26 -71q0 -54 -40 -87.5t-109 -33.5q-75 0 -124 26v81q56 -29 112 -29q32 0 50 14.5t18 38.5q0 52 -90 52h-18v76z
" />
    <glyph glyph-name="acute" unicode="&#xb4;" horiz-adv-x="470" 
d="M127 629l91 169h126l-116 -169h-101z" />
    <glyph glyph-name="uni00B5" unicode="&#xb5;" horiz-adv-x="570" 
d="M385 507h120v-507h-120v67q-34 -72 -115 -72q-46 0 -85 22v-197h-120v687h120v-315q0 -47 29 -72.5t72 -25.5q99 0 99 141v272z" />
    <glyph glyph-name="paragraph" unicode="&#xb6;" horiz-adv-x="574" 
d="M310 674v-822h-96v474q-95 0 -146.5 50.5t-51.5 123.5q0 72 53 123t158 51h83zM410 -148l1 822h95v-822h-96z" />
    <glyph glyph-name="periodcentered" unicode="&#xb7;" horiz-adv-x="254" 
d="M50 278q0 32 23 54.5t55 22.5t54.5 -22.5t22.5 -54.5t-22.5 -55t-54.5 -23t-55 23t-23 55z" />
    <glyph glyph-name="cedilla" unicode="&#xb8;" horiz-adv-x="470" 
d="M319 -124q0 -59 -43 -98t-126 -40v78q79 3 79 67q0 29 -25 66h97q18 -27 18 -73z" />
    <glyph glyph-name="onesuperior" unicode="&#xb9;" horiz-adv-x="268" 
d="M10 666v85l128 73h72v-432h-88v335z" />
    <glyph glyph-name="ordmasculine" unicode="&#xba;" horiz-adv-x="417" 
d="M209 386q-98 0 -151.5 61t-53.5 156q0 98 56 162t149 64q97 0 150.5 -62t53.5 -158q0 -97 -54 -160t-150 -63zM207 747q-47 0 -72 -40t-25 -100t26 -99.5t73 -39.5q48 0 72.5 38.5t24.5 98.5q0 142 -99 142z" />
    <glyph glyph-name="guillemotright" unicode="&#xbb;" horiz-adv-x="550" 
d="M164 415l151 -162l-151 -162h-127l146 162l-146 162h127zM371 415l151 -162l-151 -162h-127l146 162l-146 162h127z" />
    <glyph glyph-name="questiondown" unicode="&#xbf;" horiz-adv-x="456" 
d="M423 -24v-116q-66 -32 -156 -32q-95 0 -152 48.5t-57 134.5q0 45 17.5 81t45.5 57t56.5 32t55.5 13l2 92h112l2 -157q-169 0 -169 -106q0 -42 26 -67.5t77 -25.5q69 0 140 46zM371 439q0 -33 -22.5 -56t-56.5 -23q-33 0 -56 23t-23 56t23 56t56 23q34 0 56.5 -23
t22.5 -56z" />
    <glyph glyph-name="Agrave" unicode="&#xc0;" horiz-adv-x="674" 
d="M386 723h-101l-116 169h126zM241 256h190l-9 30q-34 108 -55.5 181.5t-26.5 92.5l-4 20q-9 -50 -86 -295zM511 0l-48 153h-255l-48 -153h-132l228 674h163l228 -674h-136z" />
    <glyph glyph-name="Aacute" unicode="&#xc1;" horiz-adv-x="674" 
d="M514 892l-116 -169h-101l91 169h126zM241 256h190l-9 30q-34 108 -55.5 181.5t-26.5 92.5l-4 20q-9 -50 -86 -295zM511 0l-48 153h-255l-48 -153h-132l228 674h163l228 -674h-136z" />
    <glyph glyph-name="Acircumflex" unicode="&#xc2;" horiz-adv-x="674" 
d="M339 822l-81 -99h-117l145 169h106l145 -169h-117zM241 256h190l-9 30q-34 108 -55.5 181.5t-26.5 92.5l-4 20q-9 -50 -86 -295zM511 0l-48 153h-255l-48 -153h-132l228 674h163l228 -674h-136z" />
    <glyph glyph-name="Atilde" unicode="&#xc3;" horiz-adv-x="674" 
d="M462 877l64 -51q-39 -79 -122 -79q-30 0 -69 19t-54 19q-24 0 -39 -9.5t-33 -34.5l-57 53q16 33 45.5 55.5t65.5 22.5q34 0 75 -19t60 -19q43 0 64 43zM241 256h190l-9 30q-34 108 -55.5 181.5t-26.5 92.5l-4 20q-9 -50 -86 -295zM511 0l-48 153h-255l-48 -153h-132
l228 674h163l228 -674h-136z" />
    <glyph glyph-name="Adieresis" unicode="&#xc4;" horiz-adv-x="674" 
d="M464 739q-30 0 -50.5 20t-20.5 50q0 29 20.5 49t50.5 20q31 0 51 -20t20 -49q0 -30 -20 -50t-51 -20zM222 739q-31 0 -51 20t-20 50q0 29 20 49t51 20q30 0 50 -20t20 -49q0 -30 -20 -50t-50 -20zM241 256h190l-9 30q-34 108 -55.5 181.5t-26.5 92.5l-4 20
q-9 -50 -86 -295zM511 0l-48 153h-255l-48 -153h-132l228 674h163l228 -674h-136z" />
    <glyph glyph-name="Aring" unicode="&#xc5;" horiz-adv-x="674" 
d="M341 894q-23 0 -38 -16.5t-15 -38.5t15 -38.5t38 -16.5t38 16.5t15 38.5t-15 38.5t-38 16.5zM341 712q-52 0 -88.5 36.5t-36.5 88.5t36.5 88.5t88.5 36.5t88.5 -36.5t36.5 -88.5t-36.5 -88.5t-88.5 -36.5zM241 256h190l-9 30q-34 108 -55.5 181.5t-26.5 92.5l-4 20
q-9 -50 -86 -295zM511 0l-48 153h-255l-48 -153h-132l228 674h163l228 -674h-136z" />
    <glyph glyph-name="AE" unicode="&#xc6;" horiz-adv-x="917" 
d="M283 256h180v355q-47 -110 -165 -326zM586 103h275v-103h-398v153h-235l-81 -153h-133l347 674h496v-103h-271v-183h241v-102h-241v-183z" />
    <glyph glyph-name="Ccedilla" unicode="&#xc7;" horiz-adv-x="609" 
d="M324 -51h97q18 -27 18 -73q0 -59 -43 -98t-126 -40v78q79 3 79 67q0 29 -25 66zM561 646v-123q-76 44 -168 44t-153.5 -62.5t-61.5 -167.5t61.5 -167t160.5 -62q95 0 162 50v-126q-62 -40 -174 -40q-150 0 -247.5 94.5t-97.5 250.5q0 153 96.5 249.5t248.5 96.5
q111 0 173 -37z" />
    <glyph glyph-name="Egrave" unicode="&#xc8;" horiz-adv-x="528" 
d="M336 723h-101l-116 169h126zM197 103h275v-103h-402v674h398v-103h-271v-183h241v-102h-241v-183z" />
    <glyph glyph-name="Eacute" unicode="&#xc9;" horiz-adv-x="528" 
d="M448 892l-116 -169h-101l91 169h126zM197 103h275v-103h-402v674h398v-103h-271v-183h241v-102h-241v-183z" />
    <glyph glyph-name="Ecircumflex" unicode="&#xca;" horiz-adv-x="528" 
d="M273 822l-81 -99h-117l145 169h106l145 -169h-117zM197 103h275v-103h-402v674h398v-103h-271v-183h241v-102h-241v-183z" />
    <glyph glyph-name="Edieresis" unicode="&#xcb;" horiz-adv-x="528" 
d="M392 737q-30 0 -50.5 20t-20.5 50q0 29 20.5 49t50.5 20q31 0 51 -20t20 -49q0 -30 -20 -50t-51 -20zM150 737q-31 0 -51 20t-20 50q0 29 20 49t51 20q30 0 50 -20t20 -49q0 -30 -20 -50t-50 -20zM197 103h275v-103h-402v674h398v-103h-271v-183h241v-102h-241v-183z" />
    <glyph glyph-name="Igrave" unicode="&#xcc;" horiz-adv-x="282" 
d="M78 0v674h126v-674h-126zM96 892l91 -169h-101l-116 169h126z" />
    <glyph glyph-name="Iacute" unicode="&#xcd;" horiz-adv-x="282" 
d="M78 0v674h126v-674h-126zM94 723l91 169h126l-116 -169h-101z" />
    <glyph glyph-name="Icircumflex" unicode="&#xce;" horiz-adv-x="282" 
d="M90 892h106l145 -169h-117l-81 99l-81 -99h-117zM78 0v674h126v-674h-126z" />
    <glyph glyph-name="Idieresis" unicode="&#xcf;" horiz-adv-x="282" 
d="M78 0v674h126v-674h-126zM-46 808q0 29 20 49t51 20q30 0 50 -20t20 -49q0 -30 -20 -50t-50 -20q-31 0 -51 20t-20 50zM196 808q0 29 20.5 49t50.5 20q31 0 51 -20t20 -49q0 -30 -20 -50t-51 -20q-30 0 -50.5 20t-20.5 50z" />
    <glyph glyph-name="Eth" unicode="&#xd0;" horiz-adv-x="742" 
d="M266 105h89q106 0 161.5 65.5t55.5 175.5q0 97 -59 159.5t-160 62.5h-87v-183h152v-103h-152v-177zM137 674h220q151 0 247 -93t96 -235q0 -156 -92.5 -251t-250.5 -95h-220v282h-73v103h73v289z" />
    <glyph glyph-name="Ntilde" unicode="&#xd1;" horiz-adv-x="688" 
d="M70 0v674h143l162 -281q40 -69 71.5 -128.5t42.5 -84.5l11 -25q-8 83 -8 238v281h127v-674h-144l-164 280q-39 66 -70.5 126.5t-43.5 87.5l-12 28q11 -95 11 -241v-281h-126zM473 877l64 -51q-39 -79 -122 -79q-31 0 -69 19t-54 19q-24 0 -39 -9.5t-33 -34.5l-57 53
q16 33 45.5 55.5t65.5 22.5q34 0 75 -19t60 -19q43 0 64 43z" />
    <glyph glyph-name="Ograve" unicode="&#xd2;" horiz-adv-x="723" 
d="M43 339q0 157 86.5 252t231.5 95q147 0 233 -94.5t86 -252.5q0 -156 -86.5 -251t-231.5 -95t-232 95t-87 251zM178 339q0 -106 50 -168t134 -62q85 0 134 61.5t49 168.5t-49 169t-135 62q-85 0 -134 -62t-49 -169zM330 892l91 -169h-101l-116 169h126z" />
    <glyph glyph-name="Oacute" unicode="&#xd3;" horiz-adv-x="723" 
d="M316 723l91 169h126l-116 -169h-101zM43 339q0 157 86.5 252t231.5 95q147 0 233 -94.5t86 -252.5q0 -156 -86.5 -251t-231.5 -95t-232 95t-87 251zM178 339q0 -106 50 -168t134 -62q85 0 134 61.5t49 168.5t-49 169t-135 62q-85 0 -134 -62t-49 -169z" />
    <glyph glyph-name="Ocircumflex" unicode="&#xd4;" horiz-adv-x="723" 
d="M178 339q0 -106 50 -168t134 -62q85 0 134 61.5t49 168.5t-49 169t-135 62q-85 0 -134 -62t-49 -169zM43 339q0 157 86.5 252t231.5 95q147 0 233 -94.5t86 -252.5q0 -156 -86.5 -251t-231.5 -95t-232 95t-87 251zM314 892h106l145 -169h-117l-81 99l-81 -99h-117z" />
    <glyph glyph-name="Otilde" unicode="&#xd5;" horiz-adv-x="723" 
d="M43 339q0 157 86.5 252t231.5 95q147 0 233 -94.5t86 -252.5q0 -156 -86.5 -251t-231.5 -95t-232 95t-87 251zM178 339q0 -106 50 -168t134 -62q85 0 134 61.5t49 168.5t-49 169t-135 62q-85 0 -134 -62t-49 -169zM485 877l64 -51q-39 -79 -122 -79q-31 0 -69 19t-54 19
q-24 0 -39 -9.5t-33 -34.5l-57 53q16 33 45.5 55.5t65.5 22.5q34 0 75 -19t60 -19q43 0 64 43z" />
    <glyph glyph-name="Odieresis" unicode="&#xd6;" horiz-adv-x="723" 
d="M176 809q0 29 20 49t51 20q30 0 50 -20t20 -49q0 -30 -20 -50t-50 -20q-31 0 -51 20t-20 50zM418 809q0 29 20.5 49t50.5 20q31 0 51 -20t20 -49q0 -30 -20 -50t-51 -20q-30 0 -50.5 20t-20.5 50zM43 339q0 157 86.5 252t231.5 95q147 0 233 -94.5t86 -252.5
q0 -156 -86.5 -251t-231.5 -95t-232 95t-87 251zM178 339q0 -106 50 -168t134 -62q85 0 134 61.5t49 168.5t-49 169t-135 62q-85 0 -134 -62t-49 -169z" />
    <glyph glyph-name="multiply" unicode="&#xd7;" horiz-adv-x="515" 
d="M465 469l-130 -130l130 -130l-77 -76l-130 129l-129 -128l-78 78l128 128l-131 131l77 77l131 -131l130 130z" />
    <glyph glyph-name="Oslash" unicode="&#xd8;" horiz-adv-x="699" 
d="M520 474l-256 -346q38 -25 94 -25q87 0 137.5 63.5t50.5 172.5q0 78 -26 135zM196 203l258 347q-41 26 -97 26q-87 0 -137.5 -63.5t-50.5 -173.5q0 -79 27 -136zM677 685l-78 -105q77 -92 77 -241q0 -156 -86.5 -251t-231.5 -95q-94 0 -164 41l-31 -42h-123l78 105
q-79 93 -79 242q0 157 86.5 252t231.5 95q94 0 167 -42l30 41h123z" />
    <glyph glyph-name="Ugrave" unicode="&#xd9;" horiz-adv-x="659" 
d="M467 258v416h126v-415q0 -131 -70.5 -199.5t-193.5 -68.5q-120 0 -191.5 67.5t-71.5 193.5v422h126v-421q0 -77 38 -111.5t99 -34.5q138 0 138 151zM295 892l91 -169h-101l-116 169h126z" />
    <glyph glyph-name="Uacute" unicode="&#xda;" horiz-adv-x="659" 
d="M292 723l91 169h126l-116 -169h-101zM467 258v416h126v-415q0 -131 -70.5 -199.5t-193.5 -68.5q-120 0 -191.5 67.5t-71.5 193.5v422h126v-421q0 -77 38 -111.5t99 -34.5q138 0 138 151z" />
    <glyph glyph-name="Ucircumflex" unicode="&#xdb;" horiz-adv-x="659" 
d="M467 258v416h126v-415q0 -131 -70.5 -199.5t-193.5 -68.5q-120 0 -191.5 67.5t-71.5 193.5v422h126v-421q0 -77 38 -111.5t99 -34.5q138 0 138 151zM276 892h106l145 -169h-117l-81 99l-81 -99h-117z" />
    <glyph glyph-name="Udieresis" unicode="&#xdc;" horiz-adv-x="659" 
d="M141 808q0 29 20 49t51 20q30 0 50 -20t20 -49q0 -30 -20 -50t-50 -20q-31 0 -51 20t-20 50zM383 808q0 29 20.5 49t50.5 20q31 0 51 -20t20 -49q0 -30 -20 -50t-51 -20q-30 0 -50.5 20t-20.5 50zM467 258v416h126v-415q0 -131 -70.5 -199.5t-193.5 -68.5
q-120 0 -191.5 67.5t-71.5 193.5v422h126v-421q0 -77 38 -111.5t99 -34.5q138 0 138 151z" />
    <glyph glyph-name="Yacute" unicode="&#xdd;" horiz-adv-x="624" 
d="M494 892l-116 -169h-101l91 169h126zM606 674l-232 -424v-250h-126v246l-230 428h147l45 -98q39 -85 64 -142.5t30 -71.5l6 -15q9 37 103 229l46 98h147z" />
    <glyph glyph-name="Thorn" unicode="&#xde;" horiz-adv-x="553" 
d="M196 217h79q63 0 94.5 33t31.5 84q0 52 -31 87t-99 35h-75v-239zM196 559h82q116 0 183.5 -62t67.5 -159q0 -103 -69.5 -163t-178.5 -60h-85v-115h-126v674h126v-115z" />
    <glyph glyph-name="germandbls" unicode="&#xdf;" horiz-adv-x="576" 
d="M272 11v106q45 -28 95 -28q32 0 52 16t20 43t-23 51.5t-50.5 41t-50.5 46t-23 64.5q0 40 33 88.5t33 77.5q0 30 -20 48t-56 18q-98 0 -98 -102v-481h-118v474q0 105 55.5 160.5t156.5 55.5q91 0 146.5 -48.5t55.5 -115.5q0 -41 -16 -72t-31.5 -52.5t-15.5 -38.5
q0 -15 21.5 -34t46.5 -37.5t46.5 -56t21.5 -84.5q0 -71 -47.5 -115t-128.5 -44q-72 0 -105 19z" />
    <glyph glyph-name="agrave" unicode="&#xe0;" horiz-adv-x="507" 
d="M313 556h-101l-116 169h126zM324 218h-62q-47 0 -72 -19.5t-25 -49.5q0 -64 74 -64q40 0 62.5 23.5t22.5 61.5v48zM78 370v111q57 35 164 35q206 0 206 -192v-324h-119v61q-35 -65 -132 -65q-72 0 -114.5 42t-42.5 106q0 72 54 113t156 41h74v31q0 42 -22 64t-75 22
q-81 0 -149 -45z" />
    <glyph glyph-name="aacute" unicode="&#xe1;" horiz-adv-x="507" 
d="M422 725l-116 -169h-101l91 169h126zM324 218h-62q-47 0 -72 -19.5t-25 -49.5q0 -64 74 -64q40 0 62.5 23.5t22.5 61.5v48zM78 370v111q57 35 164 35q206 0 206 -192v-324h-119v61q-35 -65 -132 -65q-72 0 -114.5 42t-42.5 106q0 72 54 113t156 41h74v31q0 42 -22 64
t-75 22q-81 0 -149 -45z" />
    <glyph glyph-name="acircumflex" unicode="&#xe2;" horiz-adv-x="507" 
d="M255 655l-81 -99h-117l145 169h106l145 -169h-117zM324 218h-62q-47 0 -72 -19.5t-25 -49.5q0 -64 74 -64q40 0 62.5 23.5t22.5 61.5v48zM78 370v111q57 35 164 35q206 0 206 -192v-324h-119v61q-35 -65 -132 -65q-72 0 -114.5 42t-42.5 106q0 72 54 113t156 41h74v31
q0 42 -22 64t-75 22q-81 0 -149 -45z" />
    <glyph glyph-name="atilde" unicode="&#xe3;" horiz-adv-x="507" 
d="M377 710l64 -51q-39 -79 -122 -79q-31 0 -69 19t-54 19q-24 0 -39 -9.5t-33 -34.5l-57 53q16 33 45.5 55.5t65.5 22.5q34 0 75 -19t60 -19q43 0 64 43zM324 218h-62q-47 0 -72 -19.5t-25 -49.5q0 -64 74 -64q40 0 62.5 23.5t22.5 61.5v48zM78 370v111q57 35 164 35
q206 0 206 -192v-324h-119v61q-35 -65 -132 -65q-72 0 -114.5 42t-42.5 106q0 72 54 113t156 41h74v31q0 42 -22 64t-75 22q-81 0 -149 -45z" />
    <glyph glyph-name="adieresis" unicode="&#xe4;" horiz-adv-x="507" 
d="M381 570q-30 0 -50.5 20t-20.5 50q0 29 20.5 49t50.5 20q31 0 51 -20t20 -49q0 -30 -20 -50t-51 -20zM139 570q-31 0 -51 20t-20 50q0 29 20 49t51 20q30 0 50 -20t20 -49q0 -30 -20 -50t-50 -20zM324 218h-62q-47 0 -72 -19.5t-25 -49.5q0 -64 74 -64q40 0 62.5 23.5
t22.5 61.5v48zM78 370v111q57 35 164 35q206 0 206 -192v-324h-119v61q-35 -65 -132 -65q-72 0 -114.5 42t-42.5 106q0 72 54 113t156 41h74v31q0 42 -22 64t-75 22q-81 0 -149 -45z" />
    <glyph glyph-name="aring" unicode="&#xe5;" horiz-adv-x="507" 
d="M258 727q-23 0 -38 -16.5t-15 -38.5t15 -38.5t38 -16.5t38 16.5t15 38.5t-15 38.5t-38 16.5zM258 545q-52 0 -88.5 36.5t-36.5 88.5t36.5 88.5t88.5 36.5t88.5 -36.5t36.5 -88.5t-36.5 -88.5t-88.5 -36.5zM324 218h-62q-47 0 -72 -19.5t-25 -49.5q0 -64 74 -64
q40 0 62.5 23.5t22.5 61.5v48zM78 370v111q57 35 164 35q206 0 206 -192v-324h-119v61q-35 -65 -132 -65q-72 0 -114.5 42t-42.5 106q0 72 54 113t156 41h74v31q0 42 -22 64t-75 22q-81 0 -149 -45z" />
    <glyph glyph-name="ae" unicode="&#xe6;" horiz-adv-x="812" 
d="M329 173v44h-57q-49 0 -75.5 -18t-26.5 -50q0 -63 74 -63q38 0 61.5 23.5t23.5 63.5zM658 295v14q-2 51 -26.5 80t-69.5 29q-42 0 -74.5 -31.5t-41.5 -91.5h212zM765 205h-316q13 -54 55 -83.5t101 -29.5q79 0 134 40v-104q-54 -33 -147 -33q-60 0 -114.5 25t-83.5 72
q-18 -41 -62.5 -68.5t-114.5 -27.5q-81 0 -126.5 39.5t-45.5 107.5q0 73 54.5 114t156.5 41h73v31q0 42 -22 64t-75 22q-83 0 -149 -45v111q60 35 157 35q119 0 155 -81q52 77 164 77q100 0 156.5 -60t56.5 -177q0 -26 -7 -70z" />
    <glyph glyph-name="ccedilla" unicode="&#xe7;" horiz-adv-x="470" 
d="M161 252q2 -72 43.5 -116t112.5 -44q62 0 115 34v-104q-53 -31 -132 -31q-117 0 -189.5 74t-72.5 187q1 111 72.5 187t195.5 76q74 0 126 -28v-106q-50 32 -114 32q-70 0 -113 -44t-44 -117zM358 -124q0 -59 -43 -98t-126 -40v78q79 3 79 67q0 29 -25 66h97
q18 -27 18 -73z" />
    <glyph glyph-name="egrave" unicode="&#xe8;" horiz-adv-x="529" 
d="M329 556h-101l-116 169h126zM370 295v15q-2 49 -26.5 78.5t-71.5 29.5q-43 0 -74.5 -31.5t-40.5 -91.5h213zM452 132v-104q-53 -33 -153 -33q-121 0 -191 72t-70 186q0 121 66 190t165 69t157 -60t58 -175q0 -28 -7 -72h-318q13 -55 54.5 -84t103.5 -29q80 0 135 40z" />
    <glyph glyph-name="eacute" unicode="&#xe9;" horiz-adv-x="529" 
d="M452 725l-116 -169h-101l91 169h126zM370 295v15q-2 49 -26.5 78.5t-71.5 29.5q-43 0 -74.5 -31.5t-40.5 -91.5h213zM452 132v-104q-53 -33 -153 -33q-121 0 -191 72t-70 186q0 121 66 190t165 69t157 -60t58 -175q0 -28 -7 -72h-318q13 -55 54.5 -84t103.5 -29
q80 0 135 40z" />
    <glyph glyph-name="ecircumflex" unicode="&#xea;" horiz-adv-x="529" 
d="M274 655l-81 -99h-117l145 169h106l145 -169h-117zM370 295v15q-2 49 -26.5 78.5t-71.5 29.5q-43 0 -74.5 -31.5t-40.5 -91.5h213zM452 132v-104q-53 -33 -153 -33q-121 0 -191 72t-70 186q0 121 66 190t165 69t157 -60t58 -175q0 -28 -7 -72h-318q13 -55 54.5 -84
t103.5 -29q80 0 135 40z" />
    <glyph glyph-name="edieresis" unicode="&#xeb;" horiz-adv-x="529" 
d="M404 571q-30 0 -50.5 20t-20.5 50q0 29 20.5 49t50.5 20q31 0 51 -20t20 -49q0 -30 -20 -50t-51 -20zM162 571q-31 0 -51 20t-20 50q0 29 20 49t51 20q30 0 50 -20t20 -49q0 -30 -20 -50t-50 -20zM370 295v15q-2 49 -26.5 78.5t-71.5 29.5q-43 0 -74.5 -31.5t-40.5 -91.5
h213zM452 132v-104q-53 -33 -153 -33q-121 0 -191 72t-70 186q0 121 66 190t165 69t157 -60t58 -175q0 -28 -7 -72h-318q13 -55 54.5 -84t103.5 -29q80 0 135 40z" />
    <glyph glyph-name="igrave" unicode="&#xec;" horiz-adv-x="260" 
d="M70 0v507h120v-507h-120zM81 725l91 -169h-101l-116 169h126z" />
    <glyph glyph-name="iacute" unicode="&#xed;" horiz-adv-x="260" 
d="M70 0v507h120v-507h-120zM86 556l91 169h126l-116 -169h-101z" />
    <glyph glyph-name="icircumflex" unicode="&#xee;" horiz-adv-x="260" 
d="M78 725h106l145 -169h-117l-81 99l-81 -99h-117zM70 0v507h120v-507h-120z" />
    <glyph glyph-name="idieresis" unicode="&#xef;" horiz-adv-x="260" 
d="M70 0v507h120v-507h-120zM-61 642q0 29 20 49t51 20q30 0 50 -20t20 -49q0 -30 -20 -50t-50 -20q-31 0 -51 20t-20 50zM181 642q0 29 20.5 49t50.5 20q31 0 51 -20t20 -49q0 -30 -20 -50t-51 -20q-30 0 -50.5 20t-20.5 50z" />
    <glyph glyph-name="eth" unicode="&#xf0;" horiz-adv-x="542" 
d="M261 99q103 0 114 144q-49 57 -117 57q-45 0 -71.5 -27.5t-26.5 -76.5q0 -44 27.5 -70.5t73.5 -26.5zM471 606l-74 -37q98 -132 98 -287q0 -136 -60.5 -214t-172.5 -78q-104 0 -165 62.5t-61 150.5q0 92 55.5 146.5t139.5 54.5q85 0 141 -56q-14 91 -72 173l-141 -71v74
l98 49q-50 53 -128 101h161q32 -21 64 -53l117 58v-73z" />
    <glyph glyph-name="ntilde" unicode="&#xf1;" horiz-adv-x="565" 
d="M410 710l64 -51q-39 -79 -122 -79q-30 0 -69 19t-54 19q-24 0 -39 -9.5t-33 -34.5l-57 53q16 33 45.5 55.5t65.5 22.5q34 0 75 -19t60 -19q43 0 64 43zM185 507v-87q43 93 156 93q76 0 120 -46t44 -130v-337h-120v312q0 50 -24 75.5t-65 25.5q-47 0 -79 -36.5t-32 -104.5
v-272h-120v507h120z" />
    <glyph glyph-name="ograve" unicode="&#xf2;" horiz-adv-x="565" 
d="M282 -8q-115 0 -179.5 72t-64.5 184q0 116 67 191.5t177 75.5q117 0 181 -73.5t64 -186.5q0 -115 -64.5 -189t-180.5 -74zM282 417q-57 0 -87.5 -47t-30.5 -118q0 -70 31 -117t88 -47q59 0 89 46t30 117q0 73 -29 119.5t-91 46.5zM249 725l91 -169h-101l-116 169h126z
" />
    <glyph glyph-name="oacute" unicode="&#xf3;" horiz-adv-x="565" 
d="M244 556l91 169h126l-116 -169h-101zM282 -8q-115 0 -179.5 72t-64.5 184q0 116 67 191.5t177 75.5q117 0 181 -73.5t64 -186.5q0 -115 -64.5 -189t-180.5 -74zM282 417q-57 0 -87.5 -47t-30.5 -118q0 -70 31 -117t88 -47q59 0 89 46t30 117q0 73 -29 119.5t-91 46.5z
" />
    <glyph glyph-name="ocircumflex" unicode="&#xf4;" horiz-adv-x="565" 
d="M282 417q-57 0 -87.5 -47t-30.5 -118q0 -70 31 -117t88 -47q59 0 89 46t30 117q0 73 -29 119.5t-91 46.5zM282 -8q-115 0 -179.5 72t-64.5 184q0 116 67 191.5t177 75.5q117 0 181 -73.5t64 -186.5q0 -115 -64.5 -189t-180.5 -74zM233 724h106l145 -169h-117l-81 99
l-81 -99h-117z" />
    <glyph glyph-name="otilde" unicode="&#xf5;" horiz-adv-x="565" 
d="M282 -8q-115 0 -179.5 72t-64.5 184q0 116 67 191.5t177 75.5q117 0 181 -73.5t64 -186.5q0 -115 -64.5 -189t-180.5 -74zM282 417q-57 0 -87.5 -47t-30.5 -118q0 -70 31 -117t88 -47q59 0 89 46t30 117q0 73 -29 119.5t-91 46.5zM409 710l64 -51q-39 -79 -122 -79
q-31 0 -69 19t-54 19q-24 0 -39 -9.5t-33 -34.5l-57 53q16 33 45.5 55.5t65.5 22.5q34 0 75 -19t60 -19q43 0 64 43z" />
    <glyph glyph-name="odieresis" unicode="&#xf6;" horiz-adv-x="565" 
d="M101 641q0 29 20 49t51 20q30 0 50 -20t20 -49q0 -30 -20 -50t-50 -20q-31 0 -51 20t-20 50zM343 641q0 29 20.5 49t50.5 20q31 0 51 -20t20 -49q0 -30 -20 -50t-51 -20q-30 0 -50.5 20t-20.5 50zM282 -8q-115 0 -179.5 72t-64.5 184q0 116 67 191.5t177 75.5
q117 0 181 -73.5t64 -186.5q0 -115 -64.5 -189t-180.5 -74zM282 417q-57 0 -87.5 -47t-30.5 -118q0 -70 31 -117t88 -47q59 0 89 46t30 117q0 73 -29 119.5t-91 46.5z" />
    <glyph glyph-name="divide" unicode="&#xf7;" horiz-adv-x="576" 
d="M218 517q0 27 19.5 47t47.5 20q27 0 47 -20t20 -47t-20 -47t-47 -20q-28 0 -47.5 20t-19.5 47zM50 286v108h476v-108h-476zM218 163q0 27 19.5 47t47.5 20q27 0 47 -20t20 -47t-20 -47t-47 -20q-28 0 -47.5 20t-19.5 47z" />
    <glyph glyph-name="oslash" unicode="&#xf8;" horiz-adv-x="562" 
d="M406 343l-182 -249q27 -18 64 -18q65 0 98.5 49t33.5 126q0 54 -14 92zM170 165l181 249q-25 15 -64 15q-64 0 -98 -50.5t-34 -126.5q0 -48 15 -87zM532 515l-58 -80q58 -72 58 -180q0 -115 -64.5 -189t-180.5 -74q-69 0 -119 26l-19 -26h-106l58 79q-58 70 -58 177
q0 115 67 191t177 76q69 0 119 -26l19 26h107z" />
    <glyph glyph-name="ugrave" unicode="&#xf9;" horiz-adv-x="565" 
d="M333 555h-101l-116 169h126zM379 507h121v-507h-121v83q-40 -88 -156 -88q-77 0 -120 44t-43 125v343h120v-315q0 -48 23.5 -73t64.5 -25q52 0 81.5 35t29.5 106v272z" />
    <glyph glyph-name="uacute" unicode="&#xfa;" horiz-adv-x="565" 
d="M456 725l-116 -169h-101l91 169h126zM379 507h121v-507h-121v83q-40 -88 -156 -88q-77 0 -120 44t-43 125v343h120v-315q0 -48 23.5 -73t64.5 -25q52 0 81.5 35t29.5 106v272z" />
    <glyph glyph-name="ucircumflex" unicode="&#xfb;" horiz-adv-x="565" 
d="M281 655l-81 -99h-117l145 169h106l145 -169h-117zM379 507h121v-507h-121v83q-40 -88 -156 -88q-77 0 -120 44t-43 125v343h120v-315q0 -48 23.5 -73t64.5 -25q52 0 81.5 35t29.5 106v272z" />
    <glyph glyph-name="udieresis" unicode="&#xfc;" horiz-adv-x="565" 
d="M402 571q-30 0 -50.5 20t-20.5 50q0 29 20.5 49t50.5 20q31 0 51 -20t20 -49q0 -30 -20 -50t-51 -20zM160 571q-31 0 -51 20t-20 50q0 29 20 49t51 20q30 0 50 -20t20 -49q0 -30 -20 -50t-50 -20zM379 507h121v-507h-121v83q-40 -88 -156 -88q-77 0 -120 44t-43 125v343
h120v-315q0 -48 23.5 -73t64.5 -25q52 0 81.5 35t29.5 106v272z" />
    <glyph glyph-name="yacute" unicode="&#xfd;" horiz-adv-x="517" 
d="M224 556l91 169h126l-116 -169h-101zM206 10l-200 497h133l59 -162q27 -72 43.5 -121t20.5 -62l3 -14q10 35 64 197l53 162h126l-183 -493q-76 -203 -232 -203q-29 0 -50 5v99q16 -4 34 -4q91 0 129 99z" />
    <glyph glyph-name="thorn" unicode="&#xfe;" horiz-adv-x="594" 
d="M311 96q54 0 88 41.5t34 116.5t-34 116.5t-86 41.5t-90 -39t-38 -116t37 -119t89 -42zM185 707v-278q54 85 155 85q99 0 157.5 -71t58.5 -187q0 -114 -58.5 -188.5t-158.5 -74.5q-102 0 -154 83v-267h-120v898h120z" />
    <glyph glyph-name="ydieresis" unicode="&#xff;" horiz-adv-x="517" 
d="M318 641q0 29 20.5 49t50.5 20q31 0 51 -20t20 -49q0 -30 -20 -50t-51 -20q-30 0 -50.5 20t-20.5 50zM76 641q0 29 20 49t51 20q30 0 50 -20t20 -49q0 -30 -20 -50t-50 -20q-31 0 -51 20t-20 50zM206 10l-200 497h133l59 -162q27 -72 43.5 -121t20.5 -62l3 -14
q10 35 64 197l53 162h126l-183 -493q-76 -203 -232 -203q-29 0 -50 5v99q16 -4 34 -4q91 0 129 99z" />
    <glyph glyph-name="Amacron" unicode="&#x100;" horiz-adv-x="674" 
d="M505 850v-83h-328v83h328zM241 256h190l-9 30q-34 108 -55.5 181.5t-26.5 92.5l-4 20q-9 -50 -86 -295zM511 0l-48 153h-255l-48 -153h-132l228 674h163l228 -674h-136z" />
    <glyph glyph-name="amacron" unicode="&#x101;" horiz-adv-x="507" 
d="M418 682v-83h-328v83h328zM324 218h-62q-47 0 -72 -19.5t-25 -49.5q0 -64 74 -64q40 0 62.5 23.5t22.5 61.5v48zM78 370v111q57 35 164 35q206 0 206 -192v-324h-119v61q-35 -65 -132 -65q-72 0 -114.5 42t-42.5 106q0 72 54 113t156 41h74v31q0 42 -22 64t-75 22
q-81 0 -149 -45z" />
    <glyph glyph-name="Abreve" unicode="&#x102;" horiz-adv-x="674" 
d="M427 892h94q0 -86 -49.5 -129.5t-135.5 -43.5t-135.5 44t-49.5 129h94q0 -43 23.5 -68.5t67.5 -25.5t67.5 25.5t23.5 68.5zM241 256h190l-9 30q-34 108 -55.5 181.5t-26.5 92.5l-4 20q-9 -50 -86 -295zM511 0l-48 153h-255l-48 -153h-132l228 674h163l228 -674h-136z" />
    <glyph glyph-name="abreve" unicode="&#x103;" horiz-adv-x="507" 
d="M345 724h94q0 -86 -49.5 -129.5t-135.5 -43.5t-135.5 44t-49.5 129h94q0 -43 23.5 -68.5t67.5 -25.5t67.5 25.5t23.5 68.5zM324 218h-62q-47 0 -72 -19.5t-25 -49.5q0 -64 74 -64q40 0 62.5 23.5t22.5 61.5v48zM78 370v111q57 35 164 35q206 0 206 -192v-324h-119v61
q-35 -65 -132 -65q-72 0 -114.5 42t-42.5 106q0 72 54 113t156 41h74v31q0 42 -22 64t-75 22q-81 0 -149 -45z" />
    <glyph glyph-name="Aogonek" unicode="&#x104;" horiz-adv-x="667" 
d="M237 256h191l-9 30q-34 108 -55.5 181.5t-25.5 92.5l-5 20q-10 -50 -87 -295zM416 674l227 -674q-116 -67 -116 -128q0 -44 51 -44q41 0 80 27v-85q-40 -23 -97 -23q-66 0 -99 32t-33 82q0 78 77 144l-46 148h-255l-48 -153h-133l229 674h163z" />
    <glyph glyph-name="aogonek" unicode="&#x105;" horiz-adv-x="504" 
d="M324 217h-57q-49 0 -75.5 -18t-26.5 -50q0 -63 74 -63q39 0 62 23t23 59v49zM448 324v-324q-116 -66 -116 -128q0 -44 51 -44q39 0 80 27v-85q-40 -23 -98 -23q-65 0 -98 32t-33 82q0 85 95 151v50q-41 -66 -132 -66q-73 0 -115 41t-42 106q0 73 54.5 114t156.5 41h73v31
q0 42 -22 64t-75 22q-83 0 -149 -45v111q60 35 164 35q206 0 206 -192z" />
    <glyph glyph-name="Cacute" unicode="&#x106;" horiz-adv-x="609" 
d="M561 646v-123q-76 44 -168 44t-153.5 -62.5t-61.5 -167.5t61.5 -167t160.5 -62q95 0 162 50v-126q-62 -40 -174 -40q-150 0 -247.5 94.5t-97.5 250.5q0 153 96.5 249.5t248.5 96.5q111 0 173 -37zM314 723l91 169h126l-116 -169h-101z" />
    <glyph glyph-name="cacute" unicode="&#x107;" horiz-adv-x="470" 
d="M246 555l91 169h126l-116 -169h-101zM161 252q2 -72 43.5 -116t112.5 -44q62 0 115 34v-104q-53 -31 -132 -31q-117 0 -189.5 74t-72.5 187q1 111 72.5 187t195.5 76q74 0 126 -28v-106q-50 32 -114 32q-70 0 -113 -44t-44 -117z" />
    <glyph glyph-name="Ccircumflex" unicode="&#x108;" horiz-adv-x="609" 
d="M561 646v-123q-76 44 -168 44t-153.5 -62.5t-61.5 -167.5t61.5 -167t160.5 -62q95 0 162 50v-126q-62 -40 -174 -40q-150 0 -247.5 94.5t-97.5 250.5q0 153 96.5 249.5t248.5 96.5q111 0 173 -37zM301 892h106l145 -169h-117l-81 99l-81 -99h-117z" />
    <glyph glyph-name="ccircumflex" unicode="&#x109;" horiz-adv-x="470" 
d="M432 487v-106q-50 32 -114 32q-70 0 -113 -44t-44 -117q2 -72 43.5 -116t112.5 -44q62 0 115 34v-104q-53 -31 -132 -31q-117 0 -189.5 74t-72.5 187q1 111 72.5 187t195.5 76q74 0 126 -28zM217 725h106l145 -169h-117l-81 99l-81 -99h-117z" />
    <glyph glyph-name="Cdotaccent" unicode="&#x10a;" horiz-adv-x="609" 
d="M303 810q0 29 20 49t51 20q30 0 50 -20t20 -49q0 -30 -20 -50t-50 -20q-31 0 -51 20t-20 50zM561 646v-123q-76 44 -168 44t-153.5 -62.5t-61.5 -167.5t61.5 -167t160.5 -62q95 0 162 50v-126q-62 -40 -174 -40q-150 0 -247.5 94.5t-97.5 250.5q0 153 96.5 249.5
t248.5 96.5q111 0 173 -37z" />
    <glyph glyph-name="cdotaccent" unicode="&#x10b;" horiz-adv-x="470" 
d="M161 252q2 -72 43.5 -116t112.5 -44q62 0 115 34v-104q-53 -31 -132 -31q-117 0 -189.5 74t-72.5 187q1 111 72.5 187t195.5 76q74 0 126 -28v-106q-50 32 -114 32q-70 0 -113 -44t-44 -117zM221 642q0 29 20 49t51 20q30 0 50 -20t20 -49q0 -30 -20 -50t-50 -20
q-31 0 -51 20t-20 50z" />
    <glyph glyph-name="Ccaron" unicode="&#x10c;" horiz-adv-x="609" 
d="M561 646v-123q-76 44 -168 44t-153.5 -62.5t-61.5 -167.5t61.5 -167t160.5 -62q95 0 162 50v-126q-62 -40 -174 -40q-150 0 -247.5 94.5t-97.5 250.5q0 153 96.5 249.5t248.5 96.5q111 0 173 -37zM420 723h-106l-145 169h117l81 -99l81 99h117z" />
    <glyph glyph-name="ccaron" unicode="&#x10d;" horiz-adv-x="470" 
d="M432 487v-106q-50 32 -114 32q-70 0 -113 -44t-44 -117q2 -72 43.5 -116t112.5 -44q62 0 115 34v-104q-53 -31 -132 -31q-117 0 -189.5 74t-72.5 187q1 111 72.5 187t195.5 76q74 0 126 -28zM328 556h-106l-145 169h117l81 -99l81 99h117z" />
    <glyph glyph-name="Dcaron" unicode="&#x10e;" horiz-adv-x="675" 
d="M368 723h-106l-145 169h117l81 -99l81 99h117zM199 105h89q106 0 161 65.5t55 175.5q0 97 -58.5 159.5t-159.5 62.5h-87v-463zM70 674h220q151 0 247 -93t96 -235q0 -155 -93 -250.5t-250 -95.5h-220v674z" />
    <glyph glyph-name="dcaron" unicode="&#x10f;" horiz-adv-x="713" 
d="M283 96q54 0 90 41.5t36 120.5q0 77 -38 115.5t-87 38.5q-52 0 -87.5 -42.5t-35.5 -118.5q0 -69 35 -112t87 -43zM409 429v278h120v-707h-120v79q-52 -86 -154 -86q-100 0 -158.5 76t-58.5 184q0 120 61.5 190.5t157.5 70.5q99 0 152 -85zM657 708h129l-115 -204h-90z
" />
    <glyph glyph-name="Dcroat" unicode="&#x110;" horiz-adv-x="742" 
d="M266 105h89q106 0 161.5 65.5t55.5 175.5q0 97 -59 159.5t-160 62.5h-87v-183h152v-103h-152v-177zM137 674h220q151 0 247 -93t96 -235q0 -156 -92.5 -251t-250.5 -95h-220v282h-73v103h73v289z" />
    <glyph glyph-name="dcroat" unicode="&#x111;" horiz-adv-x="594" 
d="M283 96q54 0 90 41.5t36 120.5q0 77 -38 115.5t-87 38.5q-52 0 -87.5 -42.5t-35.5 -118.5q0 -69 35 -112t87 -43zM592 645v-72h-63v-573h-120v79q-52 -86 -154 -86q-100 0 -158.5 76t-58.5 184q0 120 61.5 190.5t157.5 70.5q99 0 152 -85v144h-167v72h167v62h120v-62h63z
" />
    <glyph glyph-name="Emacron" unicode="&#x112;" horiz-adv-x="528" 
d="M433 852v-83h-328v83h328zM197 103h275v-103h-402v674h398v-103h-271v-183h241v-102h-241v-183z" />
    <glyph glyph-name="emacron" unicode="&#x113;" horiz-adv-x="529" 
d="M436 682v-83h-328v83h328zM370 295v15q-2 49 -26.5 78.5t-71.5 29.5q-43 0 -74.5 -31.5t-40.5 -91.5h213zM452 132v-104q-53 -33 -153 -33q-121 0 -191 72t-70 186q0 121 66 190t165 69t157 -60t58 -175q0 -28 -7 -72h-318q13 -55 54.5 -84t103.5 -29q80 0 135 40z" />
    <glyph glyph-name="Ebreve" unicode="&#x114;" horiz-adv-x="528" 
d="M369 892h94q0 -86 -49.5 -129.5t-135.5 -43.5t-135.5 44t-49.5 129h94q0 -43 23.5 -68.5t67.5 -25.5t67.5 25.5t23.5 68.5zM197 103h275v-103h-402v674h398v-103h-271v-183h241v-102h-241v-183z" />
    <glyph glyph-name="ebreve" unicode="&#x115;" horiz-adv-x="529" 
d="M363 725h94q0 -86 -49.5 -129.5t-135.5 -43.5t-135.5 44t-49.5 129h94q0 -43 23.5 -68.5t67.5 -25.5t67.5 25.5t23.5 68.5zM370 295v15q-2 49 -26.5 78.5t-71.5 29.5q-43 0 -74.5 -31.5t-40.5 -91.5h213zM452 132v-104q-53 -33 -153 -33q-121 0 -191 72t-70 186
q0 121 66 190t165 69t157 -60t58 -175q0 -28 -7 -72h-318q13 -55 54.5 -84t103.5 -29q80 0 135 40z" />
    <glyph glyph-name="Edotaccent" unicode="&#x116;" horiz-adv-x="528" 
d="M279 739q-31 0 -51 20t-20 50q0 29 20 49t51 20q30 0 50 -20t20 -49q0 -30 -20 -50t-50 -20zM197 103h275v-103h-402v674h398v-103h-271v-183h241v-102h-241v-183z" />
    <glyph glyph-name="edotaccent" unicode="&#x117;" horiz-adv-x="529" 
d="M281 572q-31 0 -51 20t-20 50q0 29 20 49t51 20q30 0 50 -20t20 -49q0 -30 -20 -50t-50 -20zM370 295v15q-2 49 -26.5 78.5t-71.5 29.5q-43 0 -74.5 -31.5t-40.5 -91.5h213zM452 132v-104q-53 -33 -153 -33q-121 0 -191 72t-70 186q0 121 66 190t165 69t157 -60t58 -175
q0 -28 -7 -72h-318q13 -55 54.5 -84t103.5 -29q80 0 135 40z" />
    <glyph glyph-name="Eogonek" unicode="&#x118;" horiz-adv-x="528" 
d="M472 0h-34q-116 -67 -116 -128q0 -44 52 -44q39 0 80 27v-85q-41 -23 -98 -23q-66 0 -99 32t-33 82q0 77 79 139h-233v674h398v-103h-271v-183h241v-102h-241v-183h275v-103z" />
    <glyph glyph-name="eogonek" unicode="&#x119;" horiz-adv-x="529" 
d="M370 295v15q-2 49 -26.5 78.5t-71.5 29.5q-43 0 -74.5 -31.5t-40.5 -91.5h213zM431 -130v-85q-41 -23 -98 -23q-66 0 -99 32t-33 82q0 65 59 121q-104 12 -163 81.5t-59 174.5q0 121 66 190t165 69t157 -60t58 -175q0 -28 -7 -72h-318q13 -55 54.5 -84t103.5 -29
q80 0 135 40v-104q-20 -12 -48 -20q-105 -63 -105 -121q0 -44 52 -44q39 0 80 27z" />
    <glyph glyph-name="Ecaron" unicode="&#x11a;" horiz-adv-x="528" 
d="M329 723h-106l-145 169h117l81 -99l81 99h117zM197 286v-183h275v-103h-402v674h398v-103h-271v-183h241v-102h-241z" />
    <glyph glyph-name="ecaron" unicode="&#x11b;" horiz-adv-x="529" 
d="M326 556h-106l-145 169h117l81 -99l81 99h117zM370 295v15q-2 49 -26.5 78.5t-71.5 29.5q-43 0 -74.5 -31.5t-40.5 -91.5h213zM452 132v-104q-53 -33 -153 -33q-121 0 -191 72t-70 186q0 121 66 190t165 69t157 -60t58 -175q0 -28 -7 -72h-318q13 -55 54.5 -84t103.5 -29
q80 0 135 40z" />
    <glyph glyph-name="Gcircumflex" unicode="&#x11c;" horiz-adv-x="693" 
d="M378 822l-81 -99h-117l145 169h106l145 -169h-117zM630 393v-324h-1l1 -11q-92 -66 -230 -66q-160 0 -258.5 93t-98.5 253q0 156 101.5 252t256.5 96q115 0 197 -43v-129q-92 55 -195 55q-101 0 -163 -63t-62 -168q0 -107 60.5 -168.5t166.5 -61.5q52 0 101 18v159h-124
v108h248z" />
    <glyph glyph-name="gcircumflex" unicode="&#x11d;" horiz-adv-x="571" 
d="M297 655l-81 -99h-117l145 169h106l145 -169h-117zM277 114q49 0 82 38.5t33 100.5q0 81 -32 119t-81 38q-52 0 -82 -40.5t-30 -109.5q0 -71 31 -108.5t79 -37.5zM392 507h120v-461q0 -120 -69.5 -180.5t-176.5 -60.5q-100 0 -175 36v122q68 -48 163 -48q138 0 138 132
v44q-46 -75 -144 -75q-85 0 -145.5 62.5t-60.5 181.5q0 110 57.5 181.5t151.5 71.5q95 0 141 -79v73z" />
    <glyph glyph-name="Gbreve" unicode="&#x11e;" horiz-adv-x="693" 
d="M465 892h94q0 -86 -49.5 -129.5t-135.5 -43.5t-135.5 44t-49.5 129h94q0 -43 23.5 -68.5t67.5 -25.5t67.5 25.5t23.5 68.5zM630 393v-324h-1l1 -11q-92 -66 -230 -66q-160 0 -258.5 93t-98.5 253q0 156 101.5 252t256.5 96q115 0 197 -43v-129q-92 55 -195 55
q-101 0 -163 -63t-62 -168q0 -107 60.5 -168.5t166.5 -61.5q52 0 101 18v159h-124v108h248z" />
    <glyph glyph-name="gbreve" unicode="&#x11f;" horiz-adv-x="571" 
d="M395 725h94q0 -86 -49.5 -129.5t-135.5 -43.5t-135.5 44t-49.5 129h94q0 -43 23.5 -68.5t67.5 -25.5t67.5 25.5t23.5 68.5zM277 114q49 0 82 38.5t33 100.5q0 81 -32 119t-81 38q-52 0 -82 -40.5t-30 -109.5q0 -71 31 -108.5t79 -37.5zM392 507h120v-461
q0 -120 -69.5 -180.5t-176.5 -60.5q-100 0 -175 36v122q68 -48 163 -48q138 0 138 132v44q-46 -75 -144 -75q-85 0 -145.5 62.5t-60.5 181.5q0 110 57.5 181.5t151.5 71.5q95 0 141 -79v73z" />
    <glyph glyph-name="Gdotaccent" unicode="&#x120;" horiz-adv-x="693" 
d="M382 739q-31 0 -51 20t-20 50q0 29 20 49t51 20q30 0 50 -20t20 -49q0 -30 -20 -50t-50 -20zM630 393v-324h-1l1 -11q-92 -66 -230 -66q-160 0 -258.5 93t-98.5 253q0 156 101.5 252t256.5 96q115 0 197 -43v-129q-92 55 -195 55q-101 0 -163 -63t-62 -168
q0 -107 60.5 -168.5t166.5 -61.5q52 0 101 18v159h-124v108h248z" />
    <glyph glyph-name="gdotaccent" unicode="&#x121;" horiz-adv-x="571" 
d="M315 572q-31 0 -51 20t-20 50q0 29 20 49t51 20q30 0 50 -20t20 -49q0 -30 -20 -50t-50 -20zM277 114q49 0 82 38.5t33 100.5q0 81 -32 119t-81 38q-52 0 -82 -40.5t-30 -109.5q0 -71 31 -108.5t79 -37.5zM392 507h120v-461q0 -120 -69.5 -180.5t-176.5 -60.5
q-100 0 -175 36v122q68 -48 163 -48q138 0 138 132v44q-46 -75 -144 -75q-85 0 -145.5 62.5t-60.5 181.5q0 110 57.5 181.5t151.5 71.5q95 0 141 -79v73z" />
    <glyph glyph-name="uni0122" unicode="&#x122;" horiz-adv-x="693" 
d="M235 -255l76 204h129l-115 -204h-90zM630 393v-324h-1l1 -11q-92 -66 -230 -66q-160 0 -258.5 93t-98.5 253q0 156 101.5 252t256.5 96q115 0 197 -43v-129q-92 55 -195 55q-101 0 -163 -63t-62 -168q0 -107 60.5 -168.5t166.5 -61.5q52 0 101 18v159h-124v108h248z" />
    <glyph glyph-name="uni0123" unicode="&#x123;" horiz-adv-x="571" 
d="M458 760l-76 -204h-128l114 204h90zM277 114q49 0 82 38.5t33 100.5q0 81 -32 119t-81 38q-52 0 -82 -40.5t-30 -109.5q0 -71 31 -108.5t79 -37.5zM392 507h120v-461q0 -120 -69.5 -180.5t-176.5 -60.5q-100 0 -175 36v122q68 -48 163 -48q138 0 138 132v44
q-46 -75 -144 -75q-85 0 -145.5 62.5t-60.5 181.5q0 110 57.5 181.5t151.5 71.5q95 0 141 -79v73z" />
    <glyph glyph-name="Hcircumflex" unicode="&#x124;" horiz-adv-x="670" 
d="M335 822l-81 -99h-117l145 169h106l145 -169h-117zM473 674h127v-674h-127v283h-277v-283h-126v674h126v-282h277v282z" />
    <glyph glyph-name="hcircumflex" unicode="&#x125;" horiz-adv-x="565" 
d="M208 756l-81 99l-81 -99h-117l145 169h106l145 -169h-117zM185 707v-286q41 92 155 92q74 0 119.5 -46.5t45.5 -134.5v-332h-120v311q0 48 -24.5 75t-63.5 27q-43 0 -77.5 -33t-34.5 -108v-272h-120v707h120z" />
    <glyph glyph-name="Hbar" unicode="&#x126;" horiz-adv-x="760" 
d="M519 392v110h-278v-110h278zM720 574v-72h-74v-502h-127v283h-278v-283h-126v502h-74v72h74v100h126v-100h278v100h127v-100h74z" />
    <glyph glyph-name="hbar" unicode="&#x127;" horiz-adv-x="565" 
d="M185 573v-152q41 92 155 92q74 0 119.5 -46.5t45.5 -134.5v-332h-120v311q0 48 -24.5 75t-63.5 27q-43 0 -77.5 -33t-34.5 -108v-272h-120v573h-63v72h63v62h120v-62h165v-72h-165z" />
    <glyph glyph-name="Itilde" unicode="&#x128;" horiz-adv-x="282" 
d="M78 0v674h126v-674h-126zM260 876l64 -51q-39 -79 -122 -79q-30 0 -68.5 19t-54.5 19q-24 0 -39 -9.5t-33 -34.5l-57 53q16 33 45.5 55.5t65.5 22.5q34 0 75 -19t60 -19q43 0 64 43z" />
    <glyph glyph-name="itilde" unicode="&#x129;" horiz-adv-x="260" 
d="M70 0v507h120v-507h-120zM252 708l64 -51q-39 -79 -122 -79q-30 0 -69 19t-54 19q-24 0 -39 -9.5t-33 -34.5l-57 53q16 33 45.5 55.5t65.5 22.5q34 0 75 -19t60 -19q43 0 64 43z" />
    <glyph glyph-name="Imacron" unicode="&#x12a;" horiz-adv-x="282" 
d="M78 0v674h126v-674h-126zM305 766h-328v83h328v-83z" />
    <glyph glyph-name="imacron" unicode="&#x12b;" horiz-adv-x="260" 
d="M70 0v507h120v-507h-120zM294 599h-328v83h328v-83z" />
    <glyph glyph-name="Ibreve" unicode="&#x12c;" horiz-adv-x="282" 
d="M-42 892h94q0 -43 23.5 -68.5t67.5 -25.5t67.5 25.5t23.5 68.5h94q0 -86 -49.5 -129.5t-135.5 -43.5t-135.5 44t-49.5 129zM78 0v674h126v-674h-126z" />
    <glyph glyph-name="ibreve" unicode="&#x12d;" horiz-adv-x="260" 
d="M-55 725h94q0 -43 23.5 -68.5t67.5 -25.5t67.5 25.5t23.5 68.5h94q0 -86 -49.5 -129.5t-135.5 -43.5t-135.5 44t-49.5 129zM70 0v507h120v-507h-120z" />
    <glyph glyph-name="Iogonek" unicode="&#x12e;" horiz-adv-x="282" 
d="M204 674v-674q-116 -67 -116 -128q0 -44 52 -44q40 0 80 27v-85q-41 -23 -98 -23q-66 0 -99 32t-33 82q0 79 88 146v667h126z" />
    <glyph glyph-name="iogonek" unicode="&#x12f;" horiz-adv-x="260" 
d="M130 586q-30 0 -51 21t-21 52q0 30 21 51t51 21t51 -21t21 -51q0 -31 -21 -52t-51 -21zM190 507v-507q-116 -67 -116 -128q0 -44 52 -44q39 0 80 27v-85q-41 -23 -98 -23q-66 0 -99 32t-33 82q0 85 94 150v496h120z" />
    <glyph glyph-name="Idotaccent" unicode="&#x130;" horiz-adv-x="282" 
d="M78 0v674h126v-674h-126zM72 809q0 29 20 49t51 20q30 0 50 -20t20 -49q0 -30 -20 -50t-50 -20q-31 0 -51 20t-20 50z" />
    <glyph glyph-name="dotlessi" unicode="&#x131;" horiz-adv-x="260" 
d="M70 0v507h120v-507h-120z" />
    <glyph glyph-name="IJ" unicode="&#x132;" horiz-adv-x="631" 
d="M78 0v674h126v-674h-126zM282 20v114q38 -24 80 -24q77 0 77 82v481h126v-481q0 -95 -48 -144t-132 -49q-63 0 -103 21z" />
    <glyph glyph-name="ij" unicode="&#x133;" horiz-adv-x="504" 
d="M69 0v507h120v-507h-120zM57 659q0 30 21 51t51 21t51 -21t21 -51q0 -31 -21 -52t-51 -21t-51 21t-21 52zM205 -181v95q35 -15 61 -15q53 0 53 69v539h120v-541q0 -75 -41 -119t-117 -44q-36 0 -76 16zM306 659q0 30 21 51t51 21q31 0 52 -21t21 -51q0 -31 -21 -52
t-52 -21q-30 0 -51 21t-21 52z" />
    <glyph glyph-name="Jcircumflex" unicode="&#x134;" horiz-adv-x="394" 
d="M30 20v114q38 -24 80 -24q77 0 77 82v481h126v-481q0 -95 -48 -144t-132 -49q-63 0 -103 21zM199 892h106l145 -169h-117l-81 99l-81 -99h-117z" />
    <glyph glyph-name="jcircumflex" unicode="&#x135;" horiz-adv-x="257" 
d="M80 725h106l145 -169h-117l-81 99l-81 -99h-117zM-42 -181v95q35 -15 61 -15q53 0 53 69v539h120v-541q0 -75 -41 -119t-117 -44q-36 0 -76 16z" />
    <glyph glyph-name="uni0136" unicode="&#x136;" horiz-adv-x="628" 
d="M196 674v-674h-126v674h126zM180 -255l76 204h129l-115 -204h-90zM356 336l251 -336h-159l-242 334l233 340h151z" />
    <glyph glyph-name="uni0137" unicode="&#x137;" horiz-adv-x="522" 
d="M136 -255l76 204h129l-114 -204h-91zM318 265l190 -265h-141l-182 262v-262h-120v695h120v-426l179 238h140z" />
    <glyph glyph-name="kgreenlandic" unicode="&#x138;" horiz-adv-x="522" 
d="M508 0h-141l-182 262v-262h-120v507h120v-238l179 238h140l-186 -242z" />
    <glyph glyph-name="Lacute" unicode="&#x139;" horiz-adv-x="484" 
d="M473 892l-116 -169h-101l91 169h126zM196 674v-562h263v-112h-389v674h126z" />
    <glyph glyph-name="lacute" unicode="&#x13a;" horiz-adv-x="260" 
d="M78 756l91 169h126l-116 -169h-101zM70 0v707h120v-707h-120z" />
    <glyph glyph-name="uni013B" unicode="&#x13b;" horiz-adv-x="484" 
d="M139 -255l76 204h129l-115 -204h-90zM196 112h263v-112h-389v674h126v-562z" />
    <glyph glyph-name="uni013C" unicode="&#x13c;" horiz-adv-x="260" 
d="M70 0v707h120v-707h-120zM-12 -255l76 204h129l-114 -204h-91z" />
    <glyph glyph-name="Lcaron" unicode="&#x13d;" horiz-adv-x="484" 
d="M472 700l-114 -204h-91l76 204h129zM196 674v-562h263v-112h-389v674h126z" />
    <glyph glyph-name="lcaron" unicode="&#x13e;" horiz-adv-x="269" 
d="M70 0v707h120v-707h-120zM252 505l76 203h128l-114 -203h-90z" />
    <glyph glyph-name="Ldot" unicode="&#x13f;" horiz-adv-x="498" 
d="M362 311q-31 0 -52 21t-21 52q0 30 21 51t52 21t52 -21t21 -51q0 -31 -21 -52t-52 -21zM196 112h263v-112h-389v674h126v-562z" />
    <glyph glyph-name="ldot" unicode="&#x140;" horiz-adv-x="456" 
d="M65 0v707h120v-707h-120zM281 367q0 30 21 51t53 21q31 0 52 -21t21 -51t-21 -51t-52 -21q-32 0 -53 21t-21 51z" />
    <glyph glyph-name="Lslash" unicode="&#x141;" horiz-adv-x="539" 
d="M241 112h263v-112h-390v219l-75 -45v105l75 45v350h127v-273l158 95v-105l-158 -95v-184z" />
    <glyph glyph-name="lslash" unicode="&#x142;" horiz-adv-x="322" 
d="M305 523v-105l-83 -57v-361h-120v278l-74 -51v105l74 51v324h120v-241z" />
    <glyph glyph-name="Nacute" unicode="&#x143;" horiz-adv-x="688" 
d="M311 723l91 169h126l-116 -169h-101zM70 0v674h143l162 -281q40 -69 71.5 -128.5t42.5 -84.5l11 -25q-8 83 -8 238v281h127v-674h-144l-164 280q-39 66 -70.5 126.5t-43.5 87.5l-12 28q11 -95 11 -241v-281h-126z" />
    <glyph glyph-name="nacute" unicode="&#x144;" horiz-adv-x="565" 
d="M478 725l-116 -169h-101l91 169h126zM185 507v-87q43 93 156 93q76 0 120 -46t44 -130v-337h-120v312q0 50 -24 75.5t-65 25.5q-47 0 -79 -36.5t-32 -104.5v-272h-120v507h120z" />
    <glyph glyph-name="uni0145" unicode="&#x145;" horiz-adv-x="688" 
d="M212 -255l76 204h129l-114 -204h-91zM70 0v674h143l162 -281q40 -69 71.5 -128.5t42.5 -84.5l11 -25q-8 83 -8 238v281h127v-674h-144l-164 280q-39 66 -70.5 126.5t-43.5 87.5l-12 28q11 -95 11 -241v-281h-126z" />
    <glyph glyph-name="uni0146" unicode="&#x146;" horiz-adv-x="565" 
d="M149 -255l76 204h129l-115 -204h-90zM185 507v-87q43 93 156 93q76 0 120 -46t44 -130v-337h-120v312q0 50 -24 75.5t-65 25.5q-47 0 -79 -36.5t-32 -104.5v-272h-120v507h120z" />
    <glyph glyph-name="Ncaron" unicode="&#x147;" horiz-adv-x="688" 
d="M70 0v674h143l162 -281q40 -69 71.5 -128.5t42.5 -84.5l11 -25q-8 83 -8 238v281h127v-674h-144l-164 280q-39 66 -70.5 126.5t-43.5 87.5l-12 28q11 -95 11 -241v-281h-126zM406 723h-106l-145 169h117l81 -99l81 99h117z" />
    <glyph glyph-name="ncaron" unicode="&#x148;" horiz-adv-x="565" 
d="M348 556h-106l-145 169h117l81 -99l81 99h117zM185 507v-87q43 93 156 93q76 0 120 -46t44 -130v-337h-120v312q0 50 -24 75.5t-65 25.5q-47 0 -79 -36.5t-32 -104.5v-272h-120v507h120z" />
    <glyph glyph-name="napostrophe" unicode="&#x149;" horiz-adv-x="633" 
d="M59 694h116l-110 -208h-86zM254 507v-87q43 93 156 93q76 0 120 -46t44 -130v-337h-120v312q0 50 -24 75.5t-65 25.5q-47 0 -79 -36.5t-32 -104.5v-272h-120v507h120z" />
    <glyph glyph-name="Eng" unicode="&#x14a;" horiz-adv-x="688" 
d="M492 674h127v-679q0 -95 -48.5 -144t-132.5 -49q-66 0 -103 21v114q38 -24 80 -24q77 0 77 82v5h-17l-164 280q-39 66 -70.5 126.5t-43.5 87.5l-12 28q11 -95 11 -241v-281h-126v674h143l162 -281q40 -69 71.5 -128.5t42.5 -84.5l11 -25q-8 83 -8 238v281z" />
    <glyph glyph-name="eng" unicode="&#x14b;" horiz-adv-x="565" 
d="M505 224h1v-258q0 -75 -41.5 -119t-117.5 -44q-36 0 -76 16v95q37 -15 61 -15q53 0 53 69v344q0 50 -24 75.5t-65 25.5q-47 0 -79 -36.5t-32 -104.5v-272h-120v507h120v-87q43 93 156 93q76 0 120 -46t44 -130v-113z" />
    <glyph glyph-name="Omacron" unicode="&#x14c;" horiz-adv-x="723" 
d="M525 766h-328v83h328v-83zM43 339q0 157 86.5 252t231.5 95q147 0 233 -94.5t86 -252.5q0 -156 -86.5 -251t-231.5 -95t-232 95t-87 251zM178 339q0 -106 50 -168t134 -62q85 0 134 61.5t49 168.5t-49 169t-135 62q-85 0 -134 -62t-49 -169z" />
    <glyph glyph-name="omacron" unicode="&#x14d;" horiz-adv-x="565" 
d="M448 599h-328v83h328v-83zM282 -8q-115 0 -179.5 72t-64.5 184q0 116 67 191.5t177 75.5q117 0 181 -73.5t64 -186.5q0 -115 -64.5 -189t-180.5 -74zM282 417q-57 0 -87.5 -47t-30.5 -118q0 -70 31 -117t88 -47q59 0 89 46t30 117q0 73 -29 119.5t-91 46.5z" />
    <glyph glyph-name="Obreve" unicode="&#x14e;" horiz-adv-x="723" 
d="M186 892h94q0 -43 23.5 -68.5t67.5 -25.5t67.5 25.5t23.5 68.5h94q0 -86 -49.5 -129.5t-135.5 -43.5t-135.5 44t-49.5 129zM178 339q0 -106 50 -168t134 -62q85 0 134 61.5t49 168.5t-49 169t-135 62q-85 0 -134 -62t-49 -169zM43 339q0 157 86.5 252t231.5 95
q147 0 233 -94.5t86 -252.5q0 -156 -86.5 -251t-231.5 -95t-232 95t-87 251z" />
    <glyph glyph-name="obreve" unicode="&#x14f;" horiz-adv-x="565" 
d="M105 725h94q0 -43 23.5 -68.5t67.5 -25.5t67.5 25.5t23.5 68.5h94q0 -86 -49.5 -129.5t-135.5 -43.5t-135.5 44t-49.5 129zM282 417q-57 0 -87.5 -47t-30.5 -118q0 -70 31 -117t88 -47q59 0 89 46t30 117q0 73 -29 119.5t-91 46.5zM282 -8q-115 0 -179.5 72t-64.5 184
q0 116 67 191.5t177 75.5q117 0 181 -73.5t64 -186.5q0 -115 -64.5 -189t-180.5 -74z" />
    <glyph glyph-name="Ohungarumlaut" unicode="&#x150;" horiz-adv-x="723" 
d="M414 723l97 169h126l-132 -169h-91zM239 723l90 169h117l-117 -169h-90zM43 339q0 157 86.5 252t231.5 95q147 0 233 -94.5t86 -252.5q0 -156 -86.5 -251t-231.5 -95t-232 95t-87 251zM178 339q0 -106 50 -168t134 -62q85 0 134 61.5t49 168.5t-49 169t-135 62
q-85 0 -134 -62t-49 -169z" />
    <glyph glyph-name="ohungarumlaut" unicode="&#x151;" horiz-adv-x="565" 
d="M342 556l97 169h126l-132 -169h-91zM167 556l90 169h117l-117 -169h-90zM282 -8q-115 0 -179.5 72t-64.5 184q0 116 67 191.5t177 75.5q117 0 181 -73.5t64 -186.5q0 -115 -64.5 -189t-180.5 -74zM282 417q-57 0 -87.5 -47t-30.5 -118q0 -70 31 -117t88 -47q59 0 89 46
t30 117q0 73 -29 119.5t-91 46.5z" />
    <glyph glyph-name="OE" unicode="&#x152;" horiz-adv-x="994" 
d="M357 109q85 0 131.5 61.5t46.5 168.5q0 108 -47 169.5t-132 61.5q-84 0 -131 -62t-47 -169t47.5 -168.5t131.5 -61.5zM656 103h282v-103h-403v58q-76 -65 -178 -65q-145 0 -229.5 94.5t-84.5 251.5t84.5 252t228.5 95q104 0 179 -64v52h399v-103h-278v-183h248v-102h-248
v-183z" />
    <glyph glyph-name="oe" unicode="&#x153;" horiz-adv-x="884" 
d="M730 295v21q-3 48 -27.5 75t-68.5 27q-43 0 -75 -31t-41 -92h212zM280 88q59 0 89 46t30 117q0 73 -29 119.5t-91 46.5q-57 0 -86 -46.5t-29 -118.5q0 -70 30 -117t86 -47zM812 132v-104q-55 -33 -153 -33q-125 0 -198 83q-65 -86 -182 -86q-115 0 -178 72t-63 184
q0 116 65.5 191.5t175.5 75.5q114 0 180 -82q67 79 172 79q100 0 156.5 -60t56.5 -177q0 -32 -6 -70h-318q13 -54 55.5 -83.5t102.5 -29.5q77 0 134 40z" />
    <glyph glyph-name="Racute" unicode="&#x154;" horiz-adv-x="589" 
d="M452 892l-116 -169h-101l91 169h126zM196 570v-220h84q58 0 87 29.5t29 82.5q0 52 -30.5 80t-87.5 28h-82zM418 0l-153 246h-69v-246h-126v674h208q115 0 180.5 -58t65.5 -155q-1 -72 -35 -121.5t-93 -73.5l173 -266h-151z" />
    <glyph glyph-name="racute" unicode="&#x155;" horiz-adv-x="353" 
d="M380 725l-116 -169h-101l91 169h126zM185 507v-90q35 94 128 94q21 0 34 -3v-116q-23 10 -51 10q-49 0 -80 -40t-31 -100v-262h-121l1 507h120z" />
    <glyph glyph-name="uni0156" unicode="&#x156;" horiz-adv-x="589" 
d="M162 -255l76 204h129l-115 -204h-90zM196 570v-220h84q58 0 87 29.5t29 82.5q0 52 -30.5 80t-87.5 28h-82zM396 266l173 -266h-151l-153 246h-69v-246h-126v674h208q115 0 180.5 -58t65.5 -155q-1 -72 -35 -121.5t-93 -73.5z" />
    <glyph glyph-name="uni0157" unicode="&#x157;" horiz-adv-x="353" 
d="M-20 -255l76 204h129l-115 -204h-90zM185 507v-90q35 94 128 94q21 0 34 -3v-116q-23 10 -51 10q-49 0 -80 -40t-31 -100v-262h-121l1 507h120z" />
    <glyph glyph-name="Rcaron" unicode="&#x158;" horiz-adv-x="589" 
d="M355 723h-106l-145 169h117l81 -99l81 99h117zM196 570v-220h84q58 0 87 29.5t29 82.5q0 52 -30.5 80t-87.5 28h-82zM418 0l-153 246h-69v-246h-126v674h208q115 0 180.5 -58t65.5 -155q-1 -72 -35 -121.5t-93 -73.5l173 -266h-151z" />
    <glyph glyph-name="rcaron" unicode="&#x159;" horiz-adv-x="353" 
d="M261 556h-106l-145 169h117l81 -99l81 99h117zM185 507v-90q35 94 128 94q21 0 34 -3v-116q-23 10 -51 10q-49 0 -80 -40t-31 -100v-262h-121l1 507h120z" />
    <glyph glyph-name="Sacute" unicode="&#x15a;" horiz-adv-x="518" 
d="M219 723l91 169h126l-116 -169h-101zM445 646v-122q-75 45 -160 45q-47 0 -73.5 -21t-26.5 -54t28.5 -54.5t85.5 -47.5q40 -18 65 -31.5t54.5 -37.5t44 -57.5t14.5 -76.5q0 -90 -64.5 -143.5t-169.5 -53.5q-114 0 -189 43v129q86 -62 188 -62q46 0 74 22.5t28 60.5
q0 18 -7 32t-28.5 28t-33 20t-47.5 22q-10 5 -15 7q-37 17 -60 30.5t-50 36.5t-40.5 55t-13.5 73q0 86 63.5 138t168.5 52q95 0 164 -33z" />
    <glyph glyph-name="sacute" unicode="&#x15b;" horiz-adv-x="427" 
d="M184 556l91 169h126l-116 -169h-101zM368 491v-106q-50 30 -125 30q-31 0 -48.5 -13.5t-17.5 -34.5q0 -8 2.5 -15t9 -13.5t12.5 -11.5t17 -10.5l19 -9.5t22 -10t22 -10q53 -26 84 -58t31 -83q0 -71 -51 -111t-136 -40q-94 0 -152 31v110q67 -45 145 -45q33 0 51.5 12.5
t18.5 34.5q0 13 -6 23.5t-23 20.5t-26.5 14.5t-37.5 16.5q-3 1 -4.5 2t-4.5 2t-5 2q-111 50 -111 144q0 70 53 110t133 40q77 0 128 -22z" />
    <glyph glyph-name="Scircumflex" unicode="&#x15c;" horiz-adv-x="518" 
d="M445 646v-122q-75 45 -160 45q-47 0 -73.5 -21t-26.5 -54t28.5 -54.5t85.5 -47.5q40 -18 65 -31.5t54.5 -37.5t44 -57.5t14.5 -76.5q0 -90 -64.5 -143.5t-169.5 -53.5q-114 0 -189 43v129q86 -62 188 -62q46 0 74 22.5t28 60.5q0 18 -7 32t-28.5 28t-33 20t-47.5 22
q-10 5 -15 7q-37 17 -60 30.5t-50 36.5t-40.5 55t-13.5 73q0 86 63.5 138t168.5 52q95 0 164 -33zM213 892h106l145 -169h-117l-81 99l-81 -99h-117z" />
    <glyph glyph-name="scircumflex" unicode="&#x15d;" horiz-adv-x="427" 
d="M368 491v-106q-50 30 -125 30q-31 0 -48.5 -13.5t-17.5 -34.5q0 -8 2.5 -15t9 -13.5t12.5 -11.5t17 -10.5l19 -9.5t22 -10t22 -10q53 -26 84 -58t31 -83q0 -71 -51 -111t-136 -40q-94 0 -152 31v110q67 -45 145 -45q33 0 51.5 12.5t18.5 34.5q0 13 -6 23.5t-23 20.5
t-26.5 14.5t-37.5 16.5q-3 1 -4.5 2t-4.5 2t-5 2q-111 50 -111 144q0 70 53 110t133 40q77 0 128 -22zM181 725h106l145 -169h-117l-81 99l-81 -99h-117z" />
    <glyph glyph-name="uni015E" unicode="&#x15e;" horiz-adv-x="518" 
d="M445 646v-122q-75 45 -160 45q-47 0 -73.5 -21t-26.5 -54t28.5 -54.5t85.5 -47.5q40 -18 65 -31.5t54.5 -37.5t44 -57.5t14.5 -76.5q0 -90 -64.5 -143.5t-169.5 -53.5q-114 0 -189 43v129q86 -62 188 -62q46 0 74 22.5t28 60.5q0 18 -7 32t-28.5 28t-33 20t-47.5 22
q-10 5 -15 7q-37 17 -60 30.5t-50 36.5t-40.5 55t-13.5 73q0 86 63.5 138t168.5 52q95 0 164 -33zM330 -124q0 -59 -43 -98t-126 -40v78q79 3 79 67q0 29 -25 66h97q18 -27 18 -73z" />
    <glyph glyph-name="uni015F" unicode="&#x15f;" horiz-adv-x="427" 
d="M368 491v-106q-50 30 -125 30q-31 0 -48.5 -13.5t-17.5 -34.5q0 -8 2.5 -15t9 -13.5t12.5 -11.5t17 -10.5l19 -9.5t22 -10t22 -10q53 -26 84 -58t31 -83q0 -71 -51 -111t-136 -40q-94 0 -152 31v110q67 -45 145 -45q33 0 51.5 12.5t18.5 34.5q0 13 -6 23.5t-23 20.5
t-26.5 14.5t-37.5 16.5q-3 1 -4.5 2t-4.5 2t-5 2q-111 50 -111 144q0 70 53 110t133 40q77 0 128 -22zM291 -124q0 -59 -43 -98t-126 -40v78q79 3 79 67q0 29 -25 66h97q18 -27 18 -73z" />
    <glyph glyph-name="Scaron" unicode="&#x160;" horiz-adv-x="518" 
d="M445 646v-122q-75 45 -160 45q-47 0 -73.5 -21t-26.5 -54t28.5 -54.5t85.5 -47.5q40 -18 65 -31.5t54.5 -37.5t44 -57.5t14.5 -76.5q0 -90 -64.5 -143.5t-169.5 -53.5q-114 0 -189 43v129q86 -62 188 -62q46 0 74 22.5t28 60.5q0 18 -7 32t-28.5 28t-33 20t-47.5 22
q-10 5 -15 7q-37 17 -60 30.5t-50 36.5t-40.5 55t-13.5 73q0 86 63.5 138t168.5 52q95 0 164 -33zM318 723h-106l-145 169h117l81 -99l81 99h117z" />
    <glyph glyph-name="scaron" unicode="&#x161;" horiz-adv-x="427" 
d="M368 491v-106q-50 30 -125 30q-31 0 -48.5 -13.5t-17.5 -34.5q0 -8 2.5 -15t9 -13.5t12.5 -11.5t17 -10.5l19 -9.5t22 -10t22 -10q53 -26 84 -58t31 -83q0 -71 -51 -111t-136 -40q-94 0 -152 31v110q67 -45 145 -45q33 0 51.5 12.5t18.5 34.5q0 13 -6 23.5t-23 20.5
t-26.5 14.5t-37.5 16.5q-3 1 -4.5 2t-4.5 2t-5 2q-111 50 -111 144q0 70 53 110t133 40q77 0 128 -22zM289 556h-106l-145 169h117l81 -99l81 99h117z" />
    <glyph glyph-name="uni0162" unicode="&#x162;" horiz-adv-x="520" 
d="M115 -255l77 204h128l-114 -204h-91zM495 674v-104h-171v-570h-127v570h-171v104h469z" />
    <glyph glyph-name="uni0163" unicode="&#x163;" horiz-adv-x="379" 
d="M74 -255l76 204h129l-114 -204h-91zM211 417v-258q0 -32 17 -48.5t47 -16.5q38 0 70 21v-103q-35 -17 -90 -17q-164 0 -164 166v256h-76v90h76v122h120v-122h126v-90h-126z" />
    <glyph glyph-name="Tcaron" unicode="&#x164;" horiz-adv-x="520" 
d="M314 723h-106l-145 169h117l81 -99l81 99h117zM495 674v-104h-171v-570h-127v570h-171v104h469z" />
    <glyph glyph-name="tcaron" unicode="&#x165;" horiz-adv-x="379" 
d="M211 417v-258q0 -32 17 -48.5t47 -16.5q38 0 70 21v-103q-35 -17 -90 -17q-164 0 -164 166v256h-76v90h76v122h120v-122h126v-90h-126zM341 784h129l-114 -204h-91z" />
    <glyph glyph-name="Tbar" unicode="&#x166;" horiz-adv-x="520" 
d="M495 570h-171v-194h113v-94h-113v-282h-127v282h-113v94h113v194h-171v104h469v-104z" />
    <glyph glyph-name="tbar" unicode="&#x167;" horiz-adv-x="407" 
d="M225 236v-77q0 -32 17 -48.5t47 -16.5q38 0 70 21v-103q-35 -17 -90 -17q-164 0 -164 166v75h-76v85h76v99h-76v87h76v122h120v-122h126v-87h-126v-99h127v-85h-127z" />
    <glyph glyph-name="Utilde" unicode="&#x168;" horiz-adv-x="659" 
d="M467 258v416h126v-415q0 -131 -70.5 -199.5t-193.5 -68.5q-120 0 -191.5 67.5t-71.5 193.5v422h126v-421q0 -77 38 -111.5t99 -34.5q138 0 138 151zM460 876l64 -51q-39 -79 -122 -79q-30 0 -69 19t-54 19q-24 0 -39 -9.5t-33 -34.5l-57 53q16 33 45.5 55.5t65.5 22.5
q34 0 75 -19t60 -19q43 0 64 43z" />
    <glyph glyph-name="utilde" unicode="&#x169;" horiz-adv-x="565" 
d="M408 707l64 -51q-39 -79 -122 -79q-30 0 -69 19t-54 19q-24 0 -39 -9.5t-33 -34.5l-57 53q16 33 45.5 55.5t65.5 22.5q34 0 75 -19t60 -19q43 0 64 43zM379 507h121v-507h-121v83q-40 -88 -156 -88q-77 0 -120 44t-43 125v343h120v-315q0 -48 23.5 -73t64.5 -25
q52 0 81.5 35t29.5 106v272z" />
    <glyph glyph-name="Umacron" unicode="&#x16a;" horiz-adv-x="659" 
d="M467 258v416h126v-415q0 -131 -70.5 -199.5t-193.5 -68.5q-120 0 -191.5 67.5t-71.5 193.5v422h126v-421q0 -77 38 -111.5t99 -34.5q138 0 138 151zM500 766h-328v83h328v-83z" />
    <glyph glyph-name="umacron" unicode="&#x16b;" horiz-adv-x="565" 
d="M443 682v-83h-328v83h328zM379 507h121v-507h-121v83q-40 -88 -156 -88q-77 0 -120 44t-43 125v343h120v-315q0 -48 23.5 -73t64.5 -25q52 0 81.5 35t29.5 106v272z" />
    <glyph glyph-name="Ubreve" unicode="&#x16c;" horiz-adv-x="659" 
d="M143 892h94q0 -43 23.5 -68.5t67.5 -25.5t67.5 25.5t23.5 68.5h94q0 -86 -49.5 -129.5t-135.5 -43.5t-135.5 44t-49.5 129zM467 258v416h126v-415q0 -131 -70.5 -199.5t-193.5 -68.5q-120 0 -191.5 67.5t-71.5 193.5v422h126v-421q0 -77 38 -111.5t99 -34.5
q138 0 138 151z" />
    <glyph glyph-name="ubreve" unicode="&#x16d;" horiz-adv-x="565" 
d="M376 725h94q0 -86 -49.5 -129.5t-135.5 -43.5t-135.5 44t-49.5 129h94q0 -43 23.5 -68.5t67.5 -25.5t67.5 25.5t23.5 68.5zM379 507h121v-507h-121v83q-40 -88 -156 -88q-77 0 -120 44t-43 125v343h120v-315q0 -48 23.5 -73t64.5 -25q52 0 81.5 35t29.5 106v272z" />
    <glyph glyph-name="Uring" unicode="&#x16e;" horiz-adv-x="659" 
d="M207 837q0 52 36.5 88.5t88.5 36.5t88.5 -36.5t36.5 -88.5t-36.5 -88.5t-88.5 -36.5t-88.5 36.5t-36.5 88.5zM279 839q0 -22 15 -38.5t38 -16.5t38 16.5t15 38.5t-15 38.5t-38 16.5t-38 -16.5t-15 -38.5zM467 258v416h126v-415q0 -131 -70.5 -199.5t-193.5 -68.5
q-120 0 -191.5 67.5t-71.5 193.5v422h126v-421q0 -77 38 -111.5t99 -34.5q138 0 138 151z" />
    <glyph glyph-name="uring" unicode="&#x16f;" horiz-adv-x="565" 
d="M285 727q-23 0 -38 -16.5t-15 -38.5t15 -38.5t38 -16.5t38 16.5t15 38.5t-15 38.5t-38 16.5zM285 545q-52 0 -88.5 36.5t-36.5 88.5t36.5 88.5t88.5 36.5t88.5 -36.5t36.5 -88.5t-36.5 -88.5t-88.5 -36.5zM379 507h121v-507h-121v83q-40 -88 -156 -88q-77 0 -120 44
t-43 125v343h120v-315q0 -48 23.5 -73t64.5 -25q52 0 81.5 35t29.5 106v272z" />
    <glyph glyph-name="Uhungarumlaut" unicode="&#x170;" horiz-adv-x="659" 
d="M467 258v416h126v-415q0 -131 -70.5 -199.5t-193.5 -68.5q-120 0 -191.5 67.5t-71.5 193.5v422h126v-421q0 -77 38 -111.5t99 -34.5q138 0 138 151zM373 723l97 169h126l-132 -169h-91zM198 723l90 169h117l-117 -169h-90z" />
    <glyph glyph-name="uhungarumlaut" unicode="&#x171;" horiz-adv-x="565" 
d="M420 556h-91l97 169h126zM361 725l-117 -169h-90l90 169h117zM379 235v272h121v-507h-121v83q-40 -88 -156 -88q-77 0 -120 44t-43 125v343h120v-315q0 -48 23.5 -73t64.5 -25q52 0 81.5 35t29.5 106z" />
    <glyph glyph-name="Uogonek" unicode="&#x172;" horiz-adv-x="659" 
d="M467 674h126v-415q0 -99 -41.5 -163t-116.5 -89q-114 -67 -114 -127q0 -44 52 -44q39 0 80 27v-85q-41 -23 -98 -23q-66 0 -99 32t-33 82q0 67 62 124q-102 12 -160.5 78.5t-58.5 180.5v422h126v-421q0 -77 38 -111.5t99 -34.5q138 0 138 151v416z" />
    <glyph glyph-name="uogonek" unicode="&#x173;" horiz-adv-x="565" 
d="M500 507v-507q-116 -67 -116 -128q0 -44 52 -44q40 0 80 27v-85q-41 -23 -98 -23q-66 0 -99 32t-33 82q0 82 93 150v72q-40 -88 -156 -88q-77 0 -120 44t-43 125v343h120v-315q0 -48 23.5 -73t64.5 -25q52 0 81.5 35t29.5 106v272h121z" />
    <glyph glyph-name="Wcircumflex" unicode="&#x174;" horiz-adv-x="958" 
d="M431 664h102l69 -239l80 -290q25 139 62 291l61 248h128l-172 -674h-146l-61 213q-25 85 -42.5 150t-23.5 87l-5 23q-14 -70 -70 -260l-63 -213h-145l-180 674h133l63 -249q16 -67 32 -139t24 -110l8 -39q32 126 78 288zM433 892h106l145 -169h-117l-81 99l-81 -99h-117z
" />
    <glyph glyph-name="wcircumflex" unicode="&#x175;" horiz-adv-x="801" 
d="M173 0l-160 507h125l46 -167q20 -72 33.5 -128.5t16.5 -76.5l4 -20q10 61 58 225l49 167h109l49 -167q22 -74 36.5 -130.5t18.5 -75.5l3 -20q10 59 59 226l48 167h120l-161 -507h-130l-45 166q-18 65 -31 118.5t-17 73.5l-4 21q-13 -66 -52 -213l-45 -166h-130zM349 725
h106l145 -169h-117l-81 99l-81 -99h-117z" />
    <glyph glyph-name="Ycircumflex" unicode="&#x176;" horiz-adv-x="624" 
d="M312 822l-81 -99h-117l145 169h106l145 -169h-117zM606 674l-232 -424v-250h-126v246l-230 428h147l45 -98q39 -85 64 -142.5t30 -71.5l6 -15q9 37 103 229l46 98h147z" />
    <glyph glyph-name="ycircumflex" unicode="&#x177;" horiz-adv-x="517" 
d="M207 725h106l145 -169h-117l-81 99l-81 -99h-117zM206 10l-200 497h133l59 -162q27 -72 43.5 -121t20.5 -62l3 -14q10 35 64 197l53 162h126l-183 -493q-76 -203 -232 -203q-29 0 -50 5v99q16 -4 34 -4q91 0 129 99z" />
    <glyph glyph-name="Ydieresis" unicode="&#x178;" horiz-adv-x="624" 
d="M438 738q-30 0 -50.5 20t-20.5 50q0 29 20.5 49t50.5 20q31 0 51 -20t20 -49q0 -30 -20 -50t-51 -20zM196 738q-31 0 -51 20t-20 50q0 29 20 49t51 20q30 0 50 -20t20 -49q0 -30 -20 -50t-50 -20zM606 674l-232 -424v-250h-126v246l-230 428h147l45 -98q39 -85 64 -142.5
t30 -71.5l6 -15q9 37 103 229l46 98h147z" />
    <glyph glyph-name="Zacute" unicode="&#x179;" horiz-adv-x="601" 
d="M269 723l91 169h126l-116 -169h-101zM531 674v-93l-323 -478h336v-103h-487v96l322 475h-317v103h469z" />
    <glyph glyph-name="zacute" unicode="&#x17a;" horiz-adv-x="469" 
d="M200 556l91 169h126l-116 -169h-101zM415 507v-84l-236 -326h249v-97h-386v89l235 322h-226v96h364z" />
    <glyph glyph-name="Zdotaccent" unicode="&#x17b;" horiz-adv-x="601" 
d="M531 674v-93l-323 -478h336v-103h-487v96l322 475h-317v103h469zM244 809q0 29 20 49t51 20q30 0 50 -20t20 -49q0 -30 -20 -50t-50 -20q-31 0 -51 20t-20 50z" />
    <glyph glyph-name="zdotaccent" unicode="&#x17c;" horiz-adv-x="469" 
d="M415 507v-84l-236 -326h249v-97h-386v89l235 322h-226v96h364zM177 641q0 29 20 49t51 20q30 0 50 -20t20 -49q0 -30 -20 -50t-50 -20q-31 0 -51 20t-20 50z" />
    <glyph glyph-name="Zcaron" unicode="&#x17d;" horiz-adv-x="601" 
d="M531 674v-93l-323 -478h336v-103h-487v96l322 475h-317v103h469zM359 723h-106l-145 169h117l81 -99l81 99h117z" />
    <glyph glyph-name="zcaron" unicode="&#x17e;" horiz-adv-x="469" 
d="M415 507v-84l-236 -326h249v-97h-386v89l235 322h-226v96h364zM306 556h-106l-145 169h117l81 -99l81 99h117z" />
    <glyph glyph-name="longs" unicode="&#x17f;" horiz-adv-x="281" 
d="M311 761v-101q-26 10 -50 10q-73 0 -73 -82v-588h-120v588q0 85 47 133t130 48q41 0 66 -8z" />
    <glyph glyph-name="florin" unicode="&#x192;" horiz-adv-x="473" 
d="M180 380l16 100q32 200 188 200q49 0 78 -10v-100q-28 10 -57 10q-73 0 -90 -109l-15 -91h97v-90h-111l-56 -346q-15 -94 -61.5 -147t-126.5 -53q-55 0 -86 13v100q31 -14 68 -14q38 0 57.5 27t28.5 83l55 337h-91v90h106z" />
    <glyph glyph-name="uni0218" unicode="&#x218;" horiz-adv-x="518" 
d="M445 646v-122q-75 45 -160 45q-47 0 -73.5 -21t-26.5 -54t28.5 -54.5t85.5 -47.5q40 -18 65 -31.5t54.5 -37.5t44 -57.5t14.5 -76.5q0 -90 -64.5 -143.5t-169.5 -53.5q-114 0 -189 43v129q86 -62 188 -62q46 0 74 22.5t28 60.5q0 18 -7 32t-28.5 28t-33 20t-47.5 22
q-10 5 -15 7q-37 17 -60 30.5t-50 36.5t-40.5 55t-13.5 73q0 86 63.5 138t168.5 52q95 0 164 -33zM125 -255l76 204h129l-114 -204h-91z" />
    <glyph glyph-name="uni0219" unicode="&#x219;" horiz-adv-x="427" 
d="M82 -255l76 204h129l-115 -204h-90zM368 491v-106q-50 30 -125 30q-31 0 -48.5 -13.5t-17.5 -34.5q0 -8 2.5 -15t9 -13.5t12.5 -11.5t17 -10.5l19 -9.5t22 -10t22 -10q53 -26 84 -58t31 -83q0 -71 -51 -111t-136 -40q-94 0 -152 31v110q67 -45 145 -45q33 0 51.5 12.5
t18.5 34.5q0 13 -6 23.5t-23 20.5t-26.5 14.5t-37.5 16.5q-3 1 -4.5 2t-4.5 2t-5 2q-111 50 -111 144q0 70 53 110t133 40q77 0 128 -22z" />
    <glyph glyph-name="uni021A" unicode="&#x21a;" horiz-adv-x="520" 
d="M118 -255l77 204h128l-114 -204h-91zM495 674v-104h-171v-570h-127v570h-171v104h469z" />
    <glyph glyph-name="uni021B" unicode="&#x21b;" horiz-adv-x="379" 
d="M110 -255l76 204h128l-114 -204h-90zM211 417v-258q0 -32 17 -48.5t47 -16.5q38 0 70 21v-103q-35 -17 -90 -17q-164 0 -164 166v256h-76v90h76v122h120v-122h126v-90h-126z" />
    <glyph glyph-name="uni0237" unicode="&#x237;" horiz-adv-x="257" 
d="M-42 -181v95q35 -15 61 -15q53 0 53 69v539h120v-541q0 -75 -41 -119t-117 -44q-36 0 -76 16z" />
    <glyph glyph-name="uni02BC" unicode="&#x2bc;" horiz-adv-x="229" 
d="M19 447l95 247h137l-130 -247h-102z" />
    <glyph glyph-name="circumflex" unicode="&#x2c6;" horiz-adv-x="470" 
d="M182 798h106l145 -169h-117l-81 99l-81 -99h-117z" />
    <glyph glyph-name="caron" unicode="&#x2c7;" horiz-adv-x="470" 
d="M288 629h-106l-145 169h117l81 -99l81 99h117z" />
    <glyph glyph-name="uni02C9" unicode="&#x2c9;" horiz-adv-x="470" 
d="M399 667h-328v83h328v-83z" />
    <glyph glyph-name="breve" unicode="&#x2d8;" horiz-adv-x="470" 
d="M50 798h94q0 -43 23.5 -68.5t67.5 -25.5t67.5 25.5t23.5 68.5h94q0 -86 -49.5 -129.5t-135.5 -43.5t-135.5 44t-49.5 129z" />
    <glyph glyph-name="dotaccent" unicode="&#x2d9;" horiz-adv-x="470" 
d="M164 716q0 29 20 49t51 20q30 0 50 -20t20 -49q0 -30 -20 -50t-50 -20q-31 0 -51 20t-20 50z" />
    <glyph glyph-name="ring" unicode="&#x2da;" horiz-adv-x="470" 
d="M110 714q0 52 36.5 88.5t88.5 36.5t88.5 -36.5t36.5 -88.5t-36.5 -88.5t-88.5 -36.5t-88.5 36.5t-36.5 88.5zM182 716q0 -22 15 -38.5t38 -16.5t38 16.5t15 38.5t-15 38.5t-38 16.5t-38 -16.5t-15 -38.5z" />
    <glyph glyph-name="ogonek" unicode="&#x2db;" horiz-adv-x="470" 
d="M350 -217q-41 -23 -98 -23q-66 0 -99 32t-33 82q0 47 31.5 89t67 65.5t73.5 38.5l42 -54q-116 -67 -116 -128q0 -44 52 -44q40 0 80 27v-85z" />
    <glyph glyph-name="tilde" unicode="&#x2dc;" horiz-adv-x="470" 
d="M361 765l64 -51q-39 -79 -122 -79q-31 0 -69 19t-54 19q-24 0 -39 -9.5t-33 -34.5l-57 53q16 33 45.5 55.5t65.5 22.5q34 0 75 -19t60 -19q43 0 64 43z" />
    <glyph glyph-name="hungarumlaut" unicode="&#x2dd;" horiz-adv-x="470" 
d="M211 629l97 169h126l-132 -169h-91zM36 629l90 169h117l-117 -169h-90z" />
    <glyph glyph-name="pi" unicode="&#x3c0;" horiz-adv-x="597" 
d="M584 507v-90h-86v-417h-120v417h-150v-220q0 -110 -45.5 -153.5t-142.5 -43.5v100q38 0 53 17.5t15 68.5v231h-86v90h562z" />
    <glyph glyph-name="uni0901" unicode="&#x901;" horiz-adv-x="0" 
d="M-138 735q-96 0 -155.5 45.5t-59.5 131.5h114q0 -40 27.5 -65.5t73.5 -25.5t72.5 25.5t26.5 65.5h114q0 -82 -62 -129.5t-151 -47.5zM-201 967q0 26 18 44.5t45 18.5q26 0 44.5 -18.5t18.5 -44.5t-18.5 -44.5t-44.5 -18.5q-27 0 -45 18.5t-18 44.5z" />
    <glyph glyph-name="uni0902" unicode="&#x902;" horiz-adv-x="0" 
d="M-209 805q0 30 20 50.5t51 20.5q30 0 51 -20.5t21 -50.5t-21 -50.5t-51 -20.5q-31 0 -51 20.5t-20 50.5z" />
    <glyph glyph-name="uni0903" unicode="&#x903;" horiz-adv-x="290" 
d="M77 484q0 30 20.5 51t50.5 21q31 0 51.5 -21t20.5 -51t-20.5 -50.5t-51.5 -20.5q-30 0 -50.5 20.5t-20.5 50.5zM77 154q0 30 20.5 51t50.5 21q31 0 51.5 -21t20.5 -51t-20.5 -50.5t-51.5 -20.5q-30 0 -50.5 20.5t-20.5 50.5z" />
    <glyph glyph-name="uni0905" unicode="&#x905;" horiz-adv-x="686" 
d="M713 660v-95h-106v-565h-118v243h-119v-13q0 -78 -53.5 -126.5t-155.5 -48.5q-71 0 -131 23v109q65 -33 126 -33q43 0 72 22t29 70q0 78 -107 78h-38v100h31q92 0 92 71q0 68 -79 68q-52 0 -102 -24v106q49 19 109 19q91 0 140.5 -41.5t49.5 -113.5q0 -52 -26.5 -87
t-73.5 -48q43 -6 76 -35h160v226h-82v95h306z" />
    <glyph glyph-name="uni0906" unicode="&#x906;" horiz-adv-x="959" 
d="M986 660v-95h-106v-565h-117v565h-156v-565h-118v243h-119v-13q0 -78 -53.5 -126.5t-155.5 -48.5q-71 0 -131 23v109q65 -33 126 -33q43 0 72 22t29 70q0 78 -107 78h-38v100h31q92 0 92 71q0 68 -79 68q-52 0 -102 -24v106q49 19 109 19q91 0 140.5 -41.5t49.5 -113.5
q0 -52 -26.5 -87t-73.5 -48q43 -6 76 -35h160v226h-82v95h579z" />
    <glyph glyph-name="uni0907" unicode="&#x907;" horiz-adv-x="511" 
d="M432 565v-152v-2h-186q-66 0 -66 -46q0 -24 21.5 -34.5t70.5 -12.5q108 -2 158.5 -40t50.5 -116q0 -67 -50.5 -114t-129.5 -47q-75 0 -129 34v-102h-116v243h108q14 -38 48 -62t77 -24q32 0 54 19.5t22 49.5q0 57 -98 60q-206 4 -206 140q0 72 52.5 109.5t134.5 37.5h67
v59h-342v95h565v-95h-106z" />
    <glyph glyph-name="uni0908" unicode="&#x908;" horiz-adv-x="511" 
d="M425 565v-152v-2h-179q-66 0 -66 -46q0 -24 21.5 -34.5t70.5 -12.5q108 -2 158.5 -40t50.5 -116q0 -67 -50.5 -114t-129.5 -47q-75 0 -129 34v-102h-116v243h108q14 -38 48 -62t77 -24q32 0 54 19.5t22 49.5q0 57 -98 60q-206 4 -206 140q0 72 52.5 109.5t134.5 37.5h60
v59h-335v95h308q-32 42 -32 96q0 73 48 115t121 42q62 0 103 -20v-108q-39 25 -89 25q-29 0 -46 -18t-17 -46q0 -44 33 -86h136v-95h-113z" />
    <glyph glyph-name="uni0909" unicode="&#x909;" horiz-adv-x="451" 
d="M478 660v-95h-127q29 -37 29 -84q0 -56 -32.5 -90t-89.5 -44q71 -6 113.5 -45t42.5 -104q0 -87 -63.5 -135.5t-177.5 -48.5q-79 0 -143 23v108q63 -33 136 -33q130 0 130 96q0 41 -35 65t-107 24h-43v100h37q56 0 85 20.5t29 68.5q0 43 -36 79h-253v95h505z" />
    <glyph glyph-name="uni090A" unicode="&#x90a;" horiz-adv-x="713" 
d="M740 660v-95h-389q29 -37 29 -84q0 -56 -32.5 -90t-89.5 -44q57 -5 97 -32q15 47 53.5 75t94.5 28q89 0 138.5 -52t49.5 -138q0 -92 -52 -149.5t-145 -57.5q-16 0 -29 3v94q7 -2 17 -2q92 0 92 110q0 43 -20 70t-58 27t-60 -34.5t-22 -86.5v-4q0 -87 -63.5 -135.5
t-177.5 -48.5q-79 0 -143 23v108q63 -33 136 -33q130 0 130 96q0 41 -35 65t-107 24h-43v100h37q56 0 85 20.5t29 68.5q0 43 -36 79h-253v95h767z" />
    <glyph glyph-name="uni090B" unicode="&#x90b;" horiz-adv-x="877" 
d="M491 565v-190l106 61v62h111v-88q0 -83 74 -83h25v-94h-45q-88 0 -88 -61q0 -23 18 -36t46 -13q60 0 98 25v-98q-36 -21 -99 -21q-71 0 -124 34t-53 101q0 44 26 75t70 44q-30 17 -46 52l-119 -67v-268h-119v209l-306 -177v114l188 106q-8 57 -33.5 89.5t-82.5 32.5
q-39 0 -77 -17v105q37 15 87 15q165 0 198 -173l26 15v246h-399v95h931v-95h-413z" />
    <glyph glyph-name="uni090C" unicode="&#x90c;" horiz-adv-x="800" 
d="M707 565v-389q-55 -1 -83.5 -21.5t-28.5 -55.5q0 -29 21 -45.5t59 -16.5q52 0 95 21v-93q-46 -19 -104 -19q-84 0 -136 38.5t-52 110.5q0 46 29 82.5t81 50.5v151q-30 10 -56 10q-97 0 -97 -111v-67h-118v69q0 98 -75 98q-36 0 -58 -28.5t-22 -86.5q0 -76 40.5 -120.5
t121.5 -44.5q26 0 45 4v-96q-23 -5 -58 -5q-121 0 -193 73t-72 191q0 95 49 153t134 58q59 0 98.5 -25.5t48.5 -65.5q26 97 149 97q31 0 63 -12v95h-615v95h854v-95h-120z" />
    <glyph glyph-name="uni090D" unicode="&#x90d;" horiz-adv-x="569" 
d="M397 912h114q0 -82 -59 -129.5t-147 -47.5q-96 0 -152.5 45t-56.5 132h114q0 -41 24.5 -66t70.5 -25q44 0 68 25t24 66zM596 660v-95h-80v-130q0 -79 -46 -121.5t-121 -42.5q-36 0 -58 6v93q20 -5 36 -5q38 0 55.5 19t17.5 60v121h-210v-303q0 -67 42 -100t116 -33
q81 0 150 32v-106q-74 -27 -159 -27q-121 0 -193.5 58t-72.5 176v303h-100v95h623z" />
    <glyph glyph-name="uni090E" unicode="&#x90e;" horiz-adv-x="569" 
d="M596 660v-95h-80v-130q0 -79 -46 -121.5t-121 -42.5q-36 0 -58 6v93q20 -5 36 -5q38 0 55.5 19t17.5 60v121h-210v-303q0 -67 42 -100t116 -33q81 0 150 32v-106q-74 -27 -159 -27q-121 0 -193.5 58t-72.5 176v303h-100v95h427q-2 39 -15 56t-48 17h-38q-29 0 -52 3
t-49.5 13t-44 28t-29.5 50.5t-12 76.5h118q0 -45 18 -60.5t64 -15.5h36q167 0 169 -168h79z" />
    <glyph glyph-name="uni090F" unicode="&#x90f;" horiz-adv-x="569" 
d="M596 660v-95h-80v-130q0 -79 -46 -121.5t-121 -42.5q-36 0 -58 6v93q20 -5 36 -5q38 0 55.5 19t17.5 60v121h-210v-303q0 -67 42 -100t116 -33q81 0 150 32v-106q-74 -27 -159 -27q-121 0 -193.5 58t-72.5 176v303h-100v95h623z" />
    <glyph glyph-name="uni0910" unicode="&#x910;" horiz-adv-x="569" 
d="M596 660v-95h-80v-130q0 -79 -46 -121.5t-121 -42.5q-36 0 -58 6v93q20 -5 36 -5q38 0 55.5 19t17.5 60v121h-210v-303q0 -67 42 -100t116 -33q81 0 150 32v-106q-74 -27 -159 -27q-121 0 -193.5 58t-72.5 176v303h-100v95h415l-73 108q-29 46 -81 46q-28 0 -59 -9v99
q42 7 68 7q109 -1 167 -91l104 -160h82z" />
    <glyph glyph-name="uni0911" unicode="&#x911;" horiz-adv-x="961" 
d="M790 912h114q0 -82 -59 -129.5t-147 -47.5q-96 0 -152.5 45t-56.5 132h114q0 -41 24.5 -66t70.5 -25q44 0 68 25t24 66zM987 660v-95h-106v-565h-117v565h-157v-565h-118v243h-119v-13q0 -78 -53.5 -126.5t-155.5 -48.5q-71 0 -131 23v109q65 -33 126 -33q43 0 72 22
t29 70q0 78 -107 78h-38v100h31q92 0 92 71q0 68 -79 68q-52 0 -102 -24v106q49 19 109 19q91 0 140.5 -41.5t49.5 -113.5q0 -52 -26.5 -87t-73.5 -48q43 -6 76 -35h160v226h-82v95h580z" />
    <glyph glyph-name="uni0912" unicode="&#x912;" horiz-adv-x="961" 
d="M882 660h106v-95h-106v-565h-117v565h-158v-565h-118v243h-119v-13q0 -78 -53.5 -126.5t-155.5 -48.5q-71 0 -131 23v109q65 -33 126 -33q43 0 72 22t29 70q0 78 -107 78h-38v100h31q92 0 92 71q0 68 -79 68q-52 0 -102 -24v106q49 19 109 19q91 0 140.5 -41.5
t49.5 -113.5q0 -52 -26.5 -87t-73.5 -48q43 -6 76 -35h160v226h-82v95h358q-2 39 -15 56t-48 17h-38q-29 0 -52 3t-49.5 13t-44 28t-29.5 50.5t-12 76.5h118q0 -45 18 -60.5t64 -15.5h36q167 0 169 -168z" />
    <glyph glyph-name="uni0913" unicode="&#x913;" horiz-adv-x="961" 
d="M881 660h104v-95h-106v-565h-117v565h-155v-565h-118v243h-119v-13q0 -78 -53.5 -126.5t-155.5 -48.5q-71 0 -131 23v109q65 -33 126 -33q43 0 72 22t29 70q0 78 -107 78h-38v100h31q92 0 92 71q0 68 -79 68q-52 0 -102 -24v106q49 19 109 19q91 0 140.5 -41.5
t49.5 -113.5q0 -52 -26.5 -87t-73.5 -48q43 -6 76 -35h160v226h-82v95h348l-73 108q-29 46 -81 46q-27 0 -59 -9v99q42 7 68 7q109 -1 167 -91z" />
    <glyph glyph-name="uni0914" unicode="&#x914;" horiz-adv-x="961" 
d="M880 660h108v-95h-106v-565h-117v565h-158v-565h-118v243h-119v-13q0 -78 -53.5 -126.5t-155.5 -48.5q-71 0 -131 23v109q65 -33 126 -33q43 0 72 22t29 70q0 78 -107 78h-38v100h31q92 0 92 71q0 68 -79 68q-52 0 -102 -24v106q49 19 109 19q91 0 140.5 -41.5
t49.5 -113.5q0 -52 -26.5 -87t-73.5 -48q43 -6 76 -35h160v226h-82v95h326q-98 62 -170 62q-30 0 -57 -8v89q32 8 57 8q51 0 93.5 -22t123.5 -93l10 -9l-92 112q-52 63 -124 63q-36 0 -68 -9v91q27 8 75 8q118 0 187 -112z" />
    <glyph glyph-name="uni0915" unicode="&#x915;" horiz-adv-x="795" 
d="M822 565h-366v-123q46 43 110 43q87 0 140 -53t53 -137q0 -91 -60.5 -145t-152.5 -54q-16 0 -23 1v95q6 -1 18 -1q45 0 72.5 28.5t27.5 73.5q0 42 -25.5 70t-68.5 28q-39 0 -65 -27.5t-26 -70.5v-293h-118v128q-45 -42 -110 -42q-86 0 -139.5 53t-53.5 137q0 91 60.5 145
t152.5 54q15 0 23 -1v-95q-6 1 -18 1q-45 0 -72.5 -28.5t-27.5 -73.5q0 -42 25.5 -70t69.5 -28q38 0 64 27.5t26 70.5v287h-365v95h849v-95z" />
    <glyph glyph-name="uni0916" unicode="&#x916;" horiz-adv-x="818" 
d="M845 660v-95h-106v-565h-118v149q-42 -33 -105 -33q-75 0 -126 50.5t-51 130.5q0 78 53 128t132 50q17 0 35 -4v-88q-5 2 -20 2q-40 0 -64.5 -26t-24.5 -66t24 -64t61 -24q38 0 62 22.5t24 64.5v273h-295v-131q0 -69 -38 -112t-106 -54l-11 -1l209 -267h-142l-204 265v93
h72q103 0 103 84v123h-236v95h872z" />
    <glyph glyph-name="uni0917" unicode="&#x917;" horiz-adv-x="581" 
d="M-27 660h635v-95h-106v-565h-116v565h-135v-221q0 -69 -37.5 -104t-100.5 -35q-44 0 -83 14v95q25 -13 54 -13q50 0 50 53v211h-161v95z" />
    <glyph glyph-name="uni0918" unicode="&#x918;" horiz-adv-x="640" 
d="M444 337v228h-227q-40 -29 -40 -71q0 -68 103 -68h43v-99h-52q-49 0 -77 -21t-28 -57t29 -54.5t74 -18.5q77 0 126 43.5t49 117.5zM667 660v-95h-106v-565h-117v157q-26 -37 -77.5 -58t-109.5 -21q-91 0 -150 43.5t-59 118.5q0 57 38 92.5t104 43.5q-59 2 -95 30.5
t-36 78.5q0 46 34 80h-120v95h694z" />
    <glyph glyph-name="uni0919" unicode="&#x919;" horiz-adv-x="624" 
d="M535 422q28 0 48 -20t20 -48t-20 -47.5t-48 -19.5t-47.5 19.5t-19.5 47.5t19.5 48t47.5 20zM-27 660h678v-95h-231v-151v-2h-196q-63 0 -63 -48q0 -28 28.5 -38t94.5 -11q192 -3 192 -148q-1 -73 -61 -120t-163 -47q-118 0 -206 48v110q100 -61 206 -61q51 0 79 17.5
t28 47.5q0 31 -26 42.5t-89 12.5q-88 2 -143.5 35.5t-55.5 108.5q0 72 52 108.5t127 36.5h80v59h-331v95z" />
    <glyph glyph-name="uni091A" unicode="&#x91a;" horiz-adv-x="650" 
d="M677 660v-95h-106v-565h-116v176q-54 -81 -182 -82q-85 0 -137 46t-52 116q0 79 64 114h-125v97h352v-97q-178 0 -178 -100q0 -39 27.5 -60t75.5 -21q71 0 113 44t42 92v240h-482v95h704z" />
    <glyph glyph-name="uni091B" unicode="&#x91b;" horiz-adv-x="647" 
d="M419 498v67h-188q-48 -35 -48 -89q0 -35 23 -57t60 -22h34v-98h-37q-92 0 -92 -71q0 -37 36 -58t92 -21q84 0 135.5 43t51.5 117q0 44 -24.5 69t-66.5 25q-30 0 -47 -6v94q22 7 66 7h5zM674 565h-144v-97q75 -49 75 -151q0 -119 -86.5 -192t-220.5 -73
q-104 0 -174.5 45.5t-70.5 125.5q0 55 35 88.5t96 38.5q-53 3 -85.5 37.5t-32.5 86.5q0 54 37 91h-130v95h701v-95z" />
    <glyph glyph-name="uni091C" unicode="&#x91c;" horiz-adv-x="655" 
d="M-27 660h710v-95h-107v-565h-118v362h-164q64 -40 64 -127q0 -81 -55.5 -129t-146.5 -48q-70 0 -126 22v104q49 -26 105 -26q51 0 81 24.5t30 70.5q0 52 -40 80.5t-115 28.5v97h367v106h-485v95z" />
    <glyph glyph-name="uni091D" unicode="&#x91d;" horiz-adv-x="773" 
d="M279 329h297v236h-140v-149v-2h-179q-74 0 -74 -44q0 -22 20 -30.5t63 -10.5h13zM800 660v-95h-106v-565h-118v238h-113q13 -29 13 -68q0 -72 -49.5 -117.5t-130.5 -45.5q-72 0 -128 37v-94h-116v233h107q17 -39 51.5 -62.5t73.5 -23.5q35 0 55.5 17.5t20.5 49.5
q0 63 -99 66q-197 4 -197 135q0 72 52 108t135 36h68v56h-346v95h827z" />
    <glyph glyph-name="uni091E" unicode="&#x91e;" horiz-adv-x="684" 
d="M711 660v-95h-106v-565h-118v243h-81q-11 -79 -70 -127.5t-153 -52.5q-86 0 -156 36v107q71 -42 147 -42q57 0 86.5 30.5t29.5 81.5q0 46 -28 74.5t-75 28.5q-44 0 -86 -17v99q37 15 94 15q82 0 135 -36.5t70 -101.5h87v227h-514v95h738z" />
    <glyph glyph-name="uni091F" unicode="&#x91f;" horiz-adv-x="510" 
d="M435 565v-196q-27 6 -85 6q-86 0 -134 -35t-48 -98q0 -61 45 -94.5t119 -33.5q38 0 79 12t66 28v-106q-64 -34 -153 -34q-127 0 -201 61.5t-74 170.5q0 94 68.5 157.5t185.5 65.5h16v96h-346v95h564v-95h-102z" />
    <glyph glyph-name="uni0920" unicode="&#x920;" horiz-adv-x="571" 
d="M410 265q0 54 -33.5 82t-90.5 29q-53 0 -89 -27.5t-36 -82.5q0 -52 35.5 -82.5t91.5 -30.5t89 30.5t33 81.5zM598 565h-231v-105q74 -19 118 -69t44 -126q0 -91 -65.5 -148t-176.5 -58q-109 0 -176.5 56.5t-67.5 151.5q0 89 59.5 140t147.5 60v98h-277v95h625v-95z" />
    <glyph glyph-name="uni0921" unicode="&#x921;" horiz-adv-x="529" 
d="M420 565v-151v-2h-196q-63 0 -63 -48q0 -28 28.5 -38t94.5 -11q192 -3 192 -148q-1 -73 -61 -120t-163 -47q-118 0 -206 48v110q100 -61 206 -61q51 0 79 17.5t28 47.5q0 31 -26 42.5t-89 12.5q-88 2 -143.5 35.5t-55.5 108.5q0 72 52 108.5t127 36.5h80v59h-331v95h583
v-95h-136z" />
    <glyph glyph-name="uni0922" unicode="&#x922;" horiz-adv-x="561" 
d="M266 205v86q46 22 99 22q70 0 112 -36t42 -97q0 -73 -59 -119.5t-161 -46.5q-114 0 -187 66t-73 168q0 109 76 169t197 62h23v86h-362v95h615v-95h-136v-188q-55 10 -102 10q-84 0 -138 -35.5t-54 -104.5q0 -58 41 -98.5t105 -40.5q44 0 73 18.5t29 51.5q0 22 -17 35.5
t-46 13.5q-43 0 -77 -22z" />
    <glyph glyph-name="uni0923" unicode="&#x923;" horiz-adv-x="750" 
d="M304 344v221h-142v-221q0 -82 70 -82q72 0 72 82zM777 660v-95h-106v-565h-117v565h-134v-212q0 -93 -50 -141.5t-140 -48.5q-185 0 -185 188v214h-72v95h804z" />
    <glyph glyph-name="uni0924" unicode="&#x924;" horiz-adv-x="600" 
d="M627 660v-95h-106v-565h-117v369h-80q-153 0 -153 -133q0 -64 30 -100t90 -36q13 0 19 1v-98q-22 -2 -36 -2q-103 0 -162 65.5t-59 170.5q0 104 67.5 166.5t197.5 62.5h86v99h-431v95h654z" />
    <glyph glyph-name="uni0925" unicode="&#x925;" horiz-adv-x="661" 
d="M391 507q0 -149 -233 -215q15 -45 52 -69.5t88 -24.5q67 0 116.5 39t49.5 121v302h217v-95h-99v-565h-118v171q-20 -31 -69 -52.5t-107 -21.5q-104 0 -180 69.5t-85 190.5q137 33 197 66t60 87q0 27 -13 44t-39 17t-39.5 -16.5t-13.5 -42.5q0 -21 12 -55h-112
q-12 33 -12 66q0 62 44 103.5t121 41.5q74 0 118.5 -43.5t44.5 -117.5z" />
    <glyph glyph-name="uni0926" unicode="&#x926;" horiz-adv-x="568" 
d="M-27 660h622v-95h-115v-172h-196q-59 0 -93 -31t-34 -84q0 -54 30 -84.5t80 -30.5q49 0 80.5 27.5t37.5 78.5h114v-279h-116v128q-18 -25 -57 -39t-77 -14q-96 0 -154.5 60t-58.5 151q0 93 63 152t179 59h84v78h-389v95z" />
    <glyph glyph-name="uni0927" unicode="&#x927;" horiz-adv-x="640" 
d="M667 660v-95h-106v-565h-117v144q-28 -36 -76.5 -56.5t-105.5 -20.5q-94 0 -154 45t-60 120q0 58 39.5 91.5t106.5 39.5q-63 3 -99 31.5t-36 80.5q0 63 51 90h-137v95h319v-95h-2q-55 0 -84 -21.5t-29 -60.5q0 -71 107 -71h44v-99h-53q-108 0 -108 -72q0 -36 29 -56
t78 -20q77 0 123.5 42t46.5 112v341h223z" />
    <glyph glyph-name="uni0928" unicode="&#x928;" horiz-adv-x="514" 
d="M-27 660h568v-95h-106v-565h-118v321h-144q-18 0 -26 -9.5t-8 -33.5q0 -29 10 -71h-94q-32 57 -32 121q0 40 25.5 63.5t75.5 23.5h193v150h-344v95z" />
    <glyph glyph-name="uni0928093C" unicode="&#x929;" horiz-adv-x="514" 
d="M140 123q28 0 48 -19.5t20 -48.5q0 -28 -20 -47.5t-48 -19.5t-47.5 19.5t-19.5 47.5t19.5 48t47.5 20zM-27 660h568v-95h-106v-565h-118v321h-144q-18 0 -26 -9.5t-8 -33.5q0 -29 10 -71h-94q-32 57 -32 121q0 40 25.5 63.5t75.5 23.5h193v150h-344v95z" />
    <glyph glyph-name="uni092A" unicode="&#x92a;" horiz-adv-x="568" 
d="M371 378v187h-190v-194q0 -55 21.5 -79.5t64.5 -24.5q45 0 74.5 29.5t29.5 81.5zM595 660v-95h-106v-565h-118v221q-46 -48 -123 -48q-185 0 -185 202v190h-90v95h622z" />
    <glyph glyph-name="uni092B" unicode="&#x92b;" horiz-adv-x="824" 
d="M371 378v187h-190v-194q0 -55 21.5 -79t64.5 -24q45 0 74.5 29t29.5 81zM851 565h-362v-114q46 43 118 43q84 0 133.5 -54t49.5 -135q0 -96 -59.5 -148t-150.5 -52q-17 0 -24 1v96q10 -2 17 -2q47 0 73.5 26.5t26.5 77.5q0 41 -24 68.5t-63 27.5q-42 0 -69.5 -27
t-27.5 -72v-301h-118v221q-47 -47 -123 -47q-185 0 -185 200v191h-90v95h878v-95z" />
    <glyph glyph-name="uni092C" unicode="&#x92c;" horiz-adv-x="626" 
d="M366 192l-186 166q-20 -29 -20 -71q0 -53 33.5 -85.5t86.5 -32.5q47 0 86 23zM653 660v-95h-106v-565h-118v143q-63 -66 -164 -66q-91 0 -156.5 60t-65.5 153t62.5 154t164.5 61q46 0 81 -9v-102q-32 11 -72 11q-32 0 -53 -10l184 -161q19 28 19 63v268h-456v95h680z" />
    <glyph glyph-name="uni092D" unicode="&#x92d;" horiz-adv-x="577" 
d="M383 366v294h221v-95h-106v-565h-115v272h-169v-130h-102l-32 69q-27 57 -27 89q0 50 45 61v153q0 54 -46 54q-29 0 -55 -14v92q34 19 80 19q137 0 137 -135v-164h169z" />
    <glyph glyph-name="uni092E" unicode="&#x92e;" horiz-adv-x="580" 
d="M-27 565v95h634v-95h-106v-565h-115v268h-177v-127h-100l-32 71q-28 63 -28 91q0 43 44 54v208h-120zM386 565h-177v-202h177v202z" />
    <glyph glyph-name="uni092F" unicode="&#x92f;" horiz-adv-x="631" 
d="M282 113q-97 0 -166.5 68.5t-84.5 190.5q159 25 159 110q0 51 -30 83h-187v95h685v-95h-106v-565h-117v179q-20 -30 -61 -48t-92 -18zM300 216q62 0 98.5 35t36.5 101v213h-152q23 -34 23 -88q0 -122 -138 -166q12 -43 46.5 -69t85.5 -26z" />
    <glyph glyph-name="uni0930" unicode="&#x930;" horiz-adv-x="401" 
d="M34 265v93h72q103 0 103 83v124h-236v95h455v-95h-102v-131q0 -69 -37.5 -112.5t-104.5 -51.5q-6 -2 -14 -2l208 -268h-141z" />
    <glyph glyph-name="uni0930093C" unicode="&#x931;" horiz-adv-x="401" 
d="M-35 23q0 28 19.5 47.5t47.5 19.5t48 -19.5t20 -47.5t-20 -47.5t-48 -19.5t-47.5 19.5t-19.5 47.5zM34 265v93h72q103 0 103 83v124h-236v95h455v-95h-102v-131q0 -69 -37.5 -112.5t-104.5 -51.5q-6 -2 -14 -2l208 -268h-141z" />
    <glyph glyph-name="uni0932" unicode="&#x932;" horiz-adv-x="751" 
d="M778 660v-95h-106v-565h-119v386q-15 3 -31 3q-49 0 -73 -26.5t-24 -84.5v-67h-118v69q0 98 -69 98q-36 0 -58 -28.5t-22 -86.5q0 -76 40.5 -120.5t122.5 -44.5q24 0 37 2v-96q-26 -3 -51 -3q-121 0 -193 73t-72 191q0 95 49 153t135 58q58 0 94.5 -25t45.5 -66
q26 97 149 97q18 0 38 -5v88h-580v95h805z" />
    <glyph glyph-name="uni0933" unicode="&#x933;" horiz-adv-x="801" 
d="M646 287q0 46 -25.5 74t-70.5 28q-63 0 -92 -90q-5 -17 -14 -53l-2 -9q50 -54 110 -54q43 0 68.5 29t25.5 75zM248 183q17 0 31.5 8t23.5 19t17.5 30t13 33t10.5 35.5t9 31.5q-49 51 -106 51q-43 0 -67.5 -29.5t-24.5 -76.5q0 -46 24.5 -74t68.5 -28zM828 565h-211v-90
q67 -17 107.5 -67t40.5 -121q0 -89 -60 -143.5t-151 -54.5q-94 0 -164 64q-51 -64 -143 -64q-93 0 -152 54t-59 143q0 88 58.5 143.5t148.5 55.5q92 0 160 -61q43 45 102 55v86h-532v95h855v-95z" />
    <glyph glyph-name="uni0933093C" unicode="&#x934;" horiz-adv-x="801" 
d="M218 10q28 0 48 -19.5t20 -47.5t-19.5 -47.5t-48.5 -19.5q-28 0 -47.5 19.5t-19.5 47.5t19.5 47.5t47.5 19.5zM646 287q0 46 -25.5 74t-70.5 28q-63 0 -92 -90q-5 -17 -14 -53l-2 -9q50 -54 110 -54q43 0 68.5 29t25.5 75zM248 183q17 0 31.5 8t23.5 19t17.5 30t13 33
t10.5 35.5t9 31.5q-49 51 -106 51q-43 0 -67.5 -29.5t-24.5 -76.5q0 -46 24.5 -74t68.5 -28zM828 565h-211v-90q67 -17 107.5 -67t40.5 -121q0 -89 -60 -143.5t-151 -54.5q-94 0 -164 64q-51 -64 -143 -64q-93 0 -152 54t-59 143q0 88 58.5 143.5t148.5 55.5q92 0 160 -61
q43 45 102 55v86h-532v95h855v-95z" />
    <glyph glyph-name="uni0935" unicode="&#x935;" horiz-adv-x="592" 
d="M619 660v-95h-106v-565h-118v144q-56 -56 -147 -56q-87 0 -147.5 53.5t-60.5 146.5q0 88 59 146.5t154 58.5q38 0 68 -8v-102q-34 9 -59 9q-45 0 -74.5 -27.5t-29.5 -73.5q0 -51 30 -80t81 -29t88.5 34.5t37.5 82.5v266h-422v95h646z" />
    <glyph glyph-name="uni0936" unicode="&#x936;" horiz-adv-x="700" 
d="M192 440h-113q-16 32 -16 70q0 64 46 109t123 45q85 0 136.5 -53.5t51.5 -135.5q0 -111 -75 -170.5t-175 -59.5h-2l234 -245h-151l-221 241v99h107q79 0 123 35.5t44 100.5q0 90 -71 90q-28 0 -42.5 -19t-14.5 -47t16 -60zM503 660h224v-95h-106v-565h-118v660z" />
    <glyph glyph-name="uni0937" unicode="&#x937;" horiz-adv-x="599" 
d="M404 372v193h-200l200 -204v11zM179 494v-123q0 -55 29.5 -82.5t78.5 -27.5q53 0 88 38zM626 660v-95h-106v-565h-116v217q-54 -49 -137 -49q-91 0 -146 51.5t-55 154.5v191h-93v95h653z" />
    <glyph glyph-name="uni0938" unicode="&#x938;" horiz-adv-x="664" 
d="M280 346h188v219h-165v-125q0 -56 -23 -94zM691 660v-95h-106v-565h-117v251h-157q-78 0 -141 9l185 -260h-141l-191 274v84h69q94 0 94 84v123h-213v95h718z" />
    <glyph glyph-name="uni0939" unicode="&#x939;" horiz-adv-x="543" 
d="M467 408h-250q-44 0 -44 -34t34 -58q43 10 89 10q87 0 139.5 -42t52.5 -103q0 -36 -10 -57h-115q12 19 12 51q0 23 -21.5 39t-60.5 16q-57 0 -88 -23t-31 -58q0 -42 36.5 -67.5t114.5 -25.5q53 0 133 19v-97q-78 -17 -139 -17q-127 0 -194.5 56.5t-67.5 132.5
q0 77 65 127q-69 40 -69 111q0 54 39.5 83t102.5 29h156v65h-378v95h597v-95h-103v-157z" />
    <glyph glyph-name="uni093C" unicode="&#x93c;" horiz-adv-x="0" 
d="M-348 -131q0 28 19.5 48t47.5 20q29 0 48.5 -19.5t19.5 -48.5q0 -28 -20 -47.5t-48 -19.5t-47.5 19.5t-19.5 47.5z" />
    <glyph glyph-name="uni093D" unicode="&#x93d;" horiz-adv-x="534" 
d="M270 -3q-120 0 -222 58v122q45 -30 107 -51.5t115 -21.5q49 0 73.5 19.5t24.5 51.5q0 29 -32.5 58.5t-79 57.5t-93 59.5t-79 75.5t-32.5 94q0 65 43.5 102.5t121.5 37.5h240v-107h-227q-51 0 -51 -41q0 -25 32 -52t77.5 -54.5t91 -59t77.5 -76.5t32 -96
q0 -76 -55.5 -126.5t-163.5 -50.5z" />
    <glyph glyph-name="uni093E" unicode="&#x93e;" 
d="M-27 565v95h329v-95h-106v-565h-117v565h-106z" />
    <glyph glyph-name="uni093F" unicode="&#x93f;" 
d="M666 829v-106q-97 44 -202.5 70t-172.5 26q-46 0 -70.5 -24.5t-24.5 -67.5v-67h106v-95h-106v-565h-117v565h-106v95h106v69q0 85 55.5 137t153.5 52q88 0 176 -22.5t202 -66.5z" />
    <glyph glyph-name="uni0940" unicode="&#x940;" 
d="M195 660h107v-95h-106v-565h-117v565h-106v95h105v69q0 41 -22.5 63.5t-60.5 22.5q-79 0 -79 -86v-22h-118v26q0 90 56 136t141 46q86 0 143 -45.5t57 -135.5v-74z" />
    <glyph glyph-name="uni0941" unicode="&#x941;" horiz-adv-x="0" 
d="M-433 -177v130q51 -54 128.5 -100.5t146.5 -46.5q37 0 57.5 16.5t20.5 43.5q0 24 -18 37.5t-50 13.5q-42 0 -103 -29v102q60 21 105 21q86 0 133 -39t47 -106q0 -68 -50.5 -112.5t-137.5 -44.5q-78 0 -153.5 35.5t-125.5 78.5z" />
    <glyph glyph-name="uni0942" unicode="&#x942;" horiz-adv-x="0" 
d="M-88 -178v-90q-24 -9 -54 -9q-74 0 -121.5 38t-47.5 111q0 60 46 102t119 42q67 0 119 -29.5t81 -76t43.5 -97.5t14.5 -102h-109q0 86 -39.5 148t-104.5 62q-26 0 -42 -14.5t-16 -37.5q0 -25 19 -40.5t48 -15.5q22 0 44 9z" />
    <glyph glyph-name="uni0943" unicode="&#x943;" horiz-adv-x="0" 
d="M-335 -153q0 60 38 98t101 45v21h117v-107h-49q-93 0 -93 -62q0 -25 17.5 -40t49.5 -15q48 0 86 25v-91q-41 -24 -95 -24q-76 0 -124 42t-48 108z" />
    <glyph glyph-name="uni0945" unicode="&#x945;" horiz-adv-x="0" 
d="M-137 735q-95 0 -151.5 45t-56.5 132h114q0 -41 24 -66t70 -25q45 0 68.5 25t23.5 66h114q0 -82 -59 -129.5t-147 -47.5z" />
    <glyph glyph-name="uni0946" unicode="&#x946;" horiz-adv-x="0" 
d="M-284 828h36q169 0 169 -172h-117q-1 41 -14.5 59t-48.5 18h-38q-29 0 -52 3t-49.5 13t-44 28t-29.5 50.5t-12 76.5h118q0 -45 18 -60.5t64 -15.5z" />
    <glyph glyph-name="uni0947" unicode="&#x947;" horiz-adv-x="0" 
d="M-419 805v99q42 7 68 7q109 -1 167 -91l109 -167h-126l-78 115q-29 46 -81 46q-28 0 -59 -9z" />
    <glyph glyph-name="uni0948" unicode="&#x948;" horiz-adv-x="0" 
d="M-194 840l116 -187h-140q-108 69 -181 69q-30 0 -57 -8v89q32 8 57 8q51 0 93.5 -22t123.5 -93l10 -9l-92 112q-52 63 -124 63q-36 0 -68 -9v91q27 8 75 8q118 0 187 -112z" />
    <glyph glyph-name="uni0949" unicode="&#x949;" 
d="M-27 565v95h329v-95h-106v-565h-117v565h-106zM134 735q-95 0 -151.5 45t-56.5 132h114q0 -41 24 -66t70 -25q45 0 68.5 25t23.5 66h114q0 -82 -59 -129.5t-147 -47.5z" />
    <glyph glyph-name="uni094A" unicode="&#x94a;" horiz-adv-x="274" 
d="M196 660h105v-95h-106v-565h-116v565h-106v95h106q-2 39 -15 56t-48 17h-38q-29 0 -52 3t-49.5 13t-44 28t-29.5 50.5t-12 76.5h118q0 -45 18 -60.5t64 -15.5h36q167 0 169 -168z" />
    <glyph glyph-name="uni094B" unicode="&#x94b;" horiz-adv-x="274" 
d="M195 660h106v-95h-106v-565h-116v565h-106v95h96l-73 108q-29 46 -81 46q-27 0 -59 -9v99q42 7 68 7q109 -1 167 -91z" />
    <glyph glyph-name="uni094C" unicode="&#x94c;" 
d="M194 660h108v-95h-106v-565h-117v565h-106v95h74q-98 62 -170 62q-30 0 -57 -8v89q32 8 57 8q51 0 93.5 -22t123.5 -93l10 -9l-92 112q-52 63 -124 63q-36 0 -68 -9v91q27 8 75 8q118 0 187 -112z" />
    <glyph glyph-name="uni094D" unicode="&#x94d;" horiz-adv-x="0" 
d="M73 -238h-141l-121 172h119z" />
    <glyph glyph-name="uni0950" unicode="&#x950;" horiz-adv-x="1236" 
d="M781 169q-72 -115 -168 -115q-85 0 -126 74q-18 -55 -73.5 -92t-129.5 -37q-102 0 -181 43v110q88 -54 177 -54q47 0 75.5 24.5t28.5 65.5q0 75 -105 75h-71v95h32q58 0 84 25.5t26 64.5q0 34 -22 55.5t-60 21.5q-79 0 -140 -45v100q60 42 154 42q85 0 135.5 -45.5
t50.5 -118.5q0 -44 -21.5 -78t-56.5 -50q68 -7 110 -74q34 -58 53 -74q22 -18 47 -18q27 0 52 25t63 83q10 15 33.5 53t35 55t34.5 45t41.5 41t45 23.5t55.5 10.5q87 0 139.5 -60.5t52.5 -162.5q0 -94 -55.5 -162.5t-148.5 -68.5q-53 0 -97 18v102q35 -23 85 -23q46 0 73 37
t27 101q0 47 -18 78.5t-50 31.5q-33 0 -62.5 -36t-124.5 -186zM635 745q0 26 18 44.5t45 18.5q26 0 44.5 -18.5t18.5 -44.5q0 -27 -18.5 -45t-44.5 -18q-27 0 -45 18t-18 45zM698 513q-97 0 -156 45t-59 132h114q0 -41 27.5 -66.5t73.5 -25.5t72.5 25.5t26.5 66.5h114
q0 -83 -62 -130t-151 -47z" />
    <glyph glyph-name="uni0951" unicode="&#x951;" horiz-adv-x="0" 
d="M-180 951h94v-245h-94v245z" />
    <glyph glyph-name="uni0952" unicode="&#x952;" horiz-adv-x="0" 
d="M-69 -232h-465v90h465v-90z" />
    <glyph glyph-name="uni0953" unicode="&#x953;" horiz-adv-x="0" 
d="M-306 893l73 60l157 -189l-72 -60z" />
    <glyph glyph-name="uni0954" unicode="&#x954;" horiz-adv-x="0" 
d="M-51 953l72 -60l-157 -189l-73 60z" />
    <glyph glyph-name="uni0915093C" unicode="&#x958;" horiz-adv-x="795" 
d="M167 20q29 0 48.5 -20t19.5 -48t-20 -47.5t-48 -19.5t-47.5 19.5t-19.5 47.5t19.5 48t47.5 20zM822 565h-366v-123q46 43 110 43q87 0 140 -53t53 -137q0 -91 -60.5 -145t-152.5 -54q-16 0 -23 1v95q6 -1 18 -1q45 0 72.5 28.5t27.5 73.5q0 42 -25.5 70t-68.5 28
q-39 0 -65 -27.5t-26 -70.5v-293h-118v128q-45 -42 -110 -42q-86 0 -139.5 53t-53.5 137q0 91 60.5 145t152.5 54q15 0 23 -1v-95q-6 1 -18 1q-45 0 -72.5 -28.5t-27.5 -73.5q0 -42 25.5 -70t69.5 -28q38 0 64 27.5t26 70.5v287h-365v95h849v-95z" />
    <glyph glyph-name="uni0916093C" unicode="&#x959;" horiz-adv-x="818" 
d="M87 16q29 0 48.5 -20t19.5 -48t-20 -47.5t-48 -19.5t-47.5 19.5t-19.5 47.5t19.5 48t47.5 20zM845 660v-95h-106v-565h-118v149q-42 -33 -105 -33q-75 0 -126 50.5t-51 130.5q0 78 53 128t132 50q17 0 35 -4v-88q-5 2 -20 2q-40 0 -64.5 -26t-24.5 -66t24 -64t61 -24
q38 0 62 22.5t24 64.5v273h-295v-131q0 -69 -38 -112t-106 -54l-11 -1l209 -267h-142l-204 265v93h72q103 0 103 84v123h-236v95h872z" />
    <glyph glyph-name="uni0917093C" unicode="&#x95a;" horiz-adv-x="581" 
d="M151 90q29 0 48.5 -20t19.5 -48t-20 -47.5t-48 -19.5t-47.5 19.5t-19.5 47.5t19.5 48t47.5 20zM-27 660h635v-95h-106v-565h-116v565h-135v-221q0 -69 -37.5 -104t-100.5 -35q-44 0 -83 14v95q25 -13 54 -13q50 0 50 53v211h-161v95z" />
    <glyph glyph-name="uni091C093C" unicode="&#x95b;" horiz-adv-x="655" 
d="M166 -16q28 0 48 -20t20 -48t-20 -47.5t-48 -19.5t-47.5 19.5t-19.5 47.5t19.5 48t47.5 20zM-27 660h710v-95h-107v-565h-118v362h-164q64 -40 64 -127q0 -81 -55.5 -129t-146.5 -48q-70 0 -126 22v104q49 -26 105 -26q51 0 81 24.5t30 70.5q0 52 -40 80.5t-115 28.5v97
h367v106h-485v95z" />
    <glyph glyph-name="uni0921093C" unicode="&#x95c;" horiz-adv-x="529" 
d="M246 -66q28 0 48 -20t20 -48t-20 -47.5t-48 -19.5t-47.5 19.5t-19.5 47.5t19.5 48t47.5 20zM420 565v-151v-2h-196q-63 0 -63 -48q0 -28 28.5 -38t94.5 -11q192 -3 192 -148q-1 -73 -61 -120t-163 -47q-118 0 -206 48v110q100 -61 206 -61q51 0 79 17.5t28 47.5
q0 31 -26 42.5t-89 12.5q-88 2 -143.5 35.5t-55.5 108.5q0 72 52 108.5t127 36.5h80v59h-331v95h583v-95h-136z" />
    <glyph glyph-name="uni0922093C" unicode="&#x95d;" horiz-adv-x="561" 
d="M224 -131q0 28 19.5 48t47.5 20q29 0 48.5 -19.5t19.5 -48.5q0 -28 -20 -47.5t-48 -19.5t-47.5 19.5t-19.5 47.5zM266 205v86q46 22 99 22q70 0 112 -36t42 -97q0 -73 -59 -119.5t-161 -46.5q-114 0 -187 66t-73 168q0 109 76 169t197 62h23v86h-362v95h615v-95h-136
v-188q-55 10 -102 10q-84 0 -138 -35.5t-54 -104.5q0 -58 41 -98.5t105 -40.5q44 0 73 18.5t29 51.5q0 22 -17 35.5t-46 13.5q-43 0 -77 -22z" />
    <glyph glyph-name="uni092B093C" unicode="&#x95e;" horiz-adv-x="824" 
d="M143 90q29 0 48.5 -20t19.5 -48t-20 -47.5t-48 -19.5t-47.5 19.5t-19.5 47.5t19.5 48t47.5 20zM371 378v187h-190v-194q0 -55 21.5 -79t64.5 -24q45 0 74.5 29t29.5 81zM851 565h-362v-114q46 43 118 43q84 0 133.5 -54t49.5 -135q0 -96 -59.5 -148t-150.5 -52
q-17 0 -24 1v96q10 -2 17 -2q47 0 73.5 26.5t26.5 77.5q0 41 -24 68.5t-63 27.5q-42 0 -69.5 -27t-27.5 -72v-301h-118v221q-47 -47 -123 -47q-185 0 -185 200v191h-90v95h878v-95z" />
    <glyph glyph-name="uni092F093C" unicode="&#x95f;" horiz-adv-x="631" 
d="M282 113q-97 0 -166.5 68.5t-84.5 190.5q159 25 159 110q0 51 -30 83h-187v95h685v-95h-106v-565h-117v179q-20 -30 -61 -48t-92 -18zM300 216q62 0 98.5 35t36.5 101v213h-152q23 -34 23 -88q0 -122 -138 -166q12 -43 46.5 -69t85.5 -26zM77 -16q0 28 19.5 48t47.5 20
t48 -20t20 -48t-20 -47.5t-48 -19.5t-47.5 19.5t-19.5 47.5z" />
    <glyph glyph-name="uni0960" unicode="&#x960;" horiz-adv-x="773" 
d="M455 565v-204l82 42v82h112v-50q0 -44 14 -79t30.5 -53.5t31 -45.5t15.5 -56q2 -77 -43 -114t-125 -37q-24 0 -47 4l1 101q18 -5 34 -5q67 -2 67 57q0 16 -9.5 30.5t-25.5 33.5t-25 34l-112 -57v-248h-115v208l-287 -145v117l173 84q-10 56 -38 84.5t-79 28.5
q-29 0 -60 -12v105q35 10 71 10q164 0 199 -171l21 11v245h-367v95h827v-95h-345z" />
    <glyph glyph-name="uni0961" unicode="&#x961;" horiz-adv-x="820" 
d="M709 565v-254q0 -40 -17.5 -73.5t-39 -52.5t-39 -42.5t-17.5 -44.5q0 -22 17.5 -34.5t46.5 -12.5h46v-95h-70q-27 0 -42 -15.5t-15 -39.5t16.5 -41.5t46.5 -17.5q37 0 98 26v-103q-46 -19 -100 -19q-80 0 -130.5 43.5t-50.5 111.5q0 71 60 109q-40 33 -40 87
q0 26 11.5 48.5t28 39l33 33t28 40.5t11.5 53v102h-54q-53 0 -76 -26.5t-23 -89.5v-68h-117v68q0 118 -79 118q-42 0 -67.5 -33t-25.5 -94q0 -167 163 -199l-2 -98q-130 22 -204.5 98t-74.5 201q0 96 54.5 157.5t150.5 61.5q101 0 144 -66q40 64 152 64h59v58h-615v95h839
v-95h-106z" />
    <glyph glyph-name="uni0964" unicode="&#x964;" horiz-adv-x="426" 
d="M194 0v660h118v-660h-118z" />
    <glyph glyph-name="uni0965" unicode="&#x965;" horiz-adv-x="663" 
d="M194 0v660h118v-660h-118zM431 0v660h118v-660h-118z" />
    <glyph glyph-name="uni0966" unicode="&#x966;" horiz-adv-x="544" 
d="M37 330q0 155 61 245.5t173 90.5q113 0 174.5 -90.5t61.5 -245.5q0 -154 -60.5 -246t-175.5 -92q-112 0 -173 92t-61 246zM160 330q0 -110 29.5 -169.5t81.5 -59.5q54 0 83.5 59t29.5 170t-30.5 169t-82.5 58q-51 0 -81 -58.5t-30 -168.5z" />
    <glyph glyph-name="uni0967" unicode="&#x967;" horiz-adv-x="390" 
d="M42 427v125l172 102h107v-654h-120v524z" />
    <glyph glyph-name="uni0968" unicode="&#x968;" horiz-adv-x="512" 
d="M208 103h261v-103h-427v96q117 83 202 177.5t85 170.5q0 50 -29.5 78t-84.5 28q-81 0 -159 -62v117q33 25 82.5 41t97.5 16q96 0 157 -52.5t61 -147.5q0 -177 -246 -359z" />
    <glyph glyph-name="uni0969" unicode="&#x969;" horiz-adv-x="492" 
d="M71 512v113q68 37 143 37q103 0 162 -50.5t59 -127.5q0 -113 -103 -154q56 -14 87 -52.5t31 -97.5q0 -82 -61 -133.5t-170 -51.5q-102 0 -171 33v117q76 -42 163 -42q55 0 85.5 25.5t30.5 65.5q0 87 -142 87h-38v101h38q54 0 90 23t36 65q0 84 -103 84q-69 0 -137 -42z
" />
    <glyph glyph-name="uni096A" unicode="&#x96a;" horiz-adv-x="575" 
d="M162 250h172v329zM540 250v-103h-86v-147h-120v147h-291v103l218 405h193v-405h86z" />
    <glyph glyph-name="uni096B" unicode="&#x96b;" horiz-adv-x="520" 
d="M202 552v-144q29 6 56 6q105 0 162.5 -54t57.5 -147q0 -100 -66 -160t-185 -60q-103 0 -173 35v115q66 -40 153 -40q147 0 147 113q0 44 -31.5 69t-89.5 25q-76 0 -149 -34v379h352v-103h-234z" />
    <glyph glyph-name="uni096C" unicode="&#x96c;" horiz-adv-x="545" 
d="M286 92q46 0 72 33t26 86q0 49 -26 78t-71 29q-67 0 -116 -52q4 -91 35.5 -132.5t79.5 -41.5zM459 653v-113q-40 20 -91 20q-78 0 -127 -53.5t-64 -137.5q58 53 139 53q87 0 139.5 -57.5t52.5 -152.5q0 -99 -60.5 -163.5t-162.5 -64.5q-118 0 -178 84.5t-60 226.5
q0 166 86.5 270t226.5 104q53 0 99 -16z" />
    <glyph glyph-name="uni096D" unicode="&#x96d;" horiz-adv-x="494" 
d="M30 655h434v-104l-260 -551h-127l261 551h-308v104z" />
    <glyph glyph-name="uni096E" unicode="&#x96e;" horiz-adv-x="543" 
d="M270 89q54 0 82 26.5t28 65.5q0 40 -28 66.5t-82 27.5q-53 -1 -80 -30t-27 -69q0 -36 27 -61.5t80 -25.5zM269 566q-46 0 -70.5 -27t-24.5 -65q0 -45 28 -68.5t70 -23.5q41 0 68 24t27 69q0 40 -22.5 65.5t-75.5 25.5zM399 331q102 -42 102 -154q0 -84 -65 -135t-167 -51
t-164.5 49t-62.5 132q0 111 102 156q-92 45 -92 144q0 89 62.5 140.5t154.5 51.5q96 0 158 -48.5t62 -143.5t-90 -141z" />
    <glyph glyph-name="uni096F" unicode="&#x96f;" horiz-adv-x="538" 
d="M271 330q66 0 109 53q-4 84 -34 127.5t-80 43.5q-45 0 -72 -31t-27 -82t28 -81t76 -30zM86 11v115q54 -24 106 -24q84 0 128.5 43.5t56.5 133.5q-47 -49 -137 -49q-85 0 -141 57t-56 152t58.5 159.5t159.5 64.5q114 0 177 -83.5t63 -221.5q0 -179 -78 -272.5t-220 -93.5
q-65 0 -117 19z" />
    <glyph glyph-name="uni0970" unicode="&#x970;" horiz-adv-x="476" 
d="M61 313q0 74 52 126t126 52t126 -52t52 -126q0 -73 -52.5 -125.5t-125.5 -52.5t-125.5 52.5t-52.5 125.5zM160 313q0 -32 23 -55.5t56 -23.5t56 23.5t23 55.5q0 33 -23 56.5t-56 23.5t-56 -23.5t-23 -56.5z" />
    <glyph glyph-name="uni097D" unicode="&#x97d;" horiz-adv-x="595" 
d="M111 553v115q67 36 159 36q93 0 147.5 -46.5t54.5 -129.5q0 -47 -26 -91.5t-56.5 -75.5t-56.5 -77.5t-26 -96.5v-187h-115v197q0 57 24.5 108t54 81t54 64.5t24.5 64.5q0 39 -24 62.5t-71 23.5q-72 0 -143 -48z" />
    <glyph glyph-name="Wgrave" unicode="&#x1e80;" horiz-adv-x="958" 
d="M438 892l91 -169h-101l-116 169h126zM431 664h102l69 -239l80 -290q25 139 62 291l61 248h128l-172 -674h-146l-61 213q-25 85 -42.5 150t-23.5 87l-5 23q-14 -70 -70 -260l-63 -213h-145l-180 674h133l63 -249q16 -67 32 -139t24 -110l8 -39q32 126 78 288z" />
    <glyph glyph-name="wgrave" unicode="&#x1e81;" horiz-adv-x="801" 
d="M356 725l91 -169h-101l-116 169h126zM173 0l-160 507h125l46 -167q20 -72 33.5 -128.5t16.5 -76.5l4 -20q10 61 58 225l49 167h109l49 -167q22 -74 36.5 -130.5t18.5 -75.5l3 -20q10 59 59 226l48 167h120l-161 -507h-130l-45 166q-18 65 -31 118.5t-17 73.5l-4 21
q-13 -66 -52 -213l-45 -166h-130z" />
    <glyph glyph-name="Wacute" unicode="&#x1e82;" horiz-adv-x="958" 
d="M431 664h102l69 -239l80 -290q25 139 62 291l61 248h128l-172 -674h-146l-61 213q-25 85 -42.5 150t-23.5 87l-5 23q-14 -70 -70 -260l-63 -213h-145l-180 674h133l63 -249q16 -67 32 -139t24 -110l8 -39q32 126 78 288zM444 723l91 169h126l-116 -169h-101z" />
    <glyph glyph-name="wacute" unicode="&#x1e83;" horiz-adv-x="801" 
d="M173 0l-160 507h125l46 -167q20 -72 33.5 -128.5t16.5 -76.5l4 -20q10 61 58 225l49 167h109l49 -167q22 -74 36.5 -130.5t18.5 -75.5l3 -20q10 59 59 226l48 167h120l-161 -507h-130l-45 166q-18 65 -31 118.5t-17 73.5l-4 21q-13 -66 -52 -213l-45 -166h-130zM358 556
l91 169h126l-116 -169h-101z" />
    <glyph glyph-name="Wdieresis" unicode="&#x1e84;" horiz-adv-x="958" 
d="M431 664h102l69 -239l80 -290q25 139 62 291l61 248h128l-172 -674h-146l-61 213q-25 85 -42.5 150t-23.5 87l-5 23q-14 -70 -70 -260l-63 -213h-145l-180 674h133l63 -249q16 -67 32 -139t24 -110l8 -39q32 126 78 288zM533 808q0 29 20.5 49t50.5 20q31 0 51 -20
t20 -49q0 -30 -20 -50t-51 -20q-30 0 -50.5 20t-20.5 50zM291 808q0 29 20 49t51 20q30 0 50 -20t20 -49q0 -30 -20 -50t-50 -20q-31 0 -51 20t-20 50z" />
    <glyph glyph-name="wdieresis" unicode="&#x1e85;" horiz-adv-x="801" 
d="M173 0l-160 507h125l46 -167q20 -72 33.5 -128.5t16.5 -76.5l4 -20q10 61 58 225l49 167h109l49 -167q22 -74 36.5 -130.5t18.5 -75.5l3 -20q10 59 59 226l48 167h120l-161 -507h-130l-45 166q-18 65 -31 118.5t-17 73.5l-4 21q-13 -66 -52 -213l-45 -166h-130zM450 641
q0 29 20.5 49t50.5 20q31 0 51 -20t20 -49q0 -30 -20 -50t-51 -20q-30 0 -50.5 20t-20.5 50zM208 641q0 29 20 49t51 20q30 0 50 -20t20 -49q0 -30 -20 -50t-50 -20q-31 0 -51 20t-20 50z" />
    <glyph glyph-name="Ygrave" unicode="&#x1ef2;" horiz-adv-x="624" 
d="M369 723h-101l-116 169h126zM606 674l-232 -424v-250h-126v246l-230 428h147l45 -98q39 -85 64 -142.5t30 -71.5l6 -15q9 37 103 229l46 98h147z" />
    <glyph glyph-name="ygrave" unicode="&#x1ef3;" horiz-adv-x="517" 
d="M224 725l91 -169h-101l-116 169h126zM206 10l-200 497h133l59 -162q27 -72 43.5 -121t20.5 -62l3 -14q10 35 64 197l53 162h126l-183 -493q-76 -203 -232 -203q-29 0 -50 5v99q16 -4 34 -4q91 0 129 99z" />
    <glyph glyph-name="uni200B" unicode="&#x200b;" horiz-adv-x="0" 
 />
    <glyph glyph-name="uni200C" unicode="&#x200c;" horiz-adv-x="0" 
d="M24 -230h-47v1041h47v-1041z" />
    <glyph glyph-name="uni200D" unicode="&#x200d;" horiz-adv-x="0" 
d="M129 593l-33 -33l-72 75v-865h-47v865l-69 -73l-33 33l93 93l-95 95l33 33l95 -95l96 95l32 -32l-96 -96z" />
    <glyph glyph-name="endash" unicode="&#x2013;" horiz-adv-x="549" 
d="M50 223v92h450v-92h-450z" />
    <glyph glyph-name="emdash" unicode="&#x2014;" horiz-adv-x="831" 
d="M50 226v92h731v-92h-731z" />
    <glyph glyph-name="quoteleft" unicode="&#x2018;" horiz-adv-x="234" 
d="M252 694l-94 -247h-137l130 247h101z" />
    <glyph glyph-name="quoteright" unicode="&#x2019;" horiz-adv-x="234" 
d="M22 447l94 247h137l-129 -247h-102z" />
    <glyph glyph-name="quotesinglbase" unicode="&#x201a;" horiz-adv-x="234" 
d="M-4 -126l95 247h137l-130 -247h-102z" />
    <glyph glyph-name="quotedblleft" unicode="&#x201c;" horiz-adv-x="403" 
d="M253 694l-97 -247h-135l134 247h98zM422 694l-91 -247h-127l120 247h98z" />
    <glyph glyph-name="quotedblright" unicode="&#x201d;" horiz-adv-x="403" 
d="M191 447l97 247h135l-134 -247h-98zM22 447l91 247h126l-119 -247h-98z" />
    <glyph glyph-name="quotedblbase" unicode="&#x201e;" horiz-adv-x="403" 
d="M169 -126l96 247h135l-133 -247h-98zM0 -126l91 247h126l-119 -247h-98z" />
    <glyph glyph-name="dagger" unicode="&#x2020;" horiz-adv-x="546" 
d="M511 516v-100h-186v-416h-108v416h-182v100h182v158h108v-158h186z" />
    <glyph glyph-name="daggerdbl" unicode="&#x2021;" horiz-adv-x="567" 
d="M522 416h-186v-154h186v-100h-186v-162h-108v162h-183v100h183v154h-183v100h183v158h108v-158h186v-100z" />
    <glyph glyph-name="bullet" unicode="&#x2022;" horiz-adv-x="434" 
d="M85 356q0 57 37.5 95t94.5 38q56 0 94.5 -38.5t38.5 -94.5t-38 -94.5t-94 -38.5q-57 0 -95 38t-38 95z" />
    <glyph glyph-name="ellipsis" unicode="&#x2026;" horiz-adv-x="855" 
d="M51 70q0 32 23 54.5t55 22.5t54.5 -22.5t22.5 -54.5t-22.5 -55t-54.5 -23t-55 23t-23 55zM350 70q0 32 23 54.5t55 22.5t54.5 -22.5t22.5 -54.5t-22.5 -55t-54.5 -23t-55 23t-23 55zM649 70q0 32 23 54.5t55 22.5t54.5 -22.5t22.5 -54.5t-22.5 -55t-54.5 -23t-55 23
t-23 55z" />
    <glyph glyph-name="perthousand" unicode="&#x2030;" horiz-adv-x="1336" 
d="M217 -1l371 692h111l-372 -692h-110zM521 170q0 74 52.5 126t125.5 52t125.5 -52t52.5 -126t-52.5 -126t-125.5 -52t-125.5 52t-52.5 126zM45 525q0 74 52 126t126 52t126 -52t52 -126q0 -73 -52.5 -125.5t-125.5 -52.5t-125.5 52.5t-52.5 125.5zM144 525q0 -32 23 -55.5
t56 -23.5t56 23.5t23 55.5q0 33 -23 56.5t-56 23.5t-56 -23.5t-23 -56.5zM620 170q0 -32 23.5 -55.5t55.5 -23.5q33 0 56.5 23.5t23.5 55.5q0 33 -23.5 56.5t-56.5 23.5q-32 0 -55.5 -23.5t-23.5 -56.5zM942 170q0 74 52 126t126 52t126 -52t52 -126t-52 -126t-126 -52
t-126 52t-52 126zM1041 170q0 -32 23 -55.5t56 -23.5q32 0 55.5 23.5t23.5 55.5q0 33 -23.5 56.5t-55.5 23.5q-33 0 -56 -23.5t-23 -56.5z" />
    <glyph glyph-name="guilsinglleft" unicode="&#x2039;" horiz-adv-x="344" 
d="M306 415l-146 -162l146 -162h-127l-152 162l152 162h127z" />
    <glyph glyph-name="guilsinglright" unicode="&#x203a;" horiz-adv-x="343" 
d="M165 415l152 -162l-152 -162h-127l146 162l-146 162h127z" />
    <glyph glyph-name="fraction" unicode="&#x2044;" horiz-adv-x="282" 
d="M231 498l-163 -284h-57l163 284h57z" />
    <glyph glyph-name="foursuperior" unicode="&#x2074;" horiz-adv-x="398" 
d="M115 558h111v210zM365 558v-71h-57v-94h-82v94h-191v71l144 267h129v-267h57z" />
    <glyph glyph-name="Euro" unicode="&#x20ac;" horiz-adv-x="610" 
d="M570 630v-121q-53 39 -127 39q-119 0 -167 -106h187v-78h-208q-3 -21 -3 -43q0 -13 2 -35h209v-77h-189q22 -51 65 -78t99 -27q76 0 132 40v-121q-59 -31 -144 -31q-105 0 -180.5 58.5t-105.5 158.5h-95v77h81q-1 12 -1 36q0 14 2 42h-82v78h96q29 104 106 162t177 58
q90 0 146 -32z" />
    <glyph glyph-name="uni20B9" unicode="&#x20b9;" horiz-adv-x="552" 
d="M508 581h-156q34 -34 46 -78h110v-93h-103q-10 -76 -61.5 -122t-139.5 -54l195 -234h-152l-185 233v97h91q112 0 130 80h-221v93h216q-29 78 -127 78h-89v93h446v-93z" />
    <glyph glyph-name="trademark" unicode="&#x2122;" horiz-adv-x="731" 
d="M290 331l28 343h91l44 -119q16 -40 26.5 -71.5t12.5 -43.5l3 -12q11 38 44 127l46 119h91l32 -343h-80l-10 129q-3 32 -3 62.5t1 45.5l1 14q-10 -47 -39 -123l-46 -123h-72l-44 123q-12 33 -21 63.5t-13 45.5l-3 14q5 -50 0 -123l-9 -128h-80zM7 603v71h250v-71h-84v-272
h-81v272h-85z" />
    <glyph glyph-name="uni2126" unicode="&#x2126;" horiz-adv-x="786" 
d="M599 104h139v-104h-300v104q66 15 99 80t33 160q0 106 -46 166t-131 60q-84 0 -130 -60.5t-46 -165.5q0 -93 33.5 -158.5t97.5 -81.5v-104h-300v104h139q-105 83 -105 240q0 155 83.5 248.5t227.5 93.5q146 0 229 -93t83 -249q0 -158 -106 -240z" />
    <glyph glyph-name="partialdiff" unicode="&#x2202;" horiz-adv-x="538" 
d="M259 99q53 0 85 44.5t34 133.5q-45 48 -115 48q-45 0 -74 -31t-29 -83q0 -50 26.5 -81t72.5 -31zM116 674h167q88 -64 147.5 -174.5t59.5 -214.5q0 -138 -61 -216t-171 -78q-105 0 -163 63.5t-58 161.5q0 95 60.5 154t144.5 59q70 0 120 -40q-28 85 -95.5 159.5
t-150.5 125.5z" />
    <glyph glyph-name="Delta" unicode="&#x2206;" horiz-adv-x="657" 
d="M168 103h321l-55 163l-105 315q-25 -72 -106 -315zM412 674l212 -586v-88h-590v88l215 586h163z" />
    <glyph glyph-name="product" unicode="&#x220f;" horiz-adv-x="627" 
d="M559 674v-854h-127v745h-215v-540q0 -210 -172 -210q-37 0 -69 12v111q24 -13 49 -13q35 0 50 23t15 73v653h469z" />
    <glyph glyph-name="summation" unicode="&#x2211;" horiz-adv-x="468" 
d="M488 674v-104h-323l156 -326l-157 -340h324v-104h-458v104l159 340l-159 326v104h458z" />
    <glyph glyph-name="minus" unicode="&#x2212;" horiz-adv-x="576" 
d="M50 286v107h476v-107h-476z" />
    <glyph glyph-name="uni2215" unicode="&#x2215;" horiz-adv-x="680" 
d="M441 498l-163 -284h-57l163 284h57z" />
    <glyph glyph-name="uni2219" unicode="&#x2219;" horiz-adv-x="288" 
d="M66 337q0 32 23 55t55 23t55 -23t23 -55t-23 -55t-55 -23t-55 23t-23 55z" />
    <glyph glyph-name="radical" unicode="&#x221a;" horiz-adv-x="798" 
d="M259 446l91 -266q23 -66 42.5 -130t27.5 -94.5t9 -36.5l3 13q2 13 7.5 37t13 54.5t19 73t24.5 85.5q96 309 221 721h127l-342 -1096h-148l-197 543h-128l24 96h206z" />
    <glyph glyph-name="infinity" unicode="&#x221e;" horiz-adv-x="832" 
d="M153 343q0 -35 22 -56.5t60 -21.5q61 0 115 80q-20 22 -34 35.5t-36.5 26t-44.5 12.5q-39 0 -60.5 -20.5t-21.5 -55.5zM415 273q-25 -30 -46 -48.5t-59.5 -36t-82.5 -17.5q-87 0 -133.5 44.5t-46.5 124.5q0 78 50 126t134 48q58 0 100.5 -26.5t84.5 -74.5q84 103 189 103
q85 0 132.5 -45t47.5 -123t-50.5 -126.5t-133.5 -48.5q-101 0 -186 100zM677 345q0 33 -21 55t-58 22q-60 0 -117 -81q22 -23 36 -36t36 -25t44 -12q39 0 59.5 20t20.5 57z" />
    <glyph glyph-name="approxequal" unicode="&#x2248;" horiz-adv-x="600" 
d="M487 317l78 -62q-62 -94 -151 -94q-50 0 -112 27.5t-92 27.5q-57 0 -101 -58l-77 62q70 96 156 96q57 0 119.5 -27.5t87.5 -27.5q50 0 92 56zM487 519l78 -61q-63 -95 -151 -95q-50 0 -112 28t-92 28q-56 0 -101 -59l-77 62q69 97 156 97q57 0 119.5 -28t87.5 -28
q50 0 92 56z" />
    <glyph glyph-name="notequal" unicode="&#x2260;" horiz-adv-x="576" 
d="M526 402h-176l-57 -123h233v-98h-278l-38 -83h-68l38 83h-130v98h176l57 123h-233v97h278l38 83h67l-38 -83h131v-97z" />
    <glyph glyph-name="lessequal" unicode="&#x2264;" horiz-adv-x="571" 
d="M45 97v98h476v-98h-476zM521 581v-106l-407 -62l407 -62v-106l-476 91v155z" />
    <glyph glyph-name="greaterequal" unicode="&#x2265;" horiz-adv-x="571" 
d="M50 97v98h476v-98h-476zM50 581l476 -90v-155l-476 -91v106l407 62l-407 62v106z" />
    <glyph glyph-name="lozenge" unicode="&#x25ca;" horiz-adv-x="589" 
d="M395 279l33 58l-33 58q-32 54 -57 100t-34 65l-10 19q-29 -62 -99 -184l-32 -58l32 -58q31 -54 56 -100t34 -65l9 -19q29 62 101 184zM358 674l193 -337l-193 -337h-130l-190 337l190 337h130z" />
    <glyph glyph-name="uni25CC" unicode="&#x25cc;" horiz-adv-x="701" 
d="M167 528q0 19 12.5 31.5t31.5 12.5t31.5 -12.5t12.5 -31.5q0 -20 -12.5 -32.5t-31.5 -12.5t-31.5 12.5t-12.5 32.5zM85 418q0 19 13 31.5t33 12.5q18 0 31 -12.5t13 -31.5t-13 -31.5t-31 -12.5q-20 0 -33 12.5t-13 31.5zM72 292q0 19 12.5 32t31.5 13t31.5 -12.5
t12.5 -32.5q0 -19 -12.5 -31t-31.5 -12t-31.5 12t-12.5 31zM124 176q0 19 12.5 31.5t31.5 12.5t31.5 -12.5t12.5 -31.5t-12.5 -31.5t-31.5 -12.5q-20 0 -32 12t-12 32zM225 101q0 18 13 31t32 13t31.5 -13t12.5 -31q0 -20 -12.5 -33t-31.5 -13t-32 13t-13 33zM352 85
q0 19 12 31.5t32 12.5t32.5 -12.5t12.5 -31.5t-12.5 -31.5t-32.5 -12.5t-32 12.5t-12 31.5zM473 138q0 19 12.5 31.5t31.5 12.5t32 -12.5t13 -31.5t-13 -31.5t-32 -12.5t-31.5 12.5t-12.5 31.5zM546 236q0 20 13 32.5t32 12.5q18 0 30.5 -13t12.5 -32t-12.5 -31.5
t-30.5 -12.5q-19 0 -32 12.5t-13 31.5zM556 370q0 20 12 32t32 12q19 0 31.5 -12.5t12.5 -31.5t-12.5 -31.5t-31.5 -12.5q-20 0 -32 12t-12 32zM506 488q0 19 12.5 32t31.5 13t31.5 -12.5t12.5 -32.5q0 -19 -12.5 -31.5t-31.5 -12.5t-31.5 12.5t-12.5 31.5zM411 556
q0 20 12.5 32.5t32.5 12.5q19 0 31 -12.5t12 -32.5q0 -18 -12.5 -31t-30.5 -13q-19 0 -32 13t-13 31zM285 571q0 19 12.5 31.5t31.5 12.5t31.5 -12.5t12.5 -31.5t-12.5 -31.5t-31.5 -12.5t-31.5 12.5t-12.5 31.5z" />
    <glyph glyph-name="commaaccent" unicode="&#xf6c3;" horiz-adv-x="458" 
d="M130 -255l76 204h129l-115 -204h-90z" />
    <glyph glyph-name="ff" unicode="&#xfb00;" horiz-adv-x="614" 
d="M379 507v30q0 34 8 64q-48 17 -87 17q-38 0 -57 -18.5t-19 -63.5v-29h155zM621 709v-101q-26 10 -50 10q-73 0 -73 -82v-29h102v-90h-102v-417h-119v417h-155v-417h-120v417h-74v90h74v30q0 85 47.5 133t132.5 48q82 0 156 -35q44 35 115 35q38 0 66 -9z" />
    <glyph glyph-name="fi" unicode="&#xfb01;" horiz-adv-x="552" 
d="M499 507v-507h-120v417h-155v-417h-120v417h-74v90h74v30q0 85 47 133t132 48q86 0 169 -39v-101q-85 40 -154 40q-37 0 -55.5 -18.5t-18.5 -63.5v-29h275z" />
    <glyph glyph-name="fl" unicode="&#xfb02;" horiz-adv-x="562" 
d="M104 507v30q0 85 47 133t131 48q99 0 215 -58v-660h-121v607q-39 11 -73 11q-39 0 -59 -17.5t-20 -64.5v-29h101v-90h-101v-417h-120v417h-74v90h74z" />
    <glyph glyph-name="ffi" unicode="&#xfb03;" horiz-adv-x="900" 
d="M379 507v30q0 34 8 64q-48 17 -87 17q-38 0 -57 -18.5t-19 -63.5v-29h155zM773 507v-507h-120v417h-155v-417h-119v417h-155v-417h-120v417h-74v90h74v30q0 85 47.5 133t132.5 48q82 0 156 -35q44 35 117 35q85 0 170 -39v-101q-87 40 -154 40q-37 0 -56 -18.5t-19 -63.5
v-29h275z" />
    <glyph glyph-name="ffl" unicode="&#xfb04;" horiz-adv-x="836" 
d="M379 507v30q0 34 8 64q-48 17 -87 17q-38 0 -57 -18.5t-19 -63.5v-29h155zM104 507v30q0 85 47.5 133t132.5 48q82 0 156 -35q46 35 117 35q100 0 214 -58v-660h-120v607q-39 11 -73 11q-39 0 -59 -17.5t-20 -64.5v-29h101v-90h-101v-417h-120v417h-155v-417h-120v417
h-74v90h74z" />
    <glyph glyph-name="itfLogo" horiz-adv-x="1708" 
d="M147 0v660h204v-660h-204zM393 467v193h204v-193h-204zM639 0v660h203v-660h-203zM884 467v193h204v-193h-204zM1130 0v660h204v-660h-204zM1375 467v193h204v-193h-204zM1375 233v193h204v-193h-204z" />
    <glyph glyph-name="uni0915094D" horiz-adv-x="536" 
d="M456 565v-123q46 43 110 43q91 0 144 -58l-83 -85q-22 49 -80 49q-39 0 -65 -27.5t-26 -70.5v-293h-118v128q-45 -42 -110 -42q-86 0 -139.5 53t-53.5 137q0 91 60.5 145t152.5 54q15 0 23 -1v-95q-6 1 -18 1q-45 0 -72.5 -28.5t-27.5 -73.5q0 -42 25.5 -70t69.5 -28
q38 0 64 27.5t26 70.5v287h-365v95h590v-95h-107z" />
    <glyph glyph-name="uni0916094D" horiz-adv-x="611" 
d="M540 301v-82q-24 -9 -51 -9q-59 0 -99 38.5t-40 98.5q0 65 48.5 109t124.5 44q95 0 150.5 -55.5t55.5 -143.5q0 -119 -92 -196t-228 -77q-128 0 -219.5 72.5t-136.5 194.5v93h67q40 0 54.5 18t14.5 62v97h-216v95h665v-95h-333v-120q0 -60 -21.5 -96t-73.5 -47
q-7 -3 -22 -5q22 -74 86.5 -120t146.5 -46q89 0 145 45t56 124q0 51 -24.5 81.5t-71.5 30.5q-30 0 -48.5 -18t-18.5 -45q0 -25 15.5 -39.5t38.5 -14.5q13 0 27 6z" />
    <glyph glyph-name="uni0917094D" horiz-adv-x="317" 
d="M344 660v-95h-93v-221q0 -69 -37.5 -104t-100.5 -35q-44 0 -83 14v95q25 -13 54 -13q50 0 50 53v211h-161v95h371z" />
    <glyph glyph-name="uni0918094D" horiz-adv-x="354" 
d="M420 251l36 -87q-73 -86 -199 -86q-91 0 -150 43.5t-59 118.5q0 57 38 92.5t104 43.5q-59 2 -95 30.5t-36 78.5q0 46 34 80h-120v95h408v-95h-164q-40 -29 -40 -71q0 -68 103 -68h43v-99h-52q-49 0 -77 -21t-28 -57t29 -54.5t74 -18.5q101 0 151 75z" />
    <glyph glyph-name="uni0919094D" horiz-adv-x="624" 
d="M213 -66h119l143 -172h-141zM535 422q28 0 48 -20t20 -48t-20 -47.5t-48 -19.5t-47.5 19.5t-19.5 47.5t19.5 48t47.5 20zM-27 660h678v-95h-231v-151v-2h-196q-63 0 -63 -48q0 -28 28.5 -38t94.5 -11q192 -3 192 -148q-1 -73 -61 -120t-163 -47q-118 0 -206 48v110
q100 -61 206 -61q51 0 79 17.5t28 47.5q0 31 -26 42.5t-89 12.5q-88 2 -143.5 35.5t-55.5 108.5q0 72 52 108.5t127 36.5h80v59h-331v95z" />
    <glyph glyph-name="uni091A094D" horiz-adv-x="413" 
d="M440 660v-95h-467v95h467zM494 327l54 -62q-22 -69 -92.5 -120t-166.5 -51q-94 0 -149.5 43t-55.5 117q0 78 65 116h-126v97h352v-97q-178 0 -178 -100q0 -37 28.5 -59t75.5 -22q67 0 118.5 39.5t74.5 98.5z" />
    <glyph glyph-name="uni091B094D" horiz-adv-x="644" 
d="M671 565h-440q-48 -35 -48 -89q0 -35 23 -57t60 -22h34v-98h-37q-92 0 -92 -71q0 -37 36 -58t92 -21q84 0 135.5 43t51.5 117q0 44 -24.5 69t-66.5 25q-30 0 -47 -6v94q22 7 66 7q88 0 139.5 -48.5t51.5 -132.5q0 -119 -86.5 -192t-220.5 -73q-104 0 -174.5 45.5
t-70.5 125.5q0 55 35 88.5t96 38.5q-53 3 -85.5 37.5t-32.5 86.5q0 54 37 91h-130v95h698v-95z" />
    <glyph glyph-name="uni091C094D" horiz-adv-x="421" 
d="M448 660v-95h-475v95h475zM564 459v-97h-270q64 -40 64 -127q0 -81 -55.5 -129t-146.5 -48q-70 0 -126 22v104q49 -26 105 -26q51 0 81 24.5t30 70.5q0 52 -40 80.5t-115 28.5v97h473z" />
    <glyph glyph-name="uni091D094D" horiz-adv-x="532" 
d="M672 329v-91h-209q13 -29 13 -68q0 -72 -49.5 -117.5t-130.5 -45.5q-72 0 -128 37v-94h-116v233h107q17 -39 51.5 -62.5t73.5 -23.5q35 0 55.5 17.5t20.5 49.5q0 63 -99 66q-197 4 -197 135q0 72 52 108t135 36h68v56h-346v95h586v-95h-123v-149v-2h-179q-74 0 -74 -44
q0 -22 20 -30.5t63 -10.5h13h393z" />
    <glyph glyph-name="uni091E094D" horiz-adv-x="469" 
d="M496 660v-95h-523v95h523zM593 338v-95h-187q-11 -79 -70 -127.5t-153 -52.5q-86 0 -156 36v107q71 -42 147 -42q57 0 86.5 30.5t29.5 81.5q0 46 -28 74.5t-75 28.5q-44 0 -86 -17v99q37 15 94 15q82 0 135 -36.5t70 -101.5h193z" />
    <glyph glyph-name="uni091F094D" horiz-adv-x="510" 
d="M435 565v-196q-27 6 -85 6q-86 0 -134 -35t-48 -98q0 -61 45 -94.5t119 -33.5q38 0 79 12t66 28v-106q-64 -34 -153 -34q-127 0 -201 61.5t-74 170.5q0 94 68.5 157.5t185.5 65.5h16v96h-346v95h564v-95h-102zM524 -224h-141l-121 172h119z" />
    <glyph glyph-name="uni0920094D" horiz-adv-x="571" 
d="M232 -7h119l143 -172h-141zM410 265q0 54 -33.5 82t-90.5 29q-53 0 -89 -27.5t-36 -82.5q0 -52 35.5 -82.5t91.5 -30.5t89 30.5t33 81.5zM598 565h-231v-105q74 -19 118 -69t44 -126q0 -91 -65.5 -148t-176.5 -58q-109 0 -176.5 56.5t-67.5 151.5q0 89 59.5 140t147.5 60
v98h-277v95h625v-95z" />
    <glyph glyph-name="uni0921094D" horiz-adv-x="529" 
d="M205 -66h119l143 -172h-141zM420 565v-151v-2h-196q-63 0 -63 -48q0 -28 28.5 -38t94.5 -11q192 -3 192 -148q-1 -73 -61 -120t-163 -47q-118 0 -206 48v110q100 -61 206 -61q51 0 79 17.5t28 47.5q0 31 -26 42.5t-89 12.5q-88 2 -143.5 35.5t-55.5 108.5q0 72 52 108.5
t127 36.5h80v59h-331v95h583v-95h-136z" />
    <glyph glyph-name="uni0922094D" horiz-adv-x="561" 
d="M266 205v86q46 22 99 22q70 0 112 -36t42 -97q0 -73 -59 -119.5t-161 -46.5q-114 0 -187 66t-73 168q0 109 76 169t197 62h23v86h-362v95h615v-95h-136v-188q-55 10 -102 10q-84 0 -138 -35.5t-54 -104.5q0 -58 41 -98.5t105 -40.5q44 0 73 18.5t29 51.5q0 22 -17 35.5
t-46 13.5q-43 0 -77 -22zM507 -224h-141l-121 172h119z" />
    <glyph glyph-name="uni0923094D" horiz-adv-x="489" 
d="M304 344v221h-142v-221q0 -82 70 -82q72 0 72 82zM515 660v-95h-95v-212q0 -93 -50 -141.5t-140 -48.5q-185 0 -185 188v214h-72v95h542z" />
    <glyph glyph-name="uni0924094D" horiz-adv-x="390" 
d="M542 369h-218q-153 0 -153 -133q0 -64 30 -100t90 -36q13 0 19 1v-98q-22 -2 -36 -2q-103 0 -162 65.5t-59 170.5q0 104 67.5 166.5t197.5 62.5h224v-97zM-27 565v95h444v-95h-444z" />
    <glyph glyph-name="uni0925094D" horiz-adv-x="454" 
d="M391 507q0 -149 -233 -215q15 -45 58.5 -69.5t98.5 -24.5q127 0 216 112l56 -81q-121 -132 -272 -132q-117 0 -197.5 65t-94.5 195q137 33 197 66t60 87q0 27 -13 44t-39 17t-39.5 -16.5t-13.5 -42.5q0 -21 12 -55h-112q-12 33 -12 66q0 62 44 103.5t121 41.5
q74 0 118.5 -43.5t44.5 -117.5z" />
    <glyph glyph-name="uni0926094D" horiz-adv-x="568" 
d="M646 -248h-141l-121 172h119zM-27 660h622v-95h-115v-172h-196q-59 0 -93 -31t-34 -84q0 -54 30 -84.5t80 -30.5q49 0 80.5 27.5t37.5 78.5h114v-279h-116v128q-18 -25 -57 -39t-77 -14q-96 0 -154.5 60t-58.5 151q0 93 63 152t179 59h84v78h-389v95z" />
    <glyph glyph-name="uni0927094D" horiz-adv-x="424" 
d="M513 295l47 -89q-45 -62 -120 -100.5t-171 -38.5q-97 0 -159 45t-62 120q0 58 39.5 91.5t106.5 39.5q-63 3 -99 31.5t-36 80.5q0 63 51 90h-137v95h319v-95h-2q-55 0 -84 -21.5t-29 -60.5q0 -71 107 -71h44v-99h-53q-108 0 -108 -72q0 -36 30.5 -56t83.5 -20
q71 0 125 31.5t107 98.5z" />
    <glyph glyph-name="uni0928094D" horiz-adv-x="297" 
d="M-27 565v95h351v-95h-351zM124 415h286v-94h-237q-18 0 -26 -9.5t-8 -33.5q0 -29 10 -71h-94q-32 57 -32 121q0 40 25.5 63.5t75.5 23.5z" />
    <glyph glyph-name="uni092A094D" horiz-adv-x="346" 
d="M412 366l61 -58q-32 -61 -90 -98.5t-134 -37.5q-186 0 -186 203v190h-90v95h400v-95h-192v-194q0 -55 21.5 -79.5t64.5 -24.5q48 0 86.5 27.5t58.5 71.5z" />
    <glyph glyph-name="uni092B094D" horiz-adv-x="636" 
d="M181 565v-194q0 -55 21.5 -79t64.5 -24q45 0 74.5 29t29.5 81v187h-190zM489 565v-115q46 44 119 44q122 0 176 -112l-91 -62q-12 36 -39 58t-65 22q-43 0 -71.5 -27t-28.5 -72v-301h-118v221q-47 -47 -123 -47q-185 0 -185 200v191h-90v95h690v-95h-174z" />
    <glyph glyph-name="uni092C094D" horiz-adv-x="389" 
d="M416 660v-95h-443v95h443zM368 191l-188 167q-20 -29 -20 -71q0 -53 34.5 -85.5t87.5 -32.5q48 0 86 22zM462 288l65 -57q-37 -70 -101.5 -112t-150.5 -42q-98 0 -165 59t-67 154q0 93 62.5 154t164.5 61q46 0 81 -9v-102q-32 11 -72 11q-32 0 -53 -10l190 -167
q23 23 46 60z" />
    <glyph glyph-name="uni092D094D" horiz-adv-x="346" 
d="M441 366v-94h-227v-130h-102l-32 69q-27 57 -27 89q0 50 45 61v153q0 54 -46 54q-29 0 -55 -14v92q34 19 80 19q137 0 137 -135v-164h227z" />
    <glyph glyph-name="uni092E094D" horiz-adv-x="352" 
d="M471 366v-103h-262v-125h-100l-32 71q-28 64 -28 91q0 49 44 60v205h-120v95h407v-95h-171v-199h262z" />
    <glyph glyph-name="uni092F094D" horiz-adv-x="383" 
d="M410 565h-127q23 -34 23 -88q0 -122 -138 -166q28 -95 139 -95q52 0 94.5 28.5t64.5 75.5l62 -67q-24 -56 -87 -98t-148 -42q-104 0 -174 66.5t-88 192.5q159 25 159 110q0 51 -30 83h-187v95h437v-95z" />
    <glyph glyph-name="uni0930094D" horiz-adv-x="401" 
d="M382 -238h-141l-121 172h119zM34 265v93h72q103 0 103 83v124h-236v95h455v-95h-102v-131q0 -69 -37.5 -112.5t-104.5 -51.5q-6 -2 -14 -2l208 -268h-141z" />
    <glyph glyph-name="uni0932094D" horiz-adv-x="501" 
d="M358 100v-96q-26 -3 -51 -3q-121 0 -193 73t-72 191q0 95 49 153t135 58q58 0 94.5 -25t45.5 -66q26 97 148 97q93 0 146 -69l-59 -69q-10 17 -32.5 31t-48.5 14q-95 0 -95 -111v-67h-118v69q0 98 -69 98q-36 0 -58 -28.5t-22 -86.5q0 -76 40.5 -120.5t122.5 -44.5
q24 0 37 2zM-27 565v95h555v-95h-555z" />
    <glyph glyph-name="uni0933094D" horiz-adv-x="801" 
d="M554 89q-94 0 -164 64q-51 -64 -143 -64q-93 0 -152 54t-59 143q0 88 58.5 143.5t148.5 55.5q92 0 160 -61q56 59 149 59q94 0 153.5 -54.5t59.5 -141.5q0 -89 -60 -143.5t-151 -54.5zM550 389q-63 0 -92 -90q-5 -17 -14 -53l-2 -9q50 -54 110 -54q43 0 68.5 29t25.5 75
t-25.5 74t-70.5 28zM248 183q17 0 31.5 8t23.5 19t17.5 30t13 33t10.5 35.5t9 31.5q-49 51 -106 51q-43 0 -67.5 -29.5t-24.5 -76.5q0 -46 24.5 -74t68.5 -28zM-27 565v95h855v-95h-855z" />
    <glyph glyph-name="uni0935094D" horiz-adv-x="353" 
d="M321 485v-102q-26 9 -59 9q-44 0 -74 -29.5t-30 -75.5q0 -47 32.5 -76t83.5 -29q92 0 158 101l56 -69q-77 -126 -227 -126q-95 0 -158 53t-63 147q0 88 59 146.5t154 58.5q38 0 68 -8zM380 565h-407v95h407v-95z" />
    <glyph glyph-name="uni0936094D" horiz-adv-x="468" 
d="M170 245h-2l234 -245h-151l-221 241v99h107q79 0 123 35.5t44 100.5q0 90 -71 90q-28 0 -42.5 -19t-14.5 -47t16 -60h-113q-16 32 -16 70q0 64 46 109t123 45q85 0 136.5 -53.5t51.5 -135.5q0 -111 -75 -170.5t-175 -59.5z" />
    <glyph glyph-name="uni0937094D" horiz-adv-x="368" 
d="M179 495v-124q0 -55 29.5 -82.5t78.5 -27.5q52 0 95 31zM446 359l49 -67q-86 -124 -223 -124q-94 0 -150 51.5t-56 154.5v191h-93v95h422v-95h-191l224 -229q6 7 18 23z" />
    <glyph glyph-name="uni0938094D" horiz-adv-x="418" 
d="M531 251h-220q-78 0 -141 9l185 -260h-141l-191 274v84h69q94 0 94 84v123h-213v95h472v-95h-142v-125q0 -56 -23 -94h251v-95z" />
    <glyph glyph-name="uni0939094D" horiz-adv-x="488" 
d="M573 230h-280q-57 0 -88 -22.5t-31 -58.5q0 -43 36.5 -68t114.5 -25q53 0 133 19v-97q-78 -17 -139 -17q-126 0 -194 56t-68 133q0 78 66 126q-70 41 -70 112q0 54 39.5 83t102.5 29h156v65h-378v95h542v-95h-48v-157h-250q-44 0 -44 -34q0 -37 36 -59q39 9 87 9h277v-94
z" />
    <glyph glyph-name="uni0915093C094D" horiz-adv-x="564" 
d="M167 20q29 0 48.5 -20t19.5 -48t-20 -47.5t-48 -19.5t-47.5 19.5t-19.5 47.5t19.5 48t47.5 20zM456 565v-123q46 43 110 43q91 0 144 -58l-83 -85q-22 49 -80 49q-39 0 -65 -27.5t-26 -70.5v-293h-118v128q-45 -42 -110 -42q-86 0 -139.5 53t-53.5 137q0 91 60.5 145
t152.5 54q15 0 23 -1v-95q-6 1 -18 1q-45 0 -72.5 -28.5t-27.5 -73.5q0 -42 25.5 -70t69.5 -28q38 0 64 27.5t26 70.5v287h-365v95h590v-95h-107z" />
    <glyph glyph-name="uni0916093C094D" horiz-adv-x="611" 
d="M97 39q29 0 48.5 -19.5t19.5 -48.5q0 -28 -20 -47.5t-48 -19.5t-47.5 19.5t-19.5 47.5t19.5 48t47.5 20zM540 301v-82q-24 -9 -51 -9q-59 0 -99 38.5t-40 98.5q0 65 48.5 109t124.5 44q95 0 150.5 -55.5t55.5 -143.5q0 -119 -92 -196t-228 -77q-128 0 -219.5 72.5
t-136.5 194.5v93h67q40 0 54.5 18t14.5 62v97h-216v95h665v-95h-333v-120q0 -60 -21.5 -96t-73.5 -47q-7 -3 -22 -5q22 -74 86.5 -120t146.5 -46q89 0 145 45t56 124q0 51 -24.5 81.5t-71.5 30.5q-30 0 -48.5 -18t-18.5 -45q0 -25 15.5 -39.5t38.5 -14.5q13 0 27 6z" />
    <glyph glyph-name="uni0917093C094D" horiz-adv-x="321" 
d="M151 90q29 0 48.5 -20t19.5 -48t-20 -47.5t-48 -19.5t-47.5 19.5t-19.5 47.5t19.5 48t47.5 20zM348 660v-95h-97v-221q0 -69 -37.5 -104t-100.5 -35q-44 0 -83 14v95q25 -13 54 -13q50 0 50 53v211h-161v95h375z" />
    <glyph glyph-name="uni091C093C094D" horiz-adv-x="435" 
d="M448 660v-95h-475v95h475zM166 -16q28 0 48 -20t20 -48t-20 -47.5t-48 -19.5t-47.5 19.5t-19.5 47.5t19.5 48t47.5 20zM564 459v-97h-270q64 -40 64 -127q0 -81 -55.5 -129t-146.5 -48q-70 0 -126 22v104q49 -26 105 -26q51 0 81 24.5t30 70.5q0 52 -40 80.5t-115 28.5
v97h473z" />
    <glyph glyph-name="uni0928093C094D" horiz-adv-x="297" 
d="M-27 565v95h351v-95h-351zM124 415h286v-94h-237q-18 0 -26 -9.5t-8 -33.5q0 -29 10 -71h-94q-32 57 -32 121q0 40 25.5 63.5t75.5 23.5zM73 55q0 28 19.5 48t47.5 20t48 -19.5t20 -48.5q0 -28 -20 -47.5t-48 -19.5t-47.5 19.5t-19.5 47.5z" />
    <glyph glyph-name="uni092B093C094D" horiz-adv-x="621" 
d="M143 90q29 0 48.5 -20t19.5 -48t-20 -47.5t-48 -19.5t-47.5 19.5t-19.5 47.5t19.5 48t47.5 20zM181 565v-194q0 -55 21.5 -79t64.5 -24q45 0 74.5 29t29.5 81v187h-190zM489 565v-115q46 44 119 44q122 0 176 -112l-91 -62q-12 36 -39 58t-65 22q-43 0 -71.5 -27
t-28.5 -72v-301h-118v221q-47 -47 -123 -47q-185 0 -185 200v191h-90v95h690v-95h-174z" />
    <glyph glyph-name="uni092F093C094D" horiz-adv-x="378" 
d="M410 565h-127q23 -34 23 -88q0 -122 -138 -166q28 -95 139 -95q52 0 94.5 28.5t64.5 75.5l62 -67q-24 -56 -87 -98t-148 -42q-104 0 -174 66.5t-88 192.5q159 25 159 110q0 51 -30 83h-187v95h437v-95zM77 -16q0 28 19.5 48t47.5 20t48 -20t20 -48t-20 -47.5t-48 -19.5
t-47.5 19.5t-19.5 47.5z" />
    <glyph glyph-name="itfStar" horiz-adv-x="648" 
d="M680 466l-229 -147q32 -77 99 -259l-214 177q-28 -20 -215 -177l100 259q-14 9 -116 74t-115 73l273 -9q57 210 73 259l69 -259q25 2 137 5.5t138 3.5z" />
    <glyph glyph-name="uni09080902" horiz-adv-x="523" 
d="M442 565v-150h-1l1 -3h-196q-26 0 -44.5 -12t-18.5 -36q0 -21 14.5 -35t39.5 -15l88 4q78 -4 118.5 -45t40.5 -109q0 -72 -52 -117.5t-133 -45.5q-71 0 -124 34v-102h-116v243h108q14 -38 46.5 -62t74.5 -24q34 0 57 20.5t23 54.5q0 24 -14.5 40t-41.5 19l-88 -6
q-69 3 -114.5 43t-45.5 101q0 71 52 108t127 37h82v58h-352v95h325q-51 62 -51 142q0 76 53 126t135 50q59 0 103 -21v-108q-32 22 -76 22q-39 0 -67 -28t-28 -69q0 -62 49 -114h134v-95h-108zM417 764q0 23 15.5 38.5t38.5 15.5t39 -15.5t16 -38.5t-16 -38.5t-39 -15.5
t-38.5 15.5t-15.5 38.5z" />
    <glyph glyph-name="uni09300941" horiz-adv-x="657" 
d="M684 565h-349v-122q54 33 109 33q83 0 129 -49t46 -128q0 -82 -51.5 -131.5t-130.5 -49.5q-45 0 -70 11v93q20 -10 50 -10q39 0 62 22.5t23 61.5t-20 62t-56 23q-24 0 -48 -9.5t-35 -17t-36.5 -29.5t-29.5 -25q-39 -31 -90 -32h-8l208 -268h-141l-203 265v93h72
q103 0 103 83v124h-245v95h711v-95z" />
    <glyph glyph-name="uni09300942" horiz-adv-x="679" 
d="M335 565v-131v-1q48 56 130 56q91 0 143 -55.5t52 -134.5q0 -93 -53 -149t-135 -56q-45 0 -72 10v100q27 -8 53 -8q41 0 65.5 25t24.5 74q0 38 -21 63.5t-57 25.5q-34 0 -55 -21t-21 -59v-50h-98v52v8q-40 -43 -103 -46h-9l208 -268h-141l-203 265v93h72q103 0 103 83
v124h-245v95h733v-95h-371z" />
    <glyph glyph-name="uni09390941" horiz-adv-x="541" 
d="M467 408h-250q-44 0 -44 -34q0 -33 31 -55q42 11 92 11q92 0 141 -42.5t49 -103.5q0 -26 -8 -45h-115q10 15 10 38q0 26 -20.5 41.5t-59.5 15.5q-56 0 -87.5 -25t-31.5 -60q0 -86 97 -89q31 18 73 18q77 0 120.5 -40t43.5 -100q0 -72 -50.5 -118.5t-144.5 -46.5
q-119 0 -211 55v114q44 -29 104 -50.5t103 -21.5t64.5 17t21.5 44q0 25 -17 39t-45 14q-26 0 -50 -18h-20q-86 3 -146 48.5t-60 135.5q0 77 64 128q-68 40 -68 110q0 54 39.5 83t102.5 29h156v65h-378v95h597v-95h-103v-157z" />
    <glyph glyph-name="uni09390942" horiz-adv-x="543" 
d="M467 408h-250q-44 0 -44 -34t33 -58q37 10 86 10q90 0 143 -41.5t53 -103.5q0 -36 -10 -57h-115q12 19 12 51q0 24 -22.5 39.5t-63.5 15.5q-55 0 -85 -22.5t-30 -56.5q0 -39 30.5 -63t87.5 -27q58 0 103.5 -19t73.5 -48.5t46.5 -70t25.5 -80t7 -81.5h-109q0 87 -38 146
t-109 59q-27 0 -43.5 -14t-16.5 -38t19 -39t48 -15q25 0 44 8v-90q-23 -9 -54 -9q-74 0 -121.5 37.5t-47.5 110.5q0 50 35 90q-47 20 -72.5 58.5t-25.5 85.5q0 76 64 125q-68 43 -68 111q0 54 39.5 83t102.5 29h156v65h-378v95h597v-95h-103v-157z" />
    <glyph glyph-name="uni09260943" horiz-adv-x="483" 
d="M399 565v-162q-53 20 -122 20q-45 0 -72 -13.5t-27 -40.5q0 -54 101 -54h66v-99h-72q-106 0 -106 -63q0 -60 115 -60q89 0 162 53v-107q-26 -16 -71 -28t-91 -12q-99 0 -166 38t-67 109q0 54 35 85.5t98 35.5q-60 3 -92.5 31.5t-32.5 78.5q0 57 48 90.5t130 33.5
q17 0 47 -2v66h-309v95h537v-95h-111z" />
    <glyph glyph-name="uni09390943" horiz-adv-x="552" 
d="M450 408h-228q-44 0 -44 -34t34 -58q48 14 107 14q62 0 96.5 -24t34.5 -64q0 -29 -33.5 -71t-33.5 -54q0 -20 37 -20q57 0 103 31v-87q-48 -28 -129 -28q-49 0 -84.5 22t-35.5 65q0 25 32 64.5t32 50.5q0 23 -33 23q-61 0 -100.5 -39t-39.5 -96q0 -65 57.5 -111.5
t163.5 -46.5q43 0 69 6v-88q-35 -7 -76 -7q-137 0 -234 65.5t-97 187.5q0 104 81 166q-71 41 -71 113q0 54 39.5 83t102.5 29h134v65h-361v95h606v-95h-129v-157z" />
    <glyph glyph-name="uni094D0928.post" 
d="M-27 660h329v-95h-106v-565h-117v146l-129 -88q-20 -12 -20 -36q0 -29 41 -70l-68 -42q-40 22 -67.5 55t-27.5 70q0 47 57 85l214 141v304h-106v95z" />
    <glyph glyph-name="uni094D092F.post" horiz-adv-x="636" 
d="M662 660v-95h-119v-565h-117v112q-19 -29 -58.5 -47.5t-89.5 -18.5q-95 0 -159 59t-78 177q149 32 149 93q0 19 -19.5 30.5t-52.5 11.5q-45 0 -110.5 -15.5t-113.5 -36.5v99q46 19 111.5 31t111.5 12q188 0 188 -133q0 -50 -36 -88.5t-92 -56.5q24 -80 119 -80
q60 0 95 37t35 101v278h-453v95h689z" />
    <glyph glyph-name="uni094D0930.post" 
d="M-27 660h329v-95h-106v-565h-117v153l-170 -153h-151l321 282v283h-106v95z" />
    <glyph glyph-name="uni094D0930" horiz-adv-x="0" 
d="M-215 0h152l159 -186h-142l-93 122l-93 -122h-142z" />
    <glyph glyph-name="uni0930094D.1" horiz-adv-x="193" 
d="M8 390q49 -32 122 -32q79 0 157 45l26 -94q-83 -45 -181 -45q-68 0 -124 27v99zM220 565h-247v95h247v-95z" />
    <glyph glyph-name="uni0930094D.2" horiz-adv-x="0" 
d="M-48 810q-32 0 -53 -19.5t-21 -52.5q0 -49 43 -90h-120q-7 6 -15 17t-18 37t-10 54q0 73 48 115t120 42q63 0 104 -20v-104q-44 21 -78 21z" />
    <glyph glyph-name="uni0930094D0902" horiz-adv-x="0" 
d="M-46 871q-39 0 -67 -28t-28 -69q0 -32 14.5 -62.5t28 -45t21.5 -18.5h-122q-62 68 -62 154q0 76 53 126t135 50q59 0 103 -21v-108q-32 22 -76 22zM-90 764q0 23 15.5 38.5t37.5 15.5q24 0 39.5 -15.5t15.5 -38.5t-15.5 -38.5t-39.5 -15.5q-23 0 -38 15.5t-15 38.5z" />
    <glyph glyph-name="uni093E0930094D" 
d="M310 893v-104q-44 21 -78 21q-32 0 -53 -19.5t-21 -52.5q0 -40 32 -78h112v-95h-106v-565h-117v565h-106v95h97q-32 42 -32 96q0 73 48 115t120 42q63 0 104 -20z" />
    <glyph glyph-name="uni093E0930094D0902" 
d="M306 957v-108q-32 22 -76 22q-39 0 -67 -28t-28 -69q0 -64 50 -114h117v-95h-106v-565h-117v565h-106v95h94q-52 63 -52 142q0 76 53 126t135 50q59 0 103 -21zM186 764q0 23 15.5 38.5t37.5 15.5q24 0 39.5 -15.5t15.5 -38.5t-15.5 -38.5t-39.5 -15.5q-23 0 -38 15.5
t-15 38.5z" />
    <glyph glyph-name="uni0930094D.aMatraI" horiz-adv-x="0" 
d="M0 761l-109 23v69q0 71 43 115.5t115 44.5q63 0 104 -20v-108q-39 25 -84 25q-69 0 -69 -76v-73z" />
    <glyph glyph-name="uni0902.aMatraI" horiz-adv-x="0" 
d="M-60 889q0 30 20 50.5t51 20.5q30 0 51 -20.5t21 -50.5t-21 -50.5t-51 -20.5q-31 0 -51 20.5t-20 50.5z" />
    <glyph glyph-name="uni0930094D0902.aMatraI" horiz-adv-x="0" 
d="M69 910q-69 0 -69 -76v-73l-109 23v69q0 71 43 115.5t115 44.5q63 0 104 -20v-108q-39 25 -84 25zM49 796q0 21 14.5 36t36.5 15t37 -15t15 -36q0 -22 -15 -37t-37 -15t-36.5 15t-14.5 37z" />
    <glyph glyph-name="uni09400930094D" horiz-adv-x="276" 
d="M353 903v-104q-44 21 -79 21q-36 0 -57.5 -24.5t-21.5 -70.5v-65h108v-95h-106v-565h-118v565h-106v95h105v76q0 41 -22.5 63.5t-60.5 22.5q-79 0 -79 -86v-29h-118v32q0 90 56 136t141 46q103 0 152 -68q42 71 121 71q51 0 85 -21z" />
    <glyph glyph-name="uni09400902" 
d="M195 734v-74h107v-95h-106v-565h-117v565h-106v95h105v69q0 41 -22.5 63.5t-60.5 22.5q-79 0 -79 -86v-22h-118v26q0 90 56 136t141 46q86 0 143 -45.5t57 -135.5zM316 879q30 0 51 -20.5t21 -50.5t-21 -50.5t-51 -20.5q-31 0 -51 20.5t-20 50.5t20 50.5t51 20.5z" />
    <glyph glyph-name="uni09400930094D0902" horiz-adv-x="276" 
d="M298 818q23 0 39 -15.5t16 -38.5t-16 -38.5t-39 -15.5t-38 15.5t-15 38.5t15.5 38.5t37.5 15.5zM-202 707v32q0 89 50 135.5t131 46.5q108 0 152 -67q15 56 57.5 90t96.5 34q46 0 80 -21v-108q-35 22 -73 22q-46 0 -71.5 -30t-25.5 -84v-97h108v-95h-106v-565h-118v565
h-106v95h105v76q0 41 -22.5 63.5t-60.5 22.5q-79 0 -79 -86v-29h-118z" />
    <glyph glyph-name="uni0940.aLong" 
d="M195 660h107v-95h-106v-565h-117v565h-106v95h106v30q0 61 -51.5 93t-174.5 32q-98 0 -145 -27.5t-47 -73.5v-11h-118v15q0 93 85.5 145t224.5 52q166 0 254 -56.5t88 -165.5v-33z" />
    <glyph glyph-name="uni09400930094D.aLong" 
d="M350 903v-104q-44 21 -79 21q-36 0 -57.5 -24.5t-21.5 -70.5v-65h110v-95h-106v-565h-117v565h-106v95h106v30q0 61 -51.5 93t-174.5 32q-98 0 -145 -27.5t-47 -73.5v-11h-118v15q0 93 85.5 145t224.5 52q203 0 282 -84q35 93 130 93q51 0 85 -21z" />
    <glyph glyph-name="uni09400902.aLong" 
d="M195 693v-33h107v-95h-106v-565h-117v565h-106v95h106v30q0 61 -51.5 93t-174.5 32q-98 0 -145 -27.5t-47 -73.5v-11h-118v15q0 93 85.5 145t224.5 52q166 0 254 -56.5t88 -165.5zM316 879q30 0 51 -20.5t21 -50.5t-21 -50.5t-51 -20.5q-31 0 -51 20.5t-20 50.5t20 50.5
t51 20.5z" />
    <glyph glyph-name="uni09400930094D0902.aLong" 
d="M302 818q24 0 39.5 -15.5t15.5 -38.5t-15.5 -38.5t-39.5 -15.5q-23 0 -38 15.5t-15 38.5t15.5 38.5t37.5 15.5zM-457 703v15q0 93 85.5 145t224.5 52q205 0 276 -97q5 71 48.5 115.5t111.5 44.5q48 0 80 -21v-108q-33 22 -73 22q-46 0 -71.5 -30t-25.5 -84v-97h103v-95
h-106v-565h-117v565h-106v95h106v30q0 61 -51.5 93t-174.5 32q-98 0 -145 -27.5t-47 -73.5v-11h-118z" />
    <glyph glyph-name="uni09470930094D" horiz-adv-x="0" 
d="M-198 820l16 -24q9 49 48 79.5t94 30.5q50 0 85 -19v-108q-40 25 -84 25q-31 0 -50 -20.5t-19 -53.5q0 -28 10.5 -54.5t17.5 -32.5h-61l-7 10h-53l-78 115q-31 46 -81 46q-28 0 -59 -9v99q42 7 68 7q54 0 87.5 -20.5t65.5 -70.5z" />
    <glyph glyph-name="uni09470902" horiz-adv-x="0" 
d="M-418 805v99q42 7 68 7q109 -1 168 -91l108 -167h-126l-77 115q-31 46 -82 46q-27 0 -59 -9zM-105 819q0 30 20.5 50.5t50.5 20.5t51 -20.5t21 -50.5t-21 -50.5t-51 -20.5t-50.5 20.5t-20.5 50.5z" />
    <glyph glyph-name="uni09470930094D0902" horiz-adv-x="0" 
d="M-21 818q23 0 39 -15.5t16 -38.5t-16 -38.5t-39 -15.5t-38.5 15.5t-15.5 38.5t15.5 38.5t38.5 15.5zM-419 805v99q42 7 68 7q85 -1 135 -60q15 56 58 91t101 35q60 0 102 -20v-108q-32 22 -76 22q-39 0 -67 -28t-28 -69q0 -32 14.5 -62.5t28 -45t20.5 -18.5h-99l-4 5h-35
l-78 115q-29 46 -81 46q-28 0 -59 -9z" />
    <glyph glyph-name="uni09480930094D" horiz-adv-x="0" 
d="M-194 840l13 -20q14 42 48.5 68.5t87.5 26.5q50 0 85 -22v-104q-44 21 -79 21q-32 0 -52.5 -19.5t-20.5 -52.5q0 -25 14 -53l11 -17q5 -8 17 -20h-69l-5 5h-74q-108 69 -181 69q-30 0 -57 -8v89q32 8 57 8q51 0 93.5 -22t123.5 -93l10 -9l-92 112q-52 63 -124 63
q-36 0 -68 -9v91q27 8 75 8q118 0 187 -112z" />
    <glyph glyph-name="uni09480902" horiz-adv-x="0" 
d="M-456 853v91q27 8 75 8q118 0 187 -112l116 -187h-140q-108 69 -181 69q-30 0 -57 -8v89q32 8 57 8q51 0 93.5 -22t123.5 -93l10 -9l-92 112q-52 63 -124 63q-36 0 -68 -9zM-32 876q30 0 51 -20.5t21 -50.5t-21 -50.5t-51 -20.5t-50.5 20.5t-20.5 50.5t20.5 50.5
t50.5 20.5z" />
    <glyph glyph-name="uni09480930094D0902" horiz-adv-x="0" 
d="M-23 818q23 0 39 -15.5t16 -38.5t-16 -38.5t-39 -15.5t-38.5 15.5t-15.5 38.5q0 22 15.5 38t38.5 16zM-456 853v91q27 8 75 8q117 0 184 -108q9 59 49.5 97t101.5 38q53 0 90 -22v-108q-32 22 -76 22q-39 0 -67 -28t-28 -69q0 -36 20 -74l11 -18q21 -28 32 -34h-70l-4 5
h-80q-108 69 -181 69q-30 0 -57 -8v89q32 8 57 8q51 0 93.5 -22t123.5 -93l10 -9l-92 112q-52 63 -124 63q-36 0 -68 -9z" />
    <glyph glyph-name="uni094A0902" 
d="M-9 828h36q167 0 169 -168h106v-95h-106v-565h-117v565h-106v95h106q-2 39 -15 56t-48 17h-38q-29 0 -52 3t-49.5 13t-44 28t-29.5 50.5t-12 76.5h118q0 -45 18 -60.5t64 -15.5zM278 894q30 0 51 -20.5t21 -50.5t-21 -50.5t-51 -20.5q-31 0 -51 20.5t-20 50.5t20 50.5
t51 20.5z" />
    <glyph glyph-name="uni094B0930094D" 
d="M325 887v-108q-40 25 -84 25q-31 0 -50 -20.5t-19 -53.5q0 -34 17 -70h113v-95h-106v-565h-117v565h-106v95h101l-73 108q-31 46 -81 46q-28 0 -59 -9v99q42 7 68 7q54 0 87.5 -20.5t65.5 -70.5l16 -24q9 49 48 79.5t94 30.5q50 0 85 -19z" />
    <glyph glyph-name="uni094B0902" 
d="M240 748q-30 0 -50.5 20.5t-20.5 50.5t20.5 50.5t50.5 20.5q31 0 51.5 -20.5t20.5 -50.5t-20.5 -50.5t-51.5 -20.5zM92 820l104 -160h106v-95h-106v-565h-117v565h-106v95h97l-73 108q-31 46 -82 46q-27 0 -58 -9v99q42 7 67 7q109 -1 168 -91z" />
    <glyph glyph-name="uni094B0930094D0902" 
d="M-146 805v99q42 7 68 7q85 -1 135 -60q15 56 58 91t101 35q60 0 102 -20v-108q-32 22 -76 22q-39 0 -67 -28t-28 -69q0 -62 49 -114h106v-95h-106v-565h-117v565h-106v95h94l-73 108q-29 46 -81 46q-28 0 -59 -9zM198 764q0 23 15.5 38.5t38.5 15.5t39 -15.5t16 -38.5
t-16 -38.5t-39 -15.5t-38.5 15.5t-15.5 38.5z" />
    <glyph glyph-name="uni094C0930094D" 
d="M320 893v-104q-44 21 -79 21q-32 0 -52.5 -19.5t-20.5 -52.5q0 -25 14 -53l11 -17l6 -8h103v-95h-106v-565h-117v565h-106v95h78q-98 62 -170 62q-30 0 -57 -8v89q32 8 57 8q51 0 93.5 -22t123.5 -93l10 -9l-92 112q-52 63 -124 63q-36 0 -68 -9v91q27 8 75 8
q118 0 187 -112l13 -20q14 42 48.5 68.5t87.5 26.5q50 0 85 -22z" />
    <glyph glyph-name="uni094C0902" 
d="M246 734q-30 0 -50.5 20.5t-20.5 50.5t20.5 50.5t50.5 20.5t51 -20.5t21 -50.5t-21 -50.5t-51 -20.5zM84 840l112 -180h106v-95h-106v-565h-117v565h-106v95h76q-98 62 -170 62q-30 0 -57 -8v89q32 8 57 8q51 0 93.5 -22t123.5 -93l10 -9l-92 112q-52 63 -124 63
q-36 0 -68 -9v91q27 8 75 8q118 0 187 -112z" />
    <glyph glyph-name="uni094C0930094D0902" 
d="M-183 853v91q29 8 75 8q115 0 184 -106q9 58 50 95.5t101 37.5q53 0 90 -22v-108q-32 22 -75 22q-40 0 -67.5 -27.5t-27.5 -69.5q0 -62 49 -114h106v-95h-106v-565h-117v565h-106v95h72q-100 62 -171 62q-30 0 -57 -8v89q32 8 57 8q51 0 93.5 -22t124.5 -93l10 -9
l-92 112q-52 63 -125 63q-37 0 -68 -9zM197 764q0 23 15.5 38.5t38.5 15.5t39 -15.5t16 -38.5t-16 -38.5t-39 -15.5t-38.5 15.5t-15.5 38.5z" />
    <glyph glyph-name="uni0915094D0937" horiz-adv-x="778" 
d="M276 572q-32 0 -51.5 -19.5t-19.5 -49.5q0 -67 79 -87q62 30 62 91q0 27 -20 46t-50 19zM581 660h225v-95h-106v-565h-118v317h-228q-52 0 -95 10q-108 -41 -108 -114q0 -36 24 -57t64 -21q46 0 78.5 27.5t42.5 78.5h113v-241h-116v97q-16 -25 -55 -42.5t-83 -17.5
q-84 0 -136 46t-52 123q0 112 126 166q-64 51 -64 134q0 67 49.5 114.5t130.5 47.5q83 0 133.5 -41t50.5 -110q0 -68 -50 -109h174v252z" />
    <glyph glyph-name="uni0915094D0937094D" horiz-adv-x="551" 
d="M276 572q-32 0 -51.5 -19.5t-19.5 -49.5q0 -67 79 -87q62 30 62 91q0 27 -20 46t-50 19zM667 317h-313q-52 0 -95 10q-108 -41 -108 -114q0 -36 24 -57t64 -21q46 0 78.5 27.5t42.5 78.5h113v-241h-116v97q-16 -25 -55 -42.5t-83 -17.5q-84 0 -136 46t-52 123
q0 112 126 166q-64 51 -64 134q0 67 49.5 114.5t130.5 47.5q83 0 133.5 -41t50.5 -110q0 -68 -50 -109h260v-91z" />
    <glyph glyph-name="uni0915094D0937094D092E" horiz-adv-x="1112" 
d="M918 363v202h-177v-202h177zM276 572q-32 0 -51.5 -19.5t-19.5 -49.5q0 -67 79 -87q62 30 62 91q0 27 -20 46t-50 19zM505 660h634v-95h-106v-565h-115v268h-177v-127h-100l-32 71q-28 63 -28 91q0 10 1 14h-228q-52 0 -95 10q-108 -41 -108 -114q0 -36 24 -57t64 -21
q46 0 78.5 27.5t42.5 78.5h113v-241h-116v97q-16 -25 -55 -42.5t-83 -17.5q-84 0 -136 46t-52 123q0 112 126 166q-64 51 -64 134q0 67 49.5 114.5t130.5 47.5q83 0 133.5 -41t50.5 -110q0 -68 -50 -109h218v157h-120v95z" />
    <glyph glyph-name="uni0915094D0937094D092E094D" horiz-adv-x="876" 
d="M276 572q-32 0 -51.5 -19.5t-19.5 -49.5q0 -67 79 -87q62 30 62 91q0 27 -20 46t-50 19zM1139 565h-399v-199h225v-103h-225v-125h-100l-32 71q-28 68 -28 91q0 7 2 17h-228q-52 0 -95 10q-108 -41 -108 -114q0 -36 24 -57t64 -21q46 0 78.5 27.5t42.5 78.5h113v-241
h-116v97q-16 -25 -55 -42.5t-83 -17.5q-84 0 -136 46t-52 123q0 112 126 166q-64 51 -64 134q0 67 49.5 114.5t130.5 47.5q83 0 133.5 -41t50.5 -110q0 -68 -50 -109h217v157h-119v95h634v-95z" />
    <glyph glyph-name="uni0915094D0937094D092E094D092F" horiz-adv-x="1479" 
d="M1283 352v213h-152q23 -34 23 -88q0 -122 -138 -166q12 -43 46.5 -69t85.5 -26q62 0 98.5 35t36.5 101zM880 366l-1 6q159 25 159 110q0 51 -30 83h-274v-199h146zM276 572q-32 0 -51.5 -19.5t-19.5 -49.5q0 -67 79 -87q62 30 62 91q0 27 -20 46t-50 19zM1506 660v-95
h-106v-565h-117v179q-20 -30 -61 -48t-92 -18q-72 0 -130.5 39t-90.5 111h-175v-125h-100l-32 71q-28 64 -28 91q0 7 2 17h-222q-52 0 -95 10q-108 -41 -108 -114q0 -36 24 -57t64 -21q46 0 78.5 27.5t42.5 78.5h113v-241h-116v97q-16 -25 -55 -42.5t-83 -17.5
q-84 0 -136 46t-52 123q0 112 126 166q-64 51 -64 134q0 67 49.5 114.5t130.5 47.5q83 0 133.5 -41t50.5 -110q0 -68 -50 -109h211v157h-120v95h1008z" />
    <glyph glyph-name="uni0915094D0937094D092F" horiz-adv-x="1126" 
d="M930 352v213h-152q23 -34 23 -88q0 -122 -138 -166q12 -43 46.5 -69t85.5 -26q62 0 98.5 35t36.5 101zM276 572q-32 0 -51.5 -19.5t-19.5 -49.5q0 -67 79 -87q62 30 62 91q0 27 -20 46t-50 19zM514 660h639v-95h-106v-565h-117v179q-20 -30 -61 -48t-92 -18
q-85 0 -149.5 53.5t-90.5 150.5h-183q-52 0 -95 10q-108 -41 -108 -114q0 -36 24 -57t64 -21q46 0 78.5 27.5t42.5 78.5h113v-241h-116v97q-16 -25 -55 -42.5t-83 -17.5q-84 0 -136 46t-52 123q0 112 126 166q-64 51 -64 134q0 67 49.5 114.5t130.5 47.5q83 0 133.5 -41
t50.5 -110q0 -68 -50 -109h230q48 29 48 74q0 51 -30 83h-141v95z" />
    <glyph glyph-name="uni0915094D0937094D0935" horiz-adv-x="1110" 
d="M276 572q-32 0 -51.5 -19.5t-19.5 -49.5q0 -67 79 -87q62 30 62 91q0 27 -20 46t-50 19zM1137 660v-95h-106v-565h-118v144q-56 -56 -147 -56q-87 0 -147.5 53.5t-60.5 146.5q0 11 2 29h-206q-52 0 -95 10q-108 -41 -108 -114q0 -36 24 -57t64 -21q46 0 78.5 27.5
t42.5 78.5h113v-241h-116v97q-16 -25 -55 -42.5t-83 -17.5q-84 0 -136 46t-52 123q0 112 126 166q-64 51 -64 134q0 67 49.5 114.5t130.5 47.5q83 0 133.5 -41t50.5 -110q0 -68 -50 -109h187q60 85 177 85q38 0 68 -8v-102q-34 9 -59 9q-45 0 -74.5 -27.5t-29.5 -73.5
q0 -51 30 -80t81 -29t88.5 34.5t37.5 82.5v266h-397v95h621z" />
    <glyph glyph-name="uni091C094D091E" horiz-adv-x="744" 
d="M-30 660h830v-95h-112v-565h-118v405h-312q-70 0 -70 -40q0 -23 22.5 -33.5t85.5 -11.5q187 -5 187 -152q0 -72 -55 -116t-130 -44t-129 38v-96h-116v236h107q14 -37 49 -63t76 -26q37 0 59.5 19t22.5 52q0 61 -107 61q-94 0 -143 33.5t-49 99.5q0 70 52.5 104t130.5 34
h319v65h-600v95z" />
    <glyph glyph-name="uni091C094D091E094D" horiz-adv-x="533" 
d="M560 660v-95h-590v95h590zM701 391h-443q-70 0 -70 -40q0 -22 21.5 -29t86.5 -9q187 -5 187 -147q0 -72 -54.5 -115t-130.5 -43q-75 0 -129 38v-96h-116v236h107q14 -37 49 -63t76 -26q37 0 59.5 18t22.5 51q0 32 -26 44t-81 12q-192 0 -192 127q0 69 52.5 103t130.5 34
h450v-95z" />
    <glyph glyph-name="uni091C094D091E094D092F" horiz-adv-x="1143" 
d="M947 352v213h-152q23 -34 23 -88q0 -122 -138 -166q12 -43 46.5 -69t85.5 -26q62 0 98.5 35t36.5 101zM1170 660v-95h-106v-565h-117v179q-20 -30 -61 -48t-92 -18q-92 0 -159.5 62t-87.5 173q-36 43 -154 43h-135q-70 0 -70 -40q0 -22 21.5 -29t86.5 -9q187 -5 187 -147
q0 -72 -54.5 -115t-130.5 -43q-75 0 -129 38v-96h-116v236h107q14 -37 49 -63t76 -26q37 0 59.5 18t22.5 51q0 32 -26 44t-81 12q-192 0 -192 127q0 69 52.5 103t130.5 34h156q161 0 239 -83q56 31 56 79q0 51 -30 83h-702v95h1200z" />
    <glyph glyph-name="uni0915094D0928" horiz-adv-x="808" 
d="M836 565h-366v-123q46 43 110 43q87 0 140 -53t53 -137q0 -91 -60 -145t-152 -54q-16 0 -23 1v95q5 -1 17 -1q46 0 73 28t27 74q0 42 -25.5 70t-68.5 28q-38 0 -64.5 -27.5t-26.5 -70.5v-293h-118v135q-10 -10 -19 -15l1 -1l-134 -104q-16 -13 -16 -28q0 -26 56 -80
l-65 -50q-43 19 -76.5 55.5t-33.5 74.5q0 43 48 76l58 40q-57 18 -89 64t-32 111q0 91 60 144t152 53q15 0 23 -1v-95q-6 1 -17 1q-46 0 -73 -27.5t-27 -72.5q0 -41 25 -67t69 -26q38 0 64 27.5t26 70.5v280h-379v95h863v-95z" />
    <glyph glyph-name="uni091A094D0928" horiz-adv-x="653" 
d="M680 660v-95h-106v-565h-116v176q-20 -30 -54 -50l-162 -112q-18 -14 -18 -32q0 -29 47 -80l-69 -45q-41 23 -69 58t-28 72q0 48 53 80l59 34q-60 15 -95 56.5t-35 98.5q0 79 64 114h-125v97h352v-97q-178 0 -178 -100q0 -39 27.5 -60t75.5 -21q71 0 113 44t42 92v240
h-485v95h707z" />
    <glyph glyph-name="uni091B094D0928" horiz-adv-x="651" 
d="M419 498v67h-188q-48 -35 -48 -89q0 -35 23 -57t60 -22h34v-98h-37q-92 0 -92 -71q0 -37 36 -58t92 -21q84 0 135.5 43t51.5 117q0 44 -24.5 69t-66.5 25q-30 0 -47 -6v94q22 7 66 7h5zM678 565h-148v-97q75 -49 75 -151q0 -116 -84 -189v-406h-111v172h-122
q-18 0 -26 -9.5t-8 -33.5q0 -30 10 -70h-94q-32 55 -32 113q0 41 25.5 64.5t75.5 23.5h171v86q-49 -16 -112 -16q-104 0 -174.5 45.5t-70.5 125.5q0 55 35 88.5t96 38.5q-53 3 -85.5 37.5t-32.5 86.5q0 54 37 91h-130v95h705v-95z" />
    <glyph glyph-name="uni091F094D0928" horiz-adv-x="528" 
d="M443 565v-196q-37 7 -81 7q-53 0 -96.5 -9.5t-76.5 -37.5t-33 -71q0 -108 184 -108q88 0 158 41v-106q-22 -13 -61 -22v-306h-111v130h-109q-18 0 -25.5 -9.5t-7.5 -33.5q0 -23 10 -63h-94q-32 51 -32 106q0 41 25.5 64.5t75.5 23.5h157v75q-131 2 -210 56t-79 156
q0 91 77 148t198 59h14v96h-353v95h581v-95h-111z" />
    <glyph glyph-name="uni0920094D0928" horiz-adv-x="607" 
d="M445 271q0 52 -39 80t-105 28q-60 0 -99.5 -28t-39.5 -80t40.5 -81t103.5 -29t101 29t38 81zM634 565h-252v-102q81 -17 131.5 -67.5t50.5 -124.5q0 -58 -31.5 -103t-87.5 -71v-309h-111v130h-109q-18 0 -25.5 -9.5t-7.5 -33.5q0 -22 10 -64h-95q-32 57 -32 106
q0 41 26 64.5t76 23.5h157v63q-4 0 -14 -0.5t-14 -0.5q-112 0 -187.5 55.5t-75.5 148.5q0 87 64.5 138.5t157.5 60.5v95h-292v95h661v-95z" />
    <glyph glyph-name="uni0926094D0928" horiz-adv-x="578" 
d="M490 393h-196q-59 0 -93 -31t-34 -84q0 -54 30 -84.5t80 -30.5q49 0 80.5 27.5t37.5 78.5h114v-279h-116v128q-10 -14 -31 -27l-150 -110q-21 -15 -21 -36q0 -29 43 -70l-69 -43q-40 23 -67.5 57.5t-27.5 70.5q0 49 58 84l56 33q-65 21 -101.5 74.5t-36.5 124.5
q0 93 63 152t179 59h84v78h-399v95h632v-95h-115v-172z" />
    <glyph glyph-name="uni0928094D0928" horiz-adv-x="543" 
d="M-27 660h597v-95h-106v-565h-118v195l-141 -31q-41 -10 -41 -56q0 -19 14 -63l-76 -18q-20 22 -39.5 60.5t-19.5 72.5q0 67 82 84l201 40l-111 73q-16 13 -34 13q-22 0 -42 -19.5t-34 -47.5l-62 47q9 58 39 102t75 44q38 0 81 -30l108 -79v178h-373v95z" />
    <glyph glyph-name="uni092B094D0928" horiz-adv-x="831" 
d="M376 384v181h-190v-188q0 -55 21.5 -79.5t64.5 -24.5q45 0 74.5 29.5t29.5 81.5zM858 565h-364v-111q46 43 118 43q84 0 133.5 -54t49.5 -135q0 -96 -59.5 -148t-150.5 -52q-17 0 -24 1v96q10 -2 17 -2q47 0 73.5 26.5t26.5 77.5q0 41 -24 68.5t-63 27.5q-42 0 -69.5 -27
t-27.5 -72v-304h-118v227q-4 -6 -13 -12l-140 -117q-19 -16 -19 -40q0 -27 40 -69l-68 -42q-40 22 -67.5 55t-27.5 70q0 45 57 85l46 31q-116 33 -116 193v184h-95v95h885v-95z" />
    <glyph glyph-name="uni092C094D0928" horiz-adv-x="629" 
d="M369 192l-186 166q-20 -29 -20 -71q0 -53 33.5 -85.5t86.5 -32.5q47 0 86 23zM656 660v-95h-106v-565h-118v143q-12 -12 -27 -24l-146 -115q-18 -14 -18 -38q0 -29 41 -68l-68 -43q-39 21 -67 55.5t-28 72.5q0 51 58 83l33 18q-71 18 -117.5 73.5t-46.5 132.5
q0 93 62.5 154t164.5 61q47 0 81 -9v-102q-32 11 -72 11q-27 0 -54 -10l185 -162q19 30 19 64v268h-459v95h683z" />
    <glyph glyph-name="uni0936094D0928" horiz-adv-x="737" 
d="M275 572q-34 0 -52.5 -19.5t-18.5 -50.5q0 -59 76 -104q65 39 65 102q0 28 -19.5 50t-50.5 22zM540 660h224v-95h-106v-565h-118v201l-175 -123q-19 -12 -19 -35q0 -29 43 -63l-69 -43q-97 50 -97 120q0 46 54 80l142 95q-78 21 -133 46l-197 -122l-92 71l184 109
q-94 71 -94 171q0 66 51 113.5t134 47.5q85 0 137.5 -47t52.5 -120q0 -89 -83 -149q72 -25 161 -47v355z" />
    <glyph glyph-name="uni0938094D0928" horiz-adv-x="800" 
d="M307 440v-6q59 25 123 25q109 0 174 -61v167h-297v-125zM827 660v-95h-106v-565h-117v241l-124 -51q-29 -14 -29 -44q0 -26 29 -69l-77 -26q-30 25 -50.5 59.5t-20.5 66.5q0 64 75 89l156 51q-68 46 -132 46q-81 0 -179 -54q-32 -25 -79 -32q-8 0 -11 -1l170 -276h-135
l-169 274v84h69q94 0 94 84v123h-218v95h854z" />
    <glyph glyph-name="uni0939094D0928" horiz-adv-x="648" 
d="M543 408h-316q-44 0 -44 -34q0 -37 42 -65q57 17 130 17q124 0 193 -59t69 -151q0 -46 -10 -78h-107q10 28 10 68q0 31 -13 54l-103 -48q-20 -8 -20 -25q0 -24 40 -75l-74 -35q-26 19 -52 53.5t-26 66.5q0 46 57 72l107 49q-32 13 -79 13q-86 0 -133.5 -40t-47.5 -102
q0 -70 60.5 -119.5t164.5 -49.5q46 0 71 6v-89q-34 -7 -78 -7q-87 0 -161.5 28.5t-124 90t-49.5 145.5q0 113 92 176q-79 45 -79 118q0 54 39.5 83t102.5 29h222v65h-453v95h702v-95h-132v-157z" />
    <glyph glyph-name="uni0915094D0930" horiz-adv-x="807" 
d="M834 565h-365v-123q46 43 110 43q86 0 139.5 -53t53.5 -137q0 -91 -60.5 -145t-152.5 -54q-16 0 -23 1v95q6 -1 18 -1q45 0 72.5 28.5t27.5 73.5q0 42 -25.5 70t-69.5 28q-38 0 -64 -27.5t-26 -70.5v-293h-118v130l-150 -175h-140l127 139q-64 14 -102 63.5t-38 118.5
q0 91 60.5 145t152.5 54q15 0 23 -1v-95q-6 1 -18 1q-45 0 -72.5 -28.5t-27.5 -73.5q0 -42 25.5 -70t68.5 -28q39 0 65 27.5t26 70.5v287h-378v95h861v-95z" />
    <glyph glyph-name="uni0916094D0930" horiz-adv-x="807" 
d="M610 475v90h-310v-115q0 -66 -24 -101t-81 -44l-10 -1q22 -74 83.5 -116.5t143.5 -42.5q87 0 146.5 40t59.5 117q0 50 -25 80t-69 30q-32 0 -51.5 -16.5t-19.5 -42.5q0 -23 14.5 -37t39.5 -14q13 0 28 6v-82q-25 -9 -52 -9q-59 0 -99 37.5t-40 98.5q0 64 48.5 105.5
t119.5 41.5q56 0 98 -25zM834 660v-95h-106v-565h-118v121q-20 -19 -51.5 -45t-59.5 -48t-81.5 -64t-92.5 -73h-175l196 156q-211 26 -296 255v93h67q40 0 53 16.5t13 60.5v93h-210v95h861z" />
    <glyph glyph-name="uni0917094D0930" horiz-adv-x="593" 
d="M-27 660h647v-95h-106v-565h-116v155l-204 -175h-158l362 316v269h-135v-221q0 -69 -37.5 -104t-100.5 -35q-44 0 -83 14v95q25 -13 54 -13q50 0 50 53v211h-173v95z" />
    <glyph glyph-name="uni0918094D0930" horiz-adv-x="645" 
d="M450 337v228h-227q-40 -29 -40 -71q0 -68 102 -68h44v-99h-53q-48 0 -76 -21t-28 -57t29 -54.5t73 -18.5q77 0 126.5 43.5t49.5 117.5zM672 660v-95h-106v-565h-116v156l-225 -201h-156l147 130q-70 7 -116 48t-46 107q0 57 38 92.5t103 43.5q-59 2 -94.5 30.5
t-35.5 78.5q0 46 34 80h-126v95h699z" />
    <glyph glyph-name="uni0919094D0930" horiz-adv-x="615" 
d="M538 426q30 0 50.5 -21t20.5 -51t-20.5 -50.5t-50.5 -20.5q-31 0 -51.5 20.5t-20.5 50.5t20.5 51t51.5 21zM-27 660h669v-95h-221v-153h-195q-64 0 -64 -48q0 -28 28.5 -38t94.5 -11q193 -3 193 -148q-1 -51 -32 -91t-88 -60l126 -161h-141l-86 128l-87 -128h-141
l121 156q-59 13 -103 37v110q100 -61 207 -61q51 0 78.5 17.5t27.5 47.5q0 31 -26 42.5t-89 12.5q-88 2 -143.5 35.5t-55.5 108.5q0 72 52 108.5t127 36.5h80v59h-332v95z" />
    <glyph glyph-name="uni091A094D0930" horiz-adv-x="652" 
d="M679 660v-95h-106v-565h-117v171l-233 -216h-155l157 145q-64 13 -101.5 55t-37.5 101q0 79 63 114h-124v97h352v-97q-178 0 -178 -100q0 -39 27.5 -60t74.5 -21q65 0 110 39t45 91v246h-483v95h706z" />
    <glyph glyph-name="uni091B094D0930" horiz-adv-x="650" 
d="M422 498v67h-188q-48 -35 -48 -89q0 -35 22.5 -57t59.5 -22h35v-98h-38q-92 0 -92 -71q0 -37 36 -58t92 -21q84 0 136 43t52 117q0 44 -24.5 69t-66.5 25q-32 0 -47 -6v94q22 7 66 7h5zM677 565h-145v-97q75 -47 75 -151q0 -89 -50 -153.5t-135 -92.5l128 -164h-141
l-85 129l-88 -129h-142l120 154q-72 17 -115.5 58.5t-43.5 103.5q0 55 35 88.5t97 38.5q-53 3 -86 37.5t-33 86.5q0 54 38 91h-133v95h704v-95z" />
    <glyph glyph-name="uni091C094D0930" horiz-adv-x="658" 
d="M-27 660h712v-95h-106v-565h-118v80l-209 -180h-152l361 309v153h-163q62 -37 62 -112q0 -70 -57 -116t-144 -46q-70 0 -126 22v104q49 -26 105 -26q110 0 110 80q0 94 -155 94v97h368v106h-488v95z" />
    <glyph glyph-name="uni091D094D0930" horiz-adv-x="867" 
d="M270 329h400v236h-223v-150l-7 1v-1h-179q-74 0 -74 -45q0 -22 20 -30.5t63 -10.5zM894 660v-95h-106v-565h-118v79l-199 -200h-157l356 325v34h-203q13 -29 13 -68q0 -72 -49.5 -117.5t-130.5 -45.5q-72 0 -128 37v-94h-116v236h107l1 -5q17 -38 51 -61t73 -23
q35 0 55.5 17.5t20.5 49.5q0 63 -99 66q-197 4 -197 135q0 72 52 108.5t135 36.5h75v55h-357v95h921z" />
    <glyph glyph-name="uni091E094D0930" horiz-adv-x="701" 
d="M728 660v-95h-106v-565h-118v87l-212 -187h-159l371 314v44h-104q-14 -72 -74.5 -119t-146.5 -47q-95 0 -156 36v107q72 -43 147 -43q57 0 86.5 28t29.5 78q0 46 -27.5 71t-75.5 25q-44 0 -86 -17v99q38 15 94 15q83 0 137 -35.5t70 -102.5h106v212h-531v95h755z" />
    <glyph glyph-name="uni091F094D0930" horiz-adv-x="514" 
d="M436 565v-196q-34 6 -86 6q-86 0 -133.5 -35t-47.5 -98q0 -61 45 -94.5t119 -33.5t144 41v-106q-37 -20 -77 -27l119 -153h-142l-85 128l-87 -128h-142l130 167q-68 26 -105.5 80t-37.5 130q0 94 68.5 157.5t185.5 65.5h15v96h-346v95h568v-95h-105z" />
    <glyph glyph-name="uni0920094D0930" horiz-adv-x="571" 
d="M410 265q0 54 -33.5 82t-90.5 29q-53 0 -89 -27.5t-36 -82.5q0 -52 35.5 -82.5t91.5 -30.5t89 30.5t33 81.5zM598 565h-231v-105q74 -19 118 -69t44 -126q0 -67 -35.5 -116t-100.5 -72l127 -163h-141l-87 128l-86 -128h-142l124 160q-67 21 -106 71.5t-39 121.5
q0 89 59.5 140t147.5 60v98h-277v95h625v-95z" />
    <glyph glyph-name="uni0921094D0930" horiz-adv-x="532" 
d="M424 565v-151v-2h-196q-27 0 -45.5 -11.5t-18.5 -36.5q0 -29 27 -40t80 -11q3 0 14.5 0.5t19.5 0.5h14q83 -4 122 -43.5t39 -103.5q-1 -51 -32 -91t-87 -59l126 -162h-142l-86 128l-87 -128h-141l121 156q-55 12 -103 37v110q100 -61 207 -61q51 0 79 17.5t28 47.5
q0 54 -80 55q-3 0 -23 -1t-24 -1q-79 1 -133.5 36t-54.5 110q0 72 52.5 108.5t126.5 36.5h80v59h-334v95h586v-95h-135z" />
    <glyph glyph-name="uni0922094D0930" horiz-adv-x="564" 
d="M452 565v-188q-55 10 -102 10q-84 0 -138 -35.5t-54 -104.5q0 -58 41 -98.5t105 -40.5q44 0 73 18.5t29 51.5q0 22 -17 35.5t-46 13.5q-43 0 -77 -22v86q46 22 99 22q70 0 112 -36t42 -97q0 -53 -31.5 -92.5t-89.5 -58.5l125 -161h-141l-87 129l-86 -129h-142l127 164
q-72 26 -113.5 83.5t-41.5 132.5q0 109 76 169t197 62h23v86h-362v95h617v-95h-138z" />
    <glyph glyph-name="uni0923094D0930" horiz-adv-x="760" 
d="M314 365v200h-142v-200q0 -82 70 -82q72 0 72 82zM787 660v-95h-106v-565h-117v155l-215 -180h-172l387 321v269h-134v-191q0 -93 -50 -141.5t-140 -48.5q-185 0 -185 188v193h-82v95h814z" />
    <glyph glyph-name="uni0924094D0930" horiz-adv-x="610" 
d="M637 660v-95h-106v-565h-118v205l-274 -169l-61 89l293 178q-57 76 -153 77q-83 0 -160 -47v107q65 41 164 41q119 0 191 -81v165h-440v95h664z" />
    <glyph glyph-name="uni0925094D0930" horiz-adv-x="662" 
d="M392 507q0 -150 -232 -215q29 -87 140 -87q66 0 116 39.5t50 121.5v294h223v-95h-106v-565h-117v174l-233 -219h-164l170 156q-87 16 -146.5 79.5t-67.5 166.5q136 33 196.5 66.5t60.5 86.5q0 27 -13 44t-39 17q-53 0 -53 -59q0 -27 12 -55h-113q-11 35 -11 66
q0 62 44 103.5t121 41.5q73 0 117.5 -43.5t44.5 -117.5z" />
    <glyph glyph-name="uni0926094D0930" horiz-adv-x="573" 
d="M-27 660h627v-95h-115v-172h-196q-59 0 -93 -31t-34 -84q0 -54 30 -84.5t80 -30.5q49 0 80.5 27.5t37.5 78.5h114v-279h-116v128l-173 -173h-152l133 129q-72 18 -113.5 72.5t-41.5 129.5q0 93 63 152t179 59h84v78h-394v95z" />
    <glyph glyph-name="uni0927094D0930" horiz-adv-x="645" 
d="M672 660v-95h-106v-565h-116v154l-217 -199h-160l146 130q-74 9 -119.5 49.5t-45.5 103.5q0 54 39.5 88.5t106.5 38.5q-64 3 -100 31t-36 79q0 62 52 90h-143v95h325v-95h-2q-55 0 -84.5 -21.5t-29.5 -60.5q0 -69 107 -69h44v-98h-52q-49 0 -79 -18.5t-30 -51.5
q0 -34 28.5 -51t78.5 -17q77 0 124 42t47 112v328h222z" />
    <glyph glyph-name="uni0928094D0930" horiz-adv-x="538" 
d="M-27 660h592v-95h-106v-565h-118v223l-171 -179h-146l317 319v1h-179q-19 0 -26.5 -9t-7.5 -34q0 -30 10 -70h-94q-32 55 -32 120q0 41 25.5 64.5t75.5 23.5h228v106h-368v95z" />
    <glyph glyph-name="uni092A094D0930" horiz-adv-x="573" 
d="M376 391v174h-190v-181q0 -55 21.5 -79.5t64.5 -24.5q45 0 74.5 29.5t29.5 81.5zM600 660v-95h-106v-565h-118v235l-205 -235h-150l171 195q-124 29 -124 193v177h-95v95h627z" />
    <glyph glyph-name="uni092B094D0930" horiz-adv-x="830" 
d="M376 391v174h-190v-181q0 -55 21.5 -79.5t64.5 -24.5q45 0 74.5 29.5t29.5 81.5zM857 565h-363v-112q46 43 118 43q84 0 133.5 -54t49.5 -135q0 -96 -59.5 -148t-150.5 -52q-17 0 -24 2v95q5 -1 17 -1q47 0 73.5 26t26.5 77q0 41 -24 68.5t-63 27.5q-42 0 -69.5 -27
t-27.5 -72v-303h-118v235l-205 -235h-150l171 195q-124 29 -124 193v177h-95v95h884v-95z" />
    <glyph glyph-name="uni092C094D0930" horiz-adv-x="629" 
d="M369 192l-186 166q-20 -29 -20 -71q0 -53 33.5 -85.5t86.5 -32.5q47 0 86 23zM656 660v-95h-106v-565h-117v145l-220 -210h-162l161 152q-71 16 -118.5 71t-47.5 132q0 93 62.5 154t164.5 61q47 0 81 -9v-102q-32 11 -72 11q-32 0 -53 -10l184 -161q19 28 19 63l1 -1v269
h-460v95h683z" />
    <glyph glyph-name="uni092D094D0930" horiz-adv-x="590" 
d="M396 660h221v-95h-106v-565h-115v130l-192 -170h-162l354 306v54h-169v-130h-102l-32 69q-27 57 -27 88q0 50 45 61v106q0 54 -46 54q-29 0 -55 -14v92q36 19 80 19q137 0 137 -135v-116h169v246z" />
    <glyph glyph-name="uni092E094D0930" horiz-adv-x="598" 
d="M226 414h178v151h-178v-151zM-27 660h652v-95h-106v-565h-115v132l-195 -172h-165l360 314v38h-178v-126h-100l-32 71q-28 68 -28 91q0 49 44 60v157h-137v95z" />
    <glyph glyph-name="uni092F094D0930" horiz-adv-x="642" 
d="M446 183l-242 -228h-165l188 178q-73 19 -123 81t-62 162q159 25 159 106q0 51 -30 83h-198v95h696v-95h-106v-565h-117v183zM311 223q62 0 98.5 35t36.5 101v206h-152q23 -34 23 -88q0 -117 -138 -163q15 -44 49 -67.5t83 -23.5z" />
    <glyph glyph-name="uni0935094D0930" horiz-adv-x="601" 
d="M628 660v-95h-106v-565h-117v147l-204 -212h-158l161 161q-68 14 -111.5 64.5t-43.5 127.5q0 88 59 146.5t154 58.5q39 0 68 -8v-102q-34 9 -59 9q-44 0 -73.5 -28t-29.5 -73q0 -51 29.5 -80t81.5 -29q51 0 88.5 34.5t37.5 82.5v266h-432v95h655z" />
    <glyph glyph-name="uni0936094D0930" horiz-adv-x="739" 
d="M282 572q-32 0 -51 -19.5t-19 -49.5q0 -58 73 -104q65 40 65 100q0 29 -19 51t-49 22zM542 660h224v-95h-106v-565h-118v197l-249 -209l-91 66l218 178q-70 21 -122 45l-177 -128l-93 69l167 116q-100 71 -100 172q0 67 50.5 114.5t133.5 47.5q84 0 136 -46.5t52 -120.5
q0 -88 -84 -148q55 -22 159 -51v358z" />
    <glyph glyph-name="uni0938094D0930" horiz-adv-x="791" 
d="M312 440v-5q59 24 117 24q102 0 166 -60v166h-283v-125zM818 660v-95h-106v-565h-117v277l-136 -162h-141l203 224q-46 24 -92 24q-74 0 -176 -56q-30 -22 -76 -30q-8 0 -10 -1l169 -276h-134l-170 274v84h69q94 0 94 84v123h-222v95h845z" />
    <glyph glyph-name="uni0939094D0930" horiz-adv-x="655" 
d="M555 408h-316q-44 0 -44 -34q0 -35 37 -60q51 15 117 15q120 0 190.5 -58.5t70.5 -160.5q0 -44 -10 -77h-106q9 24 9 68q0 46 -19 77l-109 -153h-130l161 203q-29 6 -65 6q-74 0 -118.5 -40t-44.5 -103q0 -71 58.5 -119.5t166.5 -48.5q46 0 77 7v-89q-40 -8 -84 -8
q-89 0 -163 28t-123 89.5t-49 146.5q0 114 87 177q-74 42 -74 114q0 54 39.5 83t102.5 29h223v65h-466v95h709v-95h-127v-157z" />
    <glyph glyph-name="uni0915093C094D0930" horiz-adv-x="807" 
d="M303 -44q29 0 48.5 -20t19.5 -48t-20 -47.5t-48 -19.5t-47.5 19.5t-19.5 47.5t19.5 48t47.5 20zM834 565h-365v-123q46 43 110 43q86 0 139.5 -53t53.5 -137q0 -91 -60.5 -145t-152.5 -54q-16 0 -23 1v95q6 -1 18 -1q45 0 72.5 28.5t27.5 73.5q0 42 -25.5 70t-69.5 28
q-38 0 -64 -27.5t-26 -70.5v-293h-118v130l-150 -175h-140l127 139q-64 14 -102 63.5t-38 118.5q0 91 60.5 145t152.5 54q15 0 23 -1v-95q-6 1 -18 1q-45 0 -72.5 -28.5t-27.5 -73.5q0 -42 25.5 -70t68.5 -28q39 0 65 27.5t26 70.5v287h-378v95h861v-95z" />
    <glyph glyph-name="uni0916093C094D0930" horiz-adv-x="807" 
d="M532 -45q28 0 48 -19.5t20 -48.5q0 -28 -20 -47.5t-48 -19.5t-47.5 19.5t-19.5 47.5t19.5 48t47.5 20zM610 475v90h-310v-115q0 -66 -24 -101t-81 -44l-10 -1q22 -74 83.5 -116.5t143.5 -42.5q87 0 146.5 40t59.5 117q0 50 -25 80t-69 30q-32 0 -51.5 -16.5t-19.5 -42.5
q0 -23 14.5 -37t39.5 -14q13 0 28 6v-82q-25 -9 -52 -9q-59 0 -99 37.5t-40 98.5q0 64 48.5 105.5t119.5 41.5q56 0 98 -25zM834 660v-95h-106v-565h-118v121q-20 -19 -51.5 -45t-59.5 -48t-81.5 -64t-92.5 -73h-175l196 156q-211 26 -296 255v93h67q40 0 53 16.5t13 60.5
v93h-210v95h861z" />
    <glyph glyph-name="uni0917093C094D0930" horiz-adv-x="593" 
d="M312 -40q28 0 48 -20t20 -48t-20 -47.5t-48 -19.5t-47.5 19.5t-19.5 47.5t19.5 48t47.5 20zM-27 660h647v-95h-106v-565h-116v155l-204 -175h-158l362 316v269h-135v-221q0 -69 -37.5 -104t-100.5 -35q-44 0 -83 14v95q25 -13 54 -13q50 0 50 53v211h-173v95z" />
    <glyph glyph-name="uni0918093C094D0930" horiz-adv-x="645" 
d="M368 -39q28 0 48 -19.5t20 -48.5q0 -28 -20 -47.5t-48 -19.5t-47.5 19.5t-19.5 47.5t19.5 48t47.5 20zM450 337v228h-227q-40 -29 -40 -71q0 -68 102 -68h44v-99h-53q-48 0 -76 -21t-28 -57t29 -54.5t73 -18.5q77 0 126.5 43.5t49.5 117.5zM672 660v-95h-106v-565h-116
v156l-225 -201h-156l147 130q-70 7 -116 48t-46 107q0 57 38 92.5t103 43.5q-59 2 -94.5 30.5t-35.5 78.5q0 46 34 80h-126v95h699z" />
    <glyph glyph-name="uni0919093C094D0930" horiz-adv-x="689" 
d="M28 32q28 0 48 -20t20 -48t-20 -47.5t-48 -19.5t-47.5 19.5t-19.5 47.5t19.5 48t47.5 20zM611 426q30 0 51 -21t21 -51t-21 -50.5t-51 -20.5t-50.5 20.5t-20.5 50.5t20.5 51t50.5 21zM-27 660h743v-95h-221v-153h-196q-27 0 -45.5 -11.5t-18.5 -36.5q0 -28 29 -38t95 -11
q192 -3 192 -148q-1 -52 -32 -91.5t-87 -59.5l126 -161h-142l-86 128l-86 -128h-142l121 156q-53 12 -102 37v110q100 -61 206 -61q51 0 79 17.5t28 47.5q0 31 -26 42.5t-89 12.5q-199 4 -199 144q0 72 52 108.5t127 36.5h79v59h-405v95z" />
    <glyph glyph-name="uni091A093C094D0930" horiz-adv-x="652" 
d="M363 -45q29 0 48.5 -19.5t19.5 -48.5q0 -28 -20 -47.5t-48 -19.5t-47.5 19.5t-19.5 47.5t19.5 48t47.5 20zM679 660v-95h-106v-565h-117v171l-233 -216h-155l157 145q-64 13 -101.5 55t-37.5 101q0 79 63 114h-124v97h352v-97q-178 0 -178 -100q0 -39 27.5 -60t74.5 -21
q65 0 110 39t45 91v246h-483v95h706z" />
    <glyph glyph-name="uni091B093C094D0930" horiz-adv-x="688" 
d="M57 84q29 0 48.5 -20t19.5 -48t-20 -47.5t-48 -19.5t-47.5 19.5t-19.5 47.5t19.5 48t47.5 20zM460 498v67h-188q-48 -35 -48 -89q0 -35 23 -57t60 -22h34v-98h-37q-92 0 -92 -71q0 -37 36 -58t92 -21q84 0 135.5 43t51.5 117q0 44 -24.5 69t-66.5 25q-30 0 -47 -6v94
q22 7 66 7h5zM715 565h-144v-97q75 -49 75 -151q0 -88 -50 -153t-135 -93l128 -164h-142l-85 129l-88 -129h-141l120 154q-72 17 -115.5 58.5t-43.5 103.5q0 55 35 88.5t96 38.5q-53 3 -85.5 37.5t-32.5 86.5q0 54 38 91h-165v95h735v-95z" />
    <glyph glyph-name="uni091C093C094D0930" horiz-adv-x="658" 
d="M415 -60q29 0 48.5 -20t19.5 -48t-20 -47.5t-48 -19.5t-47.5 19.5t-19.5 47.5t19.5 48t47.5 20zM-27 660h712v-95h-106v-565h-118v80l-209 -180h-152l361 309v153h-163q62 -37 62 -112q0 -70 -57 -116t-144 -46q-70 0 -126 22v104q49 -26 105 -26q110 0 110 80
q0 94 -155 94v97h368v106h-488v95z" />
    <glyph glyph-name="uni091D093C094D0930" horiz-adv-x="867" 
d="M639 -57q29 0 48.5 -19.5t19.5 -48.5q0 -28 -20 -47.5t-48 -19.5t-47.5 19.5t-19.5 47.5t19.5 48t47.5 20zM270 329h400v236h-223v-150l-7 1v-1h-179q-74 0 -74 -45q0 -22 20 -30.5t63 -10.5zM894 660v-95h-106v-565h-118v79l-199 -200h-157l356 325v34h-203
q13 -29 13 -68q0 -72 -49.5 -117.5t-130.5 -45.5q-72 0 -128 37v-94h-116v236h107l1 -5q17 -38 51 -61t73 -23q35 0 55.5 17.5t20.5 49.5q0 63 -99 66q-197 4 -197 135q0 72 52 108.5t135 36.5h75v55h-357v95h921z" />
    <glyph glyph-name="uni091E093C094D0930" horiz-adv-x="701" 
d="M457 -57q29 0 48.5 -19.5t19.5 -48.5q0 -28 -20 -47.5t-48 -19.5t-47.5 19.5t-19.5 47.5t19.5 48t47.5 20zM728 660v-95h-106v-565h-118v87l-212 -187h-159l371 314v44h-104q-14 -72 -74.5 -119t-146.5 -47q-95 0 -156 36v107q72 -43 147 -43q57 0 86.5 28t29.5 78
q0 46 -27.5 71t-75.5 25q-44 0 -86 -17v99q38 15 94 15q83 0 137 -35.5t70 -102.5h106v212h-531v95h755z" />
    <glyph glyph-name="uni091F093C094D0930" horiz-adv-x="552" 
d="M41 81q29 0 48.5 -19.5t19.5 -48.5q0 -28 -20 -47.5t-48 -19.5t-47.5 19.5t-19.5 47.5t19.5 48t47.5 20zM475 565v-196q-35 6 -86 6q-86 0 -133.5 -35t-47.5 -98q0 -61 45 -94.5t118 -33.5t145 41v-106q-37 -20 -78 -27l119 -153h-141l-85 128l-88 -128h-141l129 167
q-68 26 -105.5 80t-37.5 130q0 94 68.5 157.5t186.5 65.5h15v96h-378v95h599v-95h-104z" />
    <glyph glyph-name="uni0920093C094D0930" horiz-adv-x="616" 
d="M44 112q28 0 48 -20t20 -48t-20 -47.5t-48 -19.5t-47.5 19.5t-19.5 47.5t19.5 48t47.5 20zM456 265q0 54 -33.5 82t-91.5 29q-53 0 -88.5 -27.5t-35.5 -82.5q0 -52 35 -82.5t91 -30.5t89.5 31t33.5 81zM643 565h-231v-105q74 -18 118.5 -68t44.5 -127q0 -66 -36 -115.5
t-100 -72.5l127 -163h-142l-86 128l-87 -128h-141l124 159q-68 22 -107 72.5t-39 121.5q0 89 60 140t147 60v98h-323v95h671v-95z" />
    <glyph glyph-name="uni0921093C094D0930" horiz-adv-x="602" 
d="M30 39q28 0 48 -19.5t20 -48.5q0 -28 -20 -47.5t-48 -19.5t-47.5 19.5t-19.5 47.5t19.5 48t47.5 20zM494 565v-151v-2h-196q-27 0 -45.5 -11.5t-18.5 -36.5q0 -29 27 -40t80 -11q3 0 14.5 0.5t19.5 0.5h14q83 -4 122 -43.5t39 -103.5q-1 -51 -32 -91t-87 -59l126 -162
h-142l-86 128l-87 -128h-141l121 156q-55 12 -103 37v110q100 -61 207 -61q51 0 79 17.5t28 47.5q0 54 -80 55q-3 0 -23 -1t-24 -1q-79 1 -133.5 36t-54.5 110q0 72 52.5 108.5t126.5 36.5h80v59h-403v95h655v-95h-135z" />
    <glyph glyph-name="uni0922093C094D0930" horiz-adv-x="613" 
d="M48 75q28 0 48 -19.5t20 -48.5q0 -28 -20 -47.5t-48 -19.5t-47.5 19.5t-19.5 47.5t19.5 48t47.5 20zM501 565v-188q-55 10 -102 10q-84 0 -138 -35.5t-54 -104.5q0 -58 41 -98.5t105 -40.5q44 0 73 18.5t29 51.5q0 22 -17 35.5t-46 13.5q-43 0 -77 -22v86q46 22 99 22
q70 0 112 -36t42 -97q0 -53 -31.5 -92.5t-89.5 -58.5l125 -161h-141l-87 129l-86 -129h-142l127 164q-72 26 -113.5 83.5t-41.5 132.5q0 109 76 169t197 62h23v86h-412v95h667v-95h-138z" />
    <glyph glyph-name="uni0923093C094D0930" horiz-adv-x="760" 
d="M466 -51q28 0 48 -19.5t20 -48.5q0 -28 -20 -47.5t-48 -19.5t-47.5 19.5t-19.5 47.5t19.5 48t47.5 20zM314 365v200h-142v-200q0 -82 70 -82q72 0 72 82zM787 660v-95h-106v-565h-117v155l-215 -180h-172l387 321v269h-134v-191q0 -93 -50 -141.5t-140 -48.5
q-185 0 -185 188v193h-82v95h814z" />
    <glyph glyph-name="uni0924093C094D0930" horiz-adv-x="610" 
d="M271 -4q29 0 48.5 -20t19.5 -48t-20 -47.5t-48 -19.5t-47.5 19.5t-19.5 47.5t19.5 48t47.5 20zM637 660v-95h-106v-565h-118v205l-274 -169l-61 89l293 178q-57 76 -153 77q-83 0 -160 -47v107q65 41 164 41q119 0 191 -81v165h-440v95h664z" />
    <glyph glyph-name="uni0925093C094D0930" horiz-adv-x="662" 
d="M392 507q0 -150 -232 -215q29 -87 140 -87q66 0 116 39.5t50 121.5v294h223v-95h-106v-565h-117v174l-233 -219h-164l170 156q-87 16 -146.5 79.5t-67.5 166.5q136 33 196.5 66.5t60.5 86.5q0 27 -13 44t-39 17q-53 0 -53 -59q0 -27 12 -55h-113q-11 35 -11 66
q0 62 44 103.5t121 41.5q73 0 117.5 -43.5t44.5 -117.5zM303 -112q0 28 19.5 48t47.5 20t48 -20t20 -48t-20 -47.5t-48 -19.5t-47.5 19.5t-19.5 47.5z" />
    <glyph glyph-name="uni0926093C094D0930" horiz-adv-x="573" 
d="M-27 660h627v-95h-115v-172h-196q-59 0 -93 -31t-34 -84q0 -54 30 -84.5t80 -30.5q49 0 80.5 27.5t37.5 78.5h114v-279h-116v128l-173 -173h-152l133 129q-72 18 -113.5 72.5t-41.5 129.5q0 93 63 152t179 59h84v78h-394v95zM256 -125q0 28 19.5 48t47.5 20
q29 0 48.5 -19.5t19.5 -48.5q0 -28 -20 -47.5t-48 -19.5t-47.5 19.5t-19.5 47.5z" />
    <glyph glyph-name="uni0927093C094D0930" horiz-adv-x="645" 
d="M363 -51q29 0 48.5 -19.5t19.5 -48.5q0 -28 -20 -47.5t-48 -19.5t-47.5 19.5t-19.5 47.5t19.5 48t47.5 20zM672 660v-95h-106v-565h-116v154l-217 -199h-160l146 130q-74 9 -119.5 49.5t-45.5 103.5q0 54 39.5 88.5t106.5 38.5q-64 3 -100 31t-36 79q0 62 52 90h-143v95
h325v-95h-2q-55 0 -84.5 -21.5t-29.5 -60.5q0 -69 107 -69h44v-98h-52q-49 0 -79 -18.5t-30 -51.5q0 -34 28.5 -51t78.5 -17q77 0 124 42t47 112v328h222z" />
    <glyph glyph-name="uni0928093C094D0930" horiz-adv-x="538" 
d="M224 -15q28 0 48 -19.5t20 -48.5q0 -28 -20 -47.5t-48 -19.5t-47.5 19.5t-19.5 47.5t19.5 48t47.5 20zM-27 660h592v-95h-106v-565h-118v223l-171 -179h-146l317 319v1h-179q-19 0 -26.5 -9t-7.5 -34q0 -30 10 -70h-94q-32 55 -32 120q0 41 25.5 64.5t75.5 23.5h228v106
h-368v95z" />
    <glyph glyph-name="uni092A093C094D0930" horiz-adv-x="573" 
d="M266 -39q28 0 48 -19.5t20 -48.5q0 -28 -20 -47.5t-48 -19.5t-47.5 19.5t-19.5 47.5t19.5 48t47.5 20zM376 391v174h-190v-181q0 -55 21.5 -79.5t64.5 -24.5q45 0 74.5 29.5t29.5 81.5zM600 660v-95h-106v-565h-118v235l-205 -235h-150l171 195q-124 29 -124 193v177h-95
v95h627z" />
    <glyph glyph-name="uni092B093C094D0930" horiz-adv-x="830" 
d="M266 -39q28 0 48 -19.5t20 -48.5q0 -28 -20 -47.5t-48 -19.5t-47.5 19.5t-19.5 47.5t19.5 48t47.5 20zM376 391v174h-190v-181q0 -55 21.5 -79.5t64.5 -24.5q45 0 74.5 29.5t29.5 81.5zM857 565h-363v-112q46 43 118 43q84 0 133.5 -54t49.5 -135q0 -96 -59.5 -148
t-150.5 -52q-17 0 -24 2v95q5 -1 17 -1q47 0 73.5 26t26.5 77q0 41 -24 68.5t-63 27.5q-42 0 -69.5 -27t-27.5 -72v-303h-118v235l-205 -235h-150l171 195q-124 29 -124 193v177h-95v95h884v-95z" />
    <glyph glyph-name="uni092C093C094D0930" horiz-adv-x="629" 
d="M349 -48q29 0 48.5 -20t19.5 -48t-20 -47.5t-48 -19.5t-47.5 19.5t-19.5 47.5t19.5 48t47.5 20zM369 192l-186 166q-20 -29 -20 -71q0 -53 33.5 -85.5t86.5 -32.5q47 0 86 23zM656 660v-95h-106v-565h-117v145l-220 -210h-162l161 152q-71 16 -118.5 71t-47.5 132
q0 93 62.5 154t164.5 61q47 0 81 -9v-102q-32 11 -72 11q-32 0 -53 -10l184 -161q19 28 19 63l1 -1v269h-460v95h683z" />
    <glyph glyph-name="uni092D093C094D0930" horiz-adv-x="590" 
d="M321 -42q29 0 48.5 -20t19.5 -48t-20 -47.5t-48 -19.5t-47.5 19.5t-19.5 47.5t19.5 48t47.5 20zM396 660h221v-95h-106v-565h-115v130l-192 -170h-162l354 306v54h-169v-130h-102l-32 69q-27 57 -27 88q0 50 45 61v106q0 54 -46 54q-29 0 -55 -14v92q36 19 80 19
q137 0 137 -135v-116h169v246z" />
    <glyph glyph-name="uni092E093C094D0930" horiz-adv-x="598" 
d="M326 -42q28 0 48 -20t20 -48t-20 -47.5t-48 -19.5t-47.5 19.5t-19.5 47.5t19.5 48t47.5 20zM226 414h178v151h-178v-151zM-27 660h652v-95h-106v-565h-115v132l-195 -172h-165l360 314v38h-178v-126h-100l-32 71q-28 68 -28 91q0 49 44 60v157h-137v95z" />
    <glyph glyph-name="uni092F093C094D0930" horiz-adv-x="642" 
d="M446 183l-242 -228h-165l188 178q-73 19 -123 81t-62 162q159 25 159 106q0 51 -30 83h-198v95h696v-95h-106v-565h-117v183zM311 223q62 0 98.5 35t36.5 101v206h-152q23 -34 23 -88q0 -117 -138 -163q15 -44 49 -67.5t83 -23.5zM269 -113q0 28 19.5 48t47.5 20
t48 -19.5t20 -48.5q0 -28 -20 -47.5t-48 -19.5t-47.5 19.5t-19.5 47.5z" />
    <glyph glyph-name="uni0935093C094D0930" horiz-adv-x="601" 
d="M337 -48q29 0 48.5 -20t19.5 -48t-20 -47.5t-48 -19.5t-47.5 19.5t-19.5 47.5t19.5 48t47.5 20zM628 660v-95h-106v-565h-117v147l-204 -212h-158l161 161q-68 14 -111.5 64.5t-43.5 127.5q0 88 59 146.5t154 58.5q39 0 68 -8v-102q-34 9 -59 9q-44 0 -73.5 -28
t-29.5 -73q0 -51 29.5 -80t81.5 -29q51 0 88.5 34.5t37.5 82.5v266h-432v95h655z" />
    <glyph glyph-name="uni0915094D0930094D" horiz-adv-x="565" 
d="M469 565v-123q46 43 110 43q91 0 144 -58l-83 -85q-22 49 -81 49q-38 0 -64 -27.5t-26 -70.5v-293h-118v130l-150 -175h-140l127 139q-64 14 -102 63.5t-38 118.5q0 91 60.5 145t152.5 54q15 0 23 -1v-95q-6 1 -18 1q-45 0 -72.5 -28.5t-27.5 -73.5q0 -42 25.5 -70
t68.5 -28q39 0 65 27.5t26 70.5v287h-378v95h619v-95h-123z" />
    <glyph glyph-name="uni0916094D0930094D" horiz-adv-x="587" 
d="M535 308v-82q-25 -9 -52 -9q-59 0 -99 37.5t-40 98.5q0 64 48.5 105.5t119.5 41.5q100 0 154 -51.5t54 -134.5q0 -63 -32 -113.5t-92 -98.5l-264 -211h-175l196 156q-217 24 -303 255v93h67q40 0 53 16.5t13 60.5v93h-210v95h641v-95h-314v-115q0 -66 -24 -101t-81 -44
l-10 -1q22 -74 83.5 -116.5t143.5 -42.5q86 0 145 40t59 117q0 50 -24 80t-68 30q-32 0 -51.5 -16.5t-19.5 -42.5q0 -23 14.5 -37t39.5 -14q13 0 28 6z" />
    <glyph glyph-name="uni0917094D0930094D" horiz-adv-x="376" 
d="M146 354v211h-173v95h430v-95h-140v-221q0 -69 -37.5 -104t-100.5 -35q-44 0 -83 14v95q25 -13 54 -13q50 0 50 53zM460 351l53 -97l-319 -274h-158z" />
    <glyph glyph-name="uni0918094D0930094D" horiz-adv-x="391" 
d="M490 344l63 -109l-327 -280h-157l147 130q-70 7 -116 48t-46 107q0 57 38 92.5t103 43.5q-59 2 -94.5 30.5t-35.5 78.5q0 46 34 80h-126v95h445v-95h-195q-40 -29 -40 -71q0 -68 102 -68h44v-99h-53q-48 0 -76 -21t-28 -57t29 -54.5t73 -18.5q51 0 96.5 28.5t72.5 63
t47 76.5z" />
    <glyph glyph-name="uni091A094D0930094D" horiz-adv-x="418" 
d="M445 660v-95h-472v95h472zM491 325l56 -79l-316 -291h-156l157 145q-63 8 -104.5 51.5t-41.5 104.5q0 79 63 114h-124v97h352v-97q-178 0 -178 -100q0 -39 27.5 -60t74.5 -21q53 0 103 37.5t87 98.5z" />
    <glyph glyph-name="uni091C094D0930094D" horiz-adv-x="482" 
d="M509 660v-95h-536v95h536zM100 -100l438 376l65 -74l-351 -302h-152zM93 459h536v-97h-331q62 -37 62 -112q0 -70 -57 -116t-144 -46q-70 0 -126 22v104q49 -26 105 -26q110 0 110 80q0 94 -155 94v97z" />
    <glyph glyph-name="uni091D094D0930094D" horiz-adv-x="620" 
d="M723 247l61 -76l-313 -292h-157l392 359h-239q13 -29 13 -68q0 -72 -49.5 -117.5t-130.5 -45.5q-72 0 -128 37v-94h-116v236h107l1 -5q17 -38 51 -61t73 -23q35 0 55.5 17.5t20.5 49.5q0 63 -99 66q-197 4 -197 135q0 72 52 108.5t135 36.5h75v55h-357v95h674v-95h-200
v-150l-7 1v-1h-179q-74 0 -74 -45q0 -22 20 -30.5t63 -10.5h453v-82z" />
    <glyph glyph-name="uni091E094D0930094D" horiz-adv-x="515" 
d="M543 660v-95h-570v95h570zM577 270l55 -76l-340 -294h-159l430 358h-163q-14 -72 -74.5 -119t-146.5 -47q-95 0 -156 36v107q72 -43 147 -43q57 0 86.5 28t29.5 78q0 46 -27.5 71t-75.5 25q-44 0 -86 -17v99q38 15 94 15q83 0 137 -35.5t70 -102.5h179v-83z" />
    <glyph glyph-name="uni091F094D0930094D" horiz-adv-x="514" 
d="M236 -197h119l143 -172h-141zM436 565v-196q-34 6 -86 6q-86 0 -133.5 -35t-47.5 -98q0 -61 45 -94.5t119 -33.5t144 41v-106q-37 -20 -77 -27l119 -153h-142l-85 128l-87 -128h-142l130 167q-68 26 -105.5 80t-37.5 130q0 94 68.5 157.5t185.5 65.5h15v96h-346v95h568
v-95h-105z" />
    <glyph glyph-name="uni0920094D0930094D" horiz-adv-x="571" 
d="M239 -152h119l143 -172h-141zM410 265q0 54 -33.5 82t-90.5 29q-53 0 -89 -27.5t-36 -82.5q0 -52 35.5 -82.5t91.5 -30.5t89 30.5t33 81.5zM598 565h-231v-105q74 -19 118 -69t44 -126q0 -67 -35.5 -116t-100.5 -72l127 -163h-141l-87 128l-86 -128h-142l124 160
q-67 21 -106 71.5t-39 121.5q0 89 59.5 140t147.5 60v98h-277v95h625v-95z" />
    <glyph glyph-name="uni0921094D0930094D" horiz-adv-x="532" 
d="M202 -211h119l143 -172h-141zM424 565v-151v-2h-196q-27 0 -45.5 -11.5t-18.5 -36.5q0 -29 27 -40t80 -11q3 0 14.5 0.5t19.5 0.5h14q83 -4 122 -43.5t39 -103.5q-1 -51 -32 -91t-87 -59l126 -162h-142l-86 128l-87 -128h-141l121 156q-55 12 -103 37v110
q100 -61 207 -61q51 0 79 17.5t28 47.5q0 54 -80 55q-3 0 -23 -1t-24 -1q-79 1 -133.5 36t-54.5 110q0 72 52.5 108.5t126.5 36.5h80v59h-334v95h586v-95h-135z" />
    <glyph glyph-name="uni0922094D0930094D" horiz-adv-x="564" 
d="M242 -198h119l143 -172h-141zM452 565v-188q-55 10 -102 10q-84 0 -138 -35.5t-54 -104.5q0 -58 41 -98.5t105 -40.5q44 0 73 18.5t29 51.5q0 22 -17 35.5t-46 13.5q-43 0 -77 -22v86q46 22 99 22q70 0 112 -36t42 -97q0 -53 -31.5 -92.5t-89.5 -58.5l125 -161h-141
l-87 129l-86 -129h-142l127 164q-72 26 -113.5 83.5t-41.5 132.5q0 109 76 169t197 62h23v86h-362v95h617v-95h-138z" />
    <glyph glyph-name="uni0923094D0930094D" horiz-adv-x="491" 
d="M162 565v-200q0 -82 70 -82q72 0 72 82v200h-142zM420 565v-191q0 -93 -50 -141.5t-140 -48.5q-185 0 -185 188v193h-82v95h555v-95h-98zM604 337l38 -110l-303 -252h-172z" />
    <glyph glyph-name="uni0924094D0930094D" horiz-adv-x="396" 
d="M423 660v-95h-450v95h450zM485 252h-1l1 -2l-346 -214l-61 89l288 175q-54 79 -148 80q-83 0 -160 -47v107q65 41 164 41q101 0 170 -59.5t93 -169.5z" />
    <glyph glyph-name="uni0925094D0930094D" horiz-adv-x="452" 
d="M392 507q0 -150 -232 -215q29 -87 140 -87q133 0 225 153l73 -80l-362 -323h-158l171 156q-88 9 -152 75.5t-72 170.5q136 33 196.5 66.5t60.5 86.5q0 27 -13 44t-39 17q-53 0 -53 -59q0 -27 12 -55h-113q-11 35 -11 66q0 62 44 103.5t121 41.5q73 0 117.5 -43.5
t44.5 -117.5z" />
    <glyph glyph-name="uni0926094D0930094D" horiz-adv-x="573" 
d="M532 -293h-141l-121 172h119zM-27 660h627v-95h-115v-172h-196q-59 0 -93 -31t-34 -84q0 -54 30 -84.5t80 -30.5q49 0 80.5 27.5t37.5 78.5h114v-279h-116v128l-173 -173h-152l133 129q-72 18 -113.5 72.5t-41.5 129.5q0 93 63 152t179 59h84v78h-394v95z" />
    <glyph glyph-name="uni0927094D0930094D" horiz-adv-x="448" 
d="M506 331l78 -66l-336 -310h-161l151 130q-79 1 -131.5 43t-52.5 110q0 54 39.5 88.5t106.5 38.5q-64 3 -100 31t-36 79q0 62 52 90h-143v95h325v-95h-2q-55 0 -84.5 -21.5t-29.5 -60.5q0 -69 107 -69h44v-98h-52q-49 0 -79 -18.5t-30 -51.5q0 -34 28.5 -51t78.5 -17
q144 0 227 153z" />
    <glyph glyph-name="uni0928094D0930094D" horiz-adv-x="319" 
d="M346 660v-95h-373v95h373zM460 383l24 -36l-314 -303h-146l339 320h-201q-19 0 -26.5 -9t-7.5 -34q0 -30 10 -70h-94q-32 55 -32 120q0 41 25.5 64.5t75.5 23.5h347v-76z" />
    <glyph glyph-name="uni092A094D0930094D" horiz-adv-x="328" 
d="M404 387l56 -62l-289 -325h-150l175 195q-128 24 -128 193v177h-95v95h382v-95h-169v-181q0 -55 21.5 -79.5t64.5 -24.5q77 0 132 107z" />
    <glyph glyph-name="uni092B094D0930094D" horiz-adv-x="611" 
d="M186 565v-181q0 -55 21.5 -79.5t64.5 -24.5q45 0 74.5 29.5t29.5 81.5v174h-190zM494 565v-113q46 44 119 44q122 0 176 -112l-91 -62q-12 36 -39 58t-65 22q-43 0 -71.5 -27t-28.5 -72v-303h-118v235l-205 -235h-150l171 195q-124 29 -124 193v177h-95v95h665v-95h-144z
" />
    <glyph glyph-name="uni092C094D0930094D" horiz-adv-x="376" 
d="M403 660v-95h-430v95h430zM369 193l-186 165q-20 -29 -20 -71q0 -53 33.5 -85.5t86.5 -32.5q49 0 86 24zM452 294l67 -71l-306 -288h-162l164 152q-72 14 -120.5 69.5t-48.5 133.5q0 93 62.5 154t164.5 61q47 0 81 -9v-102q-32 11 -72 11q-32 0 -53 -10l184 -161
q19 24 39 60z" />
    <glyph glyph-name="uni092D094D0930094D" horiz-adv-x="388" 
d="M227 414h317v-94l-319 -360h-155l343 360h-186v-130h-102l-32 69q-27 57 -27 88q0 50 45 61v106q0 54 -46 54q-29 0 -55 -14v92q36 19 80 19q137 0 137 -135v-116z" />
    <glyph glyph-name="uni092E094D0930094D" horiz-adv-x="411" 
d="M226 414h325v-102l-307 -352h-156l324 352h-186v-126h-100l-32 71q-28 68 -28 91q0 49 44 60v157h-137v95h465v-95h-212v-151z" />
    <glyph glyph-name="uni092F094D0930094D" horiz-adv-x="386" 
d="M413 565h-119q23 -34 23 -88q0 -117 -138 -163q15 -44 49 -67.5t83 -23.5q89 0 164 115l57 -72l-328 -311h-165l188 178q-73 19 -123 81t-62 162q159 25 159 106q0 51 -30 83h-198v95h440v-95z" />
    <glyph glyph-name="uni0935094D0930094D" horiz-adv-x="369" 
d="M330 485v-102q-34 9 -59 9q-44 0 -73.5 -28t-29.5 -73q0 -51 29.5 -80t81.5 -29q53 0 93.5 32.5t78.5 96.5l62 -73l-303 -303h-157l161 161q-70 9 -117.5 60t-47.5 132q0 88 59 146.5t154 58.5q39 0 68 -8zM396 565h-423v95h423v-95z" />
    <glyph glyph-name="uni0938094D0930094D" horiz-adv-x="547" 
d="M312 565v-125v-5q59 24 117 24q81 0 131.5 -31.5t89.5 -87.5l-53 -68l-3 4l-135 -161h-141l203 224q-42 24 -92 24q-74 0 -176 -56q-30 -22 -76 -30q-8 0 -10 -1l169 -276h-134l-170 274v84h69q94 0 94 84v123h-222v95h845v-95h-506z" />
    <glyph glyph-name="uni0915093C094D0930094D" horiz-adv-x="565" 
d="M304 -63q28 0 48 -19.5t20 -48.5q0 -28 -20 -47.5t-48 -19.5t-47.5 19.5t-19.5 47.5t19.5 48t47.5 20zM469 565v-123q46 43 110 43q91 0 144 -58l-83 -85q-22 49 -81 49q-38 0 -64 -27.5t-26 -70.5v-293h-118v130l-150 -175h-140l127 139q-64 14 -102 63.5t-38 118.5
q0 91 60.5 145t152.5 54q15 0 23 -1v-95q-6 1 -18 1q-45 0 -72.5 -28.5t-27.5 -73.5q0 -42 25.5 -70t68.5 -28q39 0 65 27.5t26 70.5v287h-378v95h619v-95h-123z" />
    <glyph glyph-name="uni0916093C094D0930094D" horiz-adv-x="587" 
d="M560 -49q28 0 48 -19.5t20 -48.5q0 -28 -20 -47.5t-48 -19.5t-47.5 19.5t-19.5 47.5t19.5 48t47.5 20zM535 308v-82q-25 -9 -52 -9q-59 0 -99 37.5t-40 98.5q0 64 48.5 105.5t119.5 41.5q100 0 154 -51.5t54 -134.5q0 -63 -32 -113.5t-92 -98.5l-264 -211h-175l196 156
q-217 24 -303 255v93h67q40 0 53 16.5t13 60.5v93h-210v95h641v-95h-314v-115q0 -66 -24 -101t-81 -44l-10 -1q22 -74 83.5 -116.5t143.5 -42.5q86 0 145 40t59 117q0 50 -24 80t-68 30q-32 0 -51.5 -16.5t-19.5 -42.5q0 -23 14.5 -37t39.5 -14q13 0 28 6z" />
    <glyph glyph-name="uni0917093C094D0930094D" horiz-adv-x="376" 
d="M146 354v211h-173v95h430v-95h-140v-221q0 -69 -37.5 -104t-100.5 -35q-44 0 -83 14v95q25 -13 54 -13q50 0 50 53zM460 351l53 -97l-319 -274h-158zM411 34q29 0 48.5 -20t19.5 -48t-20 -47.5t-48 -19.5t-47.5 19.5t-19.5 47.5t19.5 48t47.5 20z" />
    </font>
</defs>
</svg>
